<mxfile host="app.diagrams.net" agent="Mozilla/5.0 (Macintosh; Intel Mac OS X 10.15; rv:131.0) Gecko/20100101 Firefox/131.0" version="24.8.6">
  <diagram name="Page-1" id="qT4ehJSb8JvAcf5rCi-n">
    <mxGraphModel dx="3681" dy="1694" grid="1" gridSize="10" guides="1" tooltips="1" connect="1" arrows="1" fold="1" page="1" pageScale="1" pageWidth="1100" pageHeight="850" math="0" shadow="0">
      <root>
        <mxCell id="0" />
        <mxCell id="1" parent="0" />
        <mxCell id="F2ghaZuJ-phgNiPlRmCp-5" value="" style="edgeStyle=orthogonalEdgeStyle;rounded=0;orthogonalLoop=1;jettySize=auto;html=1;" edge="1" parent="1" source="F2ghaZuJ-phgNiPlRmCp-1" target="F2ghaZuJ-phgNiPlRmCp-4">
          <mxGeometry relative="1" as="geometry" />
        </mxCell>
        <mxCell id="F2ghaZuJ-phgNiPlRmCp-1" value="&lt;font data-font-src=&quot;https://fonts.googleapis.com/css?family=Rubik&quot; face=&quot;Rubik&quot; style=&quot;font-size: 15px;&quot;&gt;Azure Identity and Access Management (IAM)&lt;/font&gt;" style="rounded=1;whiteSpace=wrap;html=1;" vertex="1" parent="1">
          <mxGeometry x="480" y="360" width="160" height="80" as="geometry" />
        </mxCell>
        <mxCell id="F2ghaZuJ-phgNiPlRmCp-2" value="" style="shape=image;verticalLabelPosition=bottom;labelBackgroundColor=default;verticalAlign=top;aspect=fixed;imageAspect=0;image=https://learn.microsoft.com/en-us/entra/fundamentals/media/what-is-entra/entra-product-family.png;" vertex="1" parent="1">
          <mxGeometry y="-320" width="711.09" height="400" as="geometry" />
        </mxCell>
        <mxCell id="F2ghaZuJ-phgNiPlRmCp-8" style="edgeStyle=orthogonalEdgeStyle;rounded=0;orthogonalLoop=1;jettySize=auto;html=1;" edge="1" parent="1" source="F2ghaZuJ-phgNiPlRmCp-4" target="F2ghaZuJ-phgNiPlRmCp-6">
          <mxGeometry relative="1" as="geometry" />
        </mxCell>
        <mxCell id="F2ghaZuJ-phgNiPlRmCp-30" value="" style="edgeStyle=orthogonalEdgeStyle;rounded=0;orthogonalLoop=1;jettySize=auto;html=1;" edge="1" parent="1" source="F2ghaZuJ-phgNiPlRmCp-4" target="F2ghaZuJ-phgNiPlRmCp-29">
          <mxGeometry relative="1" as="geometry" />
        </mxCell>
        <mxCell id="F2ghaZuJ-phgNiPlRmCp-45" value="" style="edgeStyle=orthogonalEdgeStyle;rounded=0;orthogonalLoop=1;jettySize=auto;html=1;" edge="1" parent="1" source="F2ghaZuJ-phgNiPlRmCp-4" target="F2ghaZuJ-phgNiPlRmCp-44">
          <mxGeometry relative="1" as="geometry" />
        </mxCell>
        <mxCell id="F2ghaZuJ-phgNiPlRmCp-59" value="" style="edgeStyle=orthogonalEdgeStyle;rounded=0;orthogonalLoop=1;jettySize=auto;html=1;" edge="1" parent="1" source="F2ghaZuJ-phgNiPlRmCp-4" target="F2ghaZuJ-phgNiPlRmCp-58">
          <mxGeometry relative="1" as="geometry" />
        </mxCell>
        <mxCell id="F2ghaZuJ-phgNiPlRmCp-72" value="" style="edgeStyle=orthogonalEdgeStyle;rounded=0;orthogonalLoop=1;jettySize=auto;html=1;" edge="1" parent="1" source="F2ghaZuJ-phgNiPlRmCp-4" target="F2ghaZuJ-phgNiPlRmCp-71">
          <mxGeometry relative="1" as="geometry" />
        </mxCell>
        <mxCell id="F2ghaZuJ-phgNiPlRmCp-4" value="&lt;font style=&quot;font-size: 16px;&quot;&gt;Entra ID&lt;/font&gt;" style="whiteSpace=wrap;html=1;rounded=1;" vertex="1" parent="1">
          <mxGeometry x="500" y="600" width="120" height="40" as="geometry" />
        </mxCell>
        <mxCell id="F2ghaZuJ-phgNiPlRmCp-28" value="" style="group" vertex="1" connectable="0" parent="1">
          <mxGeometry x="-1920" y="760" width="920" height="360" as="geometry" />
        </mxCell>
        <mxCell id="F2ghaZuJ-phgNiPlRmCp-19" style="edgeStyle=orthogonalEdgeStyle;rounded=0;orthogonalLoop=1;jettySize=auto;html=1;entryX=0.5;entryY=0;entryDx=0;entryDy=0;" edge="1" parent="F2ghaZuJ-phgNiPlRmCp-28" source="F2ghaZuJ-phgNiPlRmCp-6" target="F2ghaZuJ-phgNiPlRmCp-16">
          <mxGeometry relative="1" as="geometry" />
        </mxCell>
        <mxCell id="F2ghaZuJ-phgNiPlRmCp-20" style="edgeStyle=orthogonalEdgeStyle;rounded=0;orthogonalLoop=1;jettySize=auto;html=1;entryX=0.5;entryY=0;entryDx=0;entryDy=0;" edge="1" parent="F2ghaZuJ-phgNiPlRmCp-28" source="F2ghaZuJ-phgNiPlRmCp-6" target="F2ghaZuJ-phgNiPlRmCp-17">
          <mxGeometry relative="1" as="geometry" />
        </mxCell>
        <mxCell id="F2ghaZuJ-phgNiPlRmCp-21" style="edgeStyle=orthogonalEdgeStyle;rounded=0;orthogonalLoop=1;jettySize=auto;html=1;entryX=0.5;entryY=0;entryDx=0;entryDy=0;" edge="1" parent="F2ghaZuJ-phgNiPlRmCp-28" source="F2ghaZuJ-phgNiPlRmCp-6" target="F2ghaZuJ-phgNiPlRmCp-18">
          <mxGeometry relative="1" as="geometry" />
        </mxCell>
        <mxCell id="F2ghaZuJ-phgNiPlRmCp-6" value="Entra ID Tenant" style="ellipse;whiteSpace=wrap;html=1;rounded=1;" vertex="1" parent="F2ghaZuJ-phgNiPlRmCp-28">
          <mxGeometry x="420" width="80" height="80" as="geometry" />
        </mxCell>
        <mxCell id="F2ghaZuJ-phgNiPlRmCp-9" value="User Identities" style="whiteSpace=wrap;html=1;rounded=1;" vertex="1" parent="F2ghaZuJ-phgNiPlRmCp-28">
          <mxGeometry y="320" width="120" height="40" as="geometry" />
        </mxCell>
        <mxCell id="F2ghaZuJ-phgNiPlRmCp-11" value="Application Identities" style="whiteSpace=wrap;html=1;rounded=1;" vertex="1" parent="F2ghaZuJ-phgNiPlRmCp-28">
          <mxGeometry x="160" y="320" width="120" height="40" as="geometry" />
        </mxCell>
        <mxCell id="F2ghaZuJ-phgNiPlRmCp-12" value="Managed Identities" style="whiteSpace=wrap;html=1;rounded=1;" vertex="1" parent="F2ghaZuJ-phgNiPlRmCp-28">
          <mxGeometry x="320" y="320" width="120" height="40" as="geometry" />
        </mxCell>
        <mxCell id="F2ghaZuJ-phgNiPlRmCp-13" value="Groups" style="whiteSpace=wrap;html=1;rounded=1;" vertex="1" parent="F2ghaZuJ-phgNiPlRmCp-28">
          <mxGeometry x="480" y="320" width="120" height="40" as="geometry" />
        </mxCell>
        <mxCell id="F2ghaZuJ-phgNiPlRmCp-14" value="Dynamic Groups" style="whiteSpace=wrap;html=1;rounded=1;" vertex="1" parent="F2ghaZuJ-phgNiPlRmCp-28">
          <mxGeometry x="640" y="320" width="120" height="40" as="geometry" />
        </mxCell>
        <mxCell id="F2ghaZuJ-phgNiPlRmCp-15" value="Administrative Units" style="whiteSpace=wrap;html=1;rounded=1;" vertex="1" parent="F2ghaZuJ-phgNiPlRmCp-28">
          <mxGeometry x="800" y="320" width="120" height="40" as="geometry" />
        </mxCell>
        <mxCell id="F2ghaZuJ-phgNiPlRmCp-22" style="edgeStyle=orthogonalEdgeStyle;rounded=0;orthogonalLoop=1;jettySize=auto;html=1;" edge="1" parent="F2ghaZuJ-phgNiPlRmCp-28" source="F2ghaZuJ-phgNiPlRmCp-16" target="F2ghaZuJ-phgNiPlRmCp-11">
          <mxGeometry relative="1" as="geometry" />
        </mxCell>
        <mxCell id="F2ghaZuJ-phgNiPlRmCp-23" style="edgeStyle=orthogonalEdgeStyle;rounded=0;orthogonalLoop=1;jettySize=auto;html=1;" edge="1" parent="F2ghaZuJ-phgNiPlRmCp-28" source="F2ghaZuJ-phgNiPlRmCp-16" target="F2ghaZuJ-phgNiPlRmCp-9">
          <mxGeometry relative="1" as="geometry" />
        </mxCell>
        <mxCell id="F2ghaZuJ-phgNiPlRmCp-24" style="edgeStyle=orthogonalEdgeStyle;rounded=0;orthogonalLoop=1;jettySize=auto;html=1;" edge="1" parent="F2ghaZuJ-phgNiPlRmCp-28" source="F2ghaZuJ-phgNiPlRmCp-16" target="F2ghaZuJ-phgNiPlRmCp-12">
          <mxGeometry relative="1" as="geometry" />
        </mxCell>
        <mxCell id="F2ghaZuJ-phgNiPlRmCp-16" value="Identities" style="whiteSpace=wrap;html=1;" vertex="1" parent="F2ghaZuJ-phgNiPlRmCp-28">
          <mxGeometry x="180" y="200" width="80" height="40" as="geometry" />
        </mxCell>
        <mxCell id="F2ghaZuJ-phgNiPlRmCp-25" style="edgeStyle=orthogonalEdgeStyle;rounded=0;orthogonalLoop=1;jettySize=auto;html=1;" edge="1" parent="F2ghaZuJ-phgNiPlRmCp-28" source="F2ghaZuJ-phgNiPlRmCp-17" target="F2ghaZuJ-phgNiPlRmCp-13">
          <mxGeometry relative="1" as="geometry" />
        </mxCell>
        <mxCell id="F2ghaZuJ-phgNiPlRmCp-26" style="edgeStyle=orthogonalEdgeStyle;rounded=0;orthogonalLoop=1;jettySize=auto;html=1;" edge="1" parent="F2ghaZuJ-phgNiPlRmCp-28" source="F2ghaZuJ-phgNiPlRmCp-17" target="F2ghaZuJ-phgNiPlRmCp-14">
          <mxGeometry relative="1" as="geometry" />
        </mxCell>
        <mxCell id="F2ghaZuJ-phgNiPlRmCp-17" value="Groups" style="whiteSpace=wrap;html=1;" vertex="1" parent="F2ghaZuJ-phgNiPlRmCp-28">
          <mxGeometry x="580" y="200" width="80" height="40" as="geometry" />
        </mxCell>
        <mxCell id="F2ghaZuJ-phgNiPlRmCp-27" style="edgeStyle=orthogonalEdgeStyle;rounded=0;orthogonalLoop=1;jettySize=auto;html=1;" edge="1" parent="F2ghaZuJ-phgNiPlRmCp-28" source="F2ghaZuJ-phgNiPlRmCp-18" target="F2ghaZuJ-phgNiPlRmCp-15">
          <mxGeometry relative="1" as="geometry" />
        </mxCell>
        <mxCell id="F2ghaZuJ-phgNiPlRmCp-18" value="Units" style="whiteSpace=wrap;html=1;" vertex="1" parent="F2ghaZuJ-phgNiPlRmCp-28">
          <mxGeometry x="820" y="200" width="80" height="40" as="geometry" />
        </mxCell>
        <mxCell id="F2ghaZuJ-phgNiPlRmCp-43" value="" style="group" vertex="1" connectable="0" parent="1">
          <mxGeometry x="1800" y="760" width="760" height="240" as="geometry" />
        </mxCell>
        <mxCell id="F2ghaZuJ-phgNiPlRmCp-38" style="edgeStyle=orthogonalEdgeStyle;rounded=0;orthogonalLoop=1;jettySize=auto;html=1;" edge="1" parent="F2ghaZuJ-phgNiPlRmCp-43" source="F2ghaZuJ-phgNiPlRmCp-29" target="F2ghaZuJ-phgNiPlRmCp-33">
          <mxGeometry relative="1" as="geometry" />
        </mxCell>
        <mxCell id="F2ghaZuJ-phgNiPlRmCp-39" style="edgeStyle=orthogonalEdgeStyle;rounded=0;orthogonalLoop=1;jettySize=auto;html=1;" edge="1" parent="F2ghaZuJ-phgNiPlRmCp-43" source="F2ghaZuJ-phgNiPlRmCp-29" target="F2ghaZuJ-phgNiPlRmCp-35">
          <mxGeometry relative="1" as="geometry" />
        </mxCell>
        <mxCell id="F2ghaZuJ-phgNiPlRmCp-40" style="edgeStyle=orthogonalEdgeStyle;rounded=0;orthogonalLoop=1;jettySize=auto;html=1;entryX=0.5;entryY=0;entryDx=0;entryDy=0;" edge="1" parent="F2ghaZuJ-phgNiPlRmCp-43" source="F2ghaZuJ-phgNiPlRmCp-29" target="F2ghaZuJ-phgNiPlRmCp-34">
          <mxGeometry relative="1" as="geometry" />
        </mxCell>
        <mxCell id="F2ghaZuJ-phgNiPlRmCp-41" style="edgeStyle=orthogonalEdgeStyle;rounded=0;orthogonalLoop=1;jettySize=auto;html=1;" edge="1" parent="F2ghaZuJ-phgNiPlRmCp-43" source="F2ghaZuJ-phgNiPlRmCp-29" target="F2ghaZuJ-phgNiPlRmCp-36">
          <mxGeometry relative="1" as="geometry" />
        </mxCell>
        <mxCell id="F2ghaZuJ-phgNiPlRmCp-42" style="edgeStyle=orthogonalEdgeStyle;rounded=0;orthogonalLoop=1;jettySize=auto;html=1;" edge="1" parent="F2ghaZuJ-phgNiPlRmCp-43" source="F2ghaZuJ-phgNiPlRmCp-29" target="F2ghaZuJ-phgNiPlRmCp-37">
          <mxGeometry relative="1" as="geometry" />
        </mxCell>
        <mxCell id="F2ghaZuJ-phgNiPlRmCp-29" value="Entra ID Governance" style="ellipse;whiteSpace=wrap;html=1;rounded=1;" vertex="1" parent="F2ghaZuJ-phgNiPlRmCp-43">
          <mxGeometry x="340" width="80" height="80" as="geometry" />
        </mxCell>
        <mxCell id="F2ghaZuJ-phgNiPlRmCp-33" value="Entitlement Management" style="rounded=0;whiteSpace=wrap;html=1;" vertex="1" parent="F2ghaZuJ-phgNiPlRmCp-43">
          <mxGeometry y="200" width="120" height="40" as="geometry" />
        </mxCell>
        <mxCell id="F2ghaZuJ-phgNiPlRmCp-34" value="Privileged Identity Management" style="rounded=0;whiteSpace=wrap;html=1;" vertex="1" parent="F2ghaZuJ-phgNiPlRmCp-43">
          <mxGeometry x="160" y="200" width="120" height="40" as="geometry" />
        </mxCell>
        <mxCell id="F2ghaZuJ-phgNiPlRmCp-35" value="Access Reviews" style="rounded=0;whiteSpace=wrap;html=1;" vertex="1" parent="F2ghaZuJ-phgNiPlRmCp-43">
          <mxGeometry x="320" y="200" width="120" height="40" as="geometry" />
        </mxCell>
        <mxCell id="F2ghaZuJ-phgNiPlRmCp-36" value="Lifecycle Workflows" style="rounded=0;whiteSpace=wrap;html=1;" vertex="1" parent="F2ghaZuJ-phgNiPlRmCp-43">
          <mxGeometry x="480" y="200" width="120" height="40" as="geometry" />
        </mxCell>
        <mxCell id="F2ghaZuJ-phgNiPlRmCp-37" value="Terms of Use" style="rounded=0;whiteSpace=wrap;html=1;" vertex="1" parent="F2ghaZuJ-phgNiPlRmCp-43">
          <mxGeometry x="640" y="200" width="120" height="40" as="geometry" />
        </mxCell>
        <mxCell id="F2ghaZuJ-phgNiPlRmCp-57" value="" style="group" vertex="1" connectable="0" parent="1">
          <mxGeometry x="1120" y="760" width="600" height="240" as="geometry" />
        </mxCell>
        <mxCell id="F2ghaZuJ-phgNiPlRmCp-51" value="" style="edgeStyle=orthogonalEdgeStyle;rounded=0;orthogonalLoop=1;jettySize=auto;html=1;" edge="1" parent="F2ghaZuJ-phgNiPlRmCp-57" source="F2ghaZuJ-phgNiPlRmCp-44" target="F2ghaZuJ-phgNiPlRmCp-50">
          <mxGeometry relative="1" as="geometry" />
        </mxCell>
        <mxCell id="F2ghaZuJ-phgNiPlRmCp-54" style="edgeStyle=orthogonalEdgeStyle;rounded=0;orthogonalLoop=1;jettySize=auto;html=1;entryX=0.5;entryY=0;entryDx=0;entryDy=0;" edge="1" parent="F2ghaZuJ-phgNiPlRmCp-57" source="F2ghaZuJ-phgNiPlRmCp-44" target="F2ghaZuJ-phgNiPlRmCp-52">
          <mxGeometry relative="1" as="geometry" />
        </mxCell>
        <mxCell id="F2ghaZuJ-phgNiPlRmCp-56" style="edgeStyle=orthogonalEdgeStyle;rounded=0;orthogonalLoop=1;jettySize=auto;html=1;entryX=0.5;entryY=0;entryDx=0;entryDy=0;" edge="1" parent="F2ghaZuJ-phgNiPlRmCp-57" source="F2ghaZuJ-phgNiPlRmCp-44" target="F2ghaZuJ-phgNiPlRmCp-53">
          <mxGeometry relative="1" as="geometry" />
        </mxCell>
        <mxCell id="F2ghaZuJ-phgNiPlRmCp-44" value="Security &amp;amp; Protection" style="ellipse;whiteSpace=wrap;html=1;rounded=1;" vertex="1" parent="F2ghaZuJ-phgNiPlRmCp-57">
          <mxGeometry x="260" width="80" height="80" as="geometry" />
        </mxCell>
        <mxCell id="F2ghaZuJ-phgNiPlRmCp-50" value="Entra ID Protection" style="rounded=0;whiteSpace=wrap;html=1;" vertex="1" parent="F2ghaZuJ-phgNiPlRmCp-57">
          <mxGeometry y="200" width="120" height="40" as="geometry" />
        </mxCell>
        <mxCell id="F2ghaZuJ-phgNiPlRmCp-52" value="Entra ID Conditional Access" style="rounded=0;whiteSpace=wrap;html=1;" vertex="1" parent="F2ghaZuJ-phgNiPlRmCp-57">
          <mxGeometry x="240" y="200" width="120" height="40" as="geometry" />
        </mxCell>
        <mxCell id="F2ghaZuJ-phgNiPlRmCp-53" value="Entra ID Self Service Password Reset" style="rounded=0;whiteSpace=wrap;html=1;" vertex="1" parent="F2ghaZuJ-phgNiPlRmCp-57">
          <mxGeometry x="480" y="200" width="120" height="40" as="geometry" />
        </mxCell>
        <mxCell id="F2ghaZuJ-phgNiPlRmCp-70" value="" style="group" vertex="1" connectable="0" parent="1">
          <mxGeometry x="400" y="760" width="640" height="240" as="geometry" />
        </mxCell>
        <mxCell id="F2ghaZuJ-phgNiPlRmCp-63" value="" style="edgeStyle=orthogonalEdgeStyle;rounded=0;orthogonalLoop=1;jettySize=auto;html=1;" edge="1" parent="F2ghaZuJ-phgNiPlRmCp-70" source="F2ghaZuJ-phgNiPlRmCp-58" target="F2ghaZuJ-phgNiPlRmCp-62">
          <mxGeometry relative="1" as="geometry" />
        </mxCell>
        <mxCell id="F2ghaZuJ-phgNiPlRmCp-66" value="" style="edgeStyle=orthogonalEdgeStyle;rounded=0;orthogonalLoop=1;jettySize=auto;html=1;" edge="1" parent="F2ghaZuJ-phgNiPlRmCp-70" source="F2ghaZuJ-phgNiPlRmCp-58" target="F2ghaZuJ-phgNiPlRmCp-65">
          <mxGeometry relative="1" as="geometry" />
        </mxCell>
        <mxCell id="F2ghaZuJ-phgNiPlRmCp-67" style="edgeStyle=orthogonalEdgeStyle;rounded=0;orthogonalLoop=1;jettySize=auto;html=1;entryX=0.5;entryY=0;entryDx=0;entryDy=0;" edge="1" parent="F2ghaZuJ-phgNiPlRmCp-70" source="F2ghaZuJ-phgNiPlRmCp-58" target="F2ghaZuJ-phgNiPlRmCp-64">
          <mxGeometry relative="1" as="geometry" />
        </mxCell>
        <mxCell id="F2ghaZuJ-phgNiPlRmCp-58" value="Integration and Extensibility" style="ellipse;whiteSpace=wrap;html=1;rounded=1;" vertex="1" parent="F2ghaZuJ-phgNiPlRmCp-70">
          <mxGeometry x="280" width="80" height="80" as="geometry" />
        </mxCell>
        <UserObject label="Entra ID Connect" tooltip="Integrates On-Premises AD" id="F2ghaZuJ-phgNiPlRmCp-62">
          <mxCell style="whiteSpace=wrap;html=1;rounded=1;" vertex="1" parent="F2ghaZuJ-phgNiPlRmCp-70">
            <mxGeometry y="200" width="120" height="40" as="geometry" />
          </mxCell>
        </UserObject>
        <UserObject label="&lt;font style=&quot;font-size: 15px;&quot;&gt;&lt;b&gt;Entra Domain Service&lt;br&gt;&lt;/b&gt;&lt;/font&gt;" tooltip="Provides Managed AD for legacy apps" id="F2ghaZuJ-phgNiPlRmCp-64">
          <mxCell style="whiteSpace=wrap;html=1;rounded=1;" vertex="1" parent="F2ghaZuJ-phgNiPlRmCp-70">
            <mxGeometry x="260" y="200" width="120" height="40" as="geometry" />
          </mxCell>
        </UserObject>
        <UserObject label="Entra ID App Proxy" tooltip="Ensures seamless access to on-prem apps without requiring VPNs" id="F2ghaZuJ-phgNiPlRmCp-65">
          <mxCell style="whiteSpace=wrap;html=1;rounded=1;" vertex="1" parent="F2ghaZuJ-phgNiPlRmCp-70">
            <mxGeometry x="520" y="200" width="120" height="40" as="geometry" />
          </mxCell>
        </UserObject>
        <mxCell id="F2ghaZuJ-phgNiPlRmCp-74" value="" style="edgeStyle=orthogonalEdgeStyle;rounded=0;orthogonalLoop=1;jettySize=auto;html=1;" edge="1" parent="1" source="F2ghaZuJ-phgNiPlRmCp-71" target="F2ghaZuJ-phgNiPlRmCp-73">
          <mxGeometry relative="1" as="geometry" />
        </mxCell>
        <mxCell id="F2ghaZuJ-phgNiPlRmCp-76" value="" style="edgeStyle=orthogonalEdgeStyle;rounded=0;orthogonalLoop=1;jettySize=auto;html=1;" edge="1" parent="1" source="F2ghaZuJ-phgNiPlRmCp-71" target="F2ghaZuJ-phgNiPlRmCp-75">
          <mxGeometry relative="1" as="geometry" />
        </mxCell>
        <mxCell id="F2ghaZuJ-phgNiPlRmCp-88" style="edgeStyle=orthogonalEdgeStyle;rounded=0;orthogonalLoop=1;jettySize=auto;html=1;entryX=0.5;entryY=0;entryDx=0;entryDy=0;" edge="1" parent="1" source="F2ghaZuJ-phgNiPlRmCp-71" target="F2ghaZuJ-phgNiPlRmCp-87">
          <mxGeometry relative="1" as="geometry" />
        </mxCell>
        <mxCell id="F2ghaZuJ-phgNiPlRmCp-71" value="Access Management - Roles" style="ellipse;whiteSpace=wrap;html=1;rounded=1;" vertex="1" parent="1">
          <mxGeometry x="-200" y="760" width="80" height="80" as="geometry" />
        </mxCell>
        <mxCell id="F2ghaZuJ-phgNiPlRmCp-78" value="" style="edgeStyle=orthogonalEdgeStyle;rounded=0;orthogonalLoop=1;jettySize=auto;html=1;" edge="1" parent="1" source="F2ghaZuJ-phgNiPlRmCp-73" target="F2ghaZuJ-phgNiPlRmCp-77">
          <mxGeometry relative="1" as="geometry" />
        </mxCell>
        <mxCell id="F2ghaZuJ-phgNiPlRmCp-80" style="edgeStyle=orthogonalEdgeStyle;rounded=0;orthogonalLoop=1;jettySize=auto;html=1;entryX=0.5;entryY=0;entryDx=0;entryDy=0;" edge="1" parent="1" source="F2ghaZuJ-phgNiPlRmCp-73" target="F2ghaZuJ-phgNiPlRmCp-79">
          <mxGeometry relative="1" as="geometry" />
        </mxCell>
        <UserObject label="&lt;div&gt;Entra ID Roles -&lt;/div&gt;&lt;div&gt;For Identities&lt;br&gt;&lt;/div&gt;" tooltip="Microsoft Entra ID Roles: Focus on identity lifecycle, directory tasks, and app registrations. Operates at the tenant level." id="F2ghaZuJ-phgNiPlRmCp-73">
          <mxCell style="whiteSpace=wrap;html=1;rounded=1;" vertex="1" parent="1">
            <mxGeometry x="-520" y="960" width="120" height="40" as="geometry" />
          </mxCell>
        </UserObject>
        <mxCell id="F2ghaZuJ-phgNiPlRmCp-83" style="edgeStyle=orthogonalEdgeStyle;rounded=0;orthogonalLoop=1;jettySize=auto;html=1;" edge="1" parent="1" source="F2ghaZuJ-phgNiPlRmCp-75" target="F2ghaZuJ-phgNiPlRmCp-81">
          <mxGeometry relative="1" as="geometry" />
        </mxCell>
        <mxCell id="F2ghaZuJ-phgNiPlRmCp-84" style="edgeStyle=orthogonalEdgeStyle;rounded=0;orthogonalLoop=1;jettySize=auto;html=1;entryX=0.5;entryY=0;entryDx=0;entryDy=0;" edge="1" parent="1" source="F2ghaZuJ-phgNiPlRmCp-75" target="F2ghaZuJ-phgNiPlRmCp-82">
          <mxGeometry relative="1" as="geometry" />
        </mxCell>
        <UserObject label="&lt;div&gt;Azure RBAC - &lt;br&gt;&lt;/div&gt;&lt;div&gt;For Resources&lt;br&gt;&lt;/div&gt;" tooltip="Azure RBAC Roles: Focus on managing Azure resources like VMs, Storage, and Networks. Operates at the subscription/resource level." id="F2ghaZuJ-phgNiPlRmCp-75">
          <mxCell style="whiteSpace=wrap;html=1;rounded=1;" vertex="1" parent="1">
            <mxGeometry x="80" y="960" width="120" height="40" as="geometry" />
          </mxCell>
        </UserObject>
        <UserObject label="Roles" tooltip="Exmaples:-&#xa;Global Administrator&#xa;User Administrator&#xa;Groups Administrator&#xa;Application Administrator&#xa;Security Administrator" id="F2ghaZuJ-phgNiPlRmCp-77">
          <mxCell style="ellipse;whiteSpace=wrap;html=1;rounded=1;" vertex="1" parent="1">
            <mxGeometry x="-600" y="1160" width="80" height="80" as="geometry" />
          </mxCell>
        </UserObject>
        <mxCell id="F2ghaZuJ-phgNiPlRmCp-79" value="Custom Roles" style="ellipse;whiteSpace=wrap;html=1;rounded=1;" vertex="1" parent="1">
          <mxGeometry x="-400" y="1160" width="80" height="80" as="geometry" />
        </mxCell>
        <UserObject label="Roles" tooltip="Examples:-&#xa;Owner&#xa;Contributor&#xa;Reader&#xa;Data &#xa;&#xa;Azure RBAC Roles: Focus on managing Azure resources like VMs, Storage, and Networks. Operates at the subscription/resource level." id="F2ghaZuJ-phgNiPlRmCp-81">
          <mxCell style="ellipse;whiteSpace=wrap;html=1;rounded=1;" vertex="1" parent="1">
            <mxGeometry y="1160" width="80" height="80" as="geometry" />
          </mxCell>
        </UserObject>
        <mxCell id="F2ghaZuJ-phgNiPlRmCp-82" value="Custom Roles" style="ellipse;whiteSpace=wrap;html=1;rounded=1;" vertex="1" parent="1">
          <mxGeometry x="200" y="1160" width="80" height="80" as="geometry" />
        </mxCell>
        <mxCell id="F2ghaZuJ-phgNiPlRmCp-87" value="" style="shape=image;verticalLabelPosition=bottom;labelBackgroundColor=default;verticalAlign=top;aspect=fixed;imageAspect=0;image=data:image/png,iVBORw0KGgoAAAANSUhEUgAABYwAAAIICAYAAADNKaqbAAAMPmlDQ1BJQ0MgUHJvZmlsZQAASImVVwdYU8kWnluSkEBoAQSkhN4EASkBpITQAkgvgo2QBAglxkAQsaOLCq5dRMCGrooodkDsiJ1FsPdFEQVlXSzYlTcpoOu+8r35vrnz33/O/OfMuXPv3AFA7RRHJMpG1QHIEeaJY4L96eOTkumkHkABaoAIGIDI4eaKmFFR4QCWofbv5d1NgEjba/ZSrX/2/9eiwePncgFAoiBO5eVycyA+BABexRWJ8wAgSnmz6XkiKYYVaIlhgBAvluJ0Oa6S4lQ53ieziYthQdwCgJIKhyNOB0C1HfL0fG461FDth9hRyBMIAVCjQ+yTkzOVB3EKxNbQRgSxVJ+R+oNO+t80U4c1OZz0YSyfi6woBQhyRdmcGf9nOv53ycmWDPmwhFUlQxwSI50zzNvtrKlhUqwCcZ8wNSISYk2IPwh4MnuIUUqGJCRebo8acHNZMGdAB2JHHicgDGIDiIOE2RHhCj41TRDEhhiuELRAkMeOg1gX4sX83MBYhc1m8dQYhS+0Pk3MYir4CxyxzK/U10NJVjxTof86g89W6GOqhRlxiRBTIDbPFyREQKwKsUNuVmyYwmZsYQYrYshGLImRxm8OcQxfGOwv18fy08RBMQr7kpzcoflimzME7AgFPpCXERcizw/WwuXI4odzwdr5Qmb8kA4/d3z40Fx4/IBA+dyxHr4wPlah80GU5x8jH4tTRNlRCnvclJ8dLOVNIXbJzY9VjMUT8uCClOvjaaK8qDh5nHhhJic0Sh4PvgKEAxYIAHQggTUVTAWZQNDW19AH7+Q9QYADxCAd8IG9ghkakSjrEcJrLCgEf0LEB7nD4/xlvXyQD/mvw6z8ag/SZL35shFZ4CnEOSAMZMN7iWyUcNhbAngCGcE/vHNg5cJ4s2GV9v97foj9zjAhE65gJEMe6WpDlsRAYgAxhBhEtMH1cR/cCw+HVz9YnXEG7jE0j+/2hKeEDsJjwg1CJ+HOFEGR+Kcox4FOqB+kyEXqj7nALaGmK+6Pe0N1qIzr4PrAHneBfpi4L/TsClmWIm5pVug/af9tBj88DYUd2ZGMkkeQ/cjWP49UtVV1HVaR5vrH/MhjTR3ON2u452f/rB+yz4Nt2M+W2GLsIHYeO41dxI5hDYCOncQasVbsuBQPr64nstU15C1GFk8W1BH8w9/Qk5VmMtex1rHX8Yu8L49fIP1GA9ZU0QyxID0jj86EOwKfzhZyHUbRnR2dXQCQ7i/yz9ebaNm+gei0fucW/AGA98nBwcGj37nQkwDsd4ev/5HvnDUDbh3KAFw4wpWI8+UcLr0QZDuXFtADRsAMWMP5OAM34AX8QCAIBZEgDiSByTD6DLjOxWA6mAXmg2JQClaAtaACbAJbwU6wBxwADeAYOA3OgcugHdwA9+Dq6QYvQD94Bz4jCEJCqAgN0UOMEQvEDnFGGIgPEoiEIzFIEpKCpCNCRILMQhYgpcgqpALZgtQg+5EjyGnkItKB3EEeIb3Ia+QTiqEqqBZqiFqio1EGykTD0Dh0EpqOTkML0YXoMrQcrUZ3o/XoafQyegPtRF+gAxjAlDEdzASzxxgYC4vEkrE0TIzNwUqwMqwaq8Oa4HO+hnVifdhHnIjTcDpuD1dwCB6Pc/Fp+Bx8KV6B78Tr8Rb8Gv4I78e/EagEA4IdwZPAJownpBOmE4oJZYTthMOEs/Bd6ia8IxKJOkQrojt8F5OImcSZxKXEDcS9xFPEDmIXcYBEIumR7EjepEgSh5RHKiatJ+0mnSRdJXWTPigpKxkrOSsFKSUrCZWKlMqUdimdULqq9EzpM1mdbEH2JEeSeeQZ5OXkbeQm8hVyN/kzRYNiRfGmxFEyKfMp5ZQ6ylnKfcobZWVlU2UP5WhlgfI85XLlfcoXlB8pf1TRVLFVYalMVJGoLFPZoXJK5Y7KGyqVakn1oyZT86jLqDXUM9SH1A+qNFUHVbYqT3WuaqVqvepV1ZdqZDULNabaZLVCtTK1g2pX1PrUyeqW6ix1jvoc9Ur1I+q31Ac0aBpOGpEaORpLNXZpXNTo0SRpWmoGavI0F2pu1Tyj2UXDaGY0Fo1LW0DbRjtL69YiallpsbUytUq19mi1afVra2q7aCdoF2hXah/X7tTBdCx12DrZOst1Dujc1Pk0wnAEcwR/xJIRdSOujnivO1LXT5evW6K7V/eG7ic9ul6gXpbeSr0GvQf6uL6tfrT+dP2N+mf1+0ZqjfQayR1ZMvLAyLsGqIGtQYzBTIOtBq0GA4ZGhsGGIsP1hmcM+4x0jPyMMo3WGJ0w6jWmGfsYC4zXGJ80fk7XpjPp2fRyegu938TAJMREYrLFpM3ks6mVabxpkele0wdmFDOGWZrZGrNms35zY/Nx5rPMa83vWpAtGBYZFusszlu8t7SyTLRcZNlg2WOla8W2KrSqtbpvTbX2tZ5mXW193YZow7DJstlg026L2rraZthW2l6xQ+3c7AR2G+w6RhFGeYwSjqoedctexZ5pn29fa//IQcch3KHIocHh5Wjz0cmjV44+P/qbo6tjtuM2x3tOmk6hTkVOTU6vnW2duc6VztfHUMcEjZk7pnHMKxc7F77LRpfbrjTXca6LXJtdv7q5u4nd6tx63c3dU9yr3G8xtBhRjKWMCx4ED3+PuR7HPD56unnmeR7w/MvL3ivLa5dXz1irsfyx28Z2eZt6c7y3eHf60H1SfDb7dPqa+HJ8q30f+5n58fy2+z1j2jAzmbuZL/0d/cX+h/3fszxZs1mnArCA4ICSgLZAzcD4wIrAh0GmQelBtUH9wa7BM4NPhRBCwkJWhtxiG7K57Bp2f6h76OzQljCVsNiwirDH4bbh4vCmcei40HGrx92PsIgQRjREgkh25OrIB1FWUdOijkYTo6OiK6OfxjjFzIo5H0uLnRK7K/ZdnH/c8rh78dbxkvjmBLWEiQk1Ce8TAxJXJXaOHz1+9vjLSfpJgqTGZFJyQvL25IEJgRPWTuie6DqxeOLNSVaTCiZdnKw/OXvy8SlqUzhTDqYQUhJTdqV84URyqjkDqezUqtR+Lou7jvuC58dbw+vle/NX8Z+leaetSutJ905fnd6b4ZtRltEnYAkqBK8yQzI3Zb7PiszakTWYnZi9N0cpJyXniFBTmCVsmWo0tWBqh8hOVCzqnOY5be20fnGYeHsukjsptzFPC/7It0qsJb9IHuX75Ffmf5ieMP1ggUaBsKB1hu2MJTOeFQYV/jYTn8md2TzLZNb8WY9mM2dvmYPMSZ3TPNds7sK53fOC5+2cT5mfNf/3IseiVUVvFyQuaFpouHDewq5fgn+pLVYtFhffWuS1aNNifLFgcduSMUvWL/lWwiu5VOpYWlb6ZSl36aVfnX4t/3VwWdqytuVuyzeuIK4Qrri50nflzlUaqwpXda0et7p+DX1NyZq3a6esvVjmUrZpHWWdZF1neXh543rz9SvWf6nIqLhR6V+5t8qgaknV+w28DVc3+m2s22S4qXTTp82Czbe3BG+pr7asLttK3Jq/9em2hG3nf2P8VrNdf3vp9q87hDs6d8bsbKlxr6nZZbBreS1aK6nt3T1xd/uegD2NdfZ1W/bq7C3dB/ZJ9j3fn7L/5oGwA80HGQfrDlkcqjpMO1xSj9TPqO9vyGjobExq7DgSeqS5yavp8FGHozuOmRyrPK59fPkJyomFJwZPFp4cOCU61Xc6/XRX85Tme2fGn7neEt3Sdjbs7IVzQefOnGeeP3nB+8Kxi54Xj1xiXGq47Ha5vtW19fDvrr8fbnNrq7/ifqWx3aO9qWNsx4mrvldPXwu4du46+/rlGxE3Om7G37x9a+Ktztu82z13su+8upt/9/O9efcJ90seqD8oe2jwsPoPmz/2drp1Hn8U8Kj1cezje13crhdPcp986V74lPq07Jnxs5oe555jvUG97c8nPO9+IXrxua/4T40/q15avzz0l99frf3j+7tfiV8Nvl76Ru/Njrcub5sHogYevst59/l9yQe9Dzs/Mj6e/5T46dnn6V9IX8q/2nxt+hb27f5gzuCgiCPmyH4FMFjRtDQAXu8AgJoEAA2ezygT5Oc/WUHkZ1YZAv8Jy8+IsuIGQB38f4/ug383twDYtw0ev6C+2kQAoqgAxHkAdMyY4Tp0VpOdK6WFCM8BmyO/puakgn9T5GfOH+L+uQVSVRfwc/svOeh8aLC8AFMAAACiZVhJZk1NACoAAAAIAAYBBgADAAAAAQACAAABEgADAAAAAQABAAABGgAFAAAAAQAAAFYBGwAFAAAAAQAAAF4BKAADAAAAAQACAACHaQAEAAAAAQAAAGYAAAAAAAAAkAAAAAEAAACQAAAAAQADkoYABwAAABIAAACQoAIABAAAAAEAAAWMoAMABAAAAAEAAAIIAAAAAEFTQ0lJAAAAU2NyZWVuc2hvdOvIzRMAAAAJcEhZcwAAFiUAABYlAUlSJPAAAANUaVRYdFhNTDpjb20uYWRvYmUueG1wAAAAAAA8eDp4bXBtZXRhIHhtbG5zOng9ImFkb2JlOm5zOm1ldGEvIiB4OnhtcHRrPSJYTVAgQ29yZSA2LjAuMCI+CiAgIDxyZGY6UkRGIHhtbG5zOnJkZj0iaHR0cDovL3d3dy53My5vcmcvMTk5OS8wMi8yMi1yZGYtc3ludGF4LW5zIyI+CiAgICAgIDxyZGY6RGVzY3JpcHRpb24gcmRmOmFib3V0PSIiCiAgICAgICAgICAgIHhtbG5zOnRpZmY9Imh0dHA6Ly9ucy5hZG9iZS5jb20vdGlmZi8xLjAvIgogICAgICAgICAgICB4bWxuczpleGlmPSJodHRwOi8vbnMuYWRvYmUuY29tL2V4aWYvMS4wLyI+CiAgICAgICAgIDx0aWZmOkNvbXByZXNzaW9uPjE8L3RpZmY6Q29tcHJlc3Npb24+CiAgICAgICAgIDx0aWZmOlJlc29sdXRpb25Vbml0PjI8L3RpZmY6UmVzb2x1dGlvblVuaXQ+CiAgICAgICAgIDx0aWZmOlhSZXNvbHV0aW9uPjE0NDwvdGlmZjpYUmVzb2x1dGlvbj4KICAgICAgICAgPHRpZmY6WVJlc29sdXRpb24+MTQ0PC90aWZmOllSZXNvbHV0aW9uPgogICAgICAgICA8dGlmZjpQaG90b21ldHJpY0ludGVycHJldGF0aW9uPjI8L3RpZmY6UGhvdG9tZXRyaWNJbnRlcnByZXRhdGlvbj4KICAgICAgICAgPHRpZmY6T3JpZW50YXRpb24+MTwvdGlmZjpPcmllbnRhdGlvbj4KICAgICAgICAgPGV4aWY6UGl4ZWxYRGltZW5zaW9uPjE0MjA8L2V4aWY6UGl4ZWxYRGltZW5zaW9uPgogICAgICAgICA8ZXhpZjpVc2VyQ29tbWVudD5TY3JlZW5zaG90PC9leGlmOlVzZXJDb21tZW50PgogICAgICAgICA8ZXhpZjpQaXhlbFlEaW1lbnNpb24+NTIwPC9leGlmOlBpeGVsWURpbWVuc2lvbj4KICAgICAgPC9yZGY6RGVzY3JpcHRpb24+CiAgIDwvcmRmOlJERj4KPC94OnhtcG1ldGE+CuvSSngAAEAASURBVHgB7J0J3HVT9cc33hAVikqSVzJEkyRSClGGJEOGMk8pIVNkJlMZMqsMvYQiQ8YMlSGiokHRZEyRJJS55P9+97913nX3c869557hufd97m99Ps9zzj3DPvt8zx7WXnvtvWdYcMEFXwz/k3nmmScssMAC9jM8/fTT8e/5558PL7zwQnZcOyIgAuUIzD///PHCBx54oNwNukoEREAEREAEREAERGDcCUhnG3fkeqAIiIAIiIAIiMAACcw000xh5plnDrPNNlv8s6jcf//94ZFHHgmT7MC8884b5ptvvvgTQ/Hjjz8uI7HB0VYEREAEREAEREAEREAEREAEREAEREAEREAEREAEJgABHIOfeeaZ+IcNeM4554yGYxyJJ02a9P8GYzyLzVj82GOPhSeffHICvLpeQQREQAREQAREQAREQAREQAREQAREQAREQAREQAREoIgAxuNHH300PPfcc2GuueaKNuIZZ5111mwaChmLi9DpuAiIgAiIgAiIgAiIgAiIgAiIgAiIgAiIgAiIgAhMTAI4EGMbRiaZZzHTUMizeGJ+cL2VCIiACIiACIiACIiACIiACIiACIiACIiACIiACHQjgG14lllmCTPiaowwX4VEBERABERABERABERABERABERABERABERABERABERgNAlgI56RV8e7mPkqJCIgAiIgAiIgAiIgAiIgAiIgAiIgAiIgAiIgAiIgAqNJABtxZjAeTQR6axEQAREQAREQAREQAREQAREQAREQAREQAREQAREQASMQDcbPP/+8/dZWBERABERABERABERABERABERABERABERABERABERgRAlEg7GmoxjRr6/XFgEREAEREAEREAEREAEREAEREAEREAEREAEREAFHIBqM3W/tioAIiIAIiIAIiIAIiIAIiIAIiIAIiIAIiIAIiIAIjCgBGYxH9MPrtUVABERABERABERABERABERABERABERABERABEQgJSCDcUpEv0VABERABERABERABERABERABERABERABERABERgRAnIYDyiH16vLQIiIAIiIAIiIAIiIAIiIAIiIAIiIAIiIAIiIAIpARmMUyL6LQIiIAIiIAIiIAIiIAIiIAIiIAIiIAIiIAIiIAIjSkAG4xH98HptERABERABERABERABERABERABERABERABERABEUgJyGCcEtFvERABERABERABERABERABERABERABERABERABERhRAjIYj+iH12uLgAiIgAiIgAiIgAiIgAiIgAiIgAiIgAiIgAiIQEpABuOUiH6LgAiIgAiIgAiIgAiIgAiIgAiIgAiIgAiIgAiIwIgSkMF4RD+8XlsEREAEREAEREAEREAEREAEREAEREAEREAEREAEUgIyGKdE9FsEREAEREAEREAEREAEREAEREAEREAEREAEREAERpSADMYj+uH12iJQlcC8884bVl555TDbbLNVDUL3iYAIiIAIiIAIiIAIiIAIiIAIiIAIiIAIDCmBSUMaL0VLBERgCAm87W1vC4ccckiYYYYZwhZbbBH/nn/++SGM6fQVpfnnnz+ssMIKYfLkyeH1r399eOGFF8LZZ58dbrrppunrRRTbkSSw6KKLhk033TR792OOOSY88sgj2W/tiIAIiIAIiIAItE/g5S9/eZhnnnnC008/Hf7xj38E6ejtM9cTREAERGAiExi4wfjVr3512GGHHSLjJZdcMvziF78IX/nKV2IlN5HB691EoA0C22+/fcAD+MUXX4zBX3755eGWW24p/aiddtopzD333NEgTBjf/e53w2233Zbd//73vz+e48Acc8wR3vKWt4Sf//zn2Xnt9E9g8cUXD/vvv3+YffbZO25+5Stf2fG7iR+zzjpr2HvvvfsK6o9//GM488wz+7pnIl6csrv22mvDD3/4w+xV0/PZif/t0Anw6KOPxr/f/e53sa6zfJpeW+Z3r+cRxt/+9rfA9+Pvvvvuix0RZcLu95pXvOIV4e1vf3t2G3GTiIAIiIAI9E9gww03DEsssUSgTYRMmTIlnH/++f0HNMJ3oAu/9rWvLSTwr3/9K9x1113hD3/4Q7j77rvDM888k3ut1bMLL7xweNnLXhavoZ3qBcPsvffeG+65555A3f7Pf/7Tn+65v+eee0b9j+/90EMPhZNPPrlvvfqtb31rWHPNNcNSSy0VZpllluyZ6Bh33nln1FWuuuqq7Lh2REAEREAERKAsgYEbjD/wgQ9kShGRpsJcfvnlw8UXX1z2HUb6ug996ENhscUWiwxQgL7xjW+MNI9Rf3nSwoILLphhQHEsazDmvlVWWSW7l50bb7yx4/dPf/rTsOqqq8ZjTz31VFREOy7Qj74JWGPBbnzwwQcj17/85S92KG6byOszzTRTR3nb8YBx/tHE+4xnlFN2NAy9pOf9ubx9jMd0yFx00UV5p3seK/u8D3/4wzGsxx57LHZM0KiViIAIiIAIDB+BmWeeOay99todHcjrrrturCfodJSUI5Dqwnl34QCB/Oc//wnHHXdcRwewXZ9Xz5oh365h+973vjf+fPLJJ8Nhhx0WfvWrX/nThfvE833ve192HoePNdZYo7TBGB1/t912C+95z3uyMPwOowHpfOBv6aWXDkceeWR49tln/SXaFwEREAEREIGuBAY+h/GKK644JoJ5x8ZcpAORAB6eGF74w9AuEQFPAO9VpjgoI6ShXoLBeNdddw2nnXZa+PSnPy3FsxewHufx5vaexOecc07YdtttA0P6U8/tiZbXJ9r79PjUY06/6lWvCltttVXYb7/9xmU+8Lnmmis2ZPFEkoiACIiACAwfAYx66WgjphjAc1TSDoFJkyaFnXfeORrq6z4BL+QvfvGLpdtjTEWWCt/avJnTc/73S1/60vDlL395jLEYr+Innngi/Pe///WXh2WXXTYcccQRgZG9EhEQAREQAREoS2CgHsZ4NL7hDW+IcaWCoycUedOb3hTmm2++kHrYxZP6JwIi0BcBDMGnn35613vwainbUfP73/8+8CepT+CNb3xjRyA/+tGPOn63/YNpFfjrJv0Or+wW1iidS9nSAHzNa14TG5L+u7/73e8OO+64Yzj88MNr4WH6mUsuuSQLg0Yw3krkf56BYIg48MADw2abbRYYkSIRAREQAREYHgJFehiGRTrsJf0TYEomPGtNZpxxxjj1GobZj3zkI4G6kvYnHbgPPPBAuPXWW+3SMVtGBJ111lnZcep1wsEYa/Us4eMl3Euf4zrzcs4CnLpDfPA6vvLKK/3hMfubb755WGihhbLjGInPOOOMcP3114fnnnsudkQzlQbXsUVod7MOyXbbbdfaFFVZhLQjAiIgAiIwIQgM1MMYBcgERch71BUpTXZ9uqWyx5OSPzM8p9eU+c29zHvlvf7K3Mc1GN1ooLMAkM0DW/ZeruPZ3LfIIosEvMEkItAEgQ9+8IOBYXXdhOFsZTwauoWRd2622WYLLOiGgaxXHPLut2Mo1oSDp02RMNcc+Z/8x4IfVcoB8h9xJS/3K1Wenz6HBUrGU/7617/Gcpeyt+iPef7KCh4vNGD47uMhlNV8625CWU4nJHEbT0nZ3nDDDeE73/lONA6nHTg0DvMajv3EF8M+naz2d//998fpaA466KDwve99LwuqTOdQlbScPaDEThN1ZRP1fYmo6hIREAERGBcCdOh5T2LmsjVZZpllAuXy9Cq96uq6dUI3LhhPrV5ki1GYeYhPPfXUcNRRR3XcalOudRx0P5jOgfDsj6mlrr766kA9e/PNN2dXMtVEL52DqS2Y/x+hA9cbonu1gdFzV1999ex5eBNjCCYuxA1hbmWmxthjjz06jNe0U1dbbbXsXu2IgAiIgAiIQDcCA/UwZv5ikx//+MfhJS95SXjnO98ZD3HOV552XbrFe4oKfvLkyZmRhxVhUQiuueaacNlll6W3xIpyiy22yI5vtNFGwYYHMxzMjDhU4HhtnXfeeV1XmcWQxSIVzGFFz7AJvb0sMsD93eaMmnPOOcP6668fPTy9QQzjEcYaFrtg0QIvsCGefnEDDCc8y4T30pxnRmN0tyxOR2ODPFYkNs9p0Xk7jvH5U5/6lP2Mngsopakst9xy4WMf+1hgSgyTf//73+G+++6LCuzZZ58d+O2F0QbeC+Tggw8OzLuKdwTD6DFC3n777WGvvfbyt8V52T760Y+Gd7zjHR1GYuaSY1GyCy+8MPz973/vuMf/QLHfdNNNo+eF5T+Ubwx+eJrgsWEKuL/P9ikz+n0+70bHkC8vCI/FbWwhNIYa8vxhy+vMl2eeNCwYs88++8SyC08dDLPWMfCnP/0pnHDCCbXLLuZltyG6zPnL92Tajne9612xYw9eLPbihXS3ySabxG9qHSFcxzdl7uGvf/3rA/Ww5R0wZJNHTJi3EqNyG0K94BuI1Jd5UiUt54VTdKxuXVmlvi+Ki46LgAiIwDARoA1BOwhhwdIrrrgibLDBBrGuQNenY79oRBCeo1/60pdKv85vf/vbOKe93cBUBQsssED8iWfs8ccfb6eyLW2ME088MfvNAuXeSFqlrq5bJ2SRqbjDuzLixhbIK6obywSP45PNJYxuh+5dtJge4XmnqZ/85CfRqLvxxhvHR6HDwPuRRx7JffTKK6/coe9+85vfHKNr2Y20iel8oB1g7VvSWl772O7RVgREQAREQASMwDTrph0Zpy3zV+LNh2DUpLKkgv3MZz4T8CY0T92ioe8oT6yCu9JKK42JMRUiXm78YUQ6+uijY0+rXYhC5j3gGCZML7MZi+w6fmMIRpHwhiw7z5apMzDspPdyDmUBQzBDgQ444IBc4y2GEOa7QtlLBYMChhl6oU866aRoALdr6Ln2xmKO41Hp38uu1XY0CdDYMA8EDMJFBmPSt81rijGNtGUNh5QcebRXGsOowxD7VMh35AX+UIbxhqBTxQRDow+bfYbN2bQ1dp1tSe9bb711WGuttexQxxZDIYZclHKedccdd3Sc5wcGOwzSqeGWMuh1r3tdZghmERM6obzUeT5llH9XC9d7pJjhddjyOuWOxZ19DLfM/wczL3w3GrAYxynfTfp9H6635/Gd6LBIF2e0sNluueWW8bum8eF7Ua/wR/qjTE6/qQ+n7X28m+g0IC4I+YK8iFG7aaHRycI+ls6pm7zUScs+nG77derKOvV9tzjpnAiIgAgMCwHvVXrTTTfFzmMMskxvgHC+yGBMfWf1ZJn3SdsPeC/b/Wa0zgvHruGc6Sh2Xb91dZ06wZ7ZxJY61wzGeW25ss/w9+Ls0K0uh7cZlwkf/RzvZzra0Z2ok3GcwmEoFc75e6nfGb3UTRiBREc1+hqSfrtu9+qcCIiACIjAaBPobOGPIwuvGP36178OeAM+/vjj0fvLooGhp0gwSnljMXM20dv91a9+tcM4wbxS3rMqLzwMB1T0eBXi0UtcvBAP7wlm5zDoYuw1JQFPy1tuuSV6+fJONNARDL4YVFJBYdt///07jMUoGXhF0vtvnoYobzvttFPAa9OE4eO33XZb8EPY6UXmmP2lCx7YvdqOBoF77rkny0+kwaKh++QlFFAEI7OluyqUSKOf/exns1tJg3jHk6b9nKkYyQ499NDsurwdvEjNWIyHL0P/vMc8edIbi3kW+eYHP/hBR75gyN++++4bRxH459BJg8HZjGgYy+mYoRxhdIJ5hhAHrkulzvPpCCOf3n333R3BUm5Y/qU8RIY5rzMtwOc///kYT+YJZPijLz9JV8wLaIzrvg9lsRmL+d54jnvvb0aorLPOOpnxGi8tGtiMFHnwwQdjPPlHJyHDNActv/nNbzqi8La3va3jd1M/qKv8N0i9luqk5TJxrFtXNlnfl4mvrhEBERCB8SSAA80SSyyRPdI8d31H/9vf/vboiJJd5HaeeuqpTHcwHcJvU12DKYvalF51dd06ocm4+0Xg0DOrCKNUcVAwueCCC2w3d+unGEHX/OUvfxmvs+/ODxjmCXoXI1NN7r33XtvtumW02uc+97n4Z3pb1xt0UgREQAREQASmEpg0CAo0XBkOY0JPusmNN96YeVwxpyNDh/MMWP5+jDvHHnusBRGH2eCFZsOU8a7sVnnjSYihjCE9GLUwcmBgY6i1Dd/Ba+1nP/tZ7AG2BzE03hQN7sMo7HuUieOee+4Zw6PixyDlhwBts8022bsS5rnnnhvjYOGjUOGhh0ccwtQbpjziMYnssssumeEcAxMGaIkIGAHmM2PKBbxPGML2rW99y07FLWmd4wgNDvIfBrcqghGO6QrMs5P0iHJq00HwLAy8ZnzFi5m4kS/yhLyFV/DXvva1gEJMOUAYCHmDKQdMyH886+GHH7ZDYb311ovewxzA2xjDJaMBTHwHDMbE3XffPStrMDozHcQXvvCFeLkZ3M3QVvf5p512WgyXuWspI0wwVmPk9NJmXoe/lZP+mX6fIZtmvPbH2aezDHa8g3VecWy//fYLb37zm+PllK+M9rDRInXehzTBc4455piYNjAWW5rgYUzrYELaoQz3U59Qjlv6njx5cmx8ey93u3e8tun80KSrNsRzIXymEjGpm5YtnG7bunVlk/V9t3jqnAiIgAgMggDtHdOdcByh8xuhExn9hnoVr1Cuu/TSS8dEkbZHkf5PuFbvciPGY9NBxgTU0IFedXXdOqGhaMZRnOgoJkX6qJ1HXzKdAd2DUaLcjy5HexFHIb4P02d1E28MRtfE4QehPcw0JAg6CnpyatxP17i5b+pUbxIREAEREAERaIvAQAzGDInx80r64cp46OJZiDBsFkMNHnap+FXmzSDlr8HIVFYhwrCAZ7J55GKY4pl4G2KEQlC4MIAwZAjB6xBjiwmGHm8s5jgVP4sN2bQAzP9qBmO8hpdffnm7PeBpls7ZjGHklFNOicYXLmR6DRr3ZpjJbtaOCBQQYE5UOiYYKohnZmowZs5SM1Jdd911mdJaEFzXw6Rn62DhQubE83mTfHXxxRfHYXYMv0cYJVCkoNOowTPYFGmut84jU845hpD/vLGYYwzlw2PT5kVntAHDKW3OZYyYJuQpC9uOkX/9yALv3dzE8+05g9xSvvLXTTAuFhmMuY/pOnyZROOWeZ8PP/zwLFiGe5rBODtYYYe0QKeEN6r770YHmxmQ8dqxUR72KMpfMxhzjKlY6CQZlKQG47Qh2E+8qFOtc5H7MC7QicNoHt845Vv5uZLbTst160repcn6nvAkIiACIjBMBPyaLniZWr1Gu4R2kY2s4bo8g3G3d6GT3qYdYwQQo7u8XtXt3qrnutXVTdQJ/cQLvdTXjdyLRzC6j+9MhTk6ajehnmWqtDyhbmXEKqP7ugnGf9NLuc4cgdjnXnRZ6m6Euht9yks6pRTTWEhEQAREQAREoC0CAzEY+8Yrveje2IAhgEY0iychXJtnMOYaG76LJyEVPUOPH3rooYxVaizITiQ7l1xySWYs9qe+//3vR29IM277eYZtHiiuR6FjMa48wRhtBmOMZMxbxQJ47NtCTtxHA94URB8OiygwD7JJt8Xz7BptRcAIkF7wEGVINx4fKMisDm3CcRO8kesIHRomzJfG9ASpkMYZCmdz5FknTXodv2k0FTVqMHSb4BlNPskTpsIwxZxGA3On27VMoWCLt3Ecb31GGmDYtLxYVIY08fy8+E5vx2h85g2HTBtMNl993fejvvDG4jQ8Px1Geo7f6b1pwyvvnjaP+ek0eI55mFV5Jp5PvbzFyU8Y+H26bjst160rYdFkfV+Fre4RAREQgbYIsPCb78D2oy55JrqQGYxxVOlnrns65W2qBPQtOvLTzvU23qtbXd1EndBPnFkrAOebXnL66aeP8ebtdY8/j/MFo5+Yhs1Gxvnzto9zhc0hTJ3M6FUvGJDNkJ1nMPaOGdyndqGnp30REAEREIGmCYy7wRgPPzPS8DK+Z9VeDmXJDMZM7M9cv2nDGiMv831R6WJ8+sQnPhH/MD7b/KAYyjAm9ZJuw3noubVFibzB2M8HSyMfRSNPmD/VCx5kGLXNq9POdVt8yTwi7VptRaAfAhiCzTDM1gzGpEUzFuHNm85x188zuNan6XQInQ+LKQL8NAH+nN/HoFsk/lndvCvSfOXvo4OJxWRsLjgaVvyR32w+Xjpy0pEDxMmHU/X5Re82nscZCulHeOQ9O+/97TobcWG/bQtDPLKtUWRev3a+6jb1yC0KB2+iRRddNC4qx3x/dPrx5xfsKbp3PI97IwHPZShyW4InP43m1NO77bRct66ER5P1fVt8Fa4IiIAIVCHg13Sh05NpKLygs1GnWv2FEfHb3/62vyR3n/rFrynBCDPmNR4P6VZXN1EnNPkOjITDi7doQUH/rCuvvDKcffbZ2SGmWETfYOoI2qF4D+OAwPo2OEf4tRPsJr6fCXMXpwZfbzCGFW1QjNAmqZ6AxzZe6BIREAEREAERaIPAuBuMMQD73lHmITVjlr0gDXwThtJjYMb464XKkeHHTF/hvddo/PIM/pjHGA9Dppbww8l9OOx3M4hwzgzGfp6r1BCc/k6fYb+5DoOxeS3bcZsb1X5rKwJNEcBQhFETpZJpGVBomTaAKVLMoFfXu5i4+jTdRHo2L988DryDSeo1asfZpp40Pp+St5mjeNddd806qLiHRhmLy/C36aabxulimPvYj4Ro4vk8a9CCYZxpc6pKNw/xqmF2u69bOc59dB4yXJR566cH8VMtEN+0IdjPO9BA93MTYzD3Bmnm6E+NxYTfdlr2eY7npb85lidWV3Kuyfo+71k6JgIiIAKDIuCno0CPOuGEE8ZExYzFnChjMKZc9+uw4MWaTkk25iENHuhWV6d1QPq7KBq+Tii6Ju84ups3qNJm9I5LrFlRxlhM2NTRaT2NvssoUzzBjz/++Fin4ohAGzSdV5qpJmx9B8IjHrRRuwkdCt5gnE4RhrFaIgIiIAIiIAJtERh3g7HvWeWl8B7GkNVNqCxTgzHX0wtLBc3UFCyKQwMZL2Ab1ovxAMMBnpQHHXRQ4SOowPN6gbmBYfwm3rCcDn0+7rjj7LKOLXHxRhWbMgODnRee48P357QvAnUJYBBmHjvyBPkJjz3rqGFIHPMX1xXyhHkr+nxTN9y8+/2zvLdKem0ajzTf4YHMPOWUQZRNdA4xXQzlkgneIgzj5Dq7v6nn2zO0bYYAC/tYBx8h0pmARxUrn/PtGHHCHMjDIjaSxuKTZ9C1c722GAS85xPDnE888cSsPtxiiy2yOfl9WG2nZcL30m9dafc2Vd9beNqKgAiIwKAJYDy0+WotLr3aRDjV0BlYNCqMdged4aYb0e448sgjLfjK26ZGCjVVJ5R9Edp33iiLVzALqpt+yFoVl19+eYdTQNmw/XV4KqNvoEsifFuYeecHFi1MOfb63qwzwDo7ZoRnZBd6uzlflTUYkx68g5UtrBgjq38iIAIiIAIiUEBgXA3GGG7x2vNiBhh/jH3v9cQcpPzOu5aKmLlSbb5UeuExiDGvsSlL9OBSSfoFuPzzWIm2yGDMORM/V6cPC4MwBjcq8LLivRW5BwWwaB7ksmHqOhEoIoCn/WabbRYNxquuumpsaJjHPIt+lZm6pShsO45RzhRf29q5prf+WRjGisSPVuCa1DPE7sMD+8wzz4w/aWwts8wycQ45Mz7SoGPePfNCafr5Fg9tqxMgPdv3IhTmEEwXB7IGVvWnNHcn3v7LLbdcFiB1UDr3c3aywg6dIdRLTLOCYJxm7sS087XttFy3rvSv3kR978PTvgiIgAgMkoAZFy0OtCPSKfg4x2hLDJ0m3FdkMN5qq62yNV4Ij0Xueul43rHFjxaz57E1hwB/rMp+k3VCleczhz/e1jvttFO8HQeBjTbaKHawVgnP3+PbdrRHmW/aHIW4jvapl7x2Led9G5j9pZZaKlt/g/SBYZqRtAgGY9rJeev9xAv+9w+Pcxt1RGf6lltu6U9rXwREQAREQARyCcyYe7SlgzRWzfuXR3z605+OlTQVdfpnFTnXoSTRw2pC7yzH7M+Os2WeL3qKfW8yx1NPLo6ZMI9p2uPLOeLrFSdvMDYDNdfxTsynnCcM+UfJsj+7hqHgXoHjWXlxwAByzjnnROWGLSv7Fglx9XyLrtPx0SPAInS22BvGXJ+/rrnmmkaA+DzB0EFblDINfL/99svSNFPKVBHmfTNBmU47ouwc3hwmzJvs5wa08oOtFxpOjFxgDjrfCYTnsUkTz7ewqmwnWl5v4n1scUN48q2vuuqqMWhtpfgxJ8b5AJ5HzG/oy+smpoVJXwOPY7/AHVOs2DQ0dm3badmXC1Xqyqbre3tvbUVABERgkAQoD72OQuf9OuusM6Y9RPsIL1jT4Ygz01jktRkwSK611lrZazFFgm+7ZCeSHT/CsajDv0inS4Lq+bNundDzASUuYFFzvwYDI+7MiaLE7bmX8D1SRt5JgSmoPFvaqWnb136zUKE3JqcdC9dff30WB567++67d20f0jltxmJutLVMskC0IwIiIAIiIAIFBMbVYOwrPCrqdEEqH0d6zv3cpL5XFsPNd7/73ewPg28qs846a8ch3+vbcWLqD4xN9Mj7ezDU7rjjjtmleDb54cLMFekXu9pll12y4U12E4Yo5kfFc5G/gw8+2E7FRrxf8A9DxgYbbJCdZwdvOBaswPiGUQylD28wL35oF73Z9EJLRCCPgDegmWKMV6M3oubdV/YYnoveS4Wh/7agnIWx8sorxznbLE2n3o52Xa8t99nwPK4lnzGCwcvqq68e52y2Y3hkWCcNeYs5Xa0c2XPPPe2ybMs13pjs817d52cP6WOnjbxOQ6PXXx9R7OvSpt/Hey0x9Yqfo5CI0Wm3+eab9xXHOhenXPF2x7uftHrAAQdkw0l5BvXdRRddVOdxufcyh7c3RLM4z2qrrdZxbdtpuW5d2XR93/Hy+iECIiACAyJgoyft8Sz43U38eeqz1DiJQXCHHXbIgrjsssuyUVHZwYId762MV2xaT9DJue666xbc3d/hunVCf0/Lv5o23VlnnZWdpCO1jn7A99h55507nJPuuOOOjgXtfBuY5/t5lbOI/G8HXdovSMyIJN9GpXPB6+60EdFj+Xap0AlBB7UJuvOFF15oP7UVAREQAREQga4EOl3rul5a7yQGqkUWWSQLxCs+2cFkh2vWXnvteBRlhfmmMCKjbPBn4eGliAcxlTNGCOYy9j3sGFrx6C0SjGb03mNgwihMXFNPXlYkvv/++zuCwAORecHmmGOOaKxibkZ6zgkD4xXD2s0wx414CHvBiGyLkHF84403DhjUMGwxnQbKoFcQ8hanSo3uLLCA4oeBnHmbUUokIgABPApYnMOmauGYNybxu45gnDr//PPD+uuvH4NBgT799NPjonF0EC255JJx6hV7Bh0uVedQoxw499xz46rUhMezTjvttOxZdJz4vPfMM8+EU045xR4dPYd5d2sAMYKB/MI8sHjazDfffLHsMQ9QPI29R0fd52cR6WOnjby+4YYbBv66Celm33337XZJpXNNvw9T+tDIsm9Ghx/flfKYIZtLL710xzDPSpHu46YybAmOPMmiir4DpI/H9LyUuot6xabjwIOJRX7IE8h4pOU6dWXT9X1PYLpABERABMaBgDcgomPceuutXZ+KAZF6wkaJ4GVs3roYDPfee++snCcg2kx77LFHbpiMOjv55JOzc2kbafvttw+rrLJKnE6BKblob3FPU1KnTmgqDnSWfvzjHw+2+CxeuLQfvXNQ+izqTz+ijW9Be49pD0334B6cE6ZMmZLdTgeyX9yQxai7OTJxI05F1N0I9TfxY3o5E9qcxxxzTJh99tnjIdrJzM1M2OixfH/W9bHzXISOhK7svastPG1FQAREQAREII/AuHkYe8WIiFAR9hKGhZtQ2fqhWywAgIEKocJGsWFRKuZoQgGwxjGNTTx7uxlOMRRhaOYePH1TY3G6mJDFiXmpMKSY1yLDqll8j3mhMHR7gxWKAz3CXhiqdNhhh3UMO6J3GI9pvOPMWEwFj7ErvZ+wrrvuug5PbI7hZYBxxCsvHJeMNgHyAMPwTGh4eOXTjtfZ0ilyww03ZEGQp/CiWXPNNTuMxXRqpKtHZzeV3MEQ5t/HP8vnPfLn4YcfnpUXFvwFF1zQMW848bRVrVkg0MoB8umBBx44Zg70us+3eJTdTrS83vT7MB2RzUMNU0ZcYDBm9AiNLhrULIo3TELnIIbtNhtvNEqZpsmEDk48jry0nZbr1pVN1vf+vbUvAiIgAoMggH6Pw4gJUwNZJ54dS7e0U7xXKe0NRtMgjMSwRdzsPtoRTHeX95eOwKFjmMWQvWAkxsi52GKLxWmeWPy3KalbJzQVD+9lTJgsDttLGIFqfxiY4e7bWzghMZLIO0SweLLplIRfpg2cpgk/0pYwYMhIPmsLc4x4EDfWLuCZ3ljMFBeMbkq/M/dJREAEREAERKCIwEAMxnhU3XXXXUVxyo5T2fr5n3xliSGY6RquuOKKMdM0YGClwj7vvPPivE6+Ms0Cdzv0xDKUiPnBuNeEhQVYNKmbksQiRRip03sJg7Co8JmuAs/LPMErDkM30wU8++yzHZegPN55552xgr/44os7ztkPrmEYEt7HDJk3LzXm8OxmJLf7tR0tAsxXbGkcb5ZeHg790mG+VLwl8XzwQxwJh/SIgkueZXgc5UAd4T3wriB/Uh6kQv7Fk5L8hWEuFbxl9tprr9gZg8HOuNh15Ce8iilnzIvHzrGt+3wfVpn9iZbX23gfytmjjz46Thfkv+d9990Xy1E/xLMM8yavIW/gzUuZzvQTzOFPp4mfp7DJ5/mwqAsxqJvQoemnixmPtFynrmyyvjcG2oqACIjAoAikUwx4B5lucfKjMzEG4hzSlOCYgjHRT79F2Ohy6Eq0q5qUOnVCU/Gg7YZHrglG1n6Z4h2OhzbtOLy2afP9+c9/tiDjNnWaKvO9U69zPJt9vU3AjNRCx2XE3RNPPNHxTPtB/U6HAO3cXgvj2T3aioAIiIAIiIARmGGqN+6L6dBgOzk9bfEmm3/++aNRiqkj8lYZtvdhMQG/2BbTUdjCQHgpMtck99O4x/BaVlDeGLqFJxvzaWKINgNumTB4NvczvJ77Uc76Nfriic1qyhhj+r23TBx1TX8ESJPIRMhj/b35/19NWmYKDEYBYLTzRqsq4XW7h2GBPIv0jyGc/NutHEjDwlMHz2RGCjBdRr+GvLrPT+PT6/dEy+tNvw91At+TdNDkUNpe32UinG87LdetK/up7yfC99A7iIAIjA+BUdfZjDK6FCMeaYekBmS7pslt3TqhybhMr2GhwzI9I9+OKTJoB+J0xXSN/eqz0ysDxVsEREAERKB5AhPGYNwPmm4G437C0bUi0IuAGh+9COm8CIiACIiACIiACAyegHS2wX8DxUAEREAEREAERGB4CIzblBTD88qKiQiIgAiIgAiIgAiIgAiIgAiIgAiIgAiIgAiIgAiIQB4BGYzzqOiYCIiACIiACIiACIiACIiACIiACIiACIiACIiACIwggUkj+M5xvmIWEzDRXL9GQlsREAEREAEREAEREAEREAEREAEREAEREAEREIFRJjCSBuMrrrgi8CcRAREQAREQAREQAREQAREQAREQAREQAREQAREQARGYRkBTUkxjoT0REAEREAEREAEREAEREAEREAEREAEREAEREAERGGkCMhiP9OfXy4uACIiACIiACIiACIiACIiACIiACIiACIiACIjANAIyGE9joT0REAEREAEREAEREAEREAEREAEREAEREAEREAERGGkCMhiP9OfXy4uACIiACIiACIiACIiACIiACIiACIiACIiACIjANAIyGE9joT0REAEREAEREAEREAEREAEREAEREAEREAEREAERGGkCMhiP9OfXy4uACIiACIiACIiACIiACIiACIiACIiACIiACIjANAIyGE9joT0REAEREAEREAEREAEREAEREAEREAEREAEREAERGGkCMhiP9OfXy4uACIiACIiACIiACIiACIiACIiACIiACIiACIjANAIyGE9joT0REAEREAEREAEREAEREAEREAEREAEREAEREAERGGkCMhiP9OfXy4uACIiACIiACIiACIiACIiACIiACIiACIiACIjANAIyGE9joT0REAEREAEREAEREAEREAEREAEREAEREAEREAERGGkCMhiP9OfXy4uACIiACIiACIiACIiACIiACIiACIiACIiACIjANAIyGE9joT0REAEREAEREAEREAEREAEREAEREAEREAEREAERGGkCMhiP9OfXy4uACIiACIiACIiACIiACIiACIiACIiACIiACIjANAIyGE9joT0REAEREAEREAEREAEREAEREAEREAEREAEREAERGGkCM3z84x9/caQJ6OVFQAREQAREQAREQAREQAREQAREQAREQAREQAREQAQiAXkYKyGIgAiIgAiIgAiIgAiIgAiIgAiIgAiIgAiIgAiIgAhEApMeffTRcO+99wqHCIhACwQWXHDBGKryWAtwFaQIiIAIiIAIiIAINERAOltDIBWMCIiACIiACIjAhCAgD+MJ8Rn1EiIgAiIgAiIgAiIgAiIgAiIgAiIgAiIgAiIgAiJQn4AMxvUZKgQREAEREAEREAEREAEREAEREAEREAEREAEREAERmBAEZDCeEJ9RLyECIiACIiACIiACIiACIiACIiACIiACIiACIiAC9QnIYFyfoUIQAREQAREQAREQAREQAREQAREQAREQAREQAREQgQlBQAbjCfEZ9RIiIAIiIAIiIAIiIAIiIAIiIAIiIAIiIAIiIAIiUJ+ADMb1GSoEERABERABERABERABERABERABERABERABERABEZgQBGQwnhCfUS8hAiIgAiIgAiIgAiIgAiIgAiIgAiIgAiIgAiIgAvUJyGBcn6FCEAEREAEREAEREAEREAEREAEREAEREAEREAEREIEJQUAG4wnxGfUSIiACIiACIiACIiACIiACIiACIiACIiACIiACIlCfgAzG9RkqBBEQAREQAREQAREQAREQAREQAREQAREQAREQARGYEARkMJ4Qn1EvIQIiIAIiIAIiIAIiIAIiIAIiIAIiIAIiIAIiIAL1CchgXJ+hQhABERABERABERABERABERABERABERABERABERCBCUFABuMJ8Rn1EiIgAiIgAiIgAiIgAiIgAiIgAiIgAiIgAiIgAiJQn4AMxvUZKgQREAEREAEREAEREAEREAEREAEREAEREAEREAERmBAEZDCeEJ9RLyECIiACIiACIiACIiACIiACIiACIiACIiACIiAC9QnIYFyfoUIQAREQAREQAREQAREQAREQAREQAREQAREQAREQgQlBQAbjCfEZ9RIiIAIiIAIiIAIiIAIiIAIiIAIiIAIiIAIiIAIiUJ+ADMb1GSoEERABERABERABERABERABERABERABERABERABEZgQBGQwnhCfUS8hAiIgAiIgAiIgAiIgAiIgAiIgAiIgAiIgAiIgAvUJyGBcn6FCEAEREAEREAEREAEREAEREAEREAEREAEREAEREIEJQUAG4wnxGfUSIiACIiACIiACIiACIiACIiACIiACIiACIiACIlCfwKT6QUyfIeyxxx5hgQUWiJG/7bbbwmmnnTbwF5l55pnD/PPPH/7yl7+EZ599duDxUQREoAqBueaaK2y33Xbx1jPOOCM8+OCDVYLRPX0S+OhHPxqWWGKJcO+994Zvf/vbfd49GpeL0Wh8Z73l6BB4/etfHzbZZJPwpz/9KZx99tmj8+J6UxFoiMA73vGOsNpqq4UXXnghfPnLX24oVAXTi8D2228fXvGKV4Trr78+/PjHP+51uc43QGAU2ievfvWrw8477xz+85//hKOPPjo89thjDZDrL4gZZpghxuGNb3xjOOmkk8Kdd97ZXwC6WgREYKgIjKvBeN111w0rrrhiIYDnnnsu/P73v48Fy29/+9vw6KOPFl5b98Tiiy8e+EMef/zxusFVvn+ZZZYJq666alhsscXC5MmTw6RJk8J///vf2PiBxQ9/+MP4V/kBunGkCOywww5h0UUXzX3nF198MaarX//61+H2229vzZD78pe/PKyzzjoxDldccUVrz8l9yRE++O53vzt8+MMfDj/96U9lMC5IB8POqFv+zXulyy67LFx55ZV5p0bi2HHHHRdmnHHGcPHFF4drrrmm4527sXzqqafCI488Ev7617+GG264IZaLHTfrx3RDYJdddgnLL7982HXXXaebOCuiImAErAyz336LwYd2ADrbb37zm9baKgsuuGDU2XieDMb+C7S7v+aaa4ZXvepV4eGHH5bBuF3UWeij0D5Zf/31w8orrxzf+Z577gnf+MY3svcfr533vOc9YaONNsoe99nPfjbb144IiMD0R2BcDcYYRDGQdpP3v//92enzzz8/Ki8Yuiaa0Pu2+eabR09MGrxe+A0r/jAA4S147LHHxt5Cf532RSAl8OY3vzksvfTS6eHs97LLLhtQJpDLL788HHzwwUpXGR3tVCFAZxedXsgpp5wSMMYNQlCQ3/KWt8RG9ZQpUwYRhdrP7JV/0wf88pe/TA/V/j09caQDYKaZZgqMEkqlLMuddtop/OpXvwrHH3983KbhlP09LPmgbHwHcV3TaWu55ZaLxuKf/exn0fA/iHfSM0WgDgErw4rCeO973xtP4UjypS99KVx44YVFl+q4CJQi0HQ5XOqhumjcCNx9993ZszAYtyHYL+acc87YkfX9739/zCPuu+++OGIB/aytOIx5qA6IgAi0RmBcDcb9vsV6660XC6T99tsv/Pvf/+739qG+HkPdhz70oY44Pvnkk+Ghhx4Kr33tawO9oCYbbrhhWGihhcJnPvMZO6StCHQlwPDc7373ux3X4L0+33zzRYPy6173urDGGmuEl73sZeELX/jChMtfHS+uH60SoGPrk5/8ZHzGOeecMzCDMZ2RH/vYx8Kf//znML0ajO1DMS3RpZdeaj8Lt3mG0sKLS56YSBx55TyWDAN+zWteE971rneFOeaYI7z97W8PJ598cuyYPffcc0uS6rxsWPJBZ6yG61eTaeslL3lJ5lVc9ZsNFx3FZpQJ3HzzzYGODy+zzjpreMMb3hA7RWafffaoq1F2Te/1m39H7Y8/gSbL4fGPvZ7Yi8D3vve9qAdjN/nd737X6/JK59daa63AdFC0M/MMxkxFyEhT9CLKNokIiMD0TWCgBuOPf/zjwbyH8biltwoPsc022yzug5aeUIyoDNuaKILHgDcW0/t24IEHdszxg4F4n332iTx4b7xGYcOwNIkI9CJAnvnmN7+ZexkNbYbx0iHzgQ98IKy99trhvPPOy71WB0VABMafAEbvYZhXf/zfvPkndmNJWcjcnZSHGGR22223OFUFU0FJhpvABz/4wWhMo6Nd838O97dS7HoT+MUvflGoszFtAVNFvO1tbwvMe/ujH/0oeC/C3qHrChEQgVEiwDQ2gxaMxlrDZtBfQc8XgWYIdM6F0EyYpUO5//77g/0xfIHhtWeddVbYYostwjPPPJOFw0JF6bQN2cmpOxib55lnnjgnMROs0/BrWgjzTW96U5xrGMN2HVlppZU6bv/c5z7XYSzmJMrgpz71qY7J6mnY9hLitsgii8TF8+DSr+BttfDCCzfynrPMMkuYPLV30XtLl41Pk7zLPnNUrqPXmYUQWBwNeec73zkqr673FAEREIGMAGXhJZdcEhhe+cQTT8Tje+21V3jlK1+ZXaOd4SRg05dde+21GiEznJ9IsWqIAOu57Lvvvlk6X2qppRoKWcGIgAiIgAiIgAiIQHcCA/UwLooaHkEsYIOhGMGIiUGYhQG8YBxlKDTXpQ085iRkmGK6EI6/v8z++973vujxzCrCXjDoMrdwOuzfX1O0z7QAJniC8pcnzz//fDj00EPDW9/61ni6aKVTphr4xCc+ET1FGSJigucNC2awKFK3eGKMx9sUT1OM4l4YznvRRReFb33rW4H4pPLFL34xDpfj+B133BG9H5ZccsnAvJDMIWmGfqZIYBhdr2HWbfBO46zfITY8br311sBiJzQ+6Fwwb3/jw7dbYYUVAkOPuG7uuecO//jHPwKdOxhZ6jTUeR5hsxAmYZPHyd8sxkda+8Mf/mDRyN3iXYanPmmM6TXoeLrrrrti+sJTp6rMO++8MS/RaYKXP4vAMKSLP+YOZKGsVJgGgbnGyccHHXRQmG222aIBivk1GU76z3/+M95/9tlnh6K4NRFGGi9+w4aGJnLqqafmzvUaT079R1lK/uMb77333na4cLvNNtvEzgZWnTahvLLpg77+9a+Ped820tQRRxwRp1ahcwqhrmB6AZPdd989UBbmCVMRMNqDMouVpSnDSIMXXHBB1wWG6qbfvLg0cSxNR6Rjpp7h/RZYYIHo7cE7fvWrXx2zqGw/HD//+c/HfIunG9OQUEaQ3ilL+P5p5yadhxtvvHEcJUO+YiqcP/7xjzFfXH311ZF7E+9fNQzKNOYHJf1SFrEY0RlnnFEquCr5oGr6SbmTXxklQqcf+ZD3wNuWuFs+zHsJ0sNHPvKRWMaRb/7+979nCw4z2iTv3jrP7idt5cU3PYZnOIvqICzy2U1e+tKXxqlqKKPRj5hTkcUOSbu8K+9eVUjH1GGrrLJKnO6JhZvRDanDbrzxxujEwOKLyJ577pl1SlR9nu4bXQJ46qFHU35SzuaNCsPRgrKLOo12Br/Rq1hEnDVh6sx5XycfkV832GCDWP6js5FvyCfoeTgJkR+rSpWyLK0nq+hsaXmIrrXtttvG9hq6xN/+9reob5155plxeoCy74deDCv0caaLs47MvPsPOOCAOLXSLbfcUqq+qlIOt5mmeKd+dXnqO6ZppKzF2apIdt555+g8RX1YNNrS7oU5a7uQt0irDzzwQGBaB9q+PKdIFl988ahfkaZxVqN9QDuEZ/Zq6zIlFu1u2jG0O3CSu/POO2NeZTHj1N5BHNI0V6R3ERf0XoQ04sNKw+gn3fr2BHo2gg5i+jZlFDYBE9aFwD5B24f6ME+wb1CHsiXfwIFwsN3AkPZTKnwjG3VOu+bnP/95nP6CkdiUB8z3zsht7u+2KHSb5VIaZ/ud8i/6hnY96YTFA5lGBv7YYUifrEFEOumWPhmZQllC+mSNDe4lfeJ9Tp7odm/VfG/6MM846aST7DU6tui/dg5dlfLLJC2bmTaONXLYkj422WSTjtE1hGUjpUn36O84w1HnoRv2Gi1IHoYvI/gJHzsbdRP1JWk2tYtYPEdxO2lYXxpDpRczKNkxvGiPPPLIWNDaMb/FEMAfhfEhhxyS2wDy1+ftMx0G95rR019DxYJRBSMaBVY/QmY3DwEqivnnnz8WAHlhXHfddYG/IiGzEA8af6mglPEc/igs4IUBzAtcaShbfPw59lE6Wd2USp3huihBXjAEULAgKJRkXJQS4uUFwxlzUVN5UAnnSVu8856lYyEziNHxMvPMM4+pPEhX1mljvKi8+KPywtDDtClVClS8+KgYvJBG+LMh4nnDjKngqXDTe6kQ+cM4RgWEAtNvvHhXG5ru44VCxB95jMY/Rhkv5F8qM4zWzD/OisSUCybkC5iRN8gDKKKpNBFGGia/UbyIE4YSa8DkXUd+pdIknnSElRGMkby3F8pcE4yuqbSRpii7/CgGyiQfL8qcPGF474knnhi43gSjJ380ILbbbrvC+Zirpl97Tltbn47IS+QDyngTvhl/lOekZYzHJv1wRMlaYoklYr1F423XXXe1YMYY52kI0JHiOzO5GCMnfzSaKEfogBqk0EChwT95qgEV42JZg3GVfFA1/Xju1JcYuH1dC2v+MGButdVWY74F5SffnW/m76MOp0MBQxM6E43NdPHKOs/uJ22VSQN04KPfIDSyi4SyF/0MfdELHeP8UeYzBZpvUPvruu0zvywdL4suumh2GXGikcZCZjQ4MEpbWQR7iQjUIWDGE+rpVMjDdNKmad30Kso0dH3SZb9SJx/RCD/88MMzxxd7NoYd/lZfffVYjuXNg2rX5m3rlGW+nqyqs/nyEP2QKUN8HjfulKmMmrURfXnv4o/hnEB5SfmMHnLxxRf709k+74C+i5Sdw73fcrjNNAWrKro8aZ8y9dlnn81Y5O3QHiB9FTlkcQ+MWU+IvOGFb8sfOjv1Zdpu5lqMnLQXaDuZwAv9gbp5xRVXjFNN5hn8MWxRL3m9lbqD5/GH8Ro2OL558Wmum95FuFbveP2WsHwY/aZb3s/CtXjR1rH2Trq4Hdeif9NWzBPS7wFTDdpeqFfp/Ea/pJ239dZbj+k0wSZj8cCRB9uELeZuYREn6mH0GXOasXNs2yqX/DPy9j3/bt+Qe3GmOv300zNdh2N0btFmNz2P9JnXwY+ORLmLPuKF96aNQ5pHD8VxI5U6+R7bGN8mz8HQP8e+H4ZvL75sJg3QMeDLVTr8vdCphrOjFxjzRx7FuQ0OeYywNdA28UL5wh+MYG+dIf6aUd3Pb0kPAQ0MqV68oZLC8Ctf+UrM8HbN448/HidW50NjCDAjAQUSw7no6epHaMiSkMxYjBcKE7f/61//ivMJ00hEmDaC8IuMoHnPpJffG7yYqxIj6w033DDGaJd3vz9GD6s3FtM7R68K8caoZ5UZGeeFF16Iz/H377///h3GYnqcWHiDzL7sssvGwonrqXzJdBTe9N7lCQYBCn8qYSpzemlQXn1mp2C3Hi4fRpu8/XO0P40Aig1C+k17GjGWmbH4Bz/4QUz7GJdIB6QLDBIowuQL8mI/summm2bp/4orroi9eHSiUMFRgFPQYwghrZFWvNB7Sd5BgUPhuuqqq2L8yfM0PPhDOSeu119/vb+16z4VM0Yr0i4GCJR05gvH6EylhSGJhsUpp5wS45inQKLwHXXUUdEAiffPTTfdFA028OK9yB88A8NykZGjiTDSF6VCppxiCDd5Ma/iRPmg7ET4JmWEHmI8Byhn+C4I+ZuyGEkN622lKRQmynsMP8svv3w0jKMImeR5F/MtmJYFj2/SEN+aUSqUpXho0cFGGmSkRCp10m8aVlu/UShRtPBIw8sCr2nqTRqgdAywv8cee0Rm1rFShSN5Fl54E9DBw4gWq3t5N9LbYYcdFtMW5QzeyFxLLz4GSvIq+Yu6he/X1gItZTlT1mFopX6HoaXlbvf3mw+aSD/kV9IqRm46lFH6KZ9ogNBAokFKnkzLZr4V3x/hXnQOmFPucB9xw0uHNRXIy3lS5dlV0lbes+0YcUTI29QdeYIORB5GB+E6ynQ8WdBNuJ8FeWhUHnPMMfGbP/3003nB5B6jnsCZAGMx+YcyBP0Qj0n4UNbSEWJlam4gOigCfRIwnS11qKGcpQ1BWicdkx4pj+kwJq1jvKIzl44gdDbKjLJSNx9RtpMnKEvRj2ifkGcwXjIyknOUNyzgWjSKMi+uTZRlTehbGEjQhzFM4s1IOUAnLeUpnnHUtTjrbD512iPaj70Eb2tYYFChY7fIYMw5BIMkumYZ6accbjNNEde2dPkyHOwa4oBREX7kCdoN6CMYbTGm8g3QAUm3XtDpGTGCYAydMmVK5v3PyBfaC+ii6BLomV4w2KGbkS7IiziQ4MmIIYx7mLKSegO9gvjltRV66V3+eUX7VdIt+iTtMoS6lXehU9Q61/1UokXPteMY5GgPIejf6F6MeiVMazNR3sHvM5/5zJg2qoXDyDU6f/Hk537yD+9Gm4f7yYOm69g9bNsql/wzuu33+oYYzdFNKKMYdY8eT9nJcdIs+gtlKAbT1OiJwRdnGOw/6CSkX/Q8jMfcQ1sMNthrbMFyi2vb+d6e02tLe4w6DdsfeZM0gg3Ld+6TFs2yw/isAABAAElEQVRYTB6izU8exh6ADkY6wo5BXqMDxgv8Lf3hoU4+pm1CWiL/kw+33HLLqF/iyS0JYSgNxhSW9NCZoPT4hhsFAYWKCUOaKICt4UtCowCjAYVQoPDBy/bwcj8ZjIyDkIjIYL7HhMYUrv4IFQeJOa+nJl6Q/KNy4p0YXoBQAFD4YrRDUeB5GDL4KzLOch8GOxQuEwrLHXfcMTMI0VOHRyPKDIIx7dhjj83eAyWSCsqE3kwW1DDjIe+PR4Jdg2KHsY4evTzhPfgGNKQwOsGLONDzh6KCUIBhQPBG7rZ558V11I9hUKBQRFJPXtIVig6Ct6lXljDgUnHRYMHYQ/ojX3Wb8iQG9L9/KGF4rCN4w2CANaFCozcQQzAGG4wdVIrewGlKMgZZvyjYT37yk6wypSJgmE8/BmMMLRgSeC/ykPcKIF+jtGEcxYiEMZH8ngqVMQ0F8hAVkAnGOjqUKKesEqQDJ89Dookw7Lm2JS+iwKJ4UIGi4KViXOnkYShPGTGDsO/c417fuWfhtJmmUBAQDJII5U7qmRFPuH+UvRjLMJqa8Z/34buhlFDO0VigDPTpr276dVHouosXgXVKdruwqM4hHaLco2j7dEZnJcYz6lA6fyjTSZ9IFY50tJD3KdPz6irS1Ste8Yo4rBBvHN/4gTcKMB5v1Od0PAzaYOynwiFOXu8o+g795IOm0g9KLV5lGCJMiAcGUTwiSLsYLGlwmF6EkZOFhmnUUQagLNs5wqBMw6DBUF6MTBj+LW/YM9hWeXaVtOWfme7bcFjqI/8O/jrKYXjzDuho1BEm5AM82ql/eB9GPvBXVtApbQ5lwvD1GHGivKfTyhozZcPVdSJQRIA6CR0bSXU2DMHWiYIRwI/WoEyjrKBcQDdCP6dzLu2ML3punXxEW46hvghD1alzTfAopr5lRBbvRZug19QBdm9TZVkT+hbGCaYiwHjhDd6083hf2lx4G+PlmBot7H3SLZ38lOH8UZd7fdSutTYyhg6vo9j5vG0/5XCbaYq4mc7ZtC6f995FxzC80Z7xBjd0KnQanKlIk7QNaIv7oe0WdzrIfb2BfmM6DnmMb4ThztrUdL6QHsgXdOx8+tOfDqY/EEectWgn0O7CyEXnbp53bC+9q+h9/fEq6Zb3MN3a7CHo3XbMh99tHy9SdEZ0DHjRPrE0jA5IviH/YCwmnugqeRx4Bu0xvoEfoUCbFF2Izhb0T/QeX/a0VS51e+f0XLdvSPnGu9NOoWxBX/ftKvQ30h5p1Bw2vNMiNhtsLeg+tAGs/CDN0cHOH+16vgNtAGxOJm3ne3tOry3pn3jSYZOnh5O34ILwnRkpYEIeZoQr96Kr4ShDGUybCOH7ozvDiDYI15muS31JmxnbGWzR40iTZetLi8NE3M44yJcisfo/evYwpEyZ2luHccMEQ40JBYwfPkIjhwLZNxqYg5MCxhqwFNJ4+JUVEqI9n0KRhq4VjhYGmRnjCkL4GGPLComfhJ56CTB0hF43zjHUkZ5HFAwKzDzxRlfC5J2t0OV6DAUY3cxzhncyIyHnbTgT+zQUKXStYuMYYdHzTy+oib/Hjvkt347K1ngRB3r+fA8NmdWM5dzbNm8fv1HepxKCOw0PGg8UlnxjvpkXKleEQhLlJk+435QEDBNlBQWIeNBQ8I1su5+0at6hdPhQqZowLJLyAqHHNRXKAIy9NOTJs/0Iygv3ET+rXP39VCLWs4k3fJFgBPfGYruOSp8KCMEQhZJTJE2E4cOmcwqFFyGvpcL3MAW4rHdxGkav322mqV7PLjpPZ5gpCf4amxuS/IExyUud9OvD6bWPEoc3brc/ytVuQtnvjcV27Xe+8x3bjUpU9qPCDsbnImMxweFxRb4ifVlDyj8G4yUdnUi3fOXvaXPfOh14hg2zbPJ5TaUfuKGD5IlPv9ZpznWUjzyf70Fd73UmC+e6/3ke0mHhp1qw82yrPNvf38Q+HW+I/14+XPKu1UsMK/TGYruOBoCNPEPvohwsK3S8IZT1dHDmCUPUB90BkhcvHZt+CNBhiQ5Eo9+MjTR68SA2QS8yvRzDsDcW2zXUc3SOoueTN2gIl5G6+YhOT8tXeTobbTU69ymTyhqLiXdTZRlhNaFv4eXnjcWEi2C0Mu9LOq/86Jv/vyL/P96WlLN8f4wdqTBCysrndEh3em2V322mKeLTpi7fz/syhQKepnnCcTMwmdOUXWfTvuSlaa7BmYU0jV3At6nRcUynRG/yxmILG8Mgz8aIR1shnVKC63rpXRZWr23T6bbX8+w85RU6Bvop5Zq3W9g1GIxNx6XdQsdJnlC3e2OxXQMjm/4PY6GXtsol/4xe+92+ITYf62jDruONxRYuNhWb6oOyxYuVDZT3No2RP49jIuUKadQbi9vO9z4OZfZpo+UZi7nXHDbR47guT7BT4HmMnRDPahPSH+mJb+Cdhuw8W/InbX7KYJxZJFNtnYOEQA8A3qr2h+EKTxDfUMNL0M+5hVcUXn4mDDXIa/RjzMJQYmIKvv3utmUokQmJMS/BYoz2Ga3fxi7DJnB3J0EzRD1PaBRhaKHySYcNoIT5DECjO6/xhKEK7z4KB/6sQcjzbNEY9mn4mEGM3yYYz8hwJhgyKOiLBANHnrAIjBfvPTcevP2zR2GfAo6es/SPnjiMBaQtjPr0JppSBBc6FWweWobW5eUtrkNhNy8XKiefZzmfJ6Qbyyf0pBcJShQVHcL0FCYo0KZgMbwPb5nxFKt4zbst79l5jTW7jm9hBrxuBuMmwrBn2tYMwSgIVIBeUEzoxKFM67ZAhL+nn/0201Q/8fDX0gmWp4RxjW8EmHLP8brplzDGS1DAi4xVlOmWv7xBsUrcqDesY7bK/dxTJl9VDbvf+3zDpWzjvuwzmkw/eJcUcffpt9/va+mCdyoq59p6dlmOXGeelpZ20nvxtjQ9xTok0mv4bTocZRRGmDKC7oUeilAH5hneOUfdicFIIgJlCGAUTvU10hcdQIzmot5GR2e0ntfL8ELFsIt4XT19JsZZGz3kde70Ov+7bj4yj1bCpG3nRyP557SxX6Ys47l19S0MxeY8kfce5tnI9/MOEHnX2jF0XYuXdebbObZ2jLajZ+yvqbPfZpoiXoPW5Y0NbRxzbrJjtsXQax2NZoCzc5aP0Kfp8CirK5hhj7rbt8UtXNtiCMQ+gPOYNzjb+Sb0rjbSrcWv19bKHzxB8+wOdr+VZ/DFGzxPuqV/04XQg6zjijD8PeNdLtk7dPuGpCuEtGk6it3ntzbS1fQRO2fOGehJOE8xRUUZaTvfl4mDXUP5bfnMjtkW72NzpKSO9Hq7XcMWfoyYIy95D2zjiy6L0ThPCNOe3629nnfvRD02aVhfDMMKQzMYruQbRmkjJp1k3b8PwxKsEUBPXVnx12KwwiidJ95w7e/JuzbvGAoc3i/88Ry8XDDeYJRlGIUXWw3WvK3pHTElkeu6caDCSSudfu73Bm0KXb6BP2bxxGCdZ1znPN+Cod42YTkGY5sywLNrk7fFc1S2voJM3xmFBC/2dP5HvoXd1y1NEZ552LOPwdF7onMsFcI2xQov525GZioEhIrQT3fxta99LQ49ISw8lEmHKH140NLYKir807gU/ebdma6DfMiCj8QDYwJb38mRdz8VjCkoeecxLMCUNG4eCul1TYSRhslvyjCm0eFd0mkprPGBEb/IiJoXZtljbaapsnFIr7OOh/Q4v2nM0CAnrVp5xfEm0i/hlBEaKjZ1S5nr02uYT7FIieJaDG2kaf9+aRhlfud1Uhbdh9JO3UajmWdb3vKjXoruHa/j5rnK8/p5tzLxazL9dEu/3lBS9H3RHShbGdXFsGy+BY0KP/Kn6J3qPrso3H6O23cq0je8oZxpjfyoNP8cq484RqMgrQ/9tbaPTgkvxE9hYuf91hoc/pj2RaCIgOle6XnqI9oJDFX3+ZvrfFr3OlkaBr85j+HF35N3nR3z11XJRxiliDPD+lmADIcFjKvoGuhs/Hnjtz23n22dsqwJfavXUGWYo/vxbTE8Fk0jlb4zHoR4qOZNS2EjxdrwLiYe/rs3nabsPdvW5e053ba9vp19K3QWDP6mU5GmccCi7sQDFF0N4yZTHaG74RCWJ8aVdoI5j+Rd1+tYE7pJr3evmm57xZ3zxqFM2rLwijqb8mwRdo+VlYwC9zIe5ZJ/Xt5+t29o70rZ5heUTsMxByxsMuhE2JQQpqygnMX5i7KXspvOa2snF+kt9l0Io8y36acuIcx+hHcp6oznfe2bWh7tJ2zTc3G6pMOgSMjjiAzGEcNg5zDGs9gSBA0bJqe2RIDlnwollXRYgvciTq/159L70mv9b/NesWPeMGzH0m1q4E3P9/pNj5D1CsGA3hO8CjAim+BtbAbj9Hn9GnpSHt1Wkk2nzoBHXiGdXmfxZktFi7ezFUg2tQDnBsGb505koVcyHWqFIZR55BC8ivMaxz6te8/jPFY+Dfj78q7lmDXy2cfAzPQzvST1yLCheuQNPIxZOIs/KkV6E+m1p6OpSkOd/MV8fWV7Y9O4w7NX4wemGIz5FnnSRBh54TLVB2xYAILGhs1jTCPGDMZtNT582mg6TeW9a5ljvhOyzPVc00T6LfusutdZvVo3nCbuJ58yR6ApwU2E2VYY1sFM+N0U+irPbzL9VP2+NHoZAsqQPParSNVnV3lW0T0W96Ly1rOmzCsjaV1TdI+vH2y6r6Jre50vuk/HR48AnsQYVL2QT1kngo4NGvtmAPHXWP1KRyc6djcxnY1h7vyljiTpvU3kI+bKpH2BvsfQcOoDGx1Ghw/Dxhl63svhII1bE2VZE/qWMU3jZ7/5LrwbRo6yZQz3MjIC70t0ZQwXljYwdmDAoBy2kWP2rKa2baYpi2Oburw9o9e217czfZX8R9o1Ixqdpnj/Mgcx01XAiyki+eO7kFfJz7yjF2vr5rW9/HXjsd/r3aum215xp81h9odeccABCOMu3CxNpuHjiFZF2iqXqsQlvYeOCJMy7WSupWwxgzGdEYxEYdQK07HCG69a86zFgY8OKUZ+WycIYRjjNuoSwm9KLJ6EZ3m0bNg+/XFPGb7kfexyVdqNZeM1PVw3UA9jDFq+8cH8KeYJQs8IiduG8xjMdAgiBsiiBGPGSe7NU7QszHTLkF3LsBihmIsuTzByW2HVZEIiLHoqbXVWy+R4POKVifKRckCp6EfS+z2rNJy0oZ83xyv3EL8iQbnzHqXeuDxo3kVxnp6P01BNexH5TeVBJwQTwTNEI+1o8B66/nvlsUABNnnqqadst3DrG88YdUnjRWKFc15aYwgKf3Q6MLSJxgc9nXh9Mf0K+YWpNvoZDuwXscTYjrJOhxPlhv3hkW3DnPPijQdhL7FrijwQ7Hy3cOyaojCK7sUgjPEEPuRHFAU8DMn7fBu/qEdRGFWOt5mmqsSn6j1Npd+qz58e72PBVebBJ72Rn6jPqa8xFFBmUA+x4ImfHmmQ72neztSx3YZKVonjoNMP3irM10meR2+hA4lpS6gD+A6mI+V11Fd53zbvoWGEMSvtOLdn0uAxwYOkyLDMNVbX9Gq8WngYDdAL4clIkW7D0eWZYtS07UWAMifV2TAsobNhMGGU4SabbNLRZiJMK1doPzGCyNe36TNNZ6PuJw33kqbykc3FjyMMuhrexvzR8Ld51TG+dXNc8XFtqiwzXcqHne7bNUX6ljFN77Pf1H1mIOunTjGDMM4RdOqbwdgWMWce0n7Cs/iU2baZpvzz29Dlffi99nt9O/v2hJOypr6gbuHbYjS2dgjtZTw/+aPN4BfntnZ3v+31Xu9R5Xyvd6+abnvFhXSN7kdZVSYOVseXaWP2enZ6vulyKQ2/6m//rrRNi8R0F85bZ4ZdS9mNUfy4446Lo0rxpuUPnQTjMgZl0igOBFYXjFe+tzhW3Zquyv20X83Zskx4pD/Y0PHPfYzcKRLP19sqi66f6McHajBO4dJQoWK0YYJ4+zHMwxtjUaq8kPAZip4nvje3V8+7v59rzQOQBpVV1P6aqvtULjZ/D2FgmEqNdj5sGthmMOY4RlkYYEizRgvH/bvyu5dwP0ojlQIyefLkuM37l55Lv4Hdg5Gd98sz8hGGfVeu98MI2uRtcdP2/wmccMIJsfKYddZZw3bbbdexOjBXeK865m9NO2w8Rz9FQ1Ga8Nf7a1C+bUoSf00/+zSmGBrGH94yeONQZqBgoMgx7UUZwQjMkB2EXlcMXHlC/NPFE/x1KEBUXkUNC661ciVtGFo4TYRhYaVbhsqR11DSbFoKG9qIJ0Qvb6M0vLK/20xTZePQxHVNp98m4jTsYWAMoI5hCCYe/HmGu275ZTzfj7yJEQNhCpemFcRBpx8aCxiLkUMOOSSuDh9/uH+9OgndpQPdtakozBCTRsbrVDTsew2/Te/v9hu9ifAYKcLURX4RyfQ+Ww8gPa7fIlCGAA1bpt6iUc90Bug46ChefFpfaKGFunZg2Jz8eO2VKd982E3ko9tvvz3wh6CHUCdgEKVds9VWW3WsdO/fMd1vqixrQt8ypmkc7TeODRi4EUbO9iN4EMPHT0vR9ogw4ue/e9NpKu/9+9HlLd3SnsRb0H6n4ZqhMT3uf/PtujlK8O4IDk5FHTG0d8mT/BEf2ve0QwibNhbHzdhsOgCjItGLqEsGJW2m217vRJuAvNcrDtg1bFotY9cr7CrnmyqXqjw77x57VzoY6raTSWOMKLVRpXRyb7PNNnHUAmmV8sQWB2wy31uZl/d+RXpb3rV5x7w9r1cezruf9IfBuAk7RF74E/VY58QuA35LKg0/LJoGXLqaLz0CvneBxE4hnQrz83mPV5u8Pr0u77c3QGMUs/nq0mvp0Ufp4c+GmqTX5P3GIGV/W2+9dd4l2TGb2NsOWA88lSQ9zCYoFH74mB0nY7K4IA1gVhI1AxH3+4XHUMDy7idTee8v+BdVnDxz/fXXt0d3bFEMvfgGXNu8/XNHfR9DvVUOND7SuXQpSM3TivlGu4kZH1CGvMd40T1UgjYagMZ2k4KxkylubKVt8r6NEuj1HPKOdZzg+Zwn5PFuxmK7J82vdpwtDQcbStOt4dBEGP65tk+etyGMVg6stNJK8bQvd+36KlvfKWT3t5mm7Bl+mxcHf77qfpvpt2qc2ryvLkcabFZGMPQtz1hM/Kl7Bi3k//333z82TvC+vfTSS2tFKY/doNOPLfxLfixa3NLmxKv18iVuzuNT4rbsEt4BKWp44PVrhgRLg9nNDezYYjOM2LCFjNJgmWKt6Fx6rX6LQBEB1nAw/YohxnSOe2GklqV1OjCKhDLOPN5926Hoeo63mY9o9J900knZSDCbpqJbfOxck2VZXX2LKSLQD4vEwucbFTkKFN3L1AeUNXw7pqXgWbRt6UhIpzsoCqPb8aJyuM001S0+nOuly9tUk8S9SMeHl5/2sOiZvdKcfbtu+roPm2+Mk9thhx2WHbYwOGBtXeLXrX1FW4NRoCx2n+b3LOCaO02lW96lX2HBN4T2ZzfDoi/PypZZ/cYlvb5OuZSGVfW38UGH5js1KZRB++67bzZK3ZwkeEYT+d7qKu+dn8a/XwfH9H4cBsyG1Kv9wDQx5CMWcDUxvtgh8uyHdp22nQSGymBM1E499dSOXjeGq/oCk94SX1GS2FOjKz1Xhx56aNYzRbhFDSTOpYJx1Xr+MAofeeSRmUHJrsW4esYZZ0QDDEYY5jMqI/RG+vlVScx4YeH6nsraa68dh5DbcYx9vgfoqquuslPREIUR2odDRmBaCyofDFX01FkvEzea4ZB9Gl7Mb+sVCO7fa6+9snmHua4XR74FQ6YsHlQm6623XuBdTMjsfnGwNnnbM7WdRoBhUqRvvpEtpjjt7LRvTGOX9JkndNQw/QNCmrAGS961/pilH6aeKWpMk7cYJsJwIRt+Rxj0huJtw0iEyQUe8Ta0hp5ZG/7ln5+3768rqjyYI7mMMBVG3nAz8oHNH00cfRmQhttEGGmY9tsMw4xaQFlm+By9rFaB2nX9bG0YE/d4Bc+HYd+9jTRlz7F44OXdrQFn11fZ2ntUSb9VnjeIe5riSKPW8mNRviJPl+mIaZMD+ZVyxTqxWGjXj4Ap+2zjxvW98sEg0o91tKMH5Bnv0bPKzOdWlkfedcaobh7FQxIpqgfoxGQeSYSh7kWNLhobNiw1z8CAfmleZjGw//0jvdAwog49+OCDo35jzyBONPYZ5eI9Yfz9tk/aZ4h+Uf6w67QdXQLoaieeeGIEQL1G2vJCGjNjCu0QG8Xkr2Gf1eJNN7F6LL0m/V03H22++eaxbGVaP9+O88+xkU04DJWVJsuyuvoWeZf2pm872XtQJuy4447xJwYO6sR+xXQ2dG7r6Gc6oSph2bN7lcNtpiniUEeXZ9SvCVNB5MkGG2zQ1RBp92BEon2aJ4RhxjTziuc6RuFQ/vPn2yc+DL+gnW/rMgWHjY6hgzqvwxMD6pe+9KXYdmeKLMsfPvwm9uumW5s2oZvhuyieZnvALkE9mSfUx7bwM50mnmPe9f0ca6tc6icO3a7FTmN8SSdFRvlNN9006i8nn3xyZnMhXDosSJ/GL30WThE2ct8cxLimiXxv+ZPvV6SfbbbZZmmU+v5t5SJODhiE84QOffhh57D35TpLf+ihjAbIE/IHI/HQD/PsJHn3TPRjY62UA35jjBd4xJrQS5Eaa1CerMHAdRiV6YWn4PnKV74SDVh+8Zrzzz+/r55dvHgxlNr8xCRIwth7771jwuQccbReEjJ2kWeivYffEn9LvBQEu+yyS5xPFqUKAy8NECbM5znW+0YDj0LBC4ZqPw8sve4YX1lgiExCpvAe2iiJvvLB4MyUGCY0XK6++ur4fO7nvBkFuYaeKTgUCRUhigjKE/HAe4Dw9thjj+wWmMLRGxjb5p09XDuRAHmM9IWgMKWG2ylTpoSbb745nv/CF74Qhw1aY5gCFuP/fvvtF89jaOxnzkvCppcdowWVGmHZHNnkBbzZMWijhNC4sXjwMNI6PdLkRzpx8P73DW3mZraKCIXaOn1iRLv8Qxkxr3nSJkqiKf9UeuRDFp4x41dRUKR93ot5o1D06GwiHMLDWGyebkcccUS2OEEaVhNhpGH63yx2wCgBOtVQKBDKCZ8f/fVl9r0ih5LN98GQYp1GhNFmmrI4+ngwFJDymTj4NGLXVt3WSb/9PJPvg9Gx118bhvGmOJL/rCOCjsQVV1wx5gk4MCKH0SjkBWu89sOnn2vzWFJWMGUN6ygwl7vlTabg6TanWbfnem7d8kHV8q/bs8uco7GK0EjDw8QMS5RReK2hX5gHYpnwqlzjGdXJo3fccUd8PHWHjdpI40MdRQc7XmjM47fCVA89G6Zs0xCR/qhH6MhPDVYM22TOZ6Y84l4v6DroahiuGIVFHcHUZddee22cooJzzCmILlQkGKvRp9AH0QFToa4zw0T6/PRa/Z7YBBgdSL2NYCRIPStJ6+h16BykaQxZGKOo+0jfNIptlB91mJUFZajVyUesB0HHNGX/AQcckBmseS5xw/iN8RChzVBWLP51y7Im9C3KGN6RdhdbylPKF/IseiojVDHu0qaqInBB90Q3Zt5RxIwlVcLjnjLlcJtpqo4uz+gSm+IBj3vqctPxKIsxBlK3lNEr8FamIwWDk7Vx2KLvU4YjtoBd/DH1HyOF0Jf51nxT0q836NEJSDsCoVPRO4fQ/t51111jO5znkD64n3Y+YaA7k45sqgYbMRkDa/hf3XRraYj3hReOPtZu6hVVmNLOQ7BR8A3QPfiO5BdGPlKOsc/3Np69wi17vk65NB71MjYl7Cbo0KQJbENsLZ3RaYERk3Kd8p0OQ7MpwYB2HumT9jB/fpQ8eQSelJ2kY++Ayb118z0GY8LlW5KWJzvnLtr0tIWbmKrr7LPPjvoWccYwzvz+ZvfjOWuttVZmeyJO1qnK9bRL0O0Q+FCu8l2JM3/kv2OOOSbav9ivOy1IfNAE+DdUcxgbTzx8aMwxzyrCB6VRZ56AKOv0ClOg2FQQDEHP847hQ/Ph+xUMThi09tlnn3grhXvenKhWAVjhWeY5TI9BAifjmOJH+PzlCe9L4WGNb7uGTEn8MJJTaCA0iFgkIxWMxVznhftpOGLgMu8qChZbeNBfSwFkBZg/7vdpcFHBUbgRDz8EwK7DiGzDcuwY2zZ5++do//8JkMcYMsv3xgMCBdwqHDon+NZU6KQL5s9DSIe+cY7HBBPylzXMEgbXEh4NYdIsDW2EDiDSDAZXBAMuhbgZcjlGJUpe5pnMAUbPH2UCw/ZQWixuGICtMuC+XsL70minTMFAx70YAujcsDDpacTAZfksL0x6Z48++uiYz1AEUfL5w2BlwnyXdG4VSRNhFIVtx+losvzOsbqND8oGhq6iBDD8zjoQ6GygoYu0mabiA6b+Q/HBm5A0TdrmD6HxTNptQuqk336ejwGTPNpLYM2onCalSY4s+EKeIh9RL5AfaABYJxH1Et8m7RRu8n3KsOS7whHm1ItVpEw+GK/0kxd/Gq7wxuuCRhp/lDeUTxiaMGrQcLOGXF4YdY81lbboSKR8pr6gLDMDko8fRgUa/dQ11Bfoi9RxGIdNb+R66jHKqlToQDdh2iJ0FC945tBgo8yxabtgiU6IIZi0TyOkSAiTxgnCfiq8F40+hI4NyegSoEw6/vjjY6cOxkgMYugkJuRj9CU6u9CF6KggraPHeC9G6n508H6kTj6ikc70PpQ1eMfyh5GOMn/yVEMC74Jccsklma5QJm5NlWVN6Fs33XRTfB/mGkbXQGfFm9qMO7wPhpMqo1a4l/KKaQ5s+jDinNeG4tqyUqYcbjNN1dXlaTegs6NXHHvssbHMJa3bHPyUvRjYzEO4iAttfNo/GN/4S9s4dMLQXqHe9kJepD6h/U6bBL2GaSv4jW5DuY6ew3dPBW9l2u14EVO+c795JJvNg/xOO4Tv3pbUTbe0Y/B6R9Ab+LvnnnsCneVlhG+EQyDrx2Bw5o/2HAZNaweSTvg+Ng1JmXDLXFOnXBqvehk7EeU4nRI4dfFHOkO/8AZgHH5g6QWHMDpS0H2xNdGxQgc2DjTUD5RNhEXeIY17qZvvsQPRDqZjBEcE2rxmu6ONT9pGL6MTv44QDvYr6jPanaQT/tI8jH0gr8MBvRAHONqJdMLyRxlC542NhuEZlBE2Wq1OfCfCvTMO40uwAjZeHSZkDipjLxgo6FFg3lJvVLJraASQ2TACkcGqCB4jVEy+h9DCIUwKTIzUvufCzvfaMn8wBSSNEArFPOG9aBiRkFNjsV2PMgcbGrtkdC9UcngFUyiQsSggUqG3FO8vvItsfmR/DZUejWh6bcsYxfGwoRGVKkc8h4rxzDPP9MF37LfJu+NB+hGVUKZUQfDETDtDMB5QqNPwtfRpxlOUG9I+hTMFbL9CeDRu6ASyYXU04FESCBvvfQxI5lHjw+ce0iJ5Dg8CKiAqC7Y04EmrjDgwDwR/b7d93pOyAoWHhhZlDu+LooIxoZuR14eL4YJhoXjAUfGYsRhO5FEq0l7SRBjdnsHIAVOAMa77IUnd7is6R6VKOcniHr4s5riXNtMUz6HeIF0xaiKvrPNxqbNfJ/3Wee543dskRxpH1E94FJHmyBM0qEgnKHp5DarxeE/KDhRJlHIafnSyYmxJ02w/cSmbDwaVfogfegCdDFY+4qGOsRj9gnKz3zk2++HDtU2lLYwo6ICInyMyHnD/0APRR2zxZBpMZixGt6HhT/qkkZEKo8Zo6KAXFS18jG5IPYg3IfocjV+m+0HXocz3oyysQ9aeQ0cdc/qTF/I8yTByI+hO6QroFoa2o0OAes1GXGGATadKoTzDkIyTDJ0ppD0zFpOGMEAxerFKGVcnH1HG44BAGNQBOMZgdMFoQf6hTMJ5pp86u8myrAl9i/YTUwLitYnOZ8Zi8jfvZx3nVVOr79TH6F/lG/pnly2H20xTdXR59Ar0dbakKQw8GIspcyl7yzqMoJPS4YeBjXCsjQNfRhuhT+bVDXioYhjFWIezC3oNoyJJ2+Q1OmaZarKo3U67H8cX9G8EQzF/tH8IG2Mb7YW639l/87z9Oun2lltuiWmbNhMOIUi/8cVozkLsZrQ0pyHqSvIlxs62dJKq5dJ41su0qWhb2RzapDMzFmNj4RwG5ZQ7aRa7DvkAL3c6MHB2os4gjVGXsMiojTRO00bdfI/9DrsTegtx47vyR3nIaCrSThOCHY7weJ61PS0P03ZHb8Ph1NZOSp+JMRgHCbOdwZayhPqT9LfllltGO0V636j+nmFqr+WLeMZMz0LlTEFNbxWZgcYQFXeTQmVEbwSJCcMp4aeZtOrzyMw0onF9p/eHHhoKg3571VAQiSPu+HAwBa1svCwecCQs3pGC3CqDvHDwGmO4GUJFRwYzQVnF8xvlhG/SD682eVv8xmNr05ZMz3mM/EWaovecb0maQLlqQgibNMtwJsLtJ19ZeqWCoGKq2jGUvgdeL3w3KpEy5QhKJZ06GF79fGhUPigXGDd6MWsijPQ9in5jIMLDBPYobBjLmxQ8BBiaxnsXSZtpyp5J+UMj1Dol7HiT2zrpt8l4tBlWUxxhRb7ie2CE61avtPk+4xV22XxQtfyr+x7UsdT1NCi65dW6z+l2f520xTBivMJoDOSNLkufS7mOnkXDnHfOMwSk99BAo67rR3fxYRAvpkrDiJA38os6jGfk1V10LjJHJx6ag+pY8e8yKvsTQWejjietY7y09lDVNJx+9yr5yMKgDrC5wsm3TdUB/ZZlTehbU6ZO7YEHH4ZPP/UMZSr6MrpjP/qsMcrbMtoBj1qEkW5NtyfKlMNtpqk6ujxpiraz6dlpx1wez7xjljYpj2njmwEq79r0GG0QhsNzX5l6xd8Pe/IqbXbaEE3lU/8Mv99GurXOKZhVaRvy/em8Jt/QmY9+WGZKEf9edfbt2xNGr3JpUPUyaYx0QpmJjYj0UlbQeZiCjM6NPMfAbuHUzffWDua5dNK3JXxD0g8OAeQj82ou8zzSH+U2f5QjxLVKOi7zrOn5mqGckqJfoHxYEgh/bQkKP39tCBUExuF+DcRpXKgo64TTVDwsXmS8qg3RNnlb/LQtR4D8hSLEX9NC2FR+/PUrTadXez6Kis2RaceqbPF2MA+CKvdzTxNhpM9m3kAqV/Km91xJr6v62zzSu93fZpqy51Yte+z+Mts66bdM+MNwTVMcYdWWt8gwcErjUDYfVC3/0uf1+3sY6tg6aYuREnhF08nO/Ie22EoRB8r1fj11i7weGZGDRzGeKAx3xMsqFcpYG7ljnqHpNdRhecZirjNPpqJ707D0WwSMAJ1yeWnSztfZVslH9jzqgDbi1VRZ1oS+ZYZie+cmtuaIg2de08Zi4lemHG4zTdXR5UlTeaOA++VeJ21iJO7XUGzxg30Z/nZ9W9s66Rbbg19Xqt848v3rPL/f56XX9/PtB1Uv10ljGJfzRuymHPJ+1833TZSpefFKj/ENq9opSH90rPInKSYwlFNSFEdXZ0RABERABKoQoBeVOd0YooMwBzTKgEQEREAEpjcCGIlsnu811lhjXKN/3dQhxYxqw7MNjyPmLuU3wig05s9kyhUM2TRGGNHRj2BsJjzuZfoyiQiIwOgRwNuV6dlYIBNhmgKJCIjAYAioXh4Mdz11OAhMCA/j4UCpWIiACIjAcBJgET7mWGPqDwQvlXPPPXc4I6tYiYAIiEAJAqyUjRcvcwdTnrUxCiYvGnj7MP8dCyIx7ZYNSacDjiGcJvxm1XEWGOpHMBYzrQ9eQVU91/p5nq4VAREYHgLM98lc85QtVp4wL67N2z48MVVMRGB0CKheHp1vrTcdS0AexmOZ6EgfBBgGwLBN/tiXiMCoEcAoQKO+nzmTUkZNhJGG6X8zvxrGYobJ4+3GEMcyQ+Z9GNoXAREQgWEigM5x1FFHxfkObdj2eMWP6XxY2Ojqq6+OcyIzLBfjDnMMsn4E51lYBm/kfsWGvbIoo0QERKBZAk3oWwy1Ru9rY65V5oRl9ALlCeuGnHbaabHjqVkKCm0UCbSZbic6T9XLE/0L6/26EZgQi951e0GdE4FBEpgIC6gMkp+e3QwBJvNnSgrN0dQMT4UiAiIgAp4AU1Gw6EoTC6ZQVs8000xxjmSmpZCMHwHpbOPHWk/KJ0D+p5MfJ4RhmN82P5Y6KgKjRUD18mh9b71tJwFNSdHJQ79EQAREYMIRYEEJiQiIgAiIQDsEWLyOFdabEIzEeCpLREAERo8A+b/KQtCjR0pvLALjR0D18vix1pOGj4CmpBi+b6IYiYAIiIAIiIAIiIAIiIAIiIAIiIAIiIAIiIAIiMBACMhgPBDseqgIiIAIiIAIiIAIiIAIiIAIiIAIiIAIiIAIiIAIDB8BGYyH75soRiIgAiIgAiIgAiIgAiIgAiIgAiIgAiIgAiIgAiIwEAIyGA8Eux4qAiIgAiIgAiIgAiIgAiIgAiIgAiIgAiIgAiIgAsNHQAbj4fsmipEIiIAIiIAIiIAIiIAIiIAIiIAIiIAIiIAIiIAIDISADMYDwa6HioAIiIAIiIAIiIAIiIAIiIAIiIAIiIAIiIAIiMDwEZDBePi+iWIkAiIgAiIgAiIgAiIgAiIgAiIgAiIgAiIgAiIgAgMhIIPxQLDroSIgAiIgAiIgAiIgAiIgAiIgAiIgAiIgAiIgAiIwfARkMB6+b6IYiYAIiIAIiIAIiIAIiIAIiIAIiIAIiIAIiIAIiMBACMhgPBDseqgIiIAIiIAIiIAIiIAIiIAIiIAIiIAIiIAIiIAIDB8BGYyH75soRiIgAiIgAiIgAiIgAiIgAiIgAiIgAiIgAiIgAiIwEAIyGA8Eux4qAiIgAiIgAiIgAiIgAiIgAiIgAiIgAiIgAiIgAsNHQAbj4fsmipEIiIAIiIAIiIAIiIAIiIAIiIAIiIAIiIAIiIAIDISADMYDwa6HioAIiIAIiIAIiIAIiIAIiIAIiIAIiIAIiIAIiMDwEZDBePi+iWIkAiIgAiIgAiIgAiIgAiIgAiIgAiIgAiIgAiIgAgMhIIPxQLDroSIgAiIgAiIgAiIgAiIgAiIgAiIgAiIgAiIgAiIwfARkMB6+b6IYiYAIiIAIiIAIiIAIiIAIiIAIiIAIiIAIiIAIiMBACMhgPBDseqgIiIAIiIAIiIAIiIAIiIAIiIAIiIAIiIAIiIAIDB8BGYyH75soRiIgAiIgAiIgAiIgAiIgAiIgAiIgAiIgAiIgAiIwEAIyGA8Eux4qAiIgAiIgAiIgAiIgAiIgAiIgAiIgAiIgAiIgAsNHYKYFF1zwgMcff3z4YqYYicAEIDDXXHPFt1AemwAfU68gAiIgAhOQwFprrRV222238O9//zvcddddQ/OGiyyySNh2223D3HPPHX73u98NTbwUkYlLQDrbxP22E+HNhqGs3nTTTcPqq68eXvayl3XUF69+9avDPvvsE1ZYYYXwy1/+Mjz77LONIG/inYvi3EgEawSy/fbbh5VXXjn897//DQ888ECNkHSrCIiACLRHYFJ7QStkERABERABERABERCBYSVAo3+PPfYIL3nJS8LCCy8cfvCDH0TD8TDE99577w1LLbVUWHPNNaMB4r777huGaCkOIiACIjDuBIalrF5xxRXDW97yljDDDDOEK6+8MuOw/vrrR+MnB+65557wjW98IztXdaepdy6Kc9V4NXUfddurXvWq8PDDD4cf//jHTQWrcERABESgUQKakqJRnApMBERABERgFAnMPvvs4XOf+1z8W2yxxUYRgd55CAngvUS63HzzzXNj99RTT4WHHnoonvvLX/4yNMZiIoTH8zHHHBON2bvuumtu/HVQBERABEaBwDCX1fC/++67s8+AwbgJGfZ3buIdFYYIiIAIDDsBeRgP+xdS/ERABERABIaeAAbjT37ykzGeDJ/XEPqh/2QjEcFlllkmfOxjHwt//vOfw5QpU8a884svvhgYrvuud70r/OQnPxlzftAHbrzxxvDggw+GZZddNnzgAx8I119//aCjpOeLgAiIwLgTGPay+nvf+16sZ+joa0r/GfZ3HvdEoAeKgAiIwAAIyMN4AND1SBEQAREQAREQAREYBgJ4cWGIbWrOyabf6eqrr45BbrXVVk0HrfBEQAREYLohMOxl9a9//evGjMX2UYb9nS2e2oqACIjARCUgg/FE/bJ6LxEQAREQAREQARGYzgmYwfjNb35zYGEliQiIgAiIgAiIgAiIgAiIQPsENCVF+4z1BBEYFwKve93rwr777hufdfjhh4f7778/97kf+chHwhprrBH+/ve/Z9f7C1n8aIMNNoiLWtBAZ9EJ5ib7wx/+EM4666zw17/+1V/esf/Sl740Dn/+8Ic/HF7/+teHmWaaKV7/ox/9KJx33nnxmR03TP3B84477rh4+NRTTw2//e1vw0YbbRSHSLOwBp5vrLxcRj7/+c+HBRdcMPC8c845J6yyyipxxeall146PP300wHvhxNOOCEuMEF4vNuWW24ZGLZNfGH2m9/8Jsa12wJLSy65ZIDjQgstFCZPnhzf6/e//3248847470MyUuFYeFwYb7Qgw46KC4wxXcgrAUWWCAOu77jjjvCV7/61fDoo4+mt2e/55133vCJT3wi3s/z//Of/0SPDoYAXnjhheGRRx7Jrk13ZpxxxvChD30orL322jHeM888c2BhKRa6Ovfcc+MiJv5b3HbbbWkQ8RpWwV533XUj6znmmCPyvP3228O3vvWtmE7Sm9JvzLUskAL3t771rTGN3HTTTeGUU04Jzz33XLx9/vnnD9tuu21YfPHFwytf+coAX+5jWD3fskiaSIM///nPwzrrrBNIN3wfVrBmTr5LL720Y5EX4gAL8gvvaMJ8sazsjZB+v/3tb9upRrZ1vmOaDpmKYNVVV435DWPcJpts0jEXIc/iHXkf8tbcc88d/vGPfwTyxyWXXBKuvfba3Hlvt9lmm/DOd74z5rmTTjop971ZNMfOnXHGGeGWW27JruO777DDDvE3i7L961//inEg3xEPvglxIM1fc801MR9kN/e5Q5ph8Rk4zDfffPFbWn7+4Q9/GMiXqaTxIx+QJ+BJ/I466qgYN38f91C2Ua7B+rHHHouszz///MDUCwy/LZJ+y5wjjjgilm+UT8g888wTTj755LjPv9133z08+eST8feOO+4YKOt/+tOfFi5URP1CnlhuueXCa1/72lgOUBdwD/EvWuE9LZPf9773xaklSBtzzTVX/IYs9sP3zys3ieAf//jHyIrr3/ve94aLLrooxlv/RGAiEJgeynOmg9lwww1j/cyc6EWy8847h0UWWSQu4PXNb34zuywtL+uU54SF7kSZ9cY3vjHqPHfddVd8JnV0m4K+QjnPljL8mWeeibobdRDP/uc//znm8an+U0fHLSqr02f0o8OkEebdmF4LzpS5lO1WNzzxxBPp5dlvvgX1CnLAAQdkejZ6HPUX0yIdcsgh2fXpDjwPPPDAePj0008PP/vZz+J+0Tv7+6vGual2E3FBh2DqJPRy9HTaE+gRTPX0/e9/30e39n6an9rWPz74wQ/Gupc8BzPejTxHmv/FL37R9X2q5Jm63yXND2Xy3Gte85qw3nrrxffk+5G3adNx72WXXZal57yXrdLusHCIa9U2t4WhrQi0TUAG47YJK3wRGCcCVFgYKxDmUy0SKmKuY17IVFDYMDZTwXtB2eNv9dVXD4ceemiu8sPzMfjSWPDypje9KfD30Y9+NGy22WZjKl0aSxZvDAH7779/WGmllbIgZp111my/1w5K1BJLLBEVXBoUKK0mKL4YgzBYbLHFFuH555+PxhGMkSYoQ/yhHKHkpkZ3KnaMWDScMHaZwBujL8ZYDBoozQyj84IBlPckzDe84Q3ReIOSZ7LwwgtHIzDP5hl5RioY7rLLLmO+L+/EH8Y07sWQlid77rlnNBb7c3xr/og7irn/Fv46299rr71ip4D9Zsv78LfaaqvF+KWrPftvjIGPePAuJpZGMEZhbH3Pe94T0xkGbZOllloq8Ec65B3zhs83kQaJ32677RYN2vZsthhK3/3ud8fvax0zHMd4Zsz4jdBgMCn6Fna+yrbOd/TpkLxCBwHp2oROHi977713x7fiHIo1fxj88f6kQyc1dsIALuSzbmLsLr/88o7LyK92ju/65S9/OX5/f9E73vGOwB/p4uCDD/anSu8T9te//vWQLlTIs/nDwIvx94ILLugI08ePMuTYY4+NDSm7KC23yBt0FHkxjqR7GsjeoGvXVS1zYPLyl7/cggmzzDJLxpODkyZNU/8WXXTReK6oo4r8SWcOHWxeLN/SAbXddtvFxpU/z74vk1mAj/rDl51W/tC5x5QTZsROw6HRBicMVzIYp3T0e3omMD2U55RVlId59a5nj/5EHW0Lado5X17WKc8x1qIDed0A/YuOMcqXFVdcMRoduxk2LU79blOdkvsp53k36lI6Y7feeuuQPtvrP3V13KKy2j+jXx3Gc6B8pbPRl9Gmm6KzoRcXCfWN1dnUNyYYnOlApk6ijfDwww/bqY4tej/303GIodWk6J3tfJ04kxYtzlXbTeiGtDXQh7xYe4J0wT7OKqme5K/vZ9/np7b1Dzp9eQcv9m7kCTp70V3y3q1qnqn7XXx+KJPn6OwgbXqdCX2HtMUfDi5w+NWvfuUxxH3iWqXty8112txjIqIDItAigWkthhYfoqBFQASmDwJmLH788cejkQSvApQAFD28Wmnc4wGA5ynecSZUzhgCMBbT4L/44oujtyCNC7w08UxDqWLFe4wCRR6iGHIxQuDxSsX8pz/9Kfby2nPKbvHgw7iNZ6d5QNLzz7NRAr74xS9G72eMJhh6eB8q/eWXXz5svPHG0aOV98R46QUPAgxICB4lN9xwQ/TuJUwMxSwexftyL0bHPJlzzjmjkY53o3cer1mUFLw4CZt9PCoxrnsFDK9FDHMo8vR6wxhvaK6hsYIij/ESww7GKTyPveAxgmEHwSMALrfeems0dKPowgtjfTfh/UxxvOKKK6JXJI0BjHY8E+MQ6YBGE94HeUI8MC6jPN98882RNUol3p00TPg2GGYxrOP1jFc4hn7izvfhWTQ+jj/++I7gm0qDfH/S4Jlnnhn54EWJ8fNTn/pUbJQST/v2RADPEYxZfNcjjzwyxolvYAuIdfP47niBkj+a+I48ikYGDcO//e1v4br/Y+8+wK07qvKBbxAVURBFERUliIqKAgoIolRFilKiEhAIKFJCIAkdQw0ghACGGppgAjEiQqiWUIQoXYqoWBHBgg0VLIgN+X+/rev+59vZ+9xzzj63fd+7nufcc+4us2e/M7NmrXfWzFx4YV+XPvOZzxzmzCEBi9jXJpWXgQzOgvaE5DPQYLbC0572tCXfYPXLDFIgIS644IJOJLoZD5w8Dqb6IPqZg/nyl798pcSRsYhoZDFi26Y90ufQGrTQJp1D6Lh2KlL89NNP7wz+vPrVr+7rqwjsj33sY1t5kceaJSHyC8muXqtnnBHvYaaDtiSSpZV1dY5BFfqNHtFulDMcS6aI2Tpf33SKQQU6DgmkDESCi/BWByoqmx6td6h72299hwEtbUd9EzUsbYNvdCeHTbueqkfqHcK4nPs27fwOAgcVgejz5fU5fUMXEzr0nHPO6W1E/TN9zQai69h5Z5555karBN1TOpzdpT9kPyF85Iv9g7T23BNPPHFrptQwE5uycYfptv+vasPUvXQw25WNye7RHxr8R87T0d6RjdOSyXXvom+zdJTbpS51qT4Yw+y/MREsQczKGovUHrtnp/I89qypY6Lq2dDsp/POO6+3r9mvZvWwW/WRbGcDslPvPpX2Msd30v7QJ7P5+RNI0de//vX9e1z96lfvfQZ+gzqtf1ZurWyqzbRprvN7uzanDbNx+F5sWfXejC/BE/QJ+8yAmdlw8OB/lcz1O9b1uev5+Q4Cu4VACOPdQjrPCQL7HAEdIqKVIO2QoSVIMUTH2Wef3UdTcPzb6Yb3ve99+whXRgXDsMgy93/gAx/oyUkkGoJExKLPmCBFPdtU9zmCeEQoIv1KEDSIHPlDApluNIyK846MYU4c8puhXBGSjt/+9rfv77PkxTCqkhNhmiXjEWmMrBmStvKCWEIWcyraaB04IXEQkwg5BAsyuQSx4npElEjgNooF+cKIYawiLr2f/JQoV/cQgwDIJIQPca/yNf1v0XRBEcz3u9/9+ntEZCrPEsthKDMGJeyRPgYJxqaYw1V9aaexIaAYXshHxpllMu5zn/tsvaPlIFzjud6FsTqUTdVB2Kmf7RRC+fF8JP1lLnOZvh5U+2Bg+jA6S5TvWCRCnV/3exPlWM9mHCMoTznllM4A0VCUBcebIEpF2ZbUVER1kTFuMAlGCNOdEI6HCBZRuCXqrQEFxy1vIOpMnUfeLyvu4ewTEcochRLtib5Tp7VFOsGyOtVu6jrfBsPU17Fn06ucbLpE24N36QXL/Bh4efSjH91PZ0Xoaks12DJH59QMhYoapsdWrZPaJCKY40u30ZftzBQ6S/SOpYroHTqXjhxr93S/8qpBFbiJvteulCEi2HRQg4rtQJnrCKyIyDVtcFlCob8pf4LAPkQg+nw1fV6EosHB1oakq4vEMUAm0viss86aJG1XrQpm5SDl2HSeg5guHUdfswUMNCKL2SZsw3YWUvu8Tdm4bZrD36vaMO73bvIvypYdyj5lH5TouwwW6g/b6O46v+jbMmMIdoOfynCMNNXHXOMa1+iTGc42mkp7J/M89czhcTM22Sf8Cf1fO2gNPz6FKHSDz2yNsXcfprnq/ztlf8hHtTm2z4te9KKtrPHx1AmRzjVo3xLGm2wzWw9d88eiNlc2DjtNIBM7jl1Swi9i37CB2cyCetq2PcfvmONzV/7yHQR2C4GL79aD8pwgEAT2NwKIvoocsNbYUJCtIvlueMMbHkYWMx45+gSh05LFlQYCpCJCGVf1nDpf38iDuWSxtEQ/t2Rxpc9oLTJCtGQ5GXXedxGBIgrb5TXcx1jw/pyVSqe998JDkXNEJIVpdFOCUG3J4rquNTZF4bbCYfFseWjJ4roGoVJT/RBorYjYZRghfZBSY6SXiB2EzpR4rnJjALdkcV3P2KoIRpGDjLQxYVS2ZHFdo2xKTP8fviMHrZa6gG1bhzZZB9XfliyuPHGiilAclk1ds9PfmyjHNo9nnHHGKFnsGsQf4RAjDccE0VckZOmAsevmHqMXkLdDUY9PPfXUvl5zHkVBLSucOA4sQXRX2bb3S98yEgZuRIpzxMfElMwxsti1oucNEqk/Zg4UWdymo21ru3ROO611kzqnfd6yv80sEcFFDOS1ZHGlId8Ib2ImgEi/MeFQT0X9cUaJdkx3jEk7o4WTGgkCBx2B6PPDS3A7fV722Jh9KiWEFhtJ1GPthXD4E9b7jw5n07HZTEsvsrhNDWFcNifCul1urL1uUzZum+bw9zo2DHuN/iYCB1qyuNLXx03NAKlrpr5r5ozBV0TZUAQKsOnoeRgtIzud52XyoE+0DIp619rv7b2iVQlCnB2+adkp+8OsS8QvGWtz7BOBKN7d4Hsrm2wzbbrr/F7U5vhKBrMJO6wli+tZZmeJBBZ0JDCklluZ63es63NXvvIdBHYTgc1rrt3MfZ4VBILAxhCoiDQJisK16P8yIpqWMU1M0ZsSnS0xtdkGc2NSm1yMnVvlmMi3MRFJibggbQRue21rGIlkW0UQsiUiJsaEs4GEGxMkaaUxRZyM3VfHKupu+GxLRRDvPCRi617fnJ4xUb5FQi8qI8ZW5b+eOUyvCMbh8XbNw6orw2vKiWHIItdKNlkH23ZQ6dd31Q1l0xLWdX6nvwvTdcuxzZ9ymiI5tdGK9jGwMkZySovD0JL4Il12MU2qtQAAQABJREFUQgzEjA3QeJaBrGrLRSgskwd1pgz/GugZu0+dFmltuYWxASb3iLSZEs4UERWHNB4TOqHKYoqUHrvPsWpvfg/bvWNzpAh4RE6V81h6CIqaiWEmwph4f+mMSbUr56b0Xqu3QhiPoZhjBw2B6POLltgifV46kk4VvGCQcDek9KBZLTUoP/bcIgbly2DAmCyyn8auX+fYOjZM9Z10tBl0U7Kor5y6x3FBAmw8dhNyeChIdmLgdsreGN6z03kePm/d/2sGFzuabbVp2Sn7g69UBKrl+UQSLyubbDPLPnPqukVtruwV9X5R3RZQwwY0A7QGo+b6HW07XcXnnnrPHA8CO4nA7vS2O/kGSTsIBIGNIGBk37QbSx9YL9T0e+Sezpax5zNmyLUOvmUIbn7zm4/mpzXukSJF/rUXG8ndhJSBNpZWEX1FcAyvsQ5ZSV1b/9e3kWXLRlg7+HKXu1w/VclUPtPTthNG81iESt2H9DX1abj5WJ2XJ1F/prOKCHEtI9S3EesxKccUabNIyiEbXmNUvcrPemaLiEH5IPAZW6KgpsgPn9FivWrZbLIODjc6bPNZ5NxORIm0z5n6Pbcc23Q55lMkrPKu8rAcyCKxnnCJyCHLc2xa2meMpW0Gg8jWRVH9w/vaOlPLHQyvWfb/qTrt/tIJonU5BVNiyiqZIozn6Jw+4TX+FEYI3XKSxpLhbHEsOfBj0WPuKcdz7P5qV85N6b1Wp7cblY6ll2NB4CAgEH0+XkpT+px9Sk+yuSz7YIksJK0AAYNW1t3dCSk9uF0/1J6fCrjYlI276D3XsWGq79xO1+vfDd5NRVBP5YutYakJ+1tY5uClL33p1qXsyVpmrCKRt04u+LHTeV7w6NFTMOET6Act0cQW5hfUsg6jN23g4E7aH89//vP75brYhGYWqluCCPiDiOqpQfBNtpm5EC1qc5VP9X5s1ueiZ9e9rlnH913X516Up5wLAjuFQAjjnUI26QaBA4iAdUoRmnaiNu3eiHKNKnPYjf6bdteSQq3zbnOHZWRquYJl7t3La0S1mpJoulUb4bpKnqZIumXSsEyANbMW7eY8lo6IXFLR1WPX1HmE+ZC0acsYIaR+bCe7WcZt/ubWwXbAYLt33O3zc8tx2fxydkqsx7xIWue0vW/RPaueW0Q2SqvyiJwVNbyI3KxnV161iU1vTFjPQLq3jvUy7YbeNSBR0bib0DmVn1W/K5J3bHBvmJZ6UI7y8Jz/5+g997ftsgavHI8EgYOKQPT5eMlN6XP9gAg/64zajIoOt5+GD/2CxLK8Tbu81fgTlj/a6vC2rxtLAXmGBKI3q38Zu26nj7W6ctlnlb22rK4vgnfZ9F1nvX6EsXsRkEXkiTjW54ng9llWdiPPy+SFTWwPBLOyaqB9mft2+pq27nrWOvaHtsRGslcFX/BKV7pS/xFYJLBDVK41fttgk/a5+73NrGLjDMtrE37HOj73MB/5PwjsBgIhjHcD5TwjCBwgBGzK4MOoM61OtLEPA7jW8GWw1xICLQkpgm4sCrlev4iQ7YyIun4/fYvws+maCAIGOUPJ0hKMXlHBFSVnRH4n5MEPfnB3hzvcoU/akg2W/7B+mufW53nPe97W8iBtHkRQWlKipvC159rfIjaGZLHz1icuYRxOLfnhmirjdgp53btT30dLHZxbjsvi30aNLIoml167DMKnPvWpZR+x0nWcyzbCdHhz5cE1y5DF7q93RNogdXeiviIx1E0DPJazaDftG75DtRvHi1zda51TGG1XB+S5ymCn6kDNXPCsRXXB+UgQOAgIRJ+Pl1LpkjF9znZkZ9LZSGMkFjtVRC8bx4cd1G7QNf6U5Y7SxXSaWVyVr6k7De7VMmY7pQennj33eC21sd07es4y14zlBxltPwC+BZJYxDip5SgQyqvIbuR5u/wcc8wxHZsfeajMEaxmZZnBxS7Xh6qTfKbdlrn2R+XXclQ+1jO21ES1OX2yzZEtEfOQhzxka+3pg9Rmahm/qZlRhcHY96b8jlV97rG85FgQ2GkEQhjvNMJJPwjsEgJFMngcomFKlo18YNj5EAai6FajzJZBsKanEXVSUQJ+M+ZNJzwSxZRyZDGxKcjrXve6i7zmMsTKRW5a4oC1z0x5IqbsPfaxjx29S+T32IZs1spitJoCa/S/rSttQjYkGZM2oty0z3Y35LHrd/vY0VIH55bjsuXSTnG0IUhtBDl2f7sMSltP6tpFuqiNvq3rx749Y9GyEVe5ylX62xZdM0y3jSr2ju973/uGl2zkf1gijNdpN3upc7x81QORXC2hPQZMlcFYHRi7ftVjbb/FGY8EgYOOwEHS52UziO5fZEMUYbqobDahzw3wsYV85AeRZfYVXX7CCSf0x4tQXJSXZc7Rgwjj2hxr6h56sgbcd0oPTj177vFarmw7XQ+HqeU2lsmD8kIYW6YBYcxmFpkrCGNVwngTea56Le+LbJW2/2nf02xDZLH83+UudxndHM6A917JHPtjmGeEvzLzMZPLu2tz2rxBHMvVlcxtM3PLpfKx3Xe1U5HTBnwWLRc4TGvTfseyPvcwH/k/COwGAhffjYfkGUEgCOw8AiJ+axrzIgOldr1fJUfIlec85zlbI8i1TIU0rHNcnXsRqqukfVCuvd71rtdnlSF0wQUXjGYbKbsTcu1rX3trCQwRvmOC1B8ji11bm4Ix9E866aSx2/v1j+95z3uOnmNU1TTRWndx9MI9Orjf6uAix2MORHPLcdlnq+M1C2BqEKHSqjbPOf/Yxz5Wh7d+L9JFNaV066aJH7UB39hpRr71skk5kGPXDY8hiGvq7qJ2yzG6853v3H+m2tcw7fb/97///f2/NVjTntvu9yZ1zjrLONRmMepzrRc5lmdRVhUBvFPEezu4EMJ4rBRy7KAhcJD0udlMhB6xhvCY0MWiELeTTetz9qe1jE8//fStRyMlNyWlw83QWtS321eiZKf0YKW/6e8abFWGU+voe+aislsmT29605v6pQykw2a9yU1u0g9Gvutd7+qjcpdJo67ZRJ7n+k32TiBmHLabt1YefbPf90qq7q5jfyzKs5lcr3zlK7tzzz23v0wgUasX6rnrtpm55bIo7+252jBQvV9k67L9DAiwBWuz5J30Oxb53G3+8zsI7BYCIYx3C+k8JwjsMAKmx9T6Yze60Y1Gn4bcmSJH7IJrU4MnP/nJWx3iMJGa7l3PcR5RZO04YtpVbfLUH2j+iJarqTfLOBXNrfviZy05IYJkbNkNRsQya4St8zI1bcq9omnGxJpiU/KWt7yl8yHHH398HxXAkJOWCI9b3epW3dOe9rTDlp4YplUkuU0Na2fh4TUiLUy7V843u9nNhqd37P/9UAfbKait47jJl95EOS6bnypvZW2NyDERJWRKInF9DRz533ItRFtHKI7J3e52t7HDFzl229veto8gu8iJQwdOPvnkLZ1TMyLGrhses9YkJ5XQfVNlZimY+9///p3BlHWISuu+ExukiMYZE+3QrAXtxrNKNqFzajkZz191KjESppalePSjH91d8pKXrKxtfSNQHve4x/X/2zSG47wTUnXIoOjUkhScPtPU27UFdyIvSTMIbAKBg6jPvbc2NiaWzFpEqNY96+hzdgr71GfKtmg3rZoi7yoPq3yXDhdlOrVxqX7OJnzEQMAmn79KXte9FvlaU+wf85jHjOp673/qqaeu+4j+Pn2aGWr6PMtS1HIUNsRbVTaR57l+U/XRU3Y5f8hGjXslVXfXsT9E7Wtvltyo/nf4HrVBNR+l9VPqueu2mbnlMszn1P+W2ih7Qr1vB6brHjrtjDPO6E455ZSOb11+8Fy/Y12fu/Ilr/JTBHYdz3cQ2AkEQhjvBKpJMwjsEQKmOBJGmJFQDjTxbSTfAvstsdWf/L8/1sUVOey600477bDd7hlDRlcZEOSNb3zj/931v1/IBNNzjDA/85nP7A2kmppYyyk85SlP6aNYTSVsCefDEtrH/zAsCAPoUY96VFeR2iJuRDg+97nPXRiZMefVOCBF3DziEY/o15SuiEGOysMf/vDuTne6Ux+5MfYcRJ48W0eVMFTOO++87s1vfnO/kaElLkybP/HEE8du74+dc845/a7ICHORPMcee+zW1ET1S6SFtQON0lsPzE7Kuyl7XQe1qzI8renGqWXIVTkVFtZ6Y4SfeeaZdWjp702U47IPU95VhpxES9LUYBDnQ/nDnIgmGa7djTCWX7oDodg6HOrH4x//+KWjlUS4ux7RUMu+WALB1OMaKOGgrEpW0nMc+3IIDJwwwuXZtGkbLNU0y1e/+tVbbXBZDAsba58TBLkI/xqs8RzTnJ/+9Kf3xLvf7XIvm9A5LXEBr5py7NnbCadNfeUUypvBROuFau8+BgGf+MQn9vpPtLZ6shNrQctnG0VeM2mG+X/2s5/dtyvTnqueDK/J/0FgvyBwkPS5WScIEsJOuP71r9/rSf+zHdgU9EsNUDk+Jevoc/fAi42K2GGL0kElIgDZRsRMl3YTLsf0HUU4Vz/m+DIiIIJtQ25961t3D3jAA3pbjw41swLxyb71G06Vj2XS3i/X0PX6Qxizben661znOj3G7BgDx/wH7zhXxxc5bE8U5Yl0XbXvhtum8jzHb6o+mt/E56pBWYOr6qgAir0k9Nhm69of9iphqwgyeupTn9rbRK3dQAfUoL/ya5dz2ESbmVMuy7Yr5O+DHvSgngSmF7yncmMT0i/enf1ay9FURHWlP8fvmONz07lsUvk9++yzKzv5DgI7hsAldizlJBwEgsCuIyBKVKQc41mkmogHUXEirhBXjAdGwN3vfveL5M0UOuvyMogRzj6mISLBjjkUIYj4Ja997Ws708pa4UgYfWWQWwuK8cypZ1jWLrSut77x3AiF9rm7+ZsDIoryFre4RY8RnEwbsqabjbMYrxyJciw2mTcRzWeddVZP3ihfBiAjG0mDwCYiFI877rjeqBt7NsNI/jh7iDHGkLwrp7e+9a090b+IyGcMPvShD+3LGJmGpCYiNQ0O1Np9iG2kWBHcY3nZiWP7oQ6+6lWv6tf5NnCCSCOveMUr+uiEemeOBadi3Z3c55Zj5WO7b3XuYQ97WF+fTWdU9oQ+qDrnf21aFG7rLDiuLiHFGePIvpe//OVbESjqC8eUzjDAtJ0gLZGqj3zkI/v76JU2DwZCak317dJqz3sXEcqcOktnGDjRppD/NeDleiRuOV3t/cv+pheR7Le5zW26u971rv1H++WUlDMJDwMxNVtD2pvQOeqZmR8cfc/3IQY0aoCjPzDxx+aacIGvQSEfkXzyS++VPOlJT+qnhdf/m/4uwpiuGhM41pRSus3vmlUxdn2OBYH9gMBB0eew0uezQ+jeZzzjGT3JQo/V4IyN5hAsNkleJOvq82c961m9bal/1R8YyLIMkf8tt4XMQtjWjIc2D5YFQE7SebVhc3t+u9/eTR9hLwmD8z4iKhE3ZfvoN/QntXzHdmnut/MCCLznPe5xjy1dbwCA76CvovOVncGBsUjMZd/HQLRysowB4U8M7Ydl09pEnuf4TcjvW97ylr3dzefyMWChv1cvbIBnINMgx17JuvaH+qydse/4dWZAqfMf/ehHex+zbDABLWP20dw2M6dcVsHazDS2pShiOsI712yFmlWl7ntHs65ameN3zPG52UP8NyJ4QlksY8+1ec/vILAKAokwXgWtXBsE9jkCOgwksVFvhjxDj5HLkLbeFNKn1u0cexWGNpIICcSAM+KKLOKAIy9EqYr0q2lIbRruMeVah4qEtElSkcWMQ8a+TfMOaqfGYPD+Iikr0gbxhzRBxN/rXvdauDFXi9U6vxGPjHUGKHwRQIwEzgkS3mjzdmLwAPFjGpPlM0R4mF7KILRGcRs94H2HwoBEBiNGEeREGTOMGVjnn39+H/FZkczD+3f6/72ugwxzRmVFQ3nfFkd1pSJQ3v3ud68Nx9xyXPbByhipq+4pe1JOgvJW5zjIdM2Y2BwFsfDhD3+4xwEJ66OuPfCBD9xaEmLs3vaY9iaS5Q1veEOfTuWBjuKwIaXHdFKbxtRvxDZCFbFKN6rL8ogwV584e9rdMpFzU89wHBlsMKk229N+kZyeSV8bxNOuWtmEzlFXtFnE77oYwd1U7GrXnKgii00LpheX0T/tu63yW3nX+tFThDHiTfSPOiFy5+1vf/sqj8i1QWDPEDgo+hyxQhf61s7oL2Qx/Y9kGSONxkBdV59r15a9MJvEQDUS08AQO1Wfa0CfTcMeG0rpD/1u2ycPr1v0P0JJf2ADU6Kf0F+wx+hwtnetq7sonf18Thl6R/gSgSJw/tCHPtQHG7QzYNZ9D3jVklfSMCNkjszN8xy/Sdu1Cbj3KTsIEc6WFoAjQKOOz3nHufeuY394Jpvkxw4NECA32UDqvPXBfdvnQnQr36d8omE+57SZOeUyzMd2/194KEKaH1TryrNxfNi59A4b84UvfOGo7pjjd6zrc9Nx1l9mp7LPD6pfvV255Pz+QeBih6bSfPYjH/nI/slRchIEjiAEalOnvWhjDJZjDkUG+zYteVWyAElcaw0jeHRMywojU8SHDtdo+5HYmXGUkPHeb+4UvWVxrevgq24hn9qdeuv8ut/qi0hQglCuje7G0lM/RFGIXudAyce6jthY+nOP7XUd5GSJPlL3CxebydSUNpGe60Q6LYPLKuW4THquUd6WkhDNxUlS5kiDZQVBKkrFOxtA2k5MC0RCEFH9dQ9cvR9Mkb0VCbJdesucp6+QD4gQJPeqOnOZZ9DH9IYPvQGPZXHchM4RGea9asBnmTy31yBvtXsDgjUDpT2/E79F9RkUo+/Mjlgk5eQtuibngsAUAntps03laT/qc/2Badp0mL4ACbhIdkKf00VXvOIVe/t2OxvTbAMReWZLzCUo6XADv/pDJBodPndAcRF2e3FOsAk9LyBAP7sdvnuRx+EzN5HnOX6Te/lM7Ae2s0HM/SZz7A/38uu0O/bRKu/n3jltxv3HzPBnVykHNpL3ZFsixct+XyaNOX7HOj537J1lSiXXbAKBLEmxCRSTRhDYhwjo5OYQ1UgM0azrCOOZQXEki4gWn70Q+Nb6Xss83xISlqwgIgJqQ4rhvaJ3CBJ8EVnsGvWDI+GzH2Wv6yBSbkg4VpQTI3QdsngnynHZslPeBp7aNXGXvdd1omwqemOV+4bXwnSnorg4COvqvGE+p/6nl0XjTEXkTN3n+CZ0ztzBLcTBbpMHBgzIMAK7Pzj4s8kBhEHS+TcIbBSBg6zP9QfDdYLXAWeOPl9WFxloq+nbtdHpOnmte+hwA+SbHKyvtPfLtwCROf39XrzHJvI8x29y73Z2817g0j5zjv3hXoPE6yy54t45bcb9c/zZFoPtfrOR1rWT5vgd6/jcsXe2K82c3xQCIYw3hWTSCQJBIAjsUwRMJxRRaHkR08dFe1orFakvUlBUxPHHH9+vzewVhmtU79PXOnDZEmFL1nVaU44HrsiT4ZkIiPi2rqAoxpe85CUzU8vtQWD/IBB9vjtlUQO1po7v1SD/7rxpnhIEgkAQCAJBYPMIhDDePKZJMQgEgSCw7xCwlph1zBAw1iEkonuswedTYgOwndi4r9I/mr9NqSPrEsbuTTlCIXK0IGCNbNNRa5Oto+W9855HBwLR5ztfznMHanc+h3lCEAgCQSAIBIH9i0AI4/1bNslZEAgCQWBjCNiwypITJ5xwQnfd616330TKerDEEhR2G7dxh7X+IjuDAMcVSW8DsnXlaClHONXSB9utj7kulrlvfyNwtatdrbvWta7VbyiVWQ/7u6ySu/UQiD5fD7dV7trEQO0qz8u1QSAIBIEgEASOJASy6d2RVJp5l32HwH7cQGXfgZQM7QkClqKwmzNSbj/s4rwnIOzyQ2FONkmAphx3uRDzuCAQBI5YBPbaZos+33zVMkPBLKpVNm7efC6SYhAIAkEgCASBg4lAIowPZrkl10EgCASBWQggLffrhnWzXmwf37xJorheM+VYSOQ7CASBIHCwEYg+33z52TArZPHmcU2KQSAIBIEgcHQg8L/hTkfHu+Ytg0AQCAJBIAgEgSAQBIJAEAgCQSAIBIEgEASCQBAIAkFgAQIhjBeAk1NBIAgEgSAQBIJAEAgCQSAIBIEgEASCQBAIAkEgCASBowmBEMZHU2nnXYNAEAgCQSAIBIEgEASCQBAIAkEgCASBIBAEgkAQCAILEAhhvACcnAoCQSAIBIEgEASCQBAIAkEgCASBIBAEgkAQCAJBIAgcTQiEMD6aSjvvGgSCQBAIAkEgCASBIBAEgkAQCAJBIAgEgSAQBIJAEFiAQAjjBeDkVBAIAkEgCASBIBAEgkAQCAJBIAgEgSAQBIJAEAgCQeBoQiCE8dFU2nnXIBAEgkAQCAJBIAgEgSAQBIJAEAgCQSAIBIEgEASCwAIEQhgvACengkAQCAJBIAgEgSAQBIJAEAgCQSAIBIEgEASCQBAIAkcTAiGMj6bSzrsGgSAQBIJAEAgCQSAIBIEgEASCQBAIAkEgCASBIBAEFiAQwngBODkVBIJAEAgCQSAIBIEgEASCQBAIAkEgCASBIBAEgkAQOJoQCGF8NJV23jUIBIEgEASCQBAIAkEgCASBIBAEgkAQCAJBIAgEgSCwAIEQxgvAyakgEASCQBAIAkEgCASBIBAEgkAQCAJBIAgEgSAQBILA0YRACOOjqbTzrkEgCASBIBAEgkAQCAJBIAgEgSAQBIJAEAgCQSAIBIEFCIQwXgBOTgWBIBAEgkAQCAJBIAgEgSAQBIJAEAgCQSAIBIEgEASOJgQudtOb3vSzR9ML512DQBAIAkEgCASBIBAEgkAQCAJBIAgEgSAQBIJAEAgCQWAcgUQYj+OSo0EgCASBIBAEgkAQCAJBIAgEgSAQBIJAEAgCQSAIBIGjDoFLeOOPfOQjR92L54WDwG4gcOUrX7l/TNrYbqCdZwSBIBAEgkAQCAJBYD0EYrOth1vuCgJBIAgEgSAQBI5MBBJhfGSWa94qCASBIBAEgkAQCAJBIAgEgSAQBIJAEAgCQSAIBIEgsDICIYxXhiw3BIEgEASCQBAIAkEgCASBIBAEgkAQCAJBIAgEgSAQBI5MBEIYH5nlmrcKAkEgCASBIBAEgkAQCAJBIAgEgSAQBIJAEAgCQSAIrIxACOOVIcsNQSAIBIEgEASCQBAIAkEgCASBIBAEgkAQCAJBIAgEgSMTgRDGR2a55q2CQBAIAkEgCASBIBAEgkAQCAJBIAgEgSAQBIJAEAgCKyMQwnhlyHJDEAgCQSAIBIEgEASCQBAIAkEgCASBIBAEgkAQCAJB4MhEIITxkVmueasgEASCQBAIAkEgCASBIBAEgkAQCAJBIAgEgSAQBILAygiEMF4ZstwQBIJAEAgCQSAIBIEgEASCQBAIAkEgCASBIBAEgkAQODIRCGF8ZJZr3ioIBIEgEASCQBAIAkEgCASBIBAEgkAQCAJBIAgEgSCwMgIhjFeGLDcEgSAQBIJAEAgCQSAIBIEgEASCQBAIAkEgCASBIBAEjkwEQhgfmeWatwoCQSAIBIEgEASCQBAIAkEgCASBIBAEgkAQCAJBIAisjEAI45Uhyw1BIAgEgSAQBIJAEAgCQSAIBIEgEASCQBAIAkEgCASBIxOBEMZHZrnmrYJAEAgCQSAIBIEgEASCQBAIAkEgCASBIBAEgkAQCAIrIxDCeGXIckMQCAJBIAgEgSAQBIJAEAgCQSAIBIEgEASCQBAIAkHgyEQghPGRWa55qyAQBIJAEAgCQSAIBIEgEASCQBAIAkEgCASBIBAEgsDKCIQwXhmy3BAEgkAQCAJBIAgEgSAQBIJAEAgCQSAIBIEgEASCQBA4MhEIYXxklmveKggEgSAQBIJAEAgCQSAIBIEgEASCQBAIAkEgCASBILAyAiGMV4YsNwSBIBAEgkAQCAJBIAgEgSAQBIJAEAgCQSAIBIEgEASOTARCGB+Z5Zq3CgJBIAgEgSAQBIJAEAgCQSAIBIEgEASCQBAIAkEgCKyMQAjjlSHLDUEgCASBIBAEgkAQCAJBIAgEgSAQBIJAEAgCQSAIBIEjE4EQxkdmueatgkAQCAJBIAgEgSAQBIJAEAgCQSAIBIEgEASCQBAIAisjcImV78gNsxH43M/93O4KV7hCd8lLXrL7+Mc/3v3TP/1T99nPfnZ2ukkgCGwCgRvd6Ebd9a9//e7v//7vu5/5mZ/ZRJK7msblL3/57gEPeED33//9392ZZ57ZfeITn9jV5+dhQSAI7H8Evvmbv7m73e1u133605/unv70p+//DCeHQSAIBIEgEAQOEAL3ve99u8tc5jLdr//6r3fveMc71sr5Na5xje47vuM7uqte9ard53zO5/R+yR//8R+vlVZuCgJB4OAicM1rXrO75S1v2X3mM5/pnvzkJx/2Ire97W27H/zBH+zOP//87oILLjjs3Cb00GEJHoX/7CphfIc73KG7wQ1u0MP8P//zP93JJ5+8LeSnn356d+lLX7q/7n3ve1939tlnb3vPfrzgi7/4izuV2edrvuZruotd7GJb2fzkJz/Z/dqv/Vr30pe+tPuzP/uzreP5EQRWReCkk07qjao/+IM/6M4666xVb++v/7Zv+7buh37oh7o///M/P5CE8XHHHdd93/d9X/8uf/qnf3pgdcZahZebgkAQWAqB7/3e7+313Pvf//6lrs9FQSAIBIHdQICfxF+67nWv293tbnfrfv/3f383HptnBIGNI3DrW9+6u9zlLtf97d/+7VqEMZ/5EY94xGE+8y/90i91B4Ew5uc/8YlP7P0RBNajHvWojeObBIPA0YTAla985d5uFxDWEsZf9EVf1D3sYQ/rBGR+wzd8Q8+p/dd//dcWNHP10FZCR/GPXSWMjznmmN4AgjfCeBm59rWv3V32spftLxWJexDlu77ru/pOQ4UeE+/3wz/8w93Nb37z7pGPfGT39re/feyyHAsC2yIgau4617nOttcd1Au+6Zu+qbvFLW7RZ1/086c+9amLvMqHP/zhrWMI46H82I/9WK9TPvjBD3ZvetObhqfzfxAIAkcBAiKWiIHoSBAIAkFgvyDwoz/6o1t23LHHHhvCeL8UzAHIxxd+4Rd297znPfucIin/8A//8ADkejyLX/mVX7lFFgum+pVf+ZXud37nd7oxu348hb09KjK6glf4Lc9+9rN74nxvc5WnB4EjDwFcwF//9V93X/u1X9t97GMf61qy+Mh72715o10ljPfmFff2qT/wAz/QjyqaRtPKv//7v/dT5lsS2W9T6J/5zGd25513Xnt5fgeBIHAIAYNOd77znXssfv7nf36UMP7VX/3V7i//8i/7DmPMWBaxcMUrXrF79atfHcI4tSoIHIUIWA7K4BNJhPFRWAHyykFgnyLwFV/xFd21rnWtrdwhnJ7ylKd0//mf/7l1LD+CwBQCCOOykdm/Yzbw1L377bgAmJqN+/CHP/xARBW3GPL/W0Eav/jFL24P5XcQCAIbQMCyrne96107Qabvfve7N5BikhgikE3vhohs8P+v+qqv6kPkW7LY0hN3vOMduxve8IbdTW960+5HfuRH+qUDhNeTi1/84t3973//fumKDWYlSQWBowqB3/3d3z3QhvJRVVh52SCwywhc/epX76euIWHoikgQCAJBYD8gYH1GfoAlwYhAEvtKRILA0YbAN37jN/avbD+Vg7AERVs+n/d5n7cVXWy9VWJ91UgQCAI7g4AoY2ulC8iMbB6BI44wtrj+t3zLt3TWDF5VKHjrC3/rt35rZ5S/RjZXTaeut57KF3zBF9S/3Tvf+c7u1FNP7UyZNxriY5rNOeec05144ondv/3bv21de+9737t3aLcOjPyotVoQ0+vkdQ5WRrG//uu/vo/SqiVDRrKYQ0EgCASBIBAE9hUC3/7t397nR/TVf/zHf+yrvCUzQSAIHL0IVFSiGVCvfOUreyBCNB299eFofnMzgchBXI7SII/Bnn/5l3/p11y1DKcZkviJSBAIAkHgoCFwRCxJ8eVf/uV9VK6ooStc4QpbZfDxj3+8s07p0572tH5tk60Tgx9f93Vf19397nfvI36RsCWf+MQn+mnrP/uzP7vyiIU8Wbu4RF4e/ehH9yRxHWu/f+u3fqs3Du9yl7v0h91v87HhdNnP//zP75DJOqOv/uqv7neMdYORFUT0K17xis6U/CmZi9X3fM/39Jtw2KmyFc/+hV/4hR6v9nh+7z8EtBH1zIYqfhu9/73f+73uRS96UfeRj3xkqQwbULHOnjQMWIjU+4u/+Ivul3/5lzsbUoyRMAwlm/IRgymiaKzdjby52tWu1v3jP/5jvzaZjS2Hm7xYk82ao1/yJV+ylT+bSdQ6RS94wQs6bYhozw95yEP636eddlq/Zpg81oYT2gBRl5/73Of2v//qr/6qe/zjH98PvJxxxhn9RptvfetbO8teTImpLz/xEz/Rn5Y2HFcRbchsA9PuvvRLv7THz3qqL3zhC3sD2Tt4l7e97W2TS9TQETD0ffnLX7779Kc/3XmXN77xjd3rXve67p//+Z8Py9K97nWvHm9LdjzhCU847Fz7j7Qe+9jH9ofov/e85z3t6d7oVf4G11xLV5b+kV+DYUO53e1u16/Tbp2pxz3ucf3UIVP04CiN448/vk+DDrYsD4EFHWgTRmtzqysMb2vYeb/hTrjDZ9ro4HrXu153latcpbMengG6P/qjP+qnLE2tX/3Qhz60s7FClb96Qt9W/fvoRz/ab95iamHVv+Fz/W+w0PO9I13tvTxb3X7zm9/ct7mx+xwzAHjjG9+4L1t5MQBq0xjr99kcdaeibWwiYZNZRIU6NCaifh7wgAf0p2xGo90OxYZy3/3d393XbW0P7n/yJ3/Sl1m10+E9/l/3vYdlZtmZ61//+v3UbmUkaq+VmvI97F/rmnXb5lDHKTftUx1Xjj/90z+9RQLVs1Ztw+5r9dmTnvSkyc1yEU0IKLqp9J/7h22M3lG/bbBlINiAMD2ijfziL/5i96//+q9uiwSBILCDCLCDkEr6zze84Q19n6XvY2exEcZ0bZsd+lNfZd1jtgP9w6azCfJv/uZv9v1Oe/3wN7vOrEe6W3/JntBfuZ9dpw+aEv1d9fGW/DKz8m/+5m/6fpQOWWQf0Uc2+WNPsIcQbewJ/dzP/dzP9emMPXfd+8bSGh6b03+zbfXf+iF6/8u+7Mv6smM7vPa1r+3e8pa3jNoOw/5jFRvZ82AIkxL7dcgDEXnHRyPD5+xUP9U/bI0/z3nOc3pbQD0i+ruy1f3PVtc/tbJOPzrsB9Vzdq3+Wl2EmX2F1pEa5DGrWF7ZGtJ1fOjftOmzjctHaY+P/X7Zy17WXXjhhVun5tpv1X63s9HrgXPafKUx/F6nTNbxR+u52gIbid6hM3E1bNV3vOMdvb1a1419q5f0M1uTL03/0nl0LS6GTzwmc8tpVXt3ji5b1yav917XF6j7V/k++eST+3KEPx5hFaE/7nOf+/RlSD/rs1qZU8fadA7y7wNPGH/nd35n91M/9VOHEUlVIJTuTW5yk15JIz8o/6Fc6UpX6pBNOsyhIKd+/Md/vI+ifdCDHjTawQ/vqf913hpayfOf//zuk5/8ZP07+q0z57TVfQy2Vjjqp59+er+od3vcbw4ewtyHgaJzHZI2c7GylhqSiREzFIQM8oBhhOSJ7E8EdHAveclLDqvvjDIf5astbSfqFxKRUV9yqUtdqt9IjtK92c1u1hPDQzJNe2IwEfeqS4yyEscsWG+HcB1qRdc4b9fTureut6FEyfnnn18/e8KrrjXAQrSPOlYXqqs+pDbR0GaQrPQGTJBzw3ZU99/mNrfp0/zQhz600Bmq69tvJCKjtxXv6OMcYpchA58po4ORgxBvRUQGnDmejL973OMeh0VnSAv5jjDTTqccQMvlwEsZIjlbQb4xalvRmfownNSN1riv68zekCbyUP6Qwq1zU0v30C9VVurAgx/84O64446rZPpv5UafcWxbIqwuch42HO1WGIU+sPFtE5Jh+cJd/mClTRiYKJ0sLXW86rkBgzEyjYGmX6l1cisP3suHU4I8bOttXePben3y2Iq24QP/Bz7wgWvtON6mN/Zb/6MvZCxPCUK5yqfaV12rPBmzw7wX7uoson2sf5LGuu/dlplBGP11ybB8zCQqvTNGXs9pm62OQ/A84xnP6J3dyktFTNX/67Rh96pfVQZ025TQ964bOtfDNsZQNmjeSukjbcC5TPNr0cnvILB5BOgD8oEPfKDvm//u7/6u/9a33upWt+rJ00VPNYMRWdwK3ehj4ApZaYBpaJu5HlnCJqDfS9hkCGgffTDd/tu//dt1euubPnJvLSFQJww++bCVDEaN2RsGi+VJn9qKwWEf760PHg7wrntf+4yp33P7b76Qd26lbCQ2icEAROTQ9mj7j1VtZIRV9Qn1XH5ZCbK6pH3OTvZT9bxVv4cbd7f9nbT4G62s24+2/eCrXvWq7jGPeUwfOFZpD/vrOr7d9+Uud7kt27OCGnwrn+///u/vg9jG2qB0+TX67WVkyGnMtd+WtdHlbU6bX/Ruq5bJuv6oPNCJbGk2YQl76phDg3bsHn4g7mgswp1es/G6dtpK6Tx6+IQTThgdHJhbTqvYu3N12bo2+VxfoMV02d9XvepV+zb2D//wD8ve0l9X/qiypJtb7sEFc+rYShnZ5xcfaMKYYmFIFNlrBBvBY3SMQ4j00IkygHQEHMF24wikAtKi7hel+973vrcnjyhtBoxKL1JYdPCiCOFhOTN0WhmSLu25+s2YYlRNyU/+5E9ukcU6m1qnlXJDAJXzjuQ2UmqUpGQuVhQckkg6BNaW2DDdRufOuSSinzVWnW9kfyHA+EFSqe8iRxgwb3/72/sRVVGYiF6dg2jjKWFoPv3pT+87SVGqojyN5jmOwDPaqi5yXIakYpumgQ/t71nPelY/8m4Nb21O/dFereMtwtNoLxFxYCNIxnbtAI1IrEGY1hhun1O/rQeIPCV0BmdD+rUBBTxKRNKIyqA76JGxNU7pBcQ2EVW9inhPuoTA0M7PMGS0KAcOkk1uWpJymD5itiIfzKIQxUB3eS9pIBXpBZtoWu6mIr5FttIjDG4jv1MR1M4RBmkbpSzysp4rYkLnCh9GEqeSzkUuIVvhOCYcFO/HGb7wUHSE/FvjbcyZFAkvbYMc3s/oPSdIPfF+dLpI2N/4jd847FEiYNUV6ao3iEFEtUFEhpz7bJBAV01hQP+LBpG+fBoYUCcQkohqDra6aAZLK+qGAQ9ksf7GjA/tzPvpS2584xv355SDayvqp9KQryJc1Q0R2/CEvXJlLKrD6rNIiP0k8JB37RmB8PrXv77H2ECmeu2jf6Jjhs7OJt4bRqK61Umkt373Epc43MxhHMJd3UDMtLKJtlnp0XF0ranl8iM60O7NJeu24bp/U9/wUi+1Z/rBtzYnsl6foG9nP9HpkSAQBHYGAToJmUSKZEIo6mPNvqE7RdtOif6gyGJ9Bv1Kz9K99kxhFyAx2VeI31bYDXwh59j2+ixpGMRl5+jXEZ7sMDq+jZAs3wJZbHDuNa95Tfeud72rH2DiG7AJ2XrsRgOs7dJ78lBkMVuOfcoW8t7syDvd6U69H4a0MQvCTKaSde+r+6e+5/bfSKIii9ll/CTlYNC07GzlDOeh7dDmaVUbGaHO77NE4FOf+tQ+KYRWbQBVtnT7DL/3Yz9VtrpBCljpN/VBJeyhkk31o+wS/Z4yMyjCZ2j9gnreMt/sNG1HGetPCX9cu2MTyPPQ/ql0zb4sX76Otd9ITumzy4d2b3vdnN/b2ehz2/yyeduuTOb4o9oiG5zQseecc05f5vwL9pCgHbqPzuJHtcIPoC8RjPgm+prOM/tRuvwLswoFDJQ/1N6/qd/b2btzddkcm3yOL7ApfJZJhz8lcEhZ4jMEcrUDeXPq2DLPP0jXHO5JHaScH8orUrbIXgWsYVckDSffdA1kgYrAEGL0lCHmVTn1NZLHWEHW1v3OI010pogbCoDTNwxTd92YMJBKKJFlp/rXPcNv5EWNwHN0dSoIrxJGAoKmOhrkXUsYz8FK58GQo3wIHBhFLfmOvDMdilDCSCAES2T/IKDOMIgIMreN2OAAqNvnnntuT0yN5Vo70HFqM4xPpB3Sr0R9RNAw7Iq0mRo4kIYOpSV6rSfqfkauUVFRAzpxUte1UfeM4/b5/YUTfxCmFRlT9RZZWMfa2xxjoOrw6QD1fSgMCnpFW2x1yvC64f/aJ2NeW2JMwsB3iaUfdFqidOmsMREFQC8hwpQbw6aiFWDIiERQKivOIoK3onDhwCBWPlOEMVIVcUZaMpzDKO+IbU7dKaec0hODrjN1FLmJCJe2gQd5GSM0vReD3/1F+EtjTJCuonXaukqXMs44ptZhv/3tb3+Y4axuMcgZ+wYkXv7yl28l7bkMeIMniFvG3RRhrK3oQ8r5koh66NkiZEWLmL7LEW4NDBEL0iUi9tslgpSXqVLIVPrcbubanT6CIOnud7/79b9FKGsLJfAUIeZeJB5nkzNeZV/X7eV3DTR4J0vclHBaa2CJkWtApnWYNvXeIgEQtNpHYVp5qG+Dn4SuacmLTbTNeoZvNoDIXXpqKHPa8DCtuf/TZUgN7bHqsb5bvdVe2FWibejF4eDG3Gfn/iAQBP4XAYOQ/Bn6XB9dwr5AGFfE/5hdrX2yx4h+sZ0p5nozWbRvA7D6PTNValM95A9iQ/9OH9JZ+rkSNgmiWtvXd5sdU/aEa+573/v2/ZZBQrZ/EZTOGZDjh+jH9Kf6cp8Sz6zZHhz1lgDT5+ur9ZecdoO37FOy7n313EXfc/pv5CZ9SeDFbyqpJZnYlogwZDhbRn81JqvayOxIH+R/iTIes3HrvO/92E9VnkV4ErNb6lh/4P/+bLIfZTuog2ysuWJwhyAiq09F8OpnBVaoy6390z6PnTcl7Hk2FttGG2z5iql71jm+nY0+p82vkp9FZTLXHy1blR3Y6iQ2ug/BCdGtZ5111lbQTelLfpKAOVxIWw50Hr+XzsTL8EH4KDthp29n787RZXNt8sJ3VV9glfox99qaZcqXF1VsELLaq7Tn1rG5+dtv9198v2Volfy00301xmEYukYsQgZ54EN5lxhFKgLWMQRa2+gdY7S1hFdNF3NuO0Gylki3Ivzq2KrflBrF5eOdWrJYWoiXds1Jo/OtzMHKMzUogmyjhIp0q2cgp6w5RijU6jDrfL73HgFRJsTaSi0BVzkTHWLd3CmihbFSxj0ScoysNWhR7UyHMyU609Ypqet0tkUycmr2QnQYRZTq9HQaQ9EmCOdoqHeG17b/a4e1SSQjpSWL6zq4DJerqHO+6SERwoxoEQtjhgjCWFQukdcaWPN/Rf7SfxyvoRhY886ieZCjJZ4rHfXE4AMHcSiIOpG0CPHhchDttdaJ3o4sdj18p+pqEbHDekLfcjTU95Ysbp8veoogxumrMUE4DyML6jpGEEGeizYoQUQjzAlHsPJY531rX/ob6xEbeGl1M2cc9hzlliyu+zn0yHjiuQzG/SIGeThwROT8ULQra4wpF31IK5t6b3VzEVnsmUUYD5ej2ETbbN/J7IUxstg1c9tw+5y5v+kvzmdrKFealtKqKGyObiQIBIGdQaD8CwNr7RRog7EVcFLXDHNQwRpsJ33rmBjk1O8J5mj9A/qwAgnozjG7jK3HmTZ4jpCswBT9n0FTYpC7JYsrD/KENCH8sNaeQoLX/2N9hlkZBhf1GUUWS2fd+9y7SOb234ghgvRDwo+Jcijys7Abu263bOSD0k+NYbTJfpStuwmyuAZ25NcMq1bq/xocas9t9xunoA1qc4IJFi0btl1ay5yfstHntvllnl3XLCqTuf5oLZ8zpnc8X8ADvYPLaPkbutPsQsJPG/JGjvOBahapwCOD8jshi+zdubpsjk0+xxfYCZzG0lT+BgIMjliZQN83tIHn1rGx5x7kY+Oe8gF5oxoFkl1KTEesgZcx4zhSA6Hi0xJhDJcSx013HpPWqRS6riEsIxWN69p1p7W0z0HQMiJ9jGqNSau4jMi3MgcrnVsJ42+M6IFhG4lZTnndl++9RQC5JBqTtFEcw1wp36kOVNsi6mJb1sM0OCTE6N2ULFr2oqabibDYKymiD25FkldetO1ajqLI1zq33bfp8ATZW0TM2D2MQdHLY1LtUeTQ2DIOdU+RoiKRzTgoodNMo+KoIYeHUmQ4DFpSuMrf4BVDZUzo2SLJWiK0vZb+qmva42O/F9WTqqfKqJzOsTTGjpUOQ7zXYNjwOu/Z9hnt+Xq2Y55fYgpu9T8XHlrGYko45SKRTFcr3SwvpTeHmwy26bi3+gB90n4R/VyRDTbbEUm8jGzyvRHtU2UmL9puDRS7tpVNtM02PcTPlMxtw1PprnMcDi1B1abBgC49Ug5Wez6/g0AQmI+AgdjSCWMzlmoQ3lT04QAnh5djS9gNYwPIzrHbLNWkz2kDYWpgn95c1GfJg3tFMheBor+jv8mUD+Vc2Yv62trIzPG2fxed3M4gc35K1r1vKr06Pqf/9m41M0skaWs7Vfq+6dQi+6y52c5Gba9r37E97vcmbeSD0k8NMfB/tZl1beE2zUU2V3vddr9rUEd0d9l2dQ/fy6A/O6SWn6lzi77Z8AgtUa2CxQzO7KQsstHntvlV8r2oTMofWdcfLR9EOgalhkuXTeWz6hx9We147FqDZ/JGSseOXTfn2CJ7d44um2uTr+sLzMFilXsN6uAL9Z1msEwFBs2tY6vk6SBce4mDkMmpPCKmjNRWJ80RNAWIwaQDQciITitjpU2njaxjgE2NLFY0YN2rc6/Ouo6NfYvaKcLLxnqesciRHUtj7JhRIyQBEgshJz8WaWesLDK25mDVTnHy7DaSuc1ji1V7T3tNfu8NAgzTEqTwItF2hlGbrq/6ZXCm3VRqmFaRXowbo+JjO3tbT3ZKioysTdCmrtvJ4whB+gPpJcq41SGWG9De5HMR+T6WvyLRYbxIH3DIRBVV5E+bVhGUFdHfnmt/t+er7JznsIigtk6cdzO6WkKflPM5JMNLnxlhr7W/6r72+8Y3vnH/7xRhrD4MR3Lb+9vfi+pJkaZDB7q9nyOOCER20U8MBPqypku11w5/F/k5PO7/erbfbT2tsnFcZNgqQmeW0Wod4ClHUpreg6hPU1Na+wt2+Y+IVNOhvYsIaeXHeTZIwTGttt1ma5PvvV20vzpp0Ff9Gw7YbKJttu+1KC9VT9o22t5bv9vzbRuu85v4bp8xll71FwYc5cFgUyQIBIHNIXDzm9+8J5EMJI+RtiITEbXsKdFqZhCVsLOqD2RXrCqli9g8nr+K1L3usTyS9xiT6teco4PLhzKLydIN9gWwbJ7lNPh0iCJ9hs8Y8brufWN5a4+177NO/10D17WJcpt2+7vVuXzRsZlmi2yf6kdb26NNf5XfB6WfGnunKq8Wz7Hr2vNT/ejYjMmxtBYdU88N6pCKJm6vZ9dbisI1lqWYmgHX3uP3SSed1AcTaKOr7KU0TGfZ/xfZ6IW5tNZp88vmwXWLyqTKcV1/lN7hq9ig0IxZS8EZHGcXInvtlzIm9f7KogbOxq7j3/Eh+B4t3zR27brHlmm70l5Hl5XOXtcXWccXWBeHVe4z+1T0NHtWoIR1+adkbh2bSvegHj/QhDFi2BRXClTDr87T6B1i08c6USJvTzvttN74qIJqyU3Hhv/XdcNvBEQZO8Nz7f8tSUahGVWvNcPa61b5jRg3TYSCW1XmYDWMVl4Gq4pmXTWfuX5nEKip60b+pja/qCdP1dO23tl4YRnx3LYt1D2LyNK6Zq+/kapFGJteWCRnReBasmaRwTCWf2QlWWbWwdg1HBI6iCxyKJznVHCstN9hm7XeMMIYOYywK8NMxDHnk+PZOp/tc6W9TPkbdJg7UDYVZS0Pi4SBhrikM8uJW3T92Lkq77FzU8cK52Xa2TCNdhkj+V8G42rXw7T26n9twrtbo1HbMVjqgxAQbYEMMdW2ojvkczffuzajRYK2mznKx9y2KY1lpG1Lc9rwMs9a5prt8tD2B6ZihjBeBtVcEwSWR6CiEgWELNoITYqmSLeEcfU5zrVt1f/LSNn3y/g1w/Ra3W2fl2Vk2GcJ8qFT9HdsBv2GDzETyEwny2sNSdV171uUx8Jynf677pX+duXQ6tz2vjZve20j77d+qsXG7/2YP8uwVZtAtJW90ebd3hcEP3HMMcf0pGJ7fvjbEpR4DIM5lgyswYLhdbv1f72f563b5jeR17n+KDLXIJw1280Y1Q6R+D5sf4NVlp5r15OX71X0pXZewSqbeOdV0ii9so4ua8t4XV9kHV9glfdb99o2kIkvre+tJSiHac6tY8P0Dvr/u0oYt6PXiITtolU4cC3xOEbOmN4h2k3BUl6UsejbaiwKSGScNbSMIFVUURsh5pp2kwj/l8gn5VHkgVGlZcSITrvmnzWTtzMidIAIHN/EdPNyziyhUZtlOYcANh3BtCWOr06EUz4Wkeh6si5WRmGq4XD6bRY4Jgj7Inj22tgZy9/RfKyWLhBdV9GxU3iIWBmTT33qU1uHbXI4JS1J2I7sT12/X4+bncBAM6IsSlWUvsGomqYyjMBd5j0QZYyT7aZ3w9C0maHQQ8pBGU6VU90jr6U/27JznnNoDV36BklstJ0UGY5QbsVzGR50sml2i6bEteVferNNa6d/M8KNbjN6vDfDRcSPgQt6n64UBc9Q3LSUMa+dMUampvqPPZd+LkGqVl9Vx9rvwniV9Nv7d/K3aXo+1jM2fY/zb0kUUdGmYWo/2lWtj72b711rd3IGhjK3bQ7Tm/p/U214Kv1VjxswWiStnpmKull0f84FgSAwjYD+CnlUUoRS/T/8FiHV2nCtL8NWGU6DH94//L8GztaJgmMTlPDDxqKB63z1WS1ZWudsPOvDHtFXINp8+HGiwfQZ+uvyh+beV/cPv+f033WvNBfNDnK+1alD28z5/SD7rZ8aYrIf81cDP/KqjNtyHubf/663juqUGKCtDSatl1uzfaau343jm2rzc/Patpt1/VG6iN5iq/PLylbFTfERfJ73vOcdtoFztfPt2rj3q/Jv8zr3vZe9v/K5l77Iqr7Asu829zoblfN79Tf2hDGbd6zfbMtt3To2N6/76f5dJYyHzoYlJIYGQAsO4peRUbLoWqH55513Xv9xvXttBFEjYNaVNHJUTnhF1LkWyWndsDFC2vl1xM7A97znPbduNUJoKsoiIpVRhBQusTHS6173uv5fUQUIIALH44477iJRihz0RYRxf/OhP6tiJSK1Fnm3mYNpY5GDhYD1WEsMXtSmG3Ws/R4jKp2vCA8OxtQOv206B/23DldEJJILkYowFkHAWbPT9SIMp969OiWOkIGsdt3x9h5LiIg2GhPtVx62a+sieWrWRZVdmx7CW4dpeQaEMQNIRC59OCSM3ee5CGP6Zz+XPyMcWew97Ao/Nsi3HUnW4rTK7zZ6X/m8733vW/r2toz2CuMi+Gsd5rHMt4OxY+frmEEJ9cpHesrF7toGMRjpInDIbr03W0J9J8P1ix3bRNuUzjIytw1XOXmWGUxTskxZbadH9BfEYHFtvjX1vBwPAkFgNQRakonNLxhkTARt3P/+9+/9APZILUU07HPe/OY3j90+eaz0r5kgfIyp548l0PpRyJe5hJZBbB+CbLGJnNkqNo6y5v9UYM+69w3faYjlKv03nV5Cpy5arqy1sQv/unc/fc/tp3b6XfZT/tjkFSTG3zLoPyU2jXY9v96U+LY/r3ucf8pTntIvocWGqnXM6/zYd6WzCfttLH3HNt3mp56z3fFqN5vwRwVe8Id8BOwJdGCrascnnHBCf7yCrqqd8yeV+u0AAEAASURBVK9qEGwqr2U7VV7rut0opzm6rM3vJnyRZX2Bwmcnv621jyu0ZIw2ql8VBHn88cf3M3LbZxcOm6hjbboH9ff/Z2N34Q3KIatHmYJUJGgdq28NcbiDbDuN1XXurU9LLDuH3DEy1z6zHcVvF/pHqtQUKPe2Iv0aKfRd0b/tNWO/TedunSvpUzxT4jkMohIKpV3w3bqpJZRaO8pXxxdFJhROvudgxdCp9TPrufVtJKuwqmkbdS7fe4uA6Tc1IFKkyViOkDnDKYN1XZEsrqn1bOvcXnzXGkvrPltb2E5qqgpSVdtvI3Cr098ujfY8fVSDRo997GNH9R9StnbYbe+t31UOopQXkUUGzUrGHB8R1EggJLF2K3KJbhD5ObaMSD2XHl1WD9bzd/O7diRG9o+RxfKySFfOySuca5ZFreU9lh6D/s53vnP/qfXCGSc1C6Xtq8bu36ljBkLIIkJ9Sj8syhPd88pXvnJrp3sEQM1a2a331l44YaTqcpvnTbTNNr1Fv+v567Zhg+elRxaVVQ30LsrLcGB+eG31F8igeubwmvwfBILA6gjoR5FGBAEsQETwytiHk1s+QUsyW7ahiNqaQTGVE0Ez+h0bIpWUL8Qeqg1B61z7rZ8yAOv+IqQMmpcdVJuGtvfM+Y3wQKbVTJQpH234jHXvk86c/huRVNHTi3D0nMIKCVV9ruOblkX24TLPmttPLfOMOdfsp/zxDeCtPdjjZawN1zGbTxJ995gtSi9YRlObE+RmSbxlpOrSIptgHfutffZOtvn2Odv9rrLftD+q/KxlbJPBkrKB/F86WFm3ewPVtfV9zKGZI8WVDP2v3SinObpsJ23yRb5AYbeT31V+3tHADR/Y7JonPelJW3vI1PN3qo5V+gfte1cJYxtHtYtvc6hF1NaanAWeHRqRKTc+tC5xCQepXbfLcfdWyPv555+/1TjrHkq3jdJrR1ws5dASup5XC1zX/QwoSlu0nc+zn/3sOrXU93DpBjvHWyR+SHSJDDbFuzbdkbh1u4zslLSjeoidIWEjmnoRyTAHK5vcVdQBUlhaQ7JNRN+LX/ziLaysDRTZPwhw9GvXZZHvNfLZ5lCdMu1pysi0O29N0XjMYx5zkTpQad31rnftpxfahXQ4OFHXrPvdTl9vCdFV0qt32M6olyZnhSNgqieHpSIItM91xJrCZfxJ74lPfGLvvGlP2pbddO3YylCcWm6gni16UKTmmNApluAhBs/GiFNTWUUKK3fTc4oML5J8mG49FxZG38dEWk94whP68hcNtRdSU3SHOrLyYrCj7Vvq+Ca+lW85uPT9VB01vQk+2mJLznMoiM2DpnZWpmv1F6bwWt9uk1L9syWQhjrec/TNw4Hcer6oDBvdWQ7kmEPG8pgwzogRe5+S3XjvIvANnimnoWyibQ7TnPq/2tK6bdiAca05Wjpp+CykRL3z8Fz7PwdyankW7aRmaVXkX3tvfgeBILA+AojbIndKBy5KrTbSYjvYF6Wk+mztHaE7Jtoxu02/0w788KGQzsT5oT/mOJvQ/imnnHJKbwNV8AHCs5b3oUOmAgkQ2bXsBNukRB+pz+ArFQld5+q7nlX6zvF176s0p7431X/ru5HzYyL4wKw1osyLcB+7dp1jZd+6d8r+WDbduf3Uss9Z97r9lL8qbwRvRaNOvRfStfz7uq+9VlS9fp3vsd1SL+19c+y3Np1Fv+e2+UVpr3Jujj9qNiW94zNlQ7dLqLb+EzK5lnsQ2NNyTJV/+tJsESKdCw8Fr7SyG+W0KV22ji8yxxdocdrp39ohPovoO2sgp547p45VGkfS964SxoBjGJTT6H+OKULS4uJFNFjOoZwU1zBuGCvDjtU9JYynF7zgBb0DrrM23fVFL3rR1lIKrhsupWAUsBxH0U5G8I0yGEVnVEm/Onb3v/CFL7xIHhyfEqHvr3jFK7ZOIzBOPfXUPh82bDCChej2aRfiFi1gzeVWKgrAMWSfvJ544on9ou0cdAREawS29/o9BytkvXVe2sg57/WIRzyiN06d8w41cslgWTQdZ5i3/L87CJjOh0wr0l9HaQRUvUSeisjXHqeWSVCuRuQMHlCu2rLvIpZ0wtoNMlEkuhHORXVynbduO26DJJ6PlF6FmK40kLKWikHADQdxKm/yX0Yp/SJCEXHSOi917bLfHKfSCwgZUTR0nrV2bXjjnQxgTe20zUGzrha59a1v3Xdy9IdyVJ7IX1PZ/GZwaqdTUo6mdQI5oerH0Lipe422woDc7W5363duFiHpuT6mb1kbis70e6+WreAAEwNrnGfR04Rhx5BBtk45p/2FM/8YZFTHyskWQcYJh5F2YTCtlmMQVVbGp8eec845HV1v1ov+4dhjj90ayNTORE8re+3VqPg73/nOw3KrPMoQXocUr0EladMHojeIvBvQNAg0hR1HyfPVX0aYd3VfCd2i3hB1rAYh/T/3vaWxndQGNEVwjF0/t22OpTl2bBNtuMrKQI96XnrYt7rPxmjJg7F8OGYwWrkYvKg+XJtRRxFIxOC6so8EgSCwOQQqUli0U0UzLUrdchOlN295y1tuXcofYEMQA8Wm1xahTJff9ra37W035y0r10a8IWT5Qr4RvnS3flL/RZfQ58gPfTo599xz++/6gzShQ/hQz3zmMzv9TvUbBhgFybBH9AcGwVvbSRARu4O+0m/Ka4m+gy8mL4SfWLLufXX/ou+5/Xf1yXw9S2oUiW6gXX9es8eUN99t00Ln1wCAZQ7Z+frsKRt30fM30U8tSn/uuf2SP23NTD1S/sKid8Nl1BIT6j6frMRsYjaia/hbbPhlpWyCdey3ZZ/hujltfpXnLLp2jj9K38KX7mHj0DFlP3km37D8JtHA7ex2g/X24MBj0Yn8YOuuu9/H4JhAIPYyzoQeGAb/7FY5zdVl6/oic3yBRWW+E+de9apXbS3vZKlXPnXJnDpWaRxJ35fY7ZfB6KvEnNFSkgwDjko5K22eNEoGzDC62DWIgZe97GX9er7S0HjLqBmmYWH54dpeDBfGlU4bEYRgMfrrMxTRxa3BMjw/9T9lghAwIl4ioqCiCupYfXsG46wd3XLOGkaIcOuMEcaXTwlcdZ7tc+qc77lYcfARGI985CP7ZBlBRXq0zynjs0i59lx+7y0C6jtyH6nHwNGp2aREB6juk5e+9KV9R1jEzjDH7373u/v7dLLqo482qtwrDfcwmgzYbFoQF+o648w0oTK4dcqWWFhGkHTVxo0o+iBnEdBjglTluJRYEmaucKAYgjooy7cUCWfkmdMF56lITs+GLR3CGUN6+4jYtJxFrVusszv55JMnBwCkw7mRD0sEEBiWQ9ofGPxBRnJ8bnOb23QiyX2QzJzLegeGGF1BH+2FKC/ONP1oAMOH0SffsFHW9HmRYZvOI2cN7ohpZYT8Zzgqj3KkPROhXgR85QH2D33oQ3vSV/61V2Jg071VtvqUk0466TCy2XVmmTCCicHPVeW1r31tT0prHzD0YVzrHxHu3s3grZkIQ/F+dIvBS/0U8lWdFNHLAK/1dEW8b/q9h3kZ/s8+KMJ4O2JmbtscPnvq/7lt2OCSCDLYquNsGdHqNQDmPRnud7/73aey0B9nG+nL73Wve/UfZVxl5QLtG6HUzu5YmGBOBoEgsC0C/B9kERE5rN/cTrRFvhBSVmRiBbG4l09l8JldpP/xGbZluriIkPZZBsHZ9nS7/oMeLx+kIug8g94WYdeKiEORx2wDep/+NNCOJGmXphMIw05rBXFtGQ5OuoEvHwEL8n3MoVkqCGeiX2rtu3Xva5899duz1+2/2dNIPoO6+mJ9ORmWAyz0k4tsran8LXMcCSJKFYnPzieCFJTvqjK3n1r1eatevx/yV4M3ynPIM0y9j+hy9jM9IMijgjfUiwqA2W6QVntvg7Pm2G9T+Rw7PqfNj6W37rE5/qigPLpKG6Hv+LHWnva/2eZsRr5RRQq3eRQMyK4XhCWIw4e+pCOL13I9G3yoLx3frXKao8vm+CJzfAH47Lbg6XCH7GkR/R/+8Ie3lrOdU8d2+z12+nkX3+kHjKWPFL3jHe/YGwAa6ZiorBoaharzGxONE5nMcbb+INKqFcYVw+Ie97hH77y25+o3gkZEpNDziqCtc/43woKEtdzCOiKPHDIGlYrn/zHhlJuqjiAoQ629zvQVaxzrjLxXCZyQyQ984AN7hVfHh9+bwEqEtvy1o231HNgj4qxL3UYv1Pl87w8ETJdn0Naad6IOEL0IKYYlEmI7QZiqB7WRHrKwyGJrdzuHjJuq69ulv+i8NKUvD21k5irPggHnCnFYu3ovuh9W9a7aW+u4LMrronMcKs6e6T6cJRFBjEaRgvQEYbCQqbwx/hGfNbWtCEVpGyBCINXUpz6hkT+ubafCLkOGI4M5RLXEj7JHFtOXnougmtLZI1nY+CGkGV3pvUpXIsThyTk1M6OOb/zh/5egwRlTdEWNwwXRq3zUN/VJuYlSGCPhGFv6NBjWWvUcb2noG8zm0H+26/PXe9SAov6E0bOqqGvaBl1e0yrNHEAa6AuRilXuY2nLs/5SH+DdvDMCw7f1Hc8+++w+jUq7TWPOe7fpjP22lm9Ntd5uIGMTbXMsD2PH5rRhzoA2rs2pz3S5AQr13HrRyIqhTTOWBzqNfcLxVt9ashjprC62UYFjaeRYEAgCqyFgUK7IhYo2XCaFulbQRkU1uo8Nzg/gD5RtVG0ZCct+FwhQ6+QPnyUoBFllQI/Q+T76HBG9Bo2KoB7eq0/jR/HZ6E+EV5HFSBfkDAKTzhoKQqZsUrrIeyFbRevxNfRHBiiHvuK69w2fP/b/nP6bDqVPEbT6NFLlAEt9K0J6J20Q5D1yvyIp5WHKjnRuO5nTT22X9ibO72X+9Lc1U4CNNIwmnXo/vlLNImyXpeBPlVTU6tR3BRDU9XPtt0pnme85bX6Z9Je9Zl1/lE4TJCS4if8LdzP36B/thv9g5uVUgAE9jFwsO5yuLH3O7yo7euw9drOc5uiyOTb5HF9gDLOdPKbf0QfxHdUDAwnVf3nuunVsJ/O8F2lf7BBJ8dl2Ld/dzoQRZJE/nFKdKmWrsWrMyyreyjPFbWTIR0RZESl1frtvxId75YNDy8hSkTYplJFIatFulIsKyoAzRWHZDt17FjHgPdfJ41yslJd3QBSJJjYlbdn8bxLP/Z5WRc3vZRubwsi0Y2WIAFLf1yk/bUWbQYTpmMYGO6aev4njImoRJavqino2xwaRxMFa1I6QKYgvZPEwSqbS2vQ3g0SnhchfRMBqy8rSNDQknSVkxojITefPcxFUPvD33EUYbvr5y6Qnj9ZMpKfo2eGg4jJpzL2GIUnvywMSd+j4Lkqfo6CNihrVn22nZ61/fYMb3KAnxsciIxY9a+ycOiXiAnZFQoxdN3as+hg6wnuvgv2q7z32/PaYaH0GoT7d9Oy5smzbXPY5c9uw+485FJHnW3+8XR1TFyvyxQBczZ6iD80+EVHOtlhXry773rkuCOw3BPazzbYsVvQn3c1+MFDXrhe/TBpsInYde879q9iGfDr36vfokDGSeCoP8l1rHOtzakB/6vo6vu59df+i77n9d/WhfD19+G7bSAgQdrJyWKUcxzCZ20+NpbnJY/s9f5t812XSqrq3jv22TPp1zZw2X2ls4nuOP+petg/7aRWdJd/uZaezn2qGxCrvs1vlNFeXreKLtO+vXRa3tqov0KazH37PqWP7If9z8rDnhPGczOfeILDfETgSnI/9jvFO588afrX0hcjVOZs/cWxEfjDgRSOYITEmpmaK5CUikFcd/BpLM8eOfAREH1uioCUBj/y33v4NDbpYy1GE+RSRfjS1zSnCeHskc0UQOLIRiM12ZJdv3i4IBIEgEASCQBBYDYFdX8N4tezl6iAQBILA3iEg2sU0TYLgnUMWS0N0iXVFrYnMMRXxYdkCUy9FBYrctz5wrSFtemjIYshFtkMA4SmSWZ16z3ves93lR9V5gz5k0XIUaZtHVZXIywaBIBAEgkAQCAJBIAgEgSCwDQIhjLcBKKeDQBA4+hAQSWxdMVOUiOn41iLfhFgP/apXvWp3netcp1+L1nq0pl5a+69dv8zapCJFI0FgGQSQxZZnsabaqlPqlkn/oF4j4tqyGmS79fXTNg9qKSffQSAIBIEgEASCQBAIAkEgCGwagRDGm0Y06QWBIHDgEUAwIYtF/dqcwo64m1qHGplng5hjjz22jya29qglKohzNtgTzXzuuefOXnPuwBdEXmBpBGpd+9o0cekbj/ALbaCkXdkbwfpyi+RoaZui0L0r2e01NRfhn3NBIAgEgSAQBIJAEAgCQSAI7B8Esobx/imL5OQIRCDr4R3MQr3MZS7T+VgOYtmNV+a8qY3jiE3NIkFgHQRsLGHX7M985jMZaFgHwIl70jYngMnhIHAEIhCb7Qgs1LxSEAgCQSAIBIEgsDYCiTBeG7rcGASCwJGKgF3FV91ZfA4WIYrnoJd7ISBqdDcGN442tNM2j7YSz/sGgSAQBIJAEAgCQSAIBIEgAIGLB4YgEASCQBAIAkEgCASBIBAEgkAQCAJBIAgEgSAQBIJAEAgCEAhhnHoQBIJAEAgCQSAIBIEgEASCQBAIAkEgCASBIBAEgkAQCAI9AiGMUxGCQBAIAkEgCASBIBAEgkAQCAJBIAgEgSAQBIJAEAgCQaBHIIRxKkIQCAJBIAgEgSAQBIJAEAgCQSAIBIEgEASCQBAIAkEgCPQIhDBORQgCQSAIBIEgEASCQBAIAkEgCASBIBAEgkAQCAJBIAgEgR6BEMapCEEgCASBIBAEgkAQCAJBIAgEgSAQBIJAEAgCQSAIBIEg0CMQwjgVIQgEgSAQBIJAEAgCQSAIBIEgEASCQBAIAkEgCASBIBAEegRCGKciBIEgEASCQBAIAkEgCASBIBAEgkAQCAJBIAgEgSAQBIJAj0AI41SEIBAEgkAQCAJBIAgEgSAQBIJAEAgCQSAIBIEgEASCQBDoEQhhnIoQBIJAEAgCQSAIBIEgEASCQBAIAkEgCASBIBAEgkAQCAI9AiGMUxGCQBAIAkEgCASBIBAEgkAQCAJBIAgEgSAQBIJAEAgCQaBHIIRxKkIQCAJBIAgEgSAQBIJAEAgCQSAIBIEgEASCQBAIAkEgCPQIhDBORQgCQSAIBIEgEASCQBAIAkEgCASBIBAEgkAQCAJBIAgEgR6BEMapCEEgCASBIBAEgkAQCAJBIAgEgSAQBIJAEAgCQSAIBIEg0CMQwjgVIQgEgSAQBIJAEAgCQSAIBIEgEASCQBAIAkEgCASBIBAEegRCGKciBIEgEASCQBAIAkEgCASBIBAEgkAQCAJBIAgEgSAQBIJAj0AI41SEIBAEgkAQCAJBIAgEgSAQBIJAEAgCQSAIBIEgEASCQBDoEQhhnIoQBIJAEAgCQSAIBIEgEASCQBAIAkEgCASBIBAEgkAQCAI9AiGMUxGCQBAIAkEgCASBIBAEgkAQCAJBIAgEgSAQBIJAEAgCQaBHIIRxKkIQCAJBIAgEgSAQBIJAEAgCQSAIBIEgEASCQBAIAkEgCPQIXCI4BIEgEASCQBA4khC40Y1u1F3/+tfv/v7v/777mZ/5mcNe7ba3vW33gz/4g93555/fXXDBBYedyz9BYCcQuPSlL93d5CY36b7pm76p++qv/uruj/7oj7rnPOc5/aMuf/nLdw94wAO6//7v/+7OPPPM7hOf+MROZOGISPOa17xmd+9737v74Ac/2J111llHxDvlJYJAEFgdgc/93M/trnCFK3R/8zd/0/3Xf/3X6gnkjiAQBIJAEAgCQWApBEIYLwVTLgoCQSAIBIGDgsC3fdu3dT/0Qz/U/fmf//lhhPEXfdEXdQ972MM6zuY3fMM3dL/2a78WZ/OgFOoBzecXf/EX9+TmVa961a03+PIv//Itwvi4447rvu/7vq8/96d/+qfd2WefvXVdfhyOwCmnnNJ967d+a3fta1+7e9vb3tb99m//9uEX5L8gcEAQuOENb9hp++Txj39897d/+7dL5fxbvuVbuhNPPLG/9rnPfW73e7/3e/3vW9ziFt2tb33r7rOf/Wz3hje8oXvta1+7VHp10Rd8wRd0Z5xxRnfxi1+87xMNYu03+cZv/MbuR37kRzq6VP+tH0cWf+hDH+r+8A//sDvvvPP6Pn+/5Tv5+V8EvvIrv7J7xCMe0V33utftfuqnfqp7zWteE2iCQBAIAkHgACAQwvgAFFKyGASCQBDY7wggvZA5n/zkJ7tzzjlnX2b3U5/6VPfXf/3X3dd+7dd2H/vYxw4sWfxjP/Zj3WUve9k+0vJNb3rTvsQ6mfpfBE4++eSe4EBsvPnNb+4/H//4x7fg+fCHP7z1G2F8tIroa6QXMStAWx0KrOgYWBoMigSBg4qAWQbXuc51eoL2+7//+7tzzz13qVcxQwbh9q//+q89UVo3mbnwnd/5nf2/V7ziFbvXve51PXlc57f71va+67u+q7/sP//zP7e7fNfPy98jH/nI7vM///MPezbSGInuA8fTTjut+/Vf//XDrql/0m8WEnvzfatb3aqvu55+17veNYTxDhfDMn3qDmchyQeBIHCEIBDC+AgpyLxGEAgCQWAvEeDE3u52t+v+8i//ct8SxqKvOCoiFN/97nfvJVyzno00QAq8+tWv7kIYz4Jyx29GZJB3vOMdPeExfOCv/uqv9m0GCSpK7miVY445prvzne/cv/7P//zPjxLGT3rSk7q3vOUtPVGWpTuO1ppyZLy3iOL3ve99PWmMDF2GMEaOfu/3fm8PAL0/Rewijy3J9Pa3v31psG5/+9tvXfs///M/W7/3w4/jjz++M/BGLDNlFsYf//Ef98tReNdv/uZv7n78x3+8u8xlLtM95SlP6SO2EeZDSb85RGR3/0cYlxi0NxPsd3/3d+tQvjeMwDJ96oYfmeSCQBA4QhHIpndHaMHmtYJAEAgCQeCiCIhcFIH07//+7xc9mSNBYIMIIHiufOUr9ykuIm84zUczWbws5NZ5huPf/d3fLXtLrgsC+xaBX/qlX+rzZqkF5M52IoLYEjek7p2654d/+IenTl3k+NWvfvV+iYeLnNgHB7zvPe95zz4n9OQd73jH7hd/8Re7D3zgAz1hjHT/uZ/7uf64GRoXu9jFuh/90R/dBzlPFloE1DEkMR1eYi+JSBAIAkEgCOx/BEIY7/8ySg6DQBAIAkEgCASBA4YAwvhzPudz+lz/8z//8wHLfbIbBILATiJgiZp/+7d/6x9x85vffNtH1ZItllPabv3u7/7u7+43hds20UMXrEIuL5PeJq9BNFpfmfzCL/xC90//9E+jyVvm54UvfGF/zvrGSPjI/kHgB37gB/rM/OZv/mb38Ic/vP99s5vdrF+Hev/kMjkJAkEgCASBMQSyJMUYKjkWBA4gAsiJZz7zmX3OGc6/8zu/02+qYqkAU7/sJi06y/qQ//Ef/9Ff9zVf8zXdve51r379ty/90i/trKvnvnMOrUFbjswYFDZXud71rtdd5SpX6Wxk8Wd/9mf9vab5T02Rf+hDH9pH2731rW/tTDn+nu/5nu5GN7pR9x3f8R3dl3zJl3Qf/ehH+2nbL37xixeuLfvt3/7tncgEzxaVY4qifP/+7/9+H3liaveUfNVXfVU/7Vmkjh22/+Ef/qG/DyYf+chH+iUVOG6weuxjHzuazFd8xVf0ESxwlZ5poX/xF3/R/fIv/3If9VPYtjebln7SSSf1h2y6xgHipMnHla50pf7ZNqmxxECJc3e5y136yB8b0Yiuge/LX/7yumT027NE2Fjr8/KXv3xn6ra1P1/xilf0G0VZlmEolpLw3tb3fdzjHtc/k4EPa/n7q7/6q35znec973k9Zu39poDaTE5ZEBt62Yyn5CEPeUi/3mL9v4lvZQcbZeC3OmDznxe96EU9loueYWqrKawcl3aDsWEZiWxSRpavECX60z/9090rX/nKw5JeB+tKQCSU+n/sscd2X/d1X9dHjqmDf/AHf9DnDZnQirr2qEc9qj8EY6INFdbKyOZJQ9H2vYdv9eHTn/50X55vfOMb+3Uux4jMoS6RJ3UKFuqVCG3rSdId6kjVm+Gz639Ynn766X30l2iwRdG2dU/7rb3QOQgTU5Dlr9o8nGrjp/ae9vcmMHj/+9/fb6Ro3VHvbNq2iDZTny+44IL2cZ22Q0dptyX3uMc9+g2b/C8tOocoe22EWH9zbPMr7UsZcrC9Px2jTb/0pS/t23Rbd3/yJ3/yMFLlyU9+cnfpS1+6r7vKfEyQK7XJlU2J/vEf/3HrsqHeNq3bdPdrXetavZ6+5S1vuXWtH/qDO93pTr0OoaNFlIme9tF+2vWbXS96sPoA/5MnPvGJW33AC17wgu63fuu3+uPK3/PptCId+hPNny/8wi/s64r1TGHlf5iqw3SgyMQxmaMD2/SUhfKnY5St9/2TP/mTvm8bmybf3pvfRxcCZrlYYkV9Ubef//znTwJg7V4b5RG2xpTYAI4NpB7qW6p/mLqebqZXiPpJzy6S3a7fbMMSy1AsEljWhoD2UiDr9pvus3EuXcfG0F+zC9kN9Aibb0x2Wl+2z9S/0HPKmf31eZ/3eb39YzPfl73sZX2eW59ANPZQvNeNb3zjvn9h56gP9CU/QP+yHebD9Mb+119XHbME02/8xm/0/oV+SZ2W3+1EvbNJZNkxyoJO/+AHP9i96lWv2uovxtJhs9ss0SCK/okNxF9wv0j9sT630oExfPQ78PmyL/uyvn/kr7DZ1bkxn4NtJxpeX33/+9+/krvIt35X/2vJqnZZGu/b+gzywQZge1ztalfr81Cb5HqXVlbpU+u+3W7X9dx8B4EgcDAQCGF8MMopuQwC2yLAoEDoEI454uA2t7nN1n1f//Vf3/kwgG3+YYMTjjkjswQJ4MMoYawMp+0zlpAaiLpWOMc+nG7fz372sy+y4QqDhKHD0LZBmmczVksYgj4My5/4iZ+4CMnI6JQnRlh7H0IAqclwZhAiX8Y2TGJQIwiRLyUIBZ+b3OQmPUFsXVgYTm2oxGD82Z/92cPSuNSlLtVvQFZ5l8ehAcnpqbKxzh4SRxRMSb07fJ7whCf06/VZt68VBqiPPD7taU9rT239Rt4gfFthLPsod3kfcyANHMgf4t+0QddwHErk1cf6id6vJejUF4Z/Cce23tWxS1xis90MR+4lL3nJYfmDiY96ZfftRWKHdfkzWNBKW0YGT57xjGf0zmZdc8lLXrJ+9t/rYl2JnHrqqb2jV//71kZ8OAacEWu2Vl1Sz1tcXa89+pCxDdMQEdprK97Du6pr2isicxi11eoSzthjHvOY7qY3velWMoWFtlzThdUt61ePCYcL0Yo89N6rCLIYaWgDl1Zg4YPIRuaff/757emt35vAgD598IMf3DusWwkf+gF7Azv0TpH5zqujw7Kie0takl7bqWuHGzq5HtYGatTbEjrscpe7XP9s5IVBuEqDnmwFGastc0inZFEeWr1N9z7oQQ/aSsbGW63obx74wAf2JG173MCGDxKd/uBsl9Arlfc6do1rXKN+Hlauheuw7dbF2oi6MowupNN8DIqdccYZPeFT99T3HB1YaWi33r/tU+VJ30M3VT8zbG91f76PPgQQVnSU/ktbG5I/hQhija1hwHcRYex6+kpa9LvggepDKq32G0FMZ9Dd73znOxcSxntRv1tbQ5BCqzva9/Bb//Ke97znsMPr9Jt0tQG91laUaNnQCNoTTjhhtKx2Wl+2L8fGl5dWypZkDxscL92qHx8TA2/qSSulL9k49NmivqO9b+q3uquP4U8YbEai+pa+ur8dYWwwhV3b2v10qo80rI3M7h8ORsqPQTttoLVRlWvZ00hoJP9UxL4B1NaPkmbZ1PygN7zhDf3g+TAQwzWwH/pQ7m+Fv1SD7u3x1h6VX36BwfoSx5TTDW5wg96f0OZLVulT3bMX7brymu8gEAQOBgKXOBjZTC6DQBBYBQGbBzEmELecAAQYw4zhxZgQiYjoQBCKRBC9ijhlfDJArnnNa/ZE0LOe9azDHms0nJH0mc98pjvvvPP6yC9piHh0r/RtKsahF0U8JgxaxIFotwsvvLDfwEgEBzIC8cLAQ0INSVGOTa1N515RCqLWGE7u81yklMhg5E4rl73sZbunP/3p/bX/8i//0v3Kr/xK9653vasfpXcPklrE5JTRKC0GXKXBuRKNI9rEcViKRkGeIsSGpG2bF4QmQo4BKIoDCS3v5eCZwu5dGdQcQ/giQO5+97v314re89xhlKYy8w5EBCNDVrlychjHCD9pIPmm1j+Ek4gUhLn3kz+GNsIP9n6LkL7b3e62NSCAAEIKO6buWF+0jf4bkkotFqv+Rp4hBxFgokREdsKBo8CZVI6e3TqZqz7D9aJhPUPENwxFXJoGXDIXayRtOXpve9vb+rKWZ9NvOVfehZMCb84MUSbuIwZbRAsjCkXkE3i0YoCg6oMoHE7Ze9/73v4+6XO0OFxnnnlmH5U1FhkvPZsJqUPu1z7ko54lusZMBESGwYTKS5sPv5FlRJuryK/+wDZ/EBkGV5DFIvlFJylvEUEGvNRL5zjOrjVluZVNYSCaHQYGKmAoukn07L3vfe8eQ3qvdJLnI/u1UfWVDiYGYSrCa1nCkINMTyCLOaSvf/3re30u6oseVVdETnFOd1rUeXpJe0AgiPBuB4PoMfVNnpFer3nNa/roL/k2OCEanZ5HxKh7tZblc57znL4v0a/U4AP9XfVkEUHUvrPyN9uBrlQnYSWfIu/peGQtIhqxYEaCvmdM1tGB0tGm1ENC955zzjl9W1FP1FXvTz8aDNXmIkEAAnQCfaYN0yNThLFzhA5WpxeJfvGUU07p7T46cmpmgbZKfxADT4tkr+q3gVADbAba2RqCAdgvQ4JuKu+r9pt0FBuIXWnmDCz1W2aUwEA5sJUNKJc9NfbsndKX9Sw2ftkQZmDoi/VNgifoUiSqgd5Fwu4ssphNzBZhH8o7Hc0mZWuwO8ySWFf4HoTNXrYD/ewZdCOdW/p++Ay29aMf/ei+X9HnqMtm2hngo0/1gfoXtgc8WjuGjaQs2VF0PvvBO7Kx3csm1u70QfqeYdszKFBkMfuHL8VOQ/KqC+xNxLy0h/7K8D3m/M8eNTjNH2Pb6zv1ZewP7yaCmS1YhPkqfepetes5eOTeIBAEdh+BEMa7j3meGAR2HAFO833ve9+tqbweyOhFVDJwGEqmv9/nPvfZii5kmLtGhJaRbORVK6K7EDAMPoZLuzQCI5MhgyDhoDBCpghjxAuS+qlPfepW8kgBz0aqGJXnxCBnyyng2NjF27MZRoiJOicRhBgiGKGNHEBkFCHhPBKZke8YwrONQmEkIppEITBOx8TzOfkwYJQx1NqNl+SJMctAL1JlKqKDcczRqGnfcEdsmP4nj+5nTItYrHd0DXxt9iJiRvm0hDGjF54i2xBVnMV6f+QSZ4DRLW2EKqJ9zAFAknKwTOtsIyNM40b8em/GMrIKmUyKnK2oP8TeIuJ9DN9ljyk79Ycg5dvlT5QjfEzr4/DMEca5tmHK4lDmYo08hSNBqrUR0aYTi5RVfkhKbcnAjzLhCBWuMCYwr2P9gf/7w5niZGgHcEFWVZSZsue4qT/qtHauPbURsm1aiEADTEjQoagjHCn1ynuNEcbqVEU5TQ1UDNOt/0U30SUEThy+Eu9lxoB2qz5yoJU/x55sEgOktEijtr7Rn3SWMkRm0E9wJQggH0R6iYGfsbKq82Pf6gCHmCBaaxkL/2u/dIz2XMSB4zsl6oEBFPWqMG6fZcBPfTCwIrKtJcXVa+VlkJH+gyedTYoQNlW4RLtr9WsdX/SNCKb7yWmnndYTKHU9HajP0b/QDUh4A1yb0oGeY8CE6AfUlRLv7UM8Uzs566yzDiM26tp8H30I6OP1zwbm2GaIp+r3Cw36pfTgMjpUX2HA1+AyW2qKMEYssjn0J9Kdsn/kY6/qNyz0T2XfsGPYtkUcGsBqdU1hVt+r9JvsY0SwAAj2JMKwJefZQXSuZZXoMXYwvV99az3T907pS2mz/+hYwt5DpJdOpmv1U2xcem5KzPi43/3u159m87d9CxtBf69vFWCiTgqIGHvPqfTruIAKpDBh15YgfZHEcEQcs3+HIuregLHBQLraYFsRwvKoDngP+VNm0qll3aos2WsGENlz1dd4DnyUI9sf6SogorWBtEXPI64RqFAiL9qXvk671c7YA/Xsum5T3/wOhHabf++vr1FuZmEh5Q1SkrpumT51r9p1n9H8CQJB4MAgcPEDk9NkNAgEgaUREJ1a6z62NyF3ShBTQ0ObQVjTz0S1IUpLGM6itBAYLVlc530bvSdGvxlsY4L0nYqwQvgQxKdIjxJOA4POsznjQ4fKdRUxhqRpp28jzUT+EtPmW7K4P3joDyPUVOsi4up4fSPVajoY52WMzOBwiSwjjNgpYaQWWVzXwKQlgBl+w3f0TAYiEVHRCmMRMYfURaoWWdxeg+hBYjG+OYpTwvhuyeK6ri1zJOZeSJFnoqFa8q7y4v0RR+U81fFVvxGfY2SxdOZifYc73KHPDqfD9PgxQWxpS0i1qrtj100dk0ftQDmKUB5z9NQ3EbMEiaX+jAlSdIwsrmuLwEACcvCGgvTWBjngRagOrxn73+ATIppwxFqyuK5XzgYODF4YyJGHkk1iMLU2u/pW+dqJNlEkkcEizvuYcKg5jzst3nWKLPZs57RPenrYrziPtKV/iGUyNinlMEsTMSzabig1WKge6l+qbg2v8/86OrCWwZhalsX66vAR+Vekx9izc+zoQ6CWmLDMzJi+N8Cvzqo3Y/3eGGLsOzaEtnbMoZkkY2IqOkHkjbXZ9p69rN8iO9tZB3AyQKWdwkNwAgJ16j3b91j0G/ZmuBGDpC1ZXPfRYUhrgmwvMrTO1/dO6kvEPvuaLjNgOGbvsEXpwimhp9n3+paWLK7rkazSJmxxBPg6IiK7+n/lWEIflz9CJ46JPlyABLucXTemN9lJggQMHAhmKFHvK7hA31Qkap33zaa27Jd7RSO3S0IZCCD6VoMIY8JOq0HgitQfu27uMT7DWP4NYNSg57r2x16267m45P4gEAR2D4FxRmf3np8nBYEgsAMIlBEzTNoUuxJG0piIFiaccOTiKlLTypBVpvSNCdJzzMB1betst4TxWDrDY4znktoUzP8cgDIEkV9T0hKyw2uKqGS4TuHmnoqaaw3XYVpTZVPOCfLYhlZjItKUiIhopfIHW47KmCANiwRtibX2WtdMkU8cysJ41bJpn7Hub88UaUUWEY8M6LYerfM8UTtTMgdr5VaR+wZmxohcz1XPRMuLRJ+KVJ/Kn+OWaCGijYqk6w8M/tQAD4duKrpsbIClTcbAVOmVilZpz9cxjv3U+7bX12/RotVuazCozrXfHCmRQLCqSE7nN4lBRdG3z63fVdfUz3aArc6v+y2t0iPqynAAqdLleC/Sa3Xd3G/EwpTeXjbtWru51c/L3rvoOhHsCDVSdXrsegN1pQOrfgyvW1cHVrr0gw2StKlIEFgGAbMPSsfU0hPtfXVMIMDY/gzttfWbrVD9WBHDdc63yEvT8sl2y1G4Zq/rN7IRsYg4NiDUDu6LgrXng4ADJOe6erh0Aj1XgRPefSgGEOv5U8EBO6kvLRVB2JuLiP42CKF9B/Z5Ddot6t/1rWXz1TPbdJb5XWQwcnjY/9dmsezRIurbNAtbdkz1s+35+m3ZCf0/Yrik7lWWi+wHxLp7zfoqQprvUuvoq3djARieo0+ueiJIpfaTqDxs6rt0w1h65a+JQl5H9rpdr5Pn3BMEgsDuIxCLdvcxzxODwI4jUMsDDB/UGtJl8A6vsT5xSXt9HfMtGlGUq9FpU8oQYSIBihxqrx3+Hhspr2vKOPW/dcbGBDGASPF8kSb17CmDqQxdhqMot0XCeDK9fSg1tcuz202fhteVEY4QsW70MJLY9WPHHC+sGdVT5FAdr2vdR+rdRcjUOpr/e+bwv6I9yRRhjPgbGvX9Df/3B+ED76myaa/d9O82aryiKqaewcFYN+JCmlPtx7k5WKsXFXkvjzslRehPDTzUc9vzVcfrXH2PRdPXOd/qpCnVSNvhshTtchQVRdfeu+h3vYNrtmu3Y+nU/e07jl3Xnp/CAKEzJaWzqlynrlv1uGhtbY1s9/7l9K36jFWuX9Qm2nToJs6/GRki8LwDB9w3YmcnpMpa2m15jj3LeYMj7T3tdevqQNOW6Vd9klkopnsjr0WBIZisex0JAlMImKnBphFNbOZJ9cP6DJtikVV1KCLYbCJ7RlhLvQgxaRnU0I+3S6Y4PiX7oX7DBGnuU3YgYs8gDbuNDrY8D1vU8mBTRN/UO5ZOQE62WA2vZ0uyY9m/iPcx2Ul9WTZtzTgbe75jU/2CaNoa0LKG8SKis/ogNveqSy5Yv71szSKH27wKnjCgDUN1FPHbSpXHOrZS3assx2bMtc8Z/oZP2diWg1skbX/jPaxnvGlZZH9UgMi6Nvl+aNebxivpBYEgsHkEQhhvHtOkGASOWAQYRNYSZaSXQbXqyxbpuep9op1NrzdNbZXI54p05jyUEzb17KnoHSRAyVi0Tp1rv03hmyKH2+vm/lYO7XICy+QPmcq54vi0sm7ZtGns1O+aEikCuzb3mHpWRWJPnV/3+FysDa6U7EYeFzka8sHZ+MQnPtFv3NjmrfK47DciA2HMOUR0VjQQAk1b9f9UZP3UMyo/y5T3MI22nDaBQTuINnzWTv2P9CgxPXiRbHd+0b2bPGcar/VF27xvMv2ptFapK1UfRK/7DImhdXUgAkmUmrUyRW7KExLER5oi8UVA1jTsqXfJ8aMTAeuxmlWCoLNXBFKUWEtVX42AXHUmgZk4BvwQYKKUrbdOkIXWpCWWrlhG9lv9FvCgT/GxtBJC87TTTusHq2BmmY1FM5HG3tl6u6SiNseuqWP0SAVM1LFVv9fVl2b/EX3jInFe3zUkEwUzlLDpl7EZy/6q+5b5ZquX2EdhaG865/nE+sMGNeqaVfrwPoHBn1XKcnBrr7vr2HZ2WvUnrq9+qO7d1Hdhsqn02nT2W7tu85bfQSAI7B8EQhjvn7JIToLAvkbgmEPr4D3/+c/vI2cRqxxfo+9IUVF2yCcRthzmTYtoEhtziMBhAF94aId7SydwhkS9VpSf/A2lpqlLwzssihioKeDDNFoi2ZTIKWlJ2DbyYOr6TRxHRnAMkDTe1TrNU9Lmb11iZCrtnT5eSytwlgwCVGTF2HM3PeW9njEX66qn0hMBU3Wz0t/EtzyqrzDaDgdkbi3z0dbxVfPBwbZUiygvswxq87uacbBqZJznV/kqbwMii6beDvO7FxgM8zD3f/oDKUJvISYWEe4VxTX3mXPupxdrfW514b3vfW+/Bqg6X5/nPe95h20EOOd57b1FmK+iGwweTs2yadNe5TfywAwP9RVpbIM90cwi1/WNPjCwnnHk/7F3H/DWHVXdxzdFRaxYUAQkgIiKBVSqCiGAgFIE6TVAAohACAiRnoAgJdIDSJEA0pSOdAwoIipNAlEwNFFAsaA0G+V9vvtlXebZzz7nnn7Pc5//+nzOPefuMnv2b8+eWbNmzZoQaAmo34QQsE7ENa95zYMMxo7joTmv4cjxQhoZyGAULIMxj1yD4N7LdiGyNj9jv7e5fPOmNfvLoIx2zbs3r8G42pxpHrfFpdrWRdvNZepLM07UJdqFaWJW1tBY7PiqL/0WH9csiElSOuM87a+0nMcIXCK/0wRz3vAV51gb7nkYQJk082daehX+qAzS044d7qtyYPtuZaHKgWMXLQvO3UvZ5vd6L7nk2iEQAl8nEIPx11nkVwiEwBQCvAV4JjDY3upWt9rxImxP4cmyDhFqgbGYWPnZCsVDmaTYMSzrOFFgGbQmGYx1Mmqq3zDtmmZGCS3Pn+Exe/k/7yMGY9OetzF/q2DTTr801XGaAW1dU9/dxzKsW89oC7KcccYZq0BzSBryyGBci74ccsDXNvAaqg5llfFJx+623Tvp/aqwFAzRYsvq+AlZMa8MWb3rXe+aK4m9YDBXBnc5mEFT6BV1kvAO7aKTw1Mr3uJwu//xJxUPuv9n8GdZzygxMctj0dT6U045ZXCF//+vMrZMqJjRRA9sbMOm7FY31DvBs77YTEp30e2MKzj48JQTG5XntWvf+c537rfXANii18h5+4+AgbVaWNjgB52mdBJlaRERRkCMVoPh0jJIWQt0Wcx06GE/yzU2Wb4vcpGL9G2U9TF2m7FlJguPSe3/bsbUsfvUZhDtYhlKx46zTT1DFmk3l60vxbRlgPU81S+T6jHt8Zi0eV6Xzsj4Wzq5RQknhceQPwsMEvGOy2DsfzrAoqGM6h6VH7r9brMLXa+kyoH/1dnTBh5aXbOu6bx6Jrz5pz2jGrB3zl7LJt/rvb7XXD8EQmA+Auec7/AcHQIhcKQSqNWgeffWlPMhCwaidcgVrnCFPlmK3FgsNDsneTDwpigjsbiSk7wVLJYySXmzgAmxv2LY9hu25E/lrzoQe5mtio236jzoCFbnthaOG7uGZ7TI9MmxtMa2LcNap7fiLxsEmSamst/ylrfsLP42SXSExqTyqNPMQ3WSMESWzGuQrfPquxa14+3qHTn6a+EoeC/Vgo517Czf8lOhICa929JhCMXJpzVG7gWDWe5rnmNqEU3TyWsRn+H517ve9Sbuc+wnPvGJ/pRpg3nLvi/q/SqLPNbGhCdW+3zGjqlt89Yhylh10NsyXenVtzyWN/ay5b3S3O1bvsQybhdkmlZ/7ZZe9u9fAhbQ0kao09Sftdgdj9JqN+a9e0YsOhthKGZAq4G8WcNR9CdP+LPu8s1r+EUvelF36qmnTsjB1zdr60o/a41+Xz/i//+qumq4vRaAk067ZsLwODPVKrbvIvXIsvVltQt02bvd7W7D7PX/M2Qef/zxo/uUiQq1UAMSowcusbEWu3Odxz72sb3eTncf+5h1QQyWMKaX1PNwLxVarva133hyYrnuda+7s7kWfPSsJxnOHaxNci79oQZVlZ0KNTHtXOeXI4sBwGprbS+dR1vWhrSzr0TeLnzhC9e/a/2et01d93u91ptN4iEQAisnEIPxypEmwRDYnwRqOr3R8jEpI9HYvmW31bV5Q44tZELRmxaH7eEPf3g//Zgn3WMe85h+2jzDIiWKd97973//PtZk69XY5vmtb33rznQzi6lM6nDc5ja36XhTPOUpT+k9VNo01vn7ta99bZ+8MAc82cbEc+OdLX/3uMc9xg5ZaltNc5SHdpreUok2J/MSr9WidYTKw6c5pPfk4K0yzUjaHr/I72VZV3gGRlCdlDFhKFDOPKexacg19XFSZ6byqLxPWgRRR8UACtEBnTQINJa/sW3e0fJuv8Y1rrGzAGbd79g507bxAK2Ynccee2zvZTt2vKm9OCkTrQfaXjAYy98y257+9Kf3nVDebmLHW9CpDCKMFjq6nu+kesu1a8E8cVHH6i0d9PI4XDSvNf3X+ZPah5vd7GZTk6/6w0HTjL5jibj/MtyYfm/RvTERI7amKE8aeBw7b7dtPOk8Kx9lf0zahZeG75rnIoRFG1t0LI1s298EeEFWiAgDQWUwXrQOLVoWvyNi+4ol6x21EOMssXqdt2z5lsaiwguaaOvKaWFSWhbyq/jpYoYPZbd208BOhSN40IMe1J3nPOcZJtHrFg95yEP67d7pMsYfcuCUDcvWl29+85s7H3LrW9+61/kMDnuunhVjLSNtW6cOs1P1n/AnkwYj1UdCnNEZJ9Vrw3T97xkw/pIqz/0/E/7UMfT49jracPoPY/HJB+JTj7UtDL50+hNOOOEgZ5AafHFJulS7zkdlg55ogUnnXuUqV9lxSLC/+GBj8H5MhNzyThHH16Cl/81sLFG3j4kQTuvUVdvnP9amLvtep90ae6rZFgL7k0AMxvvzueauQmDlBChghCLI0FVGQUq1KbcUyxqhX/XF69oMYA984AN3DAIMvqZaMtCW59jYtcXUpHBS6Ewxe8QjHtFZZEYc5mc84xmdlaLF+pu0CrSOxkknndRPa2Poe9SjHtV7NJcBhuLFaMVYyxuC8WLM0DeWt1Vs400pxjO57W1v23udVAeCku2eH/e4x/XKrd9l2FvFtSuN1ghi2jWvRYauVsn3vzjTDCsMO/MKoxnDpOm6PI50Lnj6uIYOpbLBMFbeHfOmP8vxy7J+3vOet9PZY7DV4bNQHGHM0ulV1ohORxnC+g1f+1OsdZZucYtb9Iam1oNEZ7m8dnjdMJR5P3DC65hjjuke/ehH97950xgwWYWUYcN9eQ48wnkeLyreWfdaHTsdYR0/9+E9U4a8u8S7W519/+8VA9delfA21JlV5nXCzYIQh5SxQIgK+8Q6NiA2SWqQRdnyftQsCgyr7ly23jbgUOyVpctc5jL9YJw8GZiQb+V0WszgKtPO0ZFWz6ovfGYRBh7Tq9UNyra6oS0r6maLTJHTTz+9qzZllrR3O4bHnrZF3FTGCe1htQ3O9Z7WO8YLbTg922JPjB7CDmhLIkcugQrfw2tSuTFAXoNfi1LRZpll5T0vA1cZkWdJc9nyrU2rAZUa8Jrluo6hq9RAIB2Gx7H2Uv1FfFcdY1Fkov0vjv2Gr/2pOmZSu2ktiHvf+959PUVPoueJQe5d9jErSF2r3jT75b73ve9csfUrL8vWl+oadXmtgWBAlV4hxJWyIiSQ9uIud7lLXfKQb3UgL1xOGGY/GIys2XfulXGeDkGv0na0oSIOSWywQViqalPKGDw45KB/PZdqp8oz2QG2Pf7xj++PZdDVjvDo9cwZkW2jy6vztS3iV5fQPZQV38ocfVG9TJdwf9oXhn/PmTz3uc+tU/tvfOqePWdtR5VdThF4aXOI92u4fgq9qsIOeQ70oSqzno1nRk9ujbp9Yiv8U+VdkmNt6rLvddqtFT6sJBUCW07g3Fuev2QvBEJgSwgwBlnEgqGGcdRH55fyROnUIaFA6DCvWnSwjeDzuGEA8+FVRmmkLFL0GcXKSDZ2fQZicoc73KH3TmWI4F1HsdOZYTA+7rjjxk7tt/HI0Vlwf7wOfCipFNKanuhACvteLGrkHjwLnkk8nX0YmijIpbzraOgcjHnfTLzxGXcwvlvwEAt58CEMNwxf5IIXvOBO6JB6Hv2OGf/wiNJp0HHUafQ8dKg9/3oGL3jBC/rnwnC+LlmGdXX2nvzkJ3empt/97nfvPxi1sWQ/diAERxmZhvfBOFoLyin3Pt6/WnTM8cqgMARiyzLW+fBs0lmpuMUGQlx/VQZ2HsE69+UpyfuqvLqG9zDL/5jIn8Eo96IjrKMuzTJ8SodRoQZM2nT3gkF7/VX8NjWWsdO7VR526j31DqOPe5wWr5OHnvOUF/W3j46iNAz2YczLquJILpJn7+Bpp53WG1t4MnkW6h7Pqsq02Q03uclN+vZj7Bof/ehH+7jkZnx4L6oDrrM+y6CD9sD0bGWFQUjdYNBOPlrvMoYk796q5YlPfGJvqDb9WP2kbRB33f8MMYwF2pryTqzrq5trpgBDht/lPVjH5PvIIcAIqC4vL3l6h9kWy4rwE4yhhCHLrKl5ZNHy7RqM3wZT1DWf+tSn5rlsP0h/u9vdrq+jDHqaqeDDG1taHBfogCV0G4bjscGpWdpNi3VqZwxOqzd9eBJrt9vrMFTySF5EVlFfqv+1+4yRjKzqDnW6Os+zfcITnjDVgxw/nOgydHp6FVHWtK2lIxgIVK/WgOAs91tGXwPeFdpht/MYlhmDDTYyzJZOwruZwZr+YnDYZ6jHyBsDuvLVyplnntk94AEP6MuO8qderpke5T3uuWqvhs/SMzJwr08hbEcNRrhGtWmuJVSMWU5jMZKMj3mNAABAAElEQVQx1S46nuHbM9Me1aCgtpvh2j2vQ2ZpUxd9r9NureOJJc0Q2F4Cs7lubG/+k7MQCIENEWAIYmxluKX0EAZAHWELXlFca/uqs1RGNkaEGrWvjoLRfdMsa+r1tGszUups8LLh2UmxZYTWmaJolzfbJO9gHmCUwFqAjTG2DJVnn312v49BWX73QhiDKbg1RV3eKHYMNzzqLH7DML4OUT50LHS4xjprril+YkmFG6j/Z/12HkW+YjryrHWfOjqMRKZibkKWYa3jcM973rN74QtfuNMRq06IjhIvUgbvijM4vB8MdJAYFnRsyFiZYwg0iMPzklRHUPlWHngCz/Le9CfP8Edeaiqnw8e8vGZI5qBDDBIwlhqQUI51ZN2HaykD7o8hZJKnzqYZHJT5Ff1jwIzh/Oijj+47zgYBrnzlK/cdYHVu1VsuN6y7qu5kLKm6U4dVh5mHmbqz6otlsst47Tkok/LgnVSmlWdGX9efJvKpblXHtsaJsXI9KR2DLLy2DCAoK7iUsZiRnGGAIWieNCdda7jdLBYDNgYM1UXaBsZfxg/X9l7c/OY3773R2nPVBbzbGByk8ba3va3dnd9HIIG23lx0sbshNgP+BlbJS1/60kPqieHxw/8XLd/SMYBDGL8XeffUIXQXsYzL25iBVLplxFWHMS4aXBsaDvuLH/gza7v5hje8oQ/1Ux686sq6jvZS27tbfVbXnPS9bH0pXSzUZzxthWRTvwh/wIBJdyiPVseOcTfwSmejE1bZON/5zte3sQyr9GL6cnGQzm6ivisD6CzexZUe3Vy7Ic9lcK59DL0+NdhQeoznTI/hrTs0+Na5Bq3xqLjPnqWP+1OmeSGbZTjGBxOzeDyrGvguPc35yoB2eVK/h8Fam+hb/U4X1/Y63v2MDXJXvlfx7Z52a1MXfa/Tbq3iCSWNEDh8CJzjwNTUrxqFioRACKyegGn5ZL+9Y5Q60wApQBRTysMmhdLF45CHs5V9VyUMjjxiKbo8E6YJxZHnGMMVo1Z5Lkw7Z1P7PB98fPChaI95QKwzPww1DMfVEXEtMVcp4DqApqkuKwYNeFXrLDKGjSn9y15jt/OXZa3jy4NGR403ThvfcLdr219GMUa2Sc9YHrFyHYZV5WGSgXWWa047hnFX5543pY7f0IA57dzd9uno6ZCqd4RimDQwMZbOJhmMXX+d2xgLxDJmmORBPE2UAV6v6u3WMDvtnHn3mbmh7fNefvrTn5739P54nvAGgxat3xl41M+87tQN8rHJ+kH7YBaEacGTDFgtmDJitNvye/ME9qvOtmqS85RvHvPeQ567qzCAq7/MquCwQPcygD/LO9YymKXddLz7pGM4nt4y73Xaa076vYr6ciztow7EuRe6iGgjJg1A208PcZ9mBxlg3nR9KQ+7SduGy18NgO52Xu2nk2oT6Op0rXnag9LTlD2Geowm6Vt1vfbb+cJfaM+cu0q9qL3OtN+ztKnzvNeulXZrGvHsC4H9QyAhKfbPs8ydhMDGCFC0pimf684Iw4jPrGJqv6nODBi8DVojZqXBAF5Tvit2We0b+9ZxWEfnYexa827zfCjT8yrU815n2vFjhp7W02jaubPu8zx99lKWZa3TwajUxpub5350PHabsiyPOlg+6xQdslp8kvf0qjtFOno8WBeRTTFYJG+TzjH91lRc3rLqsLF71xGtOM6z1FubqBcMRlRMykn3ttv28uja7bhJ+9XxY7wmHb/q7fO2D9s04LhqFklv/xGYtXwb3GcsJovOKhrSMxg5S103PK/9f5Z20/Gz3meb9ry/560vhZAQ4oc861nPmhjjukJUcazYTV+nhzC++2yrLNuG00nH9NJZ7ndZPc35w9j1s1x3lcfM0qbOW97Tbq3yCSWtENheAglJsb3PJjkLgRBYEQFTlHkOWcDEQiYWvzCSTkyd5pVnaruODa+7ZTsjK8r2vkumQlKE7757tP37JMwGozEv6XYBmv13t5u5I9NpeVTzTLIomtkP/ie8rMU/FI9XbE+daWE7IiEQAiGwLQRqkFj4oHkG+bcl/9uYD+HPDIjRaYXHqNjwvKDNyrDdgmw3utGN+uzPEgN+G+8zeQqBEAiBENgOAvEw3o7nkFyEQAiskYC4kOLfUayvcIUr9B+X49lhOmAJL08LiVScvNqe79UQYDDmLfmOd7xjNQkmlT0nwCtfHD+dVPGFGS4Nvqwr5MWe3/AGM8DbR6xsC+6Yfi1kDmEsqJia9T8DQeLf9njyJwRCYEsI1CDxqryLt+S29jwbYvNrGwwg1mKGQjRpg2vBOpm0COi0xaD3/EaSgRAIgRAIga0nEIPx1j+iZDAEQmBZAoxYp556anfGGWd0xx9/fL8CuVhtjMWML7xfTKG2+MWiU9aWzeN+P5/3tvhvFgBZV+zU/c5wG+/PO8QD1jsmxqPFXMSsjKyGgMWq3vOe9/SLOVlFXgxGxmKx0z92YJE38Tuf97zndbzOIiEQAiGwTQTE0SUxGPcYVvbHQnRCTljk8/KXv3y/AKCFNokQFNoFC22mLV4Z8iQUAiEQAkcsgSx6d8Q++tz4JgjwuiP7bdG7TbBb9zWstOxDuWbsiqyfgOmSPIzDe/2sN3UFnVSL5YiNu+nFLzd1j9t0HaEoLFy3FwtZbhOH5CUE1kEgOttqqVqojMerAa7I+ggIR2EWilkpn/vc59Z3oaQcAiEQAiFwxBGIh/ER98hzwyEQAgiIs+oT2RyBdBo3x3pTVzINdrcFdTaVlyPhOozy4X0kPOncYwgc/gQMDqfdX/9ztIjfNi9Yt34CuUIIhEAIhMC6CGTRu3WRTbohEAIhEAIhEAIhEAIhEAIhEAIhEAIhEAIhEAIhcJgRiMH4MHtgyW4IhEAIhEAIhEAIhEAIhEAIhEAIhEAIhEAIhEAIrItADMbrIpt0QyAEQiAEQiAEQiAEQiAEQiAEQiAEQiAEQiAEQuAwIxCD8WH2wJLdEAiBEAiBEAiBEAiBEAiBEAiBEAiBEAiBEAiBEFgXgRiM10U26YZACIRACIRACIRACIRACIRACIRACIRACIRACITAYUYgBuPD7IEluyEQAiEQAiEQAiEQAiEQAiEQAiEQAiEQAiEQAiGwLgIxGK+LbNINgRAIgRAIgRAIgRAIgRAIgRAIgRAIgRAIgRAIgcOMQAzGh9kDS3ZDIARCIARCIARCIARCIARCIARCIARCIARCIARCYF0EYjBeF9mkGwIhEAIhEAIhEAIhEAIhEAIhEAIhEAIhEAIhEAKHGYEYjA+zB5bshkAIhEAIhEAIhEAIhEAIhEAIhEAIhEAIhEAIhMC6CMRgvC6ySTcEQiAEQiAEQiAEQiAEQiAEQiAEQiAEQiAEQiAEDjMCMRgfZg8s2Q2BEAiBEAiBEAiBEAiBEAiBEAiBEAiBEAiBEAiBdRGIwXhdZJNuCIRACIRACIRACIRACIRACIRACIRACIRACIRACBxmBGIwPsweWLIbAiEQAiEQAiEQAiEQAiEQAiEQAiEQAiEQAiEQAusicI5jjjnmq+tKPOmGQAiEQAiEQAiEQAiEQAiEQAiEQAiEQAiEQAiEQAgcPgTiYXz4PKvkNARCIARCIARCIARCIARCIARCIARCIARCIARCIATWSuDcUv/oRz+61osk8RA4Uglc9KIX7W8979iRWgJy3yEQAiEQAiEQAocDgehsh8NTSh5DIARCIARCIAQ2RSAexpsineuEQAiEQAiEQAiEQAiEQAiEQAiEQAiEQAiEQAiEwJYTiMF4yx9QshcCIRACIRACIRACIRACIRACIRACIRACIRACIRACmyIQg/GmSOc6IRACIRACIRACIRACIRACIRACIRACIRACIRACIbDlBGIw3vIHlOyFQAiEQAiEQAiEQAiEQAiEQAiEQAiEQAiEQAiEwKYIxGC8KdK5TgiEQAiEQAiEQAiEQAiEQAiEQAiEQAiEQAiEQAhsOYEYjLf8ASV7IRACIRACIRACIRACIRACIRACIRACIRACIRACIbApAjEYb4p0rhMCIRACIRACIRACIRACIRACIRACIRACIRACIRACW04gBuMtf0DJXgiEQAiEQAiEQAiEQAiEQAiEQAiEQAiEQAiEQAhsikAMxpsineuEQAiEQAiEQAiEQAiEQAiEQAiEQAiEQAiEQAiEwJYTiMF4yx9QshcCIRACIRACIRACIRACIRACIRACIRACIRACIRACmyIQg/GmSOc6IRACIRACIRACIRACIRACIRACIRACIRACIRACIbDlBGIw3vIHlOyFQAiEQAiEQAiEQAiEQAiEQAiEQAiEQAiEQAiEwKYIxGC8KdK5TgiEQAiEQAiEQAiEQAiEQAiEQAiEQAiEQAiEQAhsOYEYjLf8ASV7IRACIRACIRACIRACIRACIRACIRACIRACIRACIbApAjEYb4p0rhMCIRACIRACIRACIRACIRACIRACIRACIRACIRACW04gBuMtf0DJXgiEQAiEQAiEQAiEQAiEQAiEQAiEQAiEQAiEQAhsikAMxpsineuEQAiEQAiEQAiEQAiEQAiEQAiEQAiEQAiEQAiEwJYTiMF4yx9QshcCIRACIRACIRACIRACIRACIRACIRACIRACIRACmyIQg/GmSOc6IRACIRACIRACIRACIRACIRACIRACIRACIRACIbDlBGIw3vIHlOyFQAiEQAiEQAiEQAiEQAiEQAiEQAiEQAiEQAiEwKYIxGC8KdK5TgiEQAiEQAiEQAiEQAiEQAiEQAiEQAiEQAiEQAhsOYFzb0v+vvM7v7M7//nP333+85/v/vVf/7X73//9323JWvIRAoc1gXOc4xzdBS5wge4//uM/ui9+8YuH9b0k8yEQAuMELn3pS3fXvva1uy9/+cvdox71qPGDsnUrCHhWd7rTnbr3v//93WmnnTaap2/7tm/rrnrVq3Y/8iM/0l3wghfsPvjBD3ZPfvKT+2PV6SeeeGJ3sYtdrN/2N3/zN6NpZGMIhMDhR+AbvuEbuu///u/v/umf/qn7v//7v8PvBpLjEAiBXQlc73rX6y51qUt1H/3oR7sXvvCFux6/TQdM00+2KZ/JSwiEwGoI7KnB+Kd/+qe7m9zkJt3P/dzPdec5z3l27uirX/1q9973vrd79atf3b3iFa/o/B8JgRCYnYABmNvc5ja9MvLDP/zD3bd+67d2X/nKV7qPf/zj3d/+7d92r33ta7u3v/3tsyeYI0MgBLaawEUvetHuhje8YfelL30pBuOtflJdd8IJJ3Q//uM/3v3sz/5s92d/9me9vtNm+Tu+4zt6Q/IlL3nJnc3f+73fu2MwvuIVr9jd/OY339l317veded3foRACBx+BOhpN7rRjTrv/CUucYmO0Zix+Oyzz+4+8IEPdM973vN6/e3wu7PkOARCYIzA5S53ue6a17xm91d/9VeHlcF4N/1k7F63adsv/MIvdDe96U27y1/+8t1tb3vbLgPu2/R0kpdtJbAnBuNv+qZv6h760If23jNjYHjP8MDxYUx+0IMe1P3Xf/3X2KF7vu1XfuVXup/4iZ/o88GD84lPfOKe5ykZOLIJ6HiceuqpvVdxS+Kc5zxnd9RRR/Wfa13rWt0znvGM7ulPf3oGZFpIC/7+lm/5lu7444/vz37d617Xd/AWTOqIOu3qV796bzhTd55++ulH1L3nZo9cAh/+8If7cs8gZBBvKHe/+917w5H9Z5xxRv/5l3/5l53DPvaxj/We5Oc617m6j3zkIzvbN/GDx7P2g2g/vvCFL2zisrlGCOxbAt6nBzzgAZ2+USuMxj/2Yz/Wf37xF3+xO/nkk7s/+ZM/aQ/J7wUJpB5bDNyxxx7bcUgxO+ZNb3rTYonkrMOawG76ybbfnMH2y172sn02b3CDG8RgvO0PLPnbCgIbNxif97zn7X73d3+3n2bZEuBFzGhg5Iphq+Too4/unvnMZ3b3ute9uk996lO1eWu+eUmbBkw++clPxmC8NU/myMyI8vj4xz++99hnbHjOc57TnXnmmR0Dw/nOd77uh37oh7qb3exm/TcDp2mPD3nIQ45MWCu8awbjW97yln2KvIF8IrsTMMJv0O0f//EfYzDeHVeO2CcEHvGIR3RvfvObe+/Bz3zmM4fcFSMR+fM///PekDQ8gK7Bm9wA4KZnirhm1XXPf/7zYzAePpz8HwJzELj1rW/dMcAQ4fie9axndX/3d3/Xh6MQiuZHf/RHu9vd7nbdt3/7t3ePfvSje2ebV73qVXNcIYeOEUg9NkZl923Xv/71uwtd6ELdy1/+8hiMd8e1L4/YTT/Z5pv+vu/7vu5nfuZndrLIaUW9mjCoO0jyIwRGCXzdMju6e/Ub73a3ux1kLNZZetjDHtaZImAE/Zhjjul+/dd//aARH9OznvKUp/RTtFafo6QYAvuHgPdLeJfPfvazfUiKpz71qb3RgYHhrLPO6kO8CFXxhje8ob9pgx28BSIhEAIhEAKbISBsyNve9rbu05/+9CEX5FUovAhxzCRRpzMoJ2TXJELZHgLbTYCDTM1Met/73tcP5v/BH/xB99d//de9wfhd73pX9/u///v9djMJzL5sQ9Fs990ldyEQAvuNwKz6ybbetz4vp8Sa2SVc41WucpVtzW7yFQJbQ2CjBmMx+371V3915+YtznOf+9ynH6n8n//5n3676Y3i+VCi3vjGN+4ca6Td1IF1yzd+4zd2pvQbhVqnMOoZ4cbEtVqv6nmvaxqbPH/zN3/zxFNdg+F9metMTDw7toIAL1flifzxH/9x96EPfWg0XzyPn/CEJ/Tx8c597nN3v/RLvzR6XDaGQAiEQAhsloAOmVATxMBfJARCYH8S+Mmf/Mkdvd2iV//5n/85eqPC0QghRujx9P1ICIRACGyawOGun/zyL/9yj4yH/Etf+tL+93Wuc51NY8z1QuCwI7DRkBRWBDVCXsL70Uj6mJgeYKX3K1/5yjtxva52tat1Rt9Lfu/3fq9fJdz/jMs8lYfCUPqiF71oZ7MYYG95y1t2/vdDBfhrv/Zrfbzki1zkIjudtc997nOdWIPyaaS/lde//vV9vtqYYxe4wAUOSvsa17jGISsc//zP/3zvLSDYfcvCtSzyx5vgn//5n9tL9b9NP61pazZI2+qq8s1IyNDN08j01Ic//OF9GtI33dsxwhGQL37xi32IAsdsY4iPPpP5sxAB3iolu4VEUMbueMc79p2Vf/u3f6vT+m+DNUJb8Hh58pOffNC++kfZqn3Pfvazu7/4i7+oXX2Zs5CD8iXchTA04p5d6UpX6n7wB3+wN4LUIi7vec97ds5rfxhI4mX31re+tTPt+Qd+4Af6/IoXfv7zn7/3zPNOCrkhnME0ca73x/WF4JB3q48bmHrxi1/c/cM//MPo6cM8mIonDdOZGN2NVAuZY/EEdUiJe3UsEW9wuPqx6VyUFlNNL3axi3U6g4z7vAWXnWoqbQuJFif3aZFD8eZe9rKXHVIfyaN61orHlKd2kM6+Eh3UE088sf/3/ve/f/fv//7vtWvnW/0s5rz7wvzv//7v+/tyT8PnbAqYkf2jDgyaEQt6mUVScu9737v7/Oc/X//236t6jupOz00MM/Whcv6kJz1pp96Vr9vf/vb9ghimXroP/LQ9QrvMK7OUozZNAz/Xve51+xk3Bkr97331HJXXSW1mm8ak3wYVtQneT/fGMKmMeM/cnynRk0QZV9a1N54xTtpH06e1W9JZVOYpO65R97BMHVN5XYaJNOgYFqtS9ukA1luwiIrn9Ud/9Ec75aqu51vMUnWEGVb3u9/9+l3qBB2XdlD3uOOO69N2wLvf/e4+ZnB/8IE/1ksw4GcxLAvnDUU9x3PGQLt6RvtgNXb5UveJjTyPVLtQuoRz6RHqQvK0pz3tkPfcvXjX3Kv6/Hu+53v6usN79MpXvrIPy1Hn94nkTwgcQQTad0k9Ok2EsLnLXe7SHyJ8XyvLtuHDNmoRfWsVadQ9raqtH9PZFqnHtklnw+aBD3xgj0poI/rJmGhLtCna9Dq+PW6e9ry9Jl2N6MuWzma2i3WJhrKq57hJnQ0XDjXEII32kle/BWrpPnR68cZbWfQ+2zQm/aZfuL7wba7DNqLPwl5Avyhnu7Hzv/u7v7vX2ehrYnY7V1+Dzvvc5z536rnD9ObVT5y/qC471O+wpzP51v8TxofuOa+wmehzsJWYZUtf0zfE9ru+67tG+zWuwV4jLNAsot+i/1JCBxMG0nO6xz3uUZsP+da/0s/SD/RsStQ9Zg6Tk046qdfjOF5iQaf6nd/5nR3Dd3uOMqO84kXPxEv/ga6YWWlFKt/zENiYwbg6L5U5nUuGpmlCKfLi6IgRnQ/pVGHnpatCIq3htt/wtT+Or2Ns0sFqRQWs0VWhDoURxcJ7DGPiKOsQlTCCuX4rw2sN96kQJk0ncy2VikqR4jU0sDAIt/fB8MXo0oYTcH0GLTGidewpl7e4xS3abPTGuytc4Qq9EZziNDYl9qAT8s9hQ4DxxDujTHjGNXo66QYYwcbk4he/eN8Y7RbTSYNFKC6tXPjCF+7Pp8gqp2LyMRSUMNBQgjSkFrR87WtfW7t2vjWSGneKEcVUh6g1yjI8+whjoyFnCBkTMZstzMS41YrtPowpd77znQ8KgVPHtXnwboqjXlLGTPdXHGoffiVDA6OG/p73vGc/wFPHeK+POqDEiKV11atetTvllFMmehrVOWPf6g4GevVAiXR9GLd5klNk2sWzHGdwgDGJojJJ1E91n8O61nNRZ1HyWlGn+lA01fU6F1V3M7pLs0Salb5tw3p6Vc9RXgwaluiwM8oqY8qRMq+8Uh5L6j4YNQ2yTOqg1fHD71nKUZ2jLGhnhh5kVd4Zeh/5yEf2il+dM+u3904HaJh2vQsGdK0YPTZgSenUTtYCr3XNy1zmMp2PssV4OO8iOIuUHddeRR0jnWWYOJ8hFtO2LKtr1G0+Bm+8G+9973sdviP0DuW9HayrbTsHHfjh2ZQMvY2d7z2p8EJ1XH3f9773PWRWlrLoox5isPVMZzXY8mxs31HX+amf+qm6XPeSl7xk53f9MLikXLWi7vfRSZN3ne+qF9rj8jsE9jsBYcJK6GxDfaH2+RbG5h3veEe7aef3sm1420Ytqm+tIg03tKq2fpLONm89tm06mzar6uG2T7hTGL72o9oTxtyhzNueu05ds9Ki05deP7bw6qqe46Z1NnaGuldOFg9+8IP7UJl138N+/zL3WWlO+mYQ5BjX9l/YHvTx6GIM6YyJY20424X2ndG4Fc+enYAuabD67LPPbndP/F3lqT1gmn6yjC7b6nf6gQz4bf+vZmC1eZnlt7JEOF3Qc9k/fNNH6LAcH8ZEOa8yMba/3cb5rxVpO/e///u/282H/NbPoEvrx7eij1LX1i+xRpFnUTIsj/p6w3WJSufy3JWnGuipNPIdArMQONh6OssZCx7Dc7fthKukZukkMH76rEsYcb2oRKXLG9CIovyKq0wJ0oAwroonWAoeT15GDp3vajSNILWeyEJulDDctsbir3zlK31ajA8UxUpDQ2DEiLIzzZirArUIhpFC+ZOPqlAZQOxX+VAy3Q8xwljHqHDc05hXduU534cXAe+ThvDoAx5dDI+/8Ru/0XuhTRuBXucdUnKUZe8J70XvD0Or8q5R4+HIWOAd4JE3JoyvlCKN6Ote97reg55x0yASAylDzamnntp7MA8basZc74F81Pk8ob178uB874oGmEfpJE9jihePT+8ao+oHP/jBHYMmA5n3y3srH4SB+i//8i/7361x1jV/8zd/s9/OUHL66af3cbTc4xWveMXeGKnOucMd7tA95jGP6Y+b9Y8RcMZ3xmL54yksDxQvaZqpQfFiuGUkX2WZUI8wFqtrGM/MvmAIM92WEubDGKvurBXeKbmMXQyU8qeuK09L91wGeb9X9RyNtsuLOp63lvreM8FbGeEhQxGVL2VCXa5zJn+3utWt+vaLMf/YAx7ki8i0ciQ9dbNBQHU5z2cclTcdPt7Q3mkGOkZ/XkNvGcyUmZYnbQSDrrSxfcUrXtHPCqDESpuXhTbocY97XM/D9VspY7EBKe80D1X1DcO/tk3nBRvMxhZxa9Nqfy9Sdtrzl6ljlmWi46V+UQd5Hga+eG8oQ8qM9Rgo6gac3eekOq7uhwEXVx0AHu+EYl86xaTp6nV++80zuUJ4yZP3zvvnnVQXKPcMufLOoD2LuA/ezAy97odoY8rbcWjsMhBXxmIhkuhM8kDfcn31ugE/7B772MfOkoUcEwL7igBDm4Egurw2UUg+XoOz9I3WAWIZfavys0waq2rrp7W189Rj+1Vnm7c9F+9Vm0LoEdo+s5LK6cusmlZW9Rz3WmejtzKKar8M+uLQ3uuq7rNlV78ZCuljdByzKM3Uox/YTt+ns9G/DAwPDYSMtaeddlrvmGLmAp3NrE7GY+domzmSnHzyyTsL2NZ1J33Po5+sSpdlM6IT6x/Qdzk5sauMOTVMyndtlyf6BtGXJOpZfTEey9MMxvTwKv/9iYM/nhFHDn3dZWeJDpI+6N/f/u3f7p17hNPQHzXT8xOf+MTOMeq98n43I829OU4Z5sBAJ62+rnYmEgLzENiYwXg4yjUpvuo8mV/2WB0zhpoSxtPWW1JjyLO4DMqMImUwrk6WiprxizCSnHDCCZXczrcpPBbyK9Hxs/BYjfwy8vj/rne9a3+ITpx0eOdMEhXUjW98453A7YzBFCHnEh4HvLh5xNWIFSM4gw7jFtEYR/YXAYZGRiEDArzMddj/9E//tDdknHnmmTtlbhN37Z1n3FX2NV4l8mHk3mhuKQS8OMZGYBk4GF011q0hivHZfTHs8b405a7eSddhDLLPu8eQTEGq981+hvXKg/fB9G7v09hIvVF+DbTGmrG5FcYOHwp0CaVy6FFoHw9VwqDbvtsMSWVMYkDlaUzZm9Woy/BeHtjqVQbQOpeSyHjMa4hRBg/1lftZldR9GRRQX5YwWJeCS5ExPbQMxlWPloclz94xZqt8jjyLPGdhTEpK6WLIV4fqDAw9zpVddfQtb3nL/t0y22M37/tKv/2eVo4cxxDMeEso8ozaJZR+oZUYELHUVikrs7aj3kFlgFHfvdaAhvS9C65loINiqWy25ZPRs9oKRnXvXYkBE3x4ZevImAbbTqer4yZ9L1J22rSWqWOWYVLlEhvGdWGfWoMpT0D1m8EJbbLB4rFpwe296AT58CAqMZg29l7U/rFv9ced7nSnfpeBgd/6rd/aOcxAPU9g+oVBEIOL6s9aAGbnwJEfdX+mcZYYLBsb2NYxUw8RDHRYS5RZnSodHR1yAw5miKyyTqpr5TsEtpkAg4UOvsFm7YpBX/VSDfhqn+YZKFr2XhfVt9rrLppG1anr1tnmqceqfdpPOtsi7Tl9stqh0n3obrWtff6rfI7boLPReRhLh7LK+xymTd/Ul9OP0//RnrftLGO9Msn7uZxZ9GdKDFirT+h7ZhpXHUJX4Rjjo03mUGKwXz2zm8yjn6xKl6U7ySt9pQamd8vnpP2cjPRH9fEMAJQwHjMYK2s+Yx7Xrj3p+p6V+pux2MxwfYx1CacOumY5AbbX8V5XO6LfhZnnT/QfXvOa1/Tti/LCOUffcNb+Q3ud/D5yCZxzU7feehe75tgUlk3lpa6jA+8lLxnGYFSx8Cbjxu/DKLOI8KQpz17n88RqjVeURkYMHjglOnLTphtpTNpOXhmG6nzfDERlLPa/zmc7/d902vb+HRM5vAl43gxe1RDwkDT1iNLDeGBARAfFCPUmxPT61lhc16QE6RwRxlbGukliBL01FtdxvIXLw4ExrA1jYBRd+SbuvX3f6nwKUOWBp3E7eFTH+OaROWYsbo+Z5TdDPpkUc5mxlfefke4y+M6SrmlW6gqKPEVt7Fxehgx5FMMaAJsl7d2OUb4onWTsvtRtYq+7L6E45pVVPkdlqDUWV14oj/JJ1MFlvK/9vstIqh6v59jun+X3tHKEY02XYxhujcWVNuVPDDMDIDoDFL9ZxLFi7BLT0VpjcZ2vvihFV1tHCS6hRNf/Y8+Yl4PBAM94HmPxqsrOInXMskwMyNZ0THXDxz72scK1862Dx5PLO6eO21Rba6CQeKa8XsbEwIM6gceOd2zVYvCN0EsM3I2JPJTBocrn2HHZFgL7mYA2p/XUNwhmhiH93YCcNRy0oUcd8AjchCyibw3ztUgaq2zrp7W1w7xO+7/a+rF2z3mHo862rva8OK7yOe61zqaPMWYsdq+rvM9iV98GXWqQXn+tNRbXMTxEeZAS/Z9WLnnJS/b/0hWHoazsMGuJjYHONouxuE17t9+r1mXpMJOMtbvlpd1f+jVjahnQ7WdMrZCGdUx73m6/eeziyHGIM0YZaXc7b5H9+rtjxmJpyTuDuLpPP2EsH3RV/V79GDPFIiEwD4GNGYyHnaV2Wsc8GV7lsTpUNVoqXZ44vIjLA9c2HoUMx/WxbV4xranEy2x0cCgMFkaASnRohZSYJGNGuDIS1jk8OYfSGuqNkLbeTMNj8//hSYDRmEcb7y3eZK3CwHDBuMODlfGoLevruNsxw1ddR8NdXsWTDMYUxjIq1Hntd2vIMwBUUnHPvb/TYvMynlUdMFS6Ki3v2tCzuPbN810NPeXCM2gN3POkMzy28m1kfFLHxjmmz1NuKA2rEvV4GcsMrvF+XaWs8jnypB0Tymi1R5PierdcTR9eRKaVIzHK1PmEIW+SMM5WOSo2k46t7byWq55/5zvfWZsP+a6Og9krvNZLyhvc/xTi1sO0jlnke1VlZ5E6Zlkm9c6pF95yYKrkJNGh887xEBobyJl03qLbeeTobBL1Hr1lTNR5wnHJW+uZNHbsvNuUn4ptzBg21nGRJp2n6mYd3ArLNe/1cnwIHO4EvCcGihmO1Welk7gvBj4ecGbw8Ayrwbt13POi+labl0XTqPYsOtvXaa5DZ1tXe165XuVz3GudbVLMcPe6yvssdvWtj0DUA6WX1b72u/TVoRNIOT2Y9cVRY5rzWZveKn6vUpdl8C59d5m8VRhDaVQ4ija9MrybfckuMqtUKEF6FiPt2GLgs6Y1y3H6zJOkygzPc3amMZHP4jmpzz12XraFAAIbC0lRU48LuzhXNT25tm3628tDCTM1k+iw1HRc3rgMrvI4reM1S55NsSqpkaz6v/0uw0tta8+rbfU9VjG1MZMdJx7aUFpFdLgv/+8vApQJHyO0vG1NPWLoMIBhAMf/T33qU/spkMP3cxUkvF+toW2YJoOBAQxxwsuTY3jMcBBkuN/Kr9LRiWJ0qOlEYosR159mqNE58d65vik9Y7IqNqZmG9XnQcRrQAgaxkFKMcP1cIbDWF7GttW91r2PHbPObWLMG2wzGCGsgbpTB9j0LArOJOVlljzVva3iOU7zUqhO+KT6sa1b69hZ8t8eM60c1X06frfVn+03Q6A9p73O8Hd7nLh3ZhyMSTuAQZmsmN4MAMourzeDmGYqGMTRmfKMfSYZBceu025btuwsWscsy6TOVy5r0Ku9r736TWeoDs9e1QfqgXpH2gHqMSZtWVf/8tKJhMCRSEBdpr/hY/CQEcjAC0MAXc17LS4544+p6IvWudPYLqpvtWkumkZbp0Zna4mu9vc623M5XeVz3Gudbcyzt57GKu+z0qzvGpRXD7SLbdf++jbTiWj3zeIuuwCnNDqa+oPeRu/jLV06Oa/adUlxkX7bvo9dbzdd1v3o3y0rdF5etXS1sQF+64UY1MeQEVjIw91EuBD9HvWyUBBjDnq7pTHv/ml9CPkhPN85dkwSfVASg3GPIX/mILBnBuOaLj5HXtdyqOmSlBOVajsKJ96vj2m/Rrl0bE0VXkSM8pWMTY2vfW34CNva8+qYfIfAvAQ0uBpmH3EiGSxNGRQE38CN+NnrWHSIwWm3To2wKgzGk+oDxsdpwkuRkYHC1HoY17tTRq9pabgGg/G6va0ZpiklYlCJMeZ6Yr76eEaUOQNYbXytafm2j2HG6DnZjVV/0Br+yK/nwKOdh3HVnepUBlgKmniuNbI9Txa28TnOk/9Zj62yh2O7UOLY+fWcDfr4TOtcO78NB2Whx1mkfZccL96d9kmscTFvPefyJtepE+pIuI95DX7Llp1F65hlmcxTLmfhvapjqhxJrw1Ztar0Z0lnnjxUWZZue94s18kxIbBfCWg3GXx81KuMx+La05PEB2fgqNlVq2TQvo9j6U7St9pjF01jnjrVNaKztdTn+72u9lwutvE5zkdntqPXeZ/6aCV0rlmEzlYGY4ZRi2iKX8xrVh/BwFN5oXJcE9LiBS94wcRZSLNcc+yYasfXocuOXW+WbRVqwrpVu/V1zfTYzWDMkC9EqdmGZob/4R/+4SzZWNsxbT/QRWYpM/R4xu5VzJ5d240l4a0isDGDsQZex7ZCUzBUzSJGq9oRKwrUPCNO5eky7Vq8LC3aYwVJ8RtN6azRGueZ5mmqGA8sq4TPKzrU1QC09zJMZ+jh2MbZGR6b/0NgUQJGKRmMlWVKRhl+Fk1v0nk8zXaTOmaSd+00L3tpGzUug6nYTCXl1TrLNOe6xphHfqW3qm/1oNFfeWY0xp63KI8C3gI+6qN28bhp11YXuld1VHklTDt+XfvMwvARz9hUvbov+dLBpaiKr8zLYR7Z1uc4zz3McqzFSIj4b6b0132PnVvllUfaJI/o9jyKe8luMdZKgRzr9Iul6aN9VGZ5G/voIAiB4xkbDBkOfNa1J30vU3aq/piUtu11TFvHLMukwvwM2+xp+djEPoPbJXSNmppa2zbx3Zbd3erfKsvytYn6dxP3n2uEwKoJGGzlaWhAmc6jfV2Hwbh9H8fuYZK+1R67aBpVb+xWZ7hWXWMTdcZ+1dnW1Z5v63Nsy+gqfq/zPttyzfYwSUpfs3/ozUvHMTAgrIlZpTxPfXiW6vcxKOtvWCx8Fj1yUh6G29epyw6vNcv/Yr9zSioRMmOaXPWqV91VB9d/rhmtD3/4w6clt5F9+oGeN6dHOp9wk5OkLTPz2NImpZftRw6BjRmMGYt1DL2MhMGYcda2acLVvwK464he73rX2zm8LewME2NSisXYvnab/PGSqkXhGIzFM9YRNipFLOSyiMGY11UZyIeeW20ehotazOut1aaV30ceAcYLDYbR5Wme7MgwNgmDoDzW4k1DYkZRJ0kZaSftt53hi9GiNdQMjy/P4klTpCblrdJhoKx8it1UUlN33F/bQNb+9rvezU2+bwaDjPD7GNRiZLU6uvu1aKHtrQG8ze/wN49U9Z9Yh4tI1aM1mDeWRnkNjO1rt/H4FL7AR3pG9t2XkXjGSnXqPLLtz3Gee5l2bDv1UXk0MDpJ6p0wtbSe3aRjbW/T1vndbcrwtLTsM/Wupt9pX7WLvMstHHmHO9yhn6a3Wxpj+xcpO4vWMcsyqbqCNz0jivp0G6T1TldOzjjjjI1nq95ZF5aHaYatts4qphvPcC4YAntEQP1xrnOdq1/UqbwDJ2VF+JuPHZil5J0ZhvCqdmDZNrzalkl5mKRvtccvmkbVG9HZWpqH/q5nbU/pvoceNfuMjVW359v+HMdYLbJtnfdZbaGB6WVDd9JNhKiotZPUHccff3wnNIF+x9WudrUdu8ciHIbntLrVqnXZ4bVm+b+8ix37kIc8ZKKuxqnvHve4R6/PXf3qV+9n446lz3vXrFCD84z5u83wq/eVw6G+Xv0/THvRtVEqHeVR/19/e9kyU2nmOwRaArNH927PWvD3G9/4xp0zvTinnHLKjvfPzo7mB4/fMhbbPAz43U43Z3ga8yaeNprkBdbZ82njN7oWg9uTn/zk7sUvfrF/e9EhnmSYdgAj2jAd29t8qxR4Z43JNa5xjZ3NRvxMUY+EwKwETDcXNsVnFoNuGWsZnlr5xCc+0f9bnnntvvo9beCjjvFdCzC12+q3zkcZIltjb+33beBm2qBPpa8Rbo3OtVgFhbqtQ9q0/T7qwOhzvdNWDl6FTFPix9KXd7GM28Xo6r7Gjh9uq3vVkWRAmyTqQvHahdlpZZXPu02XIvXSl760e+5zn9tvVn/WTIv2OL/H6k3b69724jm6/qZEHOtSJGt17LFra6sq9tis5bWdlXOpS11qLNmFtzFQaifLc3xVsxXmKTvT3pVJdcyyTKpN9zzEF50kpv155255y1vuzK6adOwqtpvNVAMCvImmiU6PfFkAcFEZe291XMpDfRob16zyaHCs6qFF85LzQuBwI8BrmL7GMWY30QbWzMcyVtU59e4sq7Mtqm9VPnwvmsZetvVj9Vh7T8Pfe6mzcZyqaeTTnnfp98O8T/t/nvZc2zcme/kcx/Kzrm3rvM9a1J69oN75Vd2HftIDH/jAncXQzRJbpaxTl503n2xCQkwQ4Rhf9apX9YveWfhu+OEMWM+0NTK316TPWETQ+4/hbo5Zzq1j1DGT+j/eJbrqMlJlhjf1mC1smbRzbgggsFGD8Zve9KauCrWLMxY94hGPOGhFdtsVdqsCCyheIhZqGR5qW2sgUqkK7N6Kzqt0Jgnv4ZoOa0SmnbZQ57RxjXlu1jSU2t+GjXCsqR9DYShvY7ka5RpWHDe60Y36Eb86V75q2mtty3cITCPw6le/urM4F4/4Wshx0vGMi2VQGA5MfOADH+hP04AxqI7JbW9727HNh2wThmBs2rYG8qEPfWh/vMGRSfFt1QWm/Iwp9N75u9/97n0ajCTtNHMG2HpXH/SgB+3MEmgzqAPmXSSTFkNoj5/2u51CNmbwM83SgnA+7cBQm6Y8lPAmmlXMitCBYCw++eSTR5UFhqvHPOYx3QknnHBI6IqqR834GOsEnPe85+3UT2PCQ8E9ifE+qazUdDf12bBOq+lrPNHHBgY2/RzH7nET23TUygAszvWkzt6JJ5648z6NrfY8llfGuHrHhYyY1AFRH9Q01VZ5PfbYY/tnLGbbJA+28rJoB3HH8tJuW7bsVFqL1DHLMtE+14I8FqAaG6BTv1hw1DsnXnwxqnyv61s7QEw3ZRAeE4OL8s2jpowPY8eNbat31r6xus72KpsWWWWYHhOeTcLVEMfXgMnYsdkWAvuRwCtf+cr+thgiLLY0Ta5//evvrLNS9Xkdv0wbXmn4XlTfWkUam27rd6vHtlVno+dWO6tdGRMDcer/MVm2PS9dd9Jg4Kaf49g9bmLbOu+TN3Bx1k6P6eXu0fozdLanPOUp/UzKum/OJ/RyC2uPiX5itfs1uDt23CLb1qnLzpsfg+E1qFI6ybQ0xIYnbEcXutCFDjpUzGr6HL0O293iHNfJ1Z/2vzCEY3LTm9506myBsXOG22p2vL6UWZ1jon5/2MMe1pcZul8kBOYhsFGDsQ4BI3AZcmRUo8OL9xnPeEZvvHna057WT6NkCKpKUsVmcbphxXbWWWcddK+mPD/72c/uryGGCyNGGSsOOvBr/1DWqhOnEhAMXYdc2AwdKgYtqxKXOH7YqRE8vhVpWODpcY973E4FbkS4jSnDWGyk64lPfGIf1/MlL3lJd9JJJ+0kQ5HZLTD7zsH5EQJfI2AaU007ohSKXWWxlHqPHEYJthjZ6aef3k+FVP4tqtKKBk4517gwqLaGQMZf74XVd3cT5dh0S3G0KLbiszL8GtGWRnmXPfrRj95ZrGGYpulNGm/58O18BkzTqXjl8A6mQFOqWrGNIcn7b4okYxfPfix8GMcYovGhPIlJ1Q7+tGnN8ptyVwYksVwZhRnXytDt2WDqHuSVsax9Lgy697///ftL8RaaZEAfy4t6UP1IcL7f/e7Xs/X8GJFtMzCHPx7iILZS9ahna9S8pkY5Hx/K6CRDIW8CU9x0TjwPAxHOK2GErsGFt7zlLYdMB2sN40Jx8FwXQqTS2PRzrHzvxbeBDdPJPCfvhDLEEIkFrpRA4R+I95fRclaRtndJ26Ne8P7Uc/Y+GWx1TdfxHlSHVPrve9/7+nKrXTQg0Q4AyZvBKeWZtLOI+g1T/ixbdiS9TB2zDBP1Ju9A3wzwyj4G9AjvtfdBnVXTs4eD3VOwLL2Lp8yb3/zmPh0dRoPm1fnx7BieSt9Q19dAxawXbt9ZHR336p31KVE+3/72t/f/qluV2xqo0KGhV+FPOBHQ1SIhcKQR4KhSoSj0GdQp3tVq/3wbvNOmizVKeKxZaKmVZdrwNp1F9a1VpLHptn63euxw0NlMnTcoWLqkb+00nbsMju2z8XvZ9ry40VlvcYtb9Ivqlp4r/U0/R9fcC1nnfXp22mjhJLSv+i++6znrxzH40QnpbNrwMgBjwS6hr0H39qlZlPZxbNPX4LCnTzLPItvOn0XWqcvOcv06pjyFvcuts2LtH34L4VXhxSwWWKJ860NxaqHXsFfNKmaDVHhBixDqE1X97lnoq+v7tANYs6bdHuf+2M+IZy5Gtb6Za/nQRbUxBun9TtiKll5+z0Lg3LMctMpjdERvf/vb9wZRU5QJoxID1JgRikeayq2mvLZ5EYNVrEwGsBJewuUpzGOPAeS0006r3Qd96xirBChiOulWTtcA+gylDLzD7UatvJzVGbLfFHgf91WVuEX1LEpV08FV/LyRhx7JjOkPeMADdqYxDK+X/0NgGgHl3ftiwIPHio8yyBDFMFQhIKShcyAG09lnn31Qkt5R3qg6LwyGVoAtz1BGJkoGrzmGp2lipFk6Bj8YVBgrfdqwCdI2VWiSGMVliBUjlQHN+8F4WYqT8xhmhvdg+zvf+c4+7I1BqmKhTpB/73uJOoC3wLLyspe9rM8no1wthGAwzKg0MUDEKGe/hhsLoTj8r27QqFMu3M+8wsuAMUjdJU6wj2dGIVEPEeyUjzJs1zUMhOHD44+S5EPB8px4qzvePZRHeJ3nm2LrXpQj8Rjlw3XFWtShqPL2/ve/f0eZac+nrPJ6pdCKT18x6j3ryuemn2Obv03+9r5Q8gwuYqcMeXfFSms9WBkLhIGYRyis3lmeEZ6TcihtbWCt9i09nvoMfK3ojGj/tF06qD6MFp7PUQdmIKhXiHJkFtGssmzZcZ1l6phlmLi22I/aau+Gzpn3oGYJ1LoH6hpK/CrqF9ecRVzTe66MCNdh8N3H86r3UTre0RqkmiXdOkZnVEgP+pr0y9ir3NTzN6NKh9cCnvSxMnYN86C8qTuqk1bXyHcIHAkElHu6jTpEqCF9GR/bOZowULS6Cs/isUWqlmnDW87L6FuVzjJpbLKtn6Ue21adjU5tdgc9geHQwKCBB31Yxi3GIwOy+tpDWbY9p6/TFQkHK5+PfOQjncHDkk0+x7rmXnyv8z7ZN+iAHEzM1PHRZzBI3RqAeZYOF8nmFMIwySlH2WCotCieQV1lRv9JWhxNpq0xsyjTdeqys+ZJvVlrZvEcphftJnRt9dfRBxwqzIxiGHaedBjsCa9lx0wSz6euW8cY8GOHon9h7hjXYvgnnp/0lw0PQr83IK8fxfvcx3U4MpTTj/vhgT6cpVJ5zXcITCLwdZeQSUesYbuGmpFVx3gYP7Uux+tPhck7ZsxYXMcxSDEaM361whDDEPHxj3+83XzIb4tLGaEdCwFBaeOBY7SMEac6g20iRoVch7FIHir0hMq4raBsl4aOXHkDtOlIW1684NMqo/ac/A6BIQHlSBmjaPBUVQYpCQY0yligATG66N2a5MnqndKwUTKkwVDs430Sw2naO9nmyXtlir0yr9EqY7E8aIy9v7sJD1fxzr1fzi9jsby41zJSjKXzhje8oV9szcqxhCGnOmAVy2uawXoszUnbNNaMQ+WZ4ri2DuDZQamm4Kn38DDDwrNxjsEnYXJmGQkfywODlY+OJvG8GIsZaTyHYw+MZI8ZruQRRxxqJJwig5VYrXe84x17w9zYNW1T90lbR0R96LoMSb7NCjFYJo1Ku01HJ4eRlOKtzpwkm3yOk/Kwie2MeLwNvJ/aQO9uGYuVEeXLAEhbrmbNF+McjxRlgLFY2mUsNlChc8x4obwMRdvFACgN7aIyyxDoXVSHKD8GFKY9w2Ga/l+m7FR6y9QxyzBx/bcc8Jpn8DQgQrwzPuph77tBt+p09Ads6I8OiXpaPV4zuqr+Z+x/xSte0etgu+lHY9lV9nSA6CuVtuOGZZIHlkEKg2bl7VZ5wEd9w5CtLYiEwJFKwPvIsCeWcXkbq1cZdkpXYYAxGKv+Hqufl23DW/bL6FuVzjJpbKqtn6Ue21adTRlgCNT2qT8ZiU2953Rg3QiDCvSHSbJMe073194zEld/d1j3u+6mnuOke9zU9nXepzZWW1trvOgzlLGYk4x9DMpD/srHcccd1+uL+oHKBU9ki9Bpe+nbFigezjZcJbN16rKz5NOgRtWfntGsUsfSccuJkU5X4l1TP0/6lGG2jvfNucCMV9/0Z8foY3l39dnKM7g9Z9HfjMEG6rUZRHlxPfWB+kJbQ++OhMC8BM5xYGG5rzLg7pV46XQ8ecf5MDjoGPNgGVOMpuXTyIqX3JSZoQF52nntPt5+PLAYdBg7dKznERUzjyv3MazE23RcR355AHqxKY06eZH9RcAUe7JX75iyaFqKmKg6I4ykyto8osHxTjBEDhdbGUuHAdDAh/enjX1b6fBqNKqt4Zwkpx+Y0mx0XMNW3rqOpRSrJ7zfPtPesWHajBXeOYYyDOatX4bpTfufYufddo1JeZQf00/VV6vMizqIZ1JxGjPUTsu789RPjEmtQWjaObXPtXlLuzeDDfPWaYyjjI6MTZNkk89xUh42sZ2yi6VBEs9w3vI+LY/qBWlThHUo5il/2uyKcayMVKdx2vVm2TdP2VlFHTPM0zJMpKXsYqpDpu6b9N4Pr7vu/z0v77TBAfmq2SKruq56TidKvT5JKg/qFe3QbvX/pHSyPQTWTWCvdTbvCJ3NDEyzvRiL5qmf8Zm3DV+FvrWKNIbPdpNt/Sz12DbqbNrNow7M9PFNl5x30HaZ9rwGtOmJ0/T5TT7HYRna5P/rvE9p0y/oW+oFesasQs/TB2TXKIeSWc9dxXHr1GVXkb9NpuF9ExKi+sHz2phmzav6QH/Zx7U892nv6Kzp5rgjl8DGQ1IMUSvAjMOrEJ2QZadXMIjNYhSblF+dxPKmmXSM7cteZ1ra2RcCRcDAhalpPouKUdDyoFs0DeetIp0yFC+SD52ueTtei1zHOZT23RT3deVHHbQMJ8bJeY3Mxcm1GePnHZSo86cZneqYdXGr9Lflm9GcF886RL3AoL+IaLPXka9ly457WaaOWYaJayu7s5Rfx25SPC+GBJ91yCz6zrrzsI77SpohsBcE9A0q/vei11+mDW+vuYweUeksk8Ym2/pZ6rF15WcZnc25yzikLNOeM3ZNmiVcz9/3uri119iG3+u8z2XSZlyuWZZ7wWmduuxe3M8y1/S+TZrZu0y6w3PVC6tqB4Zp5/8jk8CehKQ4MlHnrkMgBEIgBEIgBEIgBEIgBEIgBEIgBEIgBEIgBEJguwnEYLzdzye5C4EQCIEQCIEQCIEQCIEQCIEQCIEQCIEQCIEQCIGNEYjBeGOoc6EQODIImH5k+tQysTJNLZeGaeKREAiBEGgJrKKOadPL7xAIgRA4UgmsQt9aRRpHKv/cdwiEQAiEQAhsM4E9X/Rum+EkbyGwLIG9XkBl2fzn/BAIgRAIgRAIgRA4EghEZzsSnnLuMQRCIARCIARCYFYC8TCelVSOC4EQCIEQCIEQCIEQCIEQCIEQCIEQCIEQCIEQCIF9TiAG433+gHN7IRACIRACIRACIRACIRACIRACIRACIRACIRACITArgRiMZyWV40IgBEIgBEIgBEIgBEIgBEIgBEIgBEIgBEIgBEJgnxOIwXifP+DcXgiEQAiEQAiEQAiEQAiEQAiEQAiEQAiEQAiEQAjMSiAG41lJ5bgQCIEQCIEQCIEQCIEQCIEQCIEQCIEQCIEQCIEQ2OcEz8AxRQAAQABJREFUYjDe5w84txcCIRACIRACIRACIRACIRACIRACIRACIRACIRACsxKIwXhWUjkuBEIgBEIgBEIgBEIgBEIgBEIgBEIgBEIgBEIgBPY5gRiM9/kDzu2FQAiEQAiEQAiEQAiEQAiEQAiEQAiEQAiEQAiEwKwEYjCelVSOC4EQCIEQCIEQCIEQCIEQCIEQCIEQCIEQCIEQCIF9TiAG433+gHN7IRACIRACIRACIRACIRACIRACIRACIRACIRACITArgRiMZyWV40IgBEIgBEIgBEIgBEIgBEIgBEIgBEIgBEIgBEJgnxOIwXifP+DcXgiEQAiEQAiEQAiEQAiEQAiEQAiEQAiEQAiEQAjMSiAG41lJ5bgQCIEQCIEQCIEQCIEQCIEQCIEQCIEQCIEQCIEQ2OcEYjDe5w84txcCIRACIRACIRACIRACIRACIRACIRACIRACIRACsxKIwXhWUjkuBEIgBEIgBEIgBEIgBEIgBEIgBEIgBEIgBEIgBPY5gRiM9/kDzu2FQAiEQAiEQAiEQAiEQAiEQAiEQAiEQAiEQAiEwKwEYjCelVSOC4EQCIEQCIEQCIEQCIEQCIEQCIEQCIEQCIEQCIF9TiAG433+gHN7IRACIRACIRACIRACIRACIRACIRACIRACIRACITArgRiMZyWV40IgBEIgBEIgBEIgBEIgBEIgBEIgBEIgBEIgBEJgnxOIwXifP+DcXgiEQAiEQAiEQAiEQAiEQAiEQAiEQAiEQAiEQAjMSiAG41lJ5bgQCIEQCIEQCIEQCIEQCIEQCIEQCIEQCIEQCIEQ2OcEzr3P72/i7Z100kndRS5ykX7/u971ru6Zz3zmxGOzIwT2G4Hb3OY23QUveMHuPe95T/e6171u5/bOf/7zdyeeeGL3pS99qXvMYx7TfeYzn9nZlx8hUAQufelLd9e+9rW7L3/5y92jHvWo2ryvvs997nN39773vft7esUrXtH9zd/8zb64v/Od73zdne985/5env3sZ3ef/OQn98V95SZCIARCIARCIARCIARCIARCIARWR2CjBuNf/dVf7a561atOzP3//M//dB/84Af7jvnf/u3fdv/2b/828dhld/zYj/1Y50P+4z/+Y9nkcn4IHFYEvIc//uM/3p3jHOc4yGB8k5vcpLv61a/e38tHPvKR7lnPetZhdV/J7GYIXPSiF+1ueMMb9gML+9VgfM5znrO/R0QNKu4Xg/G3fdu37dzXa17zmhiMN/PK5CohEAIhEAIhEAIhEAIhEAIhcFgR2KjB+Kijjuouf/nLTwV05StfeWf/i1/84t577atf/erOtvwIgRBYH4EPf/jDO4kzGB+O8iM/8iPdta51rT7rT3/607svfOELh+NtHLF5PvbYY7vv/M7v7N7//vd3b3rTmw5bDgZeDMoYkDz99NMP2/tIxkMgBEIgBEIgBEIgBA4vAtFDD6/nldyGwLYS2KjBeF4IN7rRjXrDwYMe9KDu//7v/+Y9PceHQAjMSeC1r31t94//+I/9+/aBD3xgzrO343ADU7e85S37zDz/+c+PwXg7HsvMubj+9a/fXehCF+pe/vKXH9YGY4Ojv/Irv9K/TzEYz/z4c2AIhEAIhEAIhEAIhMCSBKKHLgkwp4dACPQE9tRgfOMb37gr72FT43mV8ci67W1v2/+WQ6Njn/rUp7onPOEJeWQhEAIbIPC+971vA1fJJUIgBEIgBEIgBEIgBEIgBEIgBEIgBEIgBLaRwJ4ajP/+7/9+x2BccP76r/+6e8tb3tLxDPzmb/7mfvP1rne97klPelL3la98pQ476Jux+Xu+53u67/3e7+3++7//u/vnf/7nlXsVfsu3fEt3gQtcoLMQ0j/90z/NHff427/923uvuU984hPdf/7nfx6U//wTAiEQAiEQAiEQAiEQAiEQAiEQAiEQAiEQAiEQAttAYE8NxpMAmBL/xje+sWMoJt/xHd/RG4MZglvhkWzqueO+67u+q93Vvfe97+1e9KIX9ekctGPOf37+53++93i+9KUvfdCZYr2+8IUv7KdNH7Sj+YcB+x73uEf3kz/5k933f//37+z5l3/5lz4+52Mf+9jee3pnR36EwIoI/MRP/ET/bljY8XznO1/3D//wD91f/dVf9YvYTRuwuNjFLtbd+9737nNx8skn94MvlSXT6695zWv2ZfYhD3lI97M/+7N9rGDf5z//+btb3/rWXRsD2UDO0Ucf3Vns0iJp3mPv8Jlnntm94AUv6P7u7/6ukh79NmB03etet7/GBS94we4bvuEbdhbFPOOMM7qzzjrroPOOP/747qd/+qf7+60dD3/4w3fC2TztaU/r3vOe99Su/tvCZvIoDII8Gnj693//9+5jH/tY98pXvrJ785vfvHN+eyKud7vb3fpNJ510Un9v7hML6fzO7/xO97KXvax75CMf2Vlk7K1vfWs/CNam0f523h3ucId+0wMf+MDuX//1X9vdM/+eJV8vfelLD0rPOTe/+c372R2e42c+85n+OYoh/2d/9meHDOoddPKUfy5zmct017nOdbqLX/zi3VEHwoS4p1rU9A/+4A8O4voDP/ADnfsm6k2i7n3KU57S//7kJz/ZPfShD+1/t3++7/u+r8+7aXfS+N///d++rL/61a/u/uiP/qizkOokUT7NYBH6SP6Ur49+9KN9m/GSl7xk0mm7bn/0ox/dfeu3fmufpoPdT92H/71fn//85/3ckXlY7Zz0tR+e3y//8i93P/qjP9p5f7UvH/rQh7o///M/7171qlcND5/p/xvc4AbdL/7iL/bP3ntjILeVq13tat3P/dzP9dfE3eCva7re8B1rz8vvEAiBEAiB/09g0+31Mm0FnZKO45ue8F//9V/9gqn6aur9z372s4c81rZdf8QjHtG3E4ccdGADPUEbRkcoPcBx2uSaXfqMZzyjsxg6XYW+ZDbqn/zJn3QPeMADDkqSTqBN1z5x8pFPC9Y6l04w7Ee2Jy+rs7Zp1e/hPdB/LS5NZ8GSA9Lb3va2znobpa9c+MIX7u54xzv2C7Pr29KbnHf6gbUQvvjFL1bSh3zTl69whSv0Opd71y479y//8i8nhve6z33u0+uspaPSu65ylavs6NJ0YbrEs5/97IN0tuHFl9FhlBN9+ctd7nJ9X9mC954ZJnSy6ntgdcoppwwv3f+/iC44fP/0OZRx+bjIRS7SX1s/QHi0EvtudatbdZe4xCU6/QczMvH9wz/8wzpk9HuR/NV9m2Wtz+Wa3hOs5Y9erB/01Kc+tcOslUX00Pb8/A6BEAiBlsBWGoxlkCduK2Vsqm0//MM/3J166qm9QlDb2u+f+qmf6nwoDQ972MOmNnTtee1vxgTnahSGwghy//vfvzcwUWSGolH5rd/6rYOMV3UMA8JVr3rVXunR+FF6IiGwKgKUPcoC5beEouFjcIUiOkkYNynj5Ju+6ZsOOowSax8l9FKXulSvyFOGS851rnPVz/77fve7X6/otRt/8Ad/sPO59rWv3d3znvfsFdF2f/2muDFUWcCuFdf30WlglG0Ne+6v8l7nqANK2mNrm3e4BqZqG8XOh0L/hje8oe+QVOicOoYRvq5FoX/84x/fGyxr/3nOc57e2KYT5V0Xk5eRfJhOHS8P0jv77LMXNhZLa5Z81TV9ew4U0Vbq/q90pSt1v/d7v3eQsbM9btJvZYIx/WY3u9lBZdAsDUouQ6R6meG0FiS0r3hWuoz3PmRsAUaGefljnC0573nP24cz0hG7xjWu0edjUvx7g3m3uMUt6tT+2+Cej47Xr//6rx+0b9Z/fuZnfqYfJKjjvUftvZmlUrIIqzrXt86N9+gbv/EbdzZjyQCu/VL2tDHTBol2Tvzajxve8Ibdb/7mb/b/ecdaY7H86mDqyLTCWO2jM6NjyUA+qay35+V3CIRACBypBDbZXi/TVqjXORC0QseRf7qg9uC44447pJ2hx1Xbp12aJAyGjmMAa0Xfq843AP/gBz+4O+aYY3YOkYdWDJjqj9FjS+gHdGIfhlrtF4eiMVlGZx1Lz7b2HgzWa1tbnfOHfuiHOh/6lgV/r3jFK3YcHdo2nU7hw1BItzKTthV6kudDZ22l2mXPx28zdYftMqOpZ8iphM7g2m3fgS5V+hSnhuFg97I6DF3lWc961kF6HAcRn9Jf6M/Kwcc//vH29nZ+L6oLtu+fWcCPetSj+n5SJVz3jg9bwN3vfvfeMab2+66yJY+cwMZk0fy1fS79JnoVW0hJ9esM4CsXrRPNPHpopZfvEAiBEJhE4Os910lH7NF2o6OtfPrTn975lzKgYjbKXWIl+re//e29oUeHvzrlFB0jb0984hPr0Jm+eSoypJSx2Mi39D/3uc91l73sZXcalTvd6U59+pSZEudodKtidy5jkVFCo+IUHh7H7oMCdK1rXav3jKvz8x0CixKgMDMQUfiMxlvEjncA5ZORjoHQQEurEM57LQZSBmnvpPAx73//+7svf/nLB3lu3OY2t9kxKr3mNa/pPVUppDz15YGS6h3RyeCZ2AoFlOLGWMxj1D3wwOAZQpk++uij+30Ub8fy9CdPfvKTu+c973m90szbmPzGb/zGTvgYnhKt3PnOd95R3P/4j/+4f78pXBRrXhoMjoyb3t9JiqD0fvu3f7t/13kh8DbgoVwDXjxaeC973737Y/Gh3cMv/MIv9FnjGbsqmZYv1/Asyjvn3e9+d28clz+dF0qweur2t79935FwH7MKYyuDPuF99Kd/+qedBRR13JRBZUMdqpx6PkRHQFkgyoW6nccL4yPhJdQKRf9xj3tcn6YZKTyceNDbbrCO0ZPCfN/73vcQg7h0tAtlLObJIp/OZ9DWceNJLx+LCMVd+yMWv+fqPdERLWk7XIuwqnSU0TLsGtg4/YD3EY4GM70nBoZcXyfvMY95TJ029ZtnsTR1KpWf1rPGid4rnc8vfelLfcf89a9/fd/+aXN/6Zd+qf/c7na36zsuGQidijo7QyAEQmCHwDrb62XaCu1h6Ql0PbrSO9/5zr6Nli59jtFPG3OXu9xlx0t258ZW9EO7QjdxfQZfbV2rF9AZeCPrV9HZ6I1mSHFk0A7SZwyG0xO1Y9r9VpbRWdt0pv3mRcvwx3CrP0mXpovoAzL+mUVFf+GUYYYsfYzhVLvsHuhs8j7sz5544om93ksPpwOb5SMNzknOlb770xcW7nFMGEd5etOF6PWcF+itBv7pbfoWrj3UhZfRYcwSLj1O31pf4S/+4i96HZqOSAdX9iYZ+N3HsrpgseDgpe/OMMybm5EXM30VOo9y5F7pNfR0fDmu0ZEdS5+kQ+qrtLKK/OGkbCvzdF35U871hejafpvpSOesAYF59NA2v/kdAiEQAmMEttJgrFE30lli1JlBuISRtjUW//7v/35fmVZFqRFmaKgwEKaPMHiY2jKLOJ9nFUMO0WgzLjFelTB03PSmN+3/1cGmSGlgiVHgMhbLkw57jZxrjCkCGnUGFBU9ReZ1r3tdf27+hMCiBBipKO08ORilKO+MtCWUGeWMB0brvVD7Z/1WZqV7wgknHPRe1vmmtN31rnft/+UlbFpZCcOhKV7yQEGmfDLutV6gPCZ1RAgljuJfQsnnjeB8Ci4FXHgD8c3LINwONpmG2A42VToMwRUCgsHZ+15SU+sZfXVSKILqjqHxrI7n3fFrv/Zr/ZTH2lbfFF3pUPp5AYwZjBn31AWU/VXWA9PypY41cKAcKBeeJSMgESqE4v6gBz2oV5AZOz23oWG/7rH9NhBhMVMdOQZfyn7Vy45TT+oY6ODoECizrmsqZnUKqp7Vualtw2so57yShF/QHrTP2HVNwzQYR8HHvB3Q07ktA67ywVBd5c+9q6OVM55Ii0h5edQUQfcz6T4WYVV5Up6Ie+UpXyLv1RnWgdCWnnbaabt25A1sMLB7lxjz2/eu0q5reuee+cxn1uZ+SqZypHOkUyutGIx38ORHCIRACEwlsM72uurtedsKHo4M2dppbYpByGor6QQGgxnItMcGDbX3bUiJqTc8505GOQZV+uNQGPrM8qLXCNlAHyt90LHveMc7Ov1Euh79lZGtzeeyOuswP5P+Z2A0c6kN28RAKv90Un1Buqb816wgs6scQ5fmdIBzK/QgRn06F0NyGxqBns4ZgCc24yK9epLBmDFe35ReWIKha/Ns5eEr1AcDb+l0i+p7lT49g25MB2Tw9JxKlDfPi67PiD4mrr+MLtimySjL+Mvhg+DO2YazlzzSJQ2QKzd1/47Blz6k3+X5tAbjVeWPPYGxWJ+u9S43+0tfjw7M0UWfiDGZzKqH9gfnTwiEQAjsQuCcu+xf627KSPsx7cO0KZ5SDCgljKslFBfeXyUMEDrDVYHbrsKnuNQieRpjo+Czig52XV9nnwGrjBiVhkaq4rVKn3dVSTuNnnJVhoPaz3hs5FQj78M7LBICyxKgUFNsiFHy1lhcaTOQDT0Eat8832LztoM47bmUcYoSRao1FtcxFPoy2BnUke8Sii3FjDDQjhmtvNe8/ylGDIbt+1bp7PbNUEd0enQ0xoSSXIY+ivIkMTiF65iol8prWKcNl6HU4Jg4aMO6YnjsPP9PyxevFkooZZOiXsbiNn0dRV7dBs6GUx3b49rf7tfzv/KVr9wbMdt6uY7jvUKEj7jkJS/Z/57njw4TxZyo51tjcaVjgLDqVZ3BVnSaGMop3u69OsDtMTpdb3rTm9pNK/+9LCudT8LDekwYdD0HbVPFRhw7zjZTZBmdlQNMx94704u112Tsmu7HlE3X1GZGQiAEQiAEZiOwzvZ60baCnqCd1lYaQB1rKxnInvOc5/Q3SZcpZ5nZ7nr2oxgux4zFUjAjlMGT0FtaY3G/8cAfeoI4ygaQORy1IdeW0Vkr/Vm+DaK2xuI6h9d0idBpZSyubbgzXhI6U6tH6k8K3aDdbY3Fda5vntZEiDb91TFhcNavHRMGUUJvKkcs/y+jw+jLmwVGhBZrjcX9xgN/6C33ute9Dul/1/5ldcFKx7cBhTIW13ZMWgMw28RQp1WuDMQQNoxWVpk//bbWWFzXaZ857/VICIRACKyDwHjLsY4rjaSpYRTTqT4qY966RtpLNLAWXyoximYksIQ32Jixg6GnvHodWx6Ldd60b9NvSnjVjRnGGK1ab0EKS0l5d/lfA8vwpDFvFRR5pgT4lGG7zs93CCxCoDoFyhMvy0lSBrtJ+3fbzkN0koFU56LehTEFsNKm0EuHmPJVwuu03pNp+XQ+D2EeAe37VulM+zYYVLGNTQscqz+cTzFslfS2XmrT51k5Tcr4RtEuQ2cd34ajGIZ9sA/PaZ9iVem139PypT4iFN02REJ7vrqpnvMiRvk2rfZ3PXfbaoG7dv9uvyvvBvHaOnh4nsFEos1opd4TM0KECZokFjzca5nGqp4NHjx6dcAWEdNQy1jMgD7JUK7zVB1xsRZ5EkdCIARCIASWJ7DO9nrRtqL6QtrKaYvFlUFSGzTJG3RZQtP0yRoUpvtO0xsNItMZeWTWIOqyOus891UOCMNzWj1kkk5TDiAGbmv26zCdSf9XH9a9ljPU8Fi64KS+aDtA3BqMh2mM/T9JhxHiovRXgwGTpDXIDo9ZVhds05v0bMqOQP8pJ7H2PL95/xLe662sKn90cc4tY2JwoRjP+2zG0su2EAiBEBgjsFgPcyylFW8zkmbEz/TzthEbGhjGFkOqrJjaIxA9aUNY1P5J3+2xjFmM0mPSGq7bcxgqND5llDJNxJR3lT7FyzQSnfJJisHYtbItBHYjUN6alLtShsfOEd+NkrGoJ4hR+OEoe13He1CGK3G/JhlZHV/KFYNehXtoFR7hAdYh8lgeGtPqD9duFUTTHbEbym5ewZ6Hd56BjZdx+94byKLAM9qa3tmKcAI6NtPEwMAkb85p+TKNkfDwqDi4Y9cxjZEsYjA2WObZ8rr47u/+7v55m7ZX1+4TXuBPhRyRPu+TSVIDF9oMYYbKe6Tek/bZjqWx2/6xcxbdtggr0zU9H2x5BQsDo+OurPFWF8N8NxHSRbxqXkcGbqcNNEnrd3/3d/swMd4hswfE8TPowmuKwWPS4MNu+cj+EAiBEDiSCayzvV60rSh9bLe2sN1f7fOqn+XYTKK6RuWTrjXmhVnHjX0vq7OOpTlp26RnXPqo84azWSstIctK2uNrm286PX3LoLj+KR2bzlUhSdpjh79rMHi43f9lkPR7uLi1bWReHaYcRfTvd9P1DXjoRw+lytqiumCbXumH7Ta/i7X++6R+T22vYyuNVeXPgILrTxKLa3vWk57NpPOyPQRCIARmJbCnBmMd1KpoVXSmxdZ0GaOdOqdDGRq5avRveJz/233D88aOr23iMLbSGobb7e1vK6yWqNhNzRUDVIe+KnGjwhpJH3FR5e/kk08enaJUaeU7BGYlUKEdyhNh2nkMPcNYaNOOn3Ufw1wJA6sQM7tJ5dtx9a4ZzRduYh1S15B2eQZMug5OJe15tW3Wb2EpymAsBEbVexWOwpTEaUb+Wa8zy3GU2rY+nOUZmeqmbm4H7yZdSz1n+qrprPN6wkxKs93OQFoyS94dq4xVh6DKW/tsK732e7ey0R676O9lWOngGVAQ79CCOMonb2Ef5YsR11TSdrrrMJ+mspYIXWF647RBFGl5N8X2Vp4tEuhjYRwdXd5dBnrLo63SzncIhEAIhMD8BFbRXi/SVrTX3a2tNFD4mc98po9hv4yeND+d/39G9dlm0X2H11hWZx2mtxf/07Wt98FJaWi0nDU/pZPOenwdt6gOU57ONdu20hv7/sIXvjC2uR8srx2L6IJ17rq+l9VVK1+LPps6P98hEAIhsCyBPTUYiyfVVoSm2lR8Yg2f6RxDrzsjaa0YWZ7Usa9RZ8e3I6Tt+WO/eV9WRa8T/KhHPWrssN4QXKO+Q0OKOK0896RjhVoLBpiO3ipTPO0sUsAzjFdYJASWIVBTBode+GNpznLM2Hm7bVPuSxiOppXrMkC28drKQ1FdwKjZ7qt0l/2ua0hnmge0/S2nSUqr43YTMwrufe979/HfeICYhUDRrilrw3AU0hOKZ1J4gLoe4928os51Hs8T4TzEj5sk9Yzsb+vqScfz9LA4i3tUNzIgmkrHO0jdXfXw2GDgpDSH29vnYPHRSdLmvfWAkhexvnkWTZP22U87btF9q2ClI6+d8a7UKuqmBPNs4WHt89SnPvWgBeqG+bWIC47SMBPGyuD1nIbH+l+YFh/xjE1ZZjh2TR4uFu5RppX1adNMx9LNthAIgRAIgYMJrKq9nretcF1tLcPebm0hXaacZtr2+eA7Wd9/1S9kOJ1XltVZ573eqo8/6qijeucqhm/sDeoa9DVArh2n79IDDCyvWpbRYSqUnDTcw7SB6mFYsbqPtqwtogtWOuv63vb8reu+k24IhMD+I7CnBuMhTkYEU2dqSrvVZE2xbY2xwynhvMUmxf4qTzLXmcdb0bHiKxHGjle84hX970X+mIJk0b5auI/R+KY3vWlvRJaeGE48wqYZ1ha5bs458gjUwgvKfWssG5LQAaipUsN9y/7fvp+mxItBPo+076lFTN71rnfNc/pMx7bTAl1jOCjVJnKJS1xi59/23nY2zviD0s54yqDGq5jB2EJynsUnPvGJncX12uTEnavYc+32VfzGgMF4kWc07fpCXDAWEwsvvupVrzrk8N2M9IecMNhQz0Encd7yJSl1OoPxxS9+8UHKB/9bi+gcvHV1/62SlYEVgw4+PIwYcrWf7uHOd75zv70GlNo7sMjN6173un6xRYOXQjjxVLrHPe6x6wABby5TnX20YzzKXZPhgBFbSJpICIRACITAcgRW2V7P01a4Lh1lt7aQzlkzKat9dsftIDPD4CRpHWkmHTNte13TbBfG62nT94fp1Lm2r1ofGl5rHf9rdxmLDdDf6la3Gl2QdrfB8UXztYwOQw/Tt9dXEW5iksHY86zwFcN81rNbVBccprfq/7c9f6u+36QXAiGwfwmcc5tuTQfU1O0SRtvrXve69W//bVSy9X5iYB6bgmNEklGgREzHWaU1QDMYVazV4fm8II28+9SUKMdo4OqjMWyFoYhHV42u2jepMWzPy+8Q2I1AxQFT9qbFnK3Y2rult8h+ClJ5/C9SrhmIy2u/YtCO5YOBSvxVn2krA9fgU5uGTlBNsRyLi9YeW8ZPxjaG3WWk6raqsyocxWte85qDOlbLXGPWc9/97nf3h3pGY/XnrOkMj6vFRTFmiByTac+1PV45HpPKO8PkIvGQa2BFnL9adGXsOqt6T8bKoOutklWbf510A61Wiy+ZFH6m2iELCj3pSU/qD7/Sla40tzeScCpCTD33uc/t09D21iydykO+QyAEQiAE5idQbd6q2+vd2oq6rrZymsG3Xcy3HeQXe7UcfqYZLctBZ34y//+M6rPRGabpdHRFRlV6Y7X9y+qsi+Z5Vedd8YpX7JPikNAuTtemb4brOmQZHYZndxmJzbKd5MRyv/vdb8d7fXgPVT4X1QWH6a36/23K3yQ9dNX3nPRCIAT2J4GDrZlbcI/PeMYzDhodvuMd77jTsMuekeM2JuNlLnOZ7rjjjjso50bEH/7wh++MeNs5yXhx0Ilf+8cidzVCzSh86qmn9gbg9lgjus9+9rM7xh6fdnEqx9e03Ze85CWHGJwZaM5znvPsJNd6Ve5szI8QmJMAg3GFKHjwgx98UBmrpHhy3Pe+961/1/Jd75rwMrV69fBC3h+hEJ7//Od317jGNXZ2i4NXU9mPPfbYPozLzs7mh+lnvCCPP/74ndi0tbudYth2ZGq/78qj/PHwHxOGXR7BxPGtt8zY8bttc18MqULlmMZvsTHy2te+drdTV76/rikvvELHRD3FS9gzwnoWqcE83kZi0w1FJ223WHM1jW9Sx8/CbHWMcj7JsCy0grw/5SlP2YmNLz+1Gva0d8HzEWd+GalyiPHYlN5lWPHStuicT/v+tPltF/+Z1JFsjxdCxiryRIziY445pt3dey27nplARx2YQjomtWAPj5+aJlzHCXmhzFdHvbbnOwRCIARCYDKBZdrrZdqKuq62ctLiuEITMfgRDjFtW0MfrbjCpe8M79Kg/KyDyMNz63/9rZqNRSfQ1gyFwfuRj3xkd8IJJ/TtULtmROmDi+isw+ts+v/SIyYN/BtUP/roo9eSrbr2ovqefjqdQfky24nOzfjLuGnA/v73v3+vn0/qIy+rC64FSpPoNuRvNz20shv9rEjkOwRCYIzA1hmMTQliZC0xKm1BnVZOO+20foGF2sao/PKXv7xXaB772Mf2xh1Ta0vEAi3vy9o27duouFHN1tNRGhovI9P2yWOFvGC80NkusdBQiXyI6cmwxThlmu4zn/nMnZAXjlsm5EVdJ98hQDm3iCLDJo8Nsbcve9nL9gY1RhrlT4xSHvPriA1cT+D000/vw8RQInk53uAGN9jxHmDc4xEhriqDoJhzb3/72+vU/ts96HSUgm8xLsoMhZjHv8GZmu7uvW9jEkug7bAI/6IzwtO/9faXx7ouA/qNb3zjHW9VBj55tmgl4SWwTMzdPpEDf3jaVAdMnWBg68wzz9zpUNVxm/h2T/JAbnvb23Z3u9vd+pW1MfYxBfVxj3tcbzD3e9bQDzpuRAfATIryHNIBMOuD8Xaa97tz6/nxBmK0NbjQekeob0866aR+UM+zVc59l+FYB5mBmyFceeHxVF5O0nfvL3rRi/zswyjc85733Ll3+VbexNeftip7f/Iuf+o+HCYsRIWKqY7dMqx4RXnPGbZ1kIWgqPt3Pey0V4Rn/KyL0D3kIQ/pzj777P486bZhO4RN4mmGtUFRbOtenMAzWVkivJ1q0NX/wp94V533rGc9y6ZICIRACITADASWaa+XaSssnEpXI2Z7nnjiiX37rd6nRxpUfPSjH93/NhhebU57S2eddVb/rxlV+k/VTvm26CqdtAaA2/Pm+c34e6973atfOJiBVDujTaRDuo42S9tWoTVqJkxdgz7IS3lRnbXS2Yvv0iOwxLcGpzklYcAxY12DtHXtRfW9973vfTt9Fs+G3sVhi1MY5zF6/ste9rJedxhju6wuOJbmKrdtQ/5200Pdb/SzVT71pBUC+5PAubfxtnQoNRTlhasTqtEojyUjyRbVoahUKAhTYMc81xg6GD7mFR1exq4HPOAB/amUkDJStWmVotJWyhpRBomb3OQmO8aXUlTac42sMn6fccYZ7eb8DoGFCShLBiR43TPM+hhhZnCjPDMyeXd47455YSx84eZEhqL73Oc+vfcjo5IBFsJ7mPcApZww9DJUDg2+3u+73/3uvaJrwOiUU07pB28oX84v8W6X0bO2+f7oRz/ae5HyUDAVv4y9DMO1iBzvV0ZHnSHTPOWXuDblt+RDH/pQvyBYa/yqfYt8C0thSmTJ2GJ3tW/d37xFGcevd73r9Qud1WJnykl1MJQX9aCO4yzCMMlbx0KfOpg+vEMYx83WMKih01md0LE0GRZ5mhDH+pi6yPhfIsQQ7xRGTQMhPupT9XEbQoiB3vswFG2COlkMvpvf/Ob9R/sinwYW/LZITDv4N0xjt/91eqQhPxj7EB7BytmyrMQc1gYK/eB+3L9wG/43vVOnXideR3lWwY/3vg61d03HW/uLh/fPdewXK5L3tu0f+9jHegN1vTe8zIbvpcECbAkjtGMxiIRACIRACOxOYJn2epm2QvtJD7vhDW/YD+AaxFXvMzKVLqdtoLN98pOfPORGOPGY6WUQ00Aub2QLstVAMGO4wcjb3/72h5w7zwaD7/prvIgNpGqrapZN9SXpM9omIZtaWVZnbdPa9G865bWvfe1+ABdfH4PEdDvPh+4k3BRdadWyrA4jPwzE5A53uEOvG9C/znve8/a6izKv7z+cRdyf8LU/y+qCbVrr+L3X+dtND3XP0c/W8eSTZgjsLwJb52EML2XCQjolOtymyLZiWvGtb33rPm7i0ODkOIYeBgXGMZ3gRYTnL2PXmHeWNBk2GKnbmF2uQynR0WYMEyNyeH3TeJyjEdTpjoTAKglQiCmIDLSE8sUIyHPwLne5y8zeosvkSQdC+afsVZgMgzsUWEo8D30zByqG6vBapjEytlF2ePo7jwGLode77f682zXdqj3f++e9ZYxt6wbbW5Ev0xPNHpBfUkYvefR+6wTVtLv23EV/y3vF0NVJKQP2ouktex5jMONtTflT1zIWY27gSyfOM5xVMOZZzEhfi6zxeGEs1jE0G2S32R5Cd0hDR6fCWgyfnfx4vp5z8VTGy1isrNunkzR2bg0YuLcaDFC+GFkNRDCSLhuzWjvmHXjnO9/ZG3OHDJdlxTuHEZ1R3Lvu/nntG9zkVcZwzxiO+zyi089TjFd2LYJXnsR4HXtgsEn75d3DzKCMb3HBDfZ6xvXs67rywIMLd+9bjMVFJt8hEAIhMBuBRdvrZdsKRlg6lxmgRH1PJ9NG0BMYgSe16+p6+x1Hl+K8wACtTRH33mB9zeacjcLko95ywNHHgKZBS8JQ7EOfw4AXMs/VMZ1gWZ11cq7Wu4eewdiqvS9dlQMVvhYdpvPX9lXnZFkdpvLDaKw/IAScfr1ZXpwO9BOUsZod2M4Uq3N9L6MLtums6/de5m83PdQ9Rz9b15NPuiGwfwic48CUoq/yyDucxZQjnWRKCMVAZ3XZ6cRDHqY5G7FlTOFNLP0xpWN4nv813Dy+fBghSukaOzbb9heBCluyF+8YxVyZZahlgN0rI433Uz54lCj787w7SgOF3/vt3fvwhz88anybVmp4wmAxLQyHPAqPwTuTgiWfZUiclvYi+3jsMLIxFq87nvSs+VNHqT99cBKWZxX3r96UpnpvGv9J+dRR4AnP8D8tPwz96lcGSWVdOzCrKFc6WL69p/OcO+s1HOc+eAHXAMrw3GVZYcDAq33axLte7Zrrei+HA6PD+/N/dd7H9mVbCIRACOw1gb3U2Wa992Xb60XbCtc1AExXMmBITxgbtJ90H84/6kD8e9/aKe3hukR7SyfQnhvMnLW/Jj/L6qzruqfd0sVVTGm6jMWnZ2mTd0tznv3L6jCTrsX5y8ys17/+9Tuzficdu4wuOCnNVW7f6/xN00Ojn63ySSetENhfBPaFwXh/PZLczX4icDh0PvYT722/F7H0KkQGrxDTKCMhEAIhEAIhEAJ7TyA6294/g+TgyCBgJpPQcWa48QwfG0xnAH/Oc57Th7Q6+cD6JkJwREIgBEIgBDZLYCtDUmwWQa4WAiEQAusnQPGlFBPT82MsXj/zXCEEQiAEQiAEQiAEQmC7CAj/ZYDmcpe7XL94sUX6eOAS4cXEZhYKxfoHZpnVQtXbdRfJTQiEQAjsfwJbuejd/seeOwyBEDhSCPAkvs51rtOHC3DPFF+LXUZCIARCIARCIARCIARC4Egj8La3vW1ngfgrXOEKnQ8R5sTaKyXCl1j8WLi4SAiEQAiEwOYJxGC8eea5YgiEwBFEQFxksWXF67MY2ymnnNLHyj2CEORWQyAEQiAEQiAEQiAEQqAnIK60BeLPOOOM7vjjj+8udrGL9WudMBYLT2GR6LPOOqtfqHCRNTCCOQRCIARCYDUEEsN4NRyTSgiMEkg8vFEsR9RGK4r7WEjPomyREAiBEAiBEAiB7SMQnW37nklydOQQKH3ZQsnzLFR45BDKnYZACITA5gnEw3jzzHPFEAiBI4jAZz/72c4nEgIhEAIhEAIhEAIhEAIhcCiB6MuHMsmWEAiBENhrAln0bq+fQK4fAiEQAiEQAiEQAiEQAiEQAiEQAiEQAiEQAiEQAltCIAbjLXkQyUYIhEAIhEAIhEAIhEAIhEAIhEAIhEAIhEAIhEAI7DWBGIz3+gnk+iEQAiEQAiEQAiEQAiEQAiEQAiEQAiEQAiEQAiGwJQRiMN6SB5FshEAIhEAIhEAIhEAIhEAIhEAIhEAIhEAIhEAIhMBeE4jBeK+fQK4fAiEQAiEQAiEQAiEQAiEQAiEQAiEQAiEQAiEQAltCIAbjLXkQyUYIhEAIhEAIhEAIhEAIhEAIhEAIhEAIhEAIhEAI7DWBGIz3+gnk+iEQAiEQAiEQAiEQAiEQAiEQAiEQAiEQAiEQAiGwJQRiMN6SB5FshEAIhEAIhEAIhEAIhEAIhEAIhEAIhEAIhEAIhMBeE4jBeK+fQK4fAiEQAiEQAiEQAiEQAiEQAiEQAiEQAiEQAiEQAltCIAbjLXkQyUYIhEAIhEAIhEAIhEAIhEAIhEAIhEAIhEAIhEAI7DWBGIz3+gnk+iEQAiEQAiEQAiEQAiEQAiEQAiEQAiEQAiEQAiGwJQRiMN6SB5FshEAIhEAIhEAIhEAIhEAIhEAIhEAIhEAIhEAIhMBeE4jBeK+fQK4fAiEQAiEQAiEQAiEQAiEQAiEQAiEQAiEQAiEQAltCIAbjLXkQyUYIhEAIhEAIhEAIhEAIhEAIhEAIhEAIhEAIhEAI7DWBcxxzzDFf3etM5PohEAIhEAIhEAIhEAIhEAIhEAIhEAIhEAIhEAIhEAJ7TyAexnv/DJKDEAiBEAiBEAiBEAiBEAiBEAiBEAiBEAiBEAiBEPh/7d0J3HbbWD/w7TihSBnSpByVSqVSSUiO04RQJMM5ByfDIUdmSQ4OMst0EJkOQub5RDI0pyRDmigiVEQyJOP//e7//3r+693v3vf8PM/9Pu/v+nye577vvfdae+3fXsN1/da1rrUVCByvFO95z3u2ojApRBA4aAhc+tKX7h8pbeygvdk8TxAIAkEgCASBIHCQEIjOdpDeZp4lCASBIBAEgkAQWBeBeBivi2DSB4EgEASCQBAIAkEgCASBIBAEgkAQCAJBIAgEgSAQBA4IAiGMD8iLzGMEgSAQBIJAEAgCQSAIBIEgEASCQBAIAkEgCASBIBAE1kUghPG6CCZ9EAgCQSAIBIEgEASCQBAIAkEgCASBIBAEgkAQCAJB4IAgEML4gLzIPEYQCAJBIAgEgSAQBIJAEAgCQSAIBIEgEASCQBAIAkFgXQRCGK+LYNIHgSAQBIJAEAgCQSAIBIEgEASCQBAIAkEgCASBIBAEDggCIYwPyIvMYwSBIBAEgkAQCAJBIAgEgSAQBIJAEAgCQSAIBIEgEATWRSCE8boIJn0QCAJBIAgEgSAQBIJAEAgCQSAIBIEgEASCQBAIAkHggCAQwviAvMg8RhAIAkEgCASBIBAEgkAQCAJBIAgEgSAQBIJAEAgCQWBdBEIYr4tg0geBIBAEgkAQCAJBIAgEgSAQBIJAEAgCQSAIBIEgEAQOCAIhjA/Ii8xjBIEgEASCQBAIAkEgCASBIBAEgkAQCAJBIAgEgSAQBNZFIITxuggmfRAIAkEgCASBIBAEgkAQCAJBIAgEgSAQBIJAEAgCQeCAIBDC+IC8yDxGEAgCQSAIBIEgEASCQBAIAkEgCASBIBAEgkAQCAJBYF0EQhivi2DSB4EgEASCQBAIAkEgCASBIBAEgkAQCAJBIAgEgSAQBA4IAiGMD8iLzGMEgSAQBIJAEAgCQSAIBIEgEASCQBAIAkEgCASBIBAE1kUghPG6CCZ9EAgCQSAIBIEgEASCQBAIAkEgCASBIBAEgkAQCAJB4IAgEML4gLzIPEYQCAJBIAgEgSAQBIJAEAgCQSAIBIEgEASCQBAIAkFgXQRCGK+LYNIHgSAQBIJAEAgCQSAIBIEgEASCQBAIAkEgCASBIBAEDggCIYwPyIvMYwSBIBAEgkAQCAJBIAgEgSAQBIJAEAgCQSAIBIEgEATWRSCE8boIJn0QCAJBIAgEgSAQBIJAEAgCQSAIBIEgEASCQBAIAkHggCAQwviAvMg8RhAIAkEgCASBIBAEgkAQCAJBIAgEgSAQBIJAEAgCQWBdBEIYr4vgAU5/+ctfvjvxxBO7448//gA/ZR4tCASBIBAEgkAQCAJBIAgEgSAQBIJAEAgCQSAIBIFCIExgIZHPwxA4/fTTu1vf+tb9sT/8wz/s7nrXux52Pj+OLgTOc57zdF/zNV/TfcVXfEX3kY98pPvkJz95dD3AUV7an/3Zn+2ufe1rdy960Yu6V7/61Uf506T4QWAxBI7mfuciF7lId9vb3rZ/0Gc84xndBz/4wcUe+ii46rrXvW733d/93d173vOe7nd+53eOghLvXxG///u/v7vmNa/ZfeELX+ge9rCH7V9BcucgEASCQBA4kAhc4hKX6O585zt3n//857tHPvKR3cc+9rED+Zy7/VDf9E3f1F3lKlfpvvM7v7P76q/+6t7eis2126gn/2MBgT0ljH/+53++u/rVr76D6y//8i93X/rSl3Z+58v2IPDTP/3TO4XR+V7gAhfoPvOZz+wcy5ftR4Bn+EknndTd+MY37gfPL/uyL9sp9Ic+9KHu93//97tnPvOZ3X/913/tHM+XzSNwoQtdqLvHPe7Rwf8yl7lM97rXva773Oc+t/kb7XGOt7zlLbuf+7mf6y560Yv29ex///d/97gER9/trnGNa/QTB1MlN5nz9re/vfubv/mb7t3vfnf3xS9+cfRS+dzlLnfpkJpvetObjriGsfH3f//33T/8wz9073jHO7pl3g2S90EPelD3Ez/xE72yfe973/uI/GcdOCj9zld+5Vd217/+9ftHPffccw8UYfzDP/zDnTH+L/7iL0IYz6rMh85d+tKX7usBQz6E8RywcnppBB772Md2xx135GJPttHHP/7x7sMf/nD3vve9r3vDG94QXW1pdJMgCGwOgWqrJg9/5Vd+ZSm9Simud73rdT/+4z/e0bFe8pKX9DZYle6GN7xhr3P5/c///M/d05/+9DqVzwURuOxlL9s9/vGP7+huJe9///s37qQzT4+ve9cnPfzss8+un8fcZ7Wbl73sZd1rX/vaw54fD/gd3/Edhx2rH5/61Kf68e/f/u3fOo6LxsHI/iGwp4TxCSec0F3xilfc9ae9053utNNhML5V0sj/RYC3zHWuc50dODRkSulQ/uiP/qg75ZRT+sNvectbQhYPAdry32arH/3oR/cE5VhRv/7rv7676U1v2isod7vb3bp//Md/HLssxzaAgEEPQf/N3/zN3Qc+8IEDQRaf//zn7+vPBS94wR4hE4GZxZ9fWb7xG79x7hj4Mz/zM31G2uTtb3/7UU8T+SCLydSYSqkl73rXu3rPlX//93/vf8/7933f9307hos8Hve4x3WLpk2/Mw/d3T+P6P+e7/menlw655xzdv+GuUMQCAIrI2Dy5rznPe/c9PS0P/iDP+ge9ahH9Ub03AS5YOMInHbaab3XogldDheRYwuBK13pSjsP/FM/9VPdK17xip3f876YFLrVrW7V0ZHIn//5nx+W5J/+6Z92fiOMI8sj8JCHPKTnfnAav/u7v9v96Z/+aW97tTltQj9aRI9v77lI/95ev8j3TTzHIvfZxDU1xv3VX/3VEdkh+a9whSsccXx44I53vGP3tre9rSfefUb2HoE9JYz36vF+8id/cqdTNpMXwvj/I3+pS12qsxy15ClPecooYYwkeOtb37qzpKOuz+f2I/AN3/AN3ZOf/OSdNsDD8LnPfW4/a/3Zz3629zY2cWC2G3H8tKc9rbv//e/f/d7v/d72P9xRWEKeQje72c26H/qhHxr1Bj0KH6lfKVJksfJf61rXCmG8xIvkocITohVjFWPicpe7XPdd3/Vd3bd/+7d3+uczzjijM8M+JSaGWmGYyOcHf/AH+wkjXu1CKvziL/7iEcpzm66+F2Fdv5HG0s+T9DvzENqb8yYQeP7/67/+axfCeG8wz12CwLoI8PbnnFFiPLjYxS7W6VcZ1Oc73/k6to1+/Z73vOdh11aafO4uAkKLXfKSl+xe+tKXhjDeXai3Mnd6W5F/VkwvQxhf9apX3bHJxh4OwWnMtvrQ6rDIcggIP6GvJGza5zznOaMZbFI/Uh/Y2vOEo9CmZZPPsemyrZIfjIbt6cIXvnD3tV/7tb3t/FVf9VUdZ5bf/M3f7B7zmMd0z3ve81a5TdKsgcCBJIzXwCNJ/x8Cll++8Y1vDB5HIQK/9mu/tqOYIP6HZI8lOpaFvOY1r+mXnuuQ73e/+/WeiGJaRjaPAC9j3kEHRYpUFNeVkkZ5ESPb8tnIfASEmnjWs541eSF873vf+/Ze6VbM/Oqv/urotYyLZz/72aPnEA4mKngpIx4shfzt3/7t0WvrIFKC5wIp40js7WEfUte3n+l3WjTyPQgEgSCwOAJvfvObJ5ehI0NOPfXUvj8XAkqM05NPPvlAhclZHKlcGQT2HwF7AIiTuyi5e4Mb3GBuoTn3RFZDgGNEyR//8R/X1139pMc/9alP3dV7HCuZmyyZwlI4R/tICMPHUclqG7bm61//+mMFnq14ziMDZ21FsY4shM26dM6tV9uRV613RN7f9m3f1t+HgrasiJtzwqGwG5Zrb0IufvGLdwK4j8U3q/zFR+XST4ncTzH7o8OuQPPrlGUv3vU65dvmtDxQkHfEZkaziB7hWnTAPGDFHa0Nnrb5+VK2/UcAMWyJEeHp9N73vrfvoyoEwv6X8Ogvwate9aqdlTE8ypC/y4p2rf0LSUHqnc3K52pXu1pnTPnEJz7Rx22lEBvTeDzPkvQ7s9DJuSAQBILA6gjYZ8Lk/73uda8+E7aKSf5IEAgC+4cAL+NFhB1fdtki1+ea5RGwz1LJf//3f9fXfB4ABDjGvPzlL++EBKoQqhxU9pv3OgDQLvUIW+Vh/IAHPKCzbIO8853v7JfimlUQDB4RidQi4vs8+MEP7kMm9AcO/XP+iU98Yv8T4ViCxLDxF6k861x9/uiP/mh385vfvLNMvxUxhZBulh/NEss/xYMVo5Qwst1LrDEzhk960pN2gnrz2j3rrLP66/wbe2ZLh21I863f+q39daeffnr313/91ztpeISK56K8yJuSj370o30s2ic84Qnd3/3d39Xh/lNsnx/5kR/pN95qT3DrV15y17vetasYM2eeeeaOp5nNl8ReGgoi26yp0AaI9lYsLxDUXygEYRCGMvbci77rYV75/f8R4A1IdKrq3TwRJ9VmKtrIla985b5+DDdkMwHCu0VcTHUSoYSEMrMujIW6PhQEk2D2xIZv6grl6vKXv3xnZl5drY0d/vZv/3aYfOHfq5StMud1eaMb3aifcNF/qKfqujbL+3NqozCzndLBw2QNPPQVsOTBORY+4A53uEN/rWWnU5tZaM82KKwJIJ7g2mOFjbn73e/efcu3fEtn9rz1Kt0rrAs37dT7NCPs3fFUv81tbtOHpZjlNYuw1LctIp/85Cc7z1uCyISNd8LjdkrsMi2Ug9hlbVmGGJngUh+FCbGp1W/8xm90L37xiw/LVpqb3OQm/XsW4sFGct7zC1/4wv4dIGR3U8S4M7aYvNTu1M1VRDqTee1YMZVP9R82ZuQ9bok0jByf1U4r3Sb7nakywsT4KC64UDrKZ5z36T0Zi9t4gOrqiSee2FlO7F2biNX/mOighOr/hn3e1L2HxxH58laX5K1eifdsMs7YNy82PK9vm8pq8zz1/+Vf/qV/z5bmtWP+8L5jvx/+8If3fRGCn3jflu+VaE/a1ZhY6icmo/4Zhvp0z/CiF71odKOtvXoH67b7elZ1wPPRVeDDk95qGvWcDuQ92s+B6G9LD6r07acwTurSD/zAD/TtyjgGK5M8q7bRNv98DwJTCFgZJjyFekxfEL5oyivROf2ST236f/7nf/o+XR76l3mkCjvD+Ifo0jfRj+gk6vkrX/nKSf1I2VfVraaem87Vtk/jkg1JYaHPYsNoh55r3l4KnkVa+u7Xfd3X9W2fzkY3M7Z7xlZcXxu/1hjKZqy+1TjJnllEhs+h32Dfwth7Uo4/+ZM/6Ze5l/6JbGQD0kcQJDbQku6cQ/HpP/3pT0/e1l41bD66gz7L2CKtTXKn4i/byM04Zg8bS/o9pz5YX2fPBGMm3cpE9Kwx0zuhE7i3/tZmvu5Nh3j+858/My287Z9DX/R+/vM//7NPZ+m/PrvGHlhNTZqsU3cnAW1OCHNpDKB3WB4/Na5WEvXNGKOtlmNZnatPun3pvDiCsX0j5OF9aP+up2/AhL2v/o55XK6i+67Td6xiHxUGq+hq7AGbpsGihC5klTTB4VjduY5+VPlu6rPqcOmw9HOrCrUbYUP1KXQwnJb638oyzzG8zzxdeR17ui3jbn3X/zz0oQ/tV0Z73/q4WU5xu1WOYzXf47fpwVXW8iD+8i//8t6Qsiy3YgZVWXWUv/Vbv9W7pds5kehoKm1d51Pn5Y+0M1D9gUP/LL994AMf2KevY/VpsDOjz8BkRIwJIg1524qy6HC51yMw3LfKxlBpZfjMOo3b3e527SWHfWf08OpDUg2FMkFBoEje5z736Q3hugaeVYY65tPxkiLk/R6Wq66pT41Vw+X9NiaCwlsKzSC2fOA//uM/DrtsmD+jedF3fVhG+bGDgIkSAwL5y7/8y7lKTCU0+VLxntTdVtRjpIy4ba1QIP2ZMDC5gHRphXJZZVFXtTEEa4ljJlhMENl5fkjW1XWzPlctmzy1EZMoDJtWGFYMCYSUGczyzqxrnJfOvVsx0PsTy/dBD3rQEQo5hQYew8G/8qB4Do0OSoQ/58pggOHQoNkLrKucPj0jEXONFGFcqzOmlujpR6tO9Aln/OPh2goDQNrPfOYz7eEjviPevAeKWCstRvpJSj7DpGQ4NiDF1ftWlMGf+iFGWhmM7TWb/M6rrMR9VyWj6jkZmbNEWygvmDK6fcLduGMCdMxI3I1+Z1Y5GdDKxAA2+YRIqDFeuqG+YAxv4/a7pt6l5zXppQ9bZQJAH0Epb0W/5k8dsoKDgT0U5WWcD9Oqv/7oARRhdWzRchmL293BjbFte2vH97Y83/u939vH03Z9iTru78RDZLiVJ0LqtLxDqiwAAEAASURBVLJX78B7WqfdV5mFdGFkt6IP96dum9ArrEx0T4nJGxPy7XgIP38IBP30qu106p45HgRaBNg+6hpdTd0dI4z1H61jivTGOOOgPlO/wwmkvLXa/H1HGhrjWjtDP6/+azNWlHAIGBsPVtWthmVof3vWap90RTYForUV+gWSkS1RBG973nc6CuKxfa467pw+Qn/XTo6ym+relZ97+SOI6kVl+Bz6pXZsUgZ/+l7edDZZo0+2dqN+3h89xzsY6kTK5d3XWF5lq7HFu/edx/pwbEEuqh90TLaxeyMpS6rP9P5vectbHmFjGNeUyeR+mw6GiDD11ftBjA7HFPc44RC5zKGifT9sSX82VkYQ63u9j/e9731VrMM+16m7h2U04wdS32QF3UpbmxVP1burjeZNSEw5TRi7q561Y3FbDLb/cBzzzvyZHDIBzj5p2+Wyuu86fceq9lE94yq6mrrMFm1FH1TCSY+sqh/1iTf8r9Wf6Ir0vJbwLtsPf6I9tU5ZyzxHe595urK2vYqtv2Fo5mZnwpOepa9gp4cwngvZxi7YKsK4fSqNCMlk0DF4G1x4AZZB5Dgy9s/+7M/6zhHBUIaZTrcGWHFOivQZxmfVyWggRZKZBZWfvAwGGi3hPYfoGRoSBj6NuRVpzfYpq4DdBu6a6WqvG/vumXljlihPO3DIj2FbJC8PARvTGdx1kDpOz0IxNGhoTEU6VIejQ6eQlJipL4WDB92igtzVcZWYDUdS8kJAWpeXtzIpC+W0PJkrTX0u+64rXT4PR8CAUPW+9bA7/Kojf6kjVU/as5Q/ZDKjXf1HKjNO1BPKH8XHPb1fHvpTRKE8KLFnn31277GoPfBo0660ZzPEPBqWiX+7TtkorzYcgxUPQN6lyo4wU6cZDAYjbZenQyue1cAKL+nM6lO6pRNT0DlKLQ+1RdsTLEzwEF675557bp+v8mlLCFqzyq0C3pap/b4bWLf569dMpJHaJFH/o4+mtFI2p+qB/nlspULlz0gwCaXPG25+UNds4hNGlDMrR9Rn3qbtphT6Uv0s0T96TtfpN3l38Ma/xS1u0fe7PK12S9TBEvViFVFedVIfz1iZJQhOZKtxx3MTE0GITXgxYsficG+635lVxvYc4l+7MBnJKLBzvbjLrWeOtlwGOW9S47ux0LikbTF8GbGeGSG+jIgPXYSvNsvzv8ZiWGoPDG51fkgi3vrWt+7T6gtNRpt00cciHrV3f/pXZR3DfKycdBGksL7YRBxcENolY15QjG/xUHkzKwMM4co7jJGrvXuG4aR45bnf76DKMetTH15GtudUp8WLNYYhVWBNn5kndCski3cGM328cQhJ5R0by4wr6gRvzkgQ2A0E9FUm/4xT6t5Q9NM1fmnP+j31ne6vz9M3GVvUYc4p5cla+SCYbKRqPDbuGIvpOY67H29J+g7yajipuo5uVfef98lJx1j8zGc+s38unqZ0Evqk5zLBjlQoZ6LKj7eqyUXPZULZZKhVPOwSuEiHmDSZXOO7tIjJ0lv0hXCkrxZRsWpb1y+xffQpxiV9Kf1JOdieHAjgbWIUIUkHUT59mf7d+zeO0KtbYRfr14yFVqLp8+TBO1pa+Ru7Sqdv09Z3OoMxAI7GVjY0/BDB7F5OW+49HDONGbzSSb0D+iDMpXNftjUdGenfismIqnfsaGOq90M/k8ZYrV6/7W1va5Md9n2duntYRnN+qDMmLjhFaQ+zCGPEO/2JzQCTKcJ4zi37OljjGF2DXkA/oDP82I/9WF+H6TrGITrbmMzTfdftO9axj1bV1TgcqV/sqOJj2JSl75Ruv4p+NIbhJo+p8/okfYx+Vr/u/Z14aKJeO/IdJ0Snq8mdVZ5jnp62jj29STwWzcuYZsJKPwnDMf5i0bxy3eIIHL/4pXt7pQ6WsvILv/ALO0SSYwYogxlh7PDcoxQx1MqosWTKoE4MOEOlxnENCOGjoRCDsQ6rDZ9gQLP0nJgJdp8inxlmv/7rv75DNmvMBkFedwYT5A5jXQc95dnTZ9z883xmBikljJpqBEUUGSyKLEZGmYG2dKHE8qEawGsmu5Ye8UogPBNKmfQbKTb0xnN8lpjprdAhrjOAn3HGGTuKJ0wRP3WN98WImvIiXfZdzyrbsXyu9ZateroOHmY3TVKYmOAp13pdvPfQ0pBawqetUVCniEKz8JRLaUpca4kabw91mqJ8zqEldovKOmVTL5GxDH8GU3nZWN6nH/GnbzA7q+7qGwjivLykKfOtQaKdIdl4R1BaKdttSISp50KOPuIRj+j7IYYgnHyWmIShSPD2oTzMk93Aur2n90S8u/Z9IpsQZIwRBhdsh6I/qz5teE4fBwd4MHCGRtDw+nV+m7z4pV/6pSPC9sjTO1YO9UP9NqbUs5hcYMQg9xlGyDj1eEgGrlO2SgsHhjExDqqTY6KvZTC0QnlmHBoP1HWTrcaqeX0C4owgyEs51fYZs8YydXqMvNx0v9M+y6zv2kON+2P1ChFMqSSWJWrTJd6ZdsWYYMCZ7DGhPC/8VKWHLWORGFvbnbLVCZ4+iGAKrTGZUdl6/ei/iOW57UYflgsXOYMQMF6PYd4nHvyrSWFEAKHLzDKuXaO/0I8xSqqea9f6MoSDcdsEvHrWll9asp/v4P+WYPZ//TXvYQJXxlZNXGsP+m19LOeEeUKn8rzIpMJYGrjToYwJ9EqTETXhMi/PnA8CqyBgLNI/lJ1TedBZyuagr/HEqnarX9LWeUcii40bbIHWG9c47Jx+wQQ+ErZdHYgoNfabYDEG0o1aR5pVdasq/yKfJrF4IpZtI42+m60nVACdld3Y6mfaLr3EuIiMZOu1thPHG88hpBgCgv4hD9gh1KsfLftQ+69ji5R57Bqhs9hN9J0Sz6Csxi4T056LrlI6Km9m1xhz9G3Dsd97Q/ohsT3DC17wgsq6Hyv1SxyKTjxESCHJa2XhzkX/7wtCHglKFyoxLrg3b0hjgtWFCN7SFdQdmLm3eqJu1Tl5sJ9hj9BGALOLa8xxnv2MEHfMeKRfLlGXjeHG1LFJEtetW3frXot+qmvaF/Kc89lUn1+b3dEJqi0ueo+6DumsLRL3pc+VGMeEjqKr0hm9WxMRYx7Ys3TfdfuOdeyjdXS1co7S7kuMyUOdcBX9qPKb+lTnyrFw6hrHvYvhxJzjuA/n2KHluOe4/gjh7Z3TJ9ihtUJwleeYp6etY08r715LG+rNGDh813tdnmPlfsdt84OaJWu9Dg2aZmNbaZcGtsfnfdcBM6wJJQAhVspApaU4VWdkEC+D2nnLXiq938guRHUZIwZKM7MVd8s1iwhFjOLSNoAadA3+yu3PTGKr8MibItgeq+Uti9x3mWuKNJKGAkB5aztDg6LBvyW+2jRj99rNdz12v4N4rCVuqt6u85w8MMxcG0xasrjypBjyXCHDJUF1jU9KOGVzKAbFItsoOMvIOmUzyUTU3bE4fjzHKF2evchi11MMKAhkzOOTJwSCR7pFyGL5MH4YKEQ7attMf/DQP9gNw1XUueHnbmBd90AaIYQJ/FtBMur7PItllMsKEgZunt/kXGtILJvXvOt5Bg1jvFca/RQljrLWkmh13ieDnBcrPIbLPtvrVvmOcOKJg0SssY2RVOPKWJ6ubf8Yxow1dRhJYKniWGy7Ni91uxRf5H8r9Vu5YDOUTfc7w/xn/TYx2Y6V7bWMVwIDmIwJ47cM/zLsxq4bHuP9oS9gJLZkcV1n8qm8e3lm0RdKTJAxzshYP2K8R3JqD/SS3RYYjrU3ZDYxedKuShqWZ7/ewbAcY7+RC3Q3fb33MdaO9F2zPMTafNWXliyuc9pIjSUMvEgQ2E0Eqg6yQUwulhi/rO5DPtCpxwgqdgLvXMKWaPt0BGRNihtDWrK47mFVjTZDTJy1sqpu1eYx7/tUDF5jdoXJGuqTPKIRe4Qu1dpJdT9jeq30QlyuosdUXot8mghsyeJKw3uuBBFYZHEd805rNS28Syd13nNx6DF2tGRxpfXJO5XwyNQ3jgndnv07Ju24YGwrMW4ZF92bLlt2a533ySYm6mjVFb+Rx94R4RzRksX9wUP/2Jj22Rna6XV+3bpb+Sz6Se8ovYqONSYmBZB9xh3vclUpxzX2kvF2TIxN3i1ivrAcXjdP912n71jHPtpNXW2IwSZ/q7cmXeb9sfOmhENBSxbXdW37HfZndc0yn7P0tHXs6WXKsKlra/yTn0mQyN4gMD5a7M29Z96Fgj/mEWV2u5XhDHt7btZ3xm+JTnjM6NTJt4RRS4oNjQKzh2PCY2nMSBm7VqdRA+rYeUYo5cHfWAdjgLY8q6SIqPq9qc9WkWIwt0uA6x7KWIqJYwbNClNR19Tnbr/rus9B/2w92Sl8eyFlJNdmIGP3rBnRsXPlOckzYtMyVbYiv3kCI2Qso1xE2udAatpIZF2xnJ9ozwj0KWEg8PibJ20Zh9euizWPFH2KfsbSulYQveVhMW9yqE3nu/6kPKGQtIj33RSehlPC2CHGmVrSNryWwVaE8yxFcJiu/Y1sVo7hH+KJ104ZU4wnE5GzxKRq+0eZqjFH/TIGmcCbVc/rnfF2qPZR9+SpZexRZp4gQ9mPfkcZjBv1HoZlQqQwiAkP6TFC1Dl1uTW+F1E+jWOlC4wZtvIlJnqUkfC+L9E3O0esEuIpuF+i3Y6RQsrTktlThPF+vYNF8SrcGdFD4qXNA4m2iEz1r+pR4TWF1SL555ogsAgCLWnW9r9l17CdxvTyyrt0c2lbj80a/+Tf2j6Vrj61JzK0g2rsWFa3qnwX+Zxqg9JWG0RktkRq4WJcrP5+7F7I6MJ2SIaPXb/OsZqoHObRrvicegely5l8NC4vI2XrGsdap6c2D/pP6RDtcd8LY99bwtjveVLjoetamwGZXxMfvJinxFg15ADq2nXrbuWzzGeF+ULSm+wfSk1Ce6axSYrh9WO/eYeWJ7m6OzYJJJ16y3ub80Xr9d/mOUv3rTayat/Rtstl7KPd1NXaZ9/G794lh4Yxoa9Ue1m2nQ3zm6WnDa+d+j1lT09dv5vH2zbQjn+7ec/kfWhib1tBEHNpTCyvZfxVJWmVgrHrp461RDOjYkiAVLqWdG3TlEHvOmWqODmVrj4ZhwZ38fLmCa/QtiFMXU8Z4wWADFAOHgLIAANLOwhPpV/nuHvxOCqZteFD+w69J2Vrj1UeY8ec29S7rvsc9M82Zq6Ybu0s3LrPbsBC+vOUU8/8GegtVZ8nU+9XuiLlhhtVzcuzPb9s2SyXo6wjlMRks1ycQsfbg0LVLndp7wNfy+KkseGIpWHyQRpJ62+KmGrzab+XwUVJm1LQXc+7wvLEeWTEbmJdpCJie8wYNUttVQPFvUKZtM869t1EgeV1PF0sf6xlV2PXburYrHZRExc8NCi9U8J7l6xKGEs7a+xieFudwtt9lhgv2pUvda0+moey9inMiWu0E2EUhmOMsVRcS1LexJWPT3WPN5RrhKVoPR+c381+R/5TYmIBUTcmxurCd9YYJW27GsOyyjEv//Ye8i79Q8iGWSSzfpJo5224iyc96Ul9vZcXD2XtFrFdfVD1i+19d+N7EddjedNdStea6p/36x2MlXfsWBHGUyRDpZmaeKjzPk3YFVHTHq/v9c6qbtTxfAaBTSNQqzr0zfTkkiIW2j6tzrWf7fl24ru+Gz94c05JTZjR6RFlNcm7qm41dZ+x47N0nCJYhp6zhQuyE2ZTQgfTJ/IMNRbspkzpITVuuXeR18NytM4D7fXtdWw1NqJnYccai9iJFQ6pvXb4fda4UBhLMzUuqD/GPPdXV+vepV8N71f9NPyn9O9Ko69miwxl3bo7zG+R3/R/ujvvWqsLhaQrgbV9hMhQZ6prFvnUxqo+u9c6MlXn5FltpO0bxu7Vni/MXbeqfbSbutpY+Td5jC4tBMyqYnJoqI+3eSFptZ2pdtZeO+v7LD1tmE49WNXWH+a1W7/byZlZdXq37n+s5ru1hPGUIbipF4V0baUlhtvj7fc2Rk7FEnbeoD6rvIt6e84ijKocyC2KXEva1rm9+GyXr7lfOxs+vP+QRIfxmLI3C7thnvk9jUDbcVJgZs0mT+dy+Bneb2KAt4rB4VfM/7VIvZ6fy5FXrFo23rxiWYobhQRTp5Gc5aGAmLXs8rnPfe4Rg7k4qOq8JWiWCSlDeQjy3LAk0nLPeaRTPU15fS7SRyxyzW5hre+rmOTIcsvfhlLeKjxeLHWdille6fRhNqyQt9jA6yjVlec6nwyvtn+bWmbY3kMdoMwvizsizkYWrfCwETqBgsionUcWt2mH341JiFJ/CH4xDxn5lv4N4xYKq1EKGALU+x1KhTdi2J1waGOh1qDcjX5neP9lf7fjOa/pWdKOSW26qTSFlfNIhUXqSRuSQjrLjrVn8ZP1HyaU/ZmM8u7eeGjprvAyixCZ8ltVlq23y9ynxXLT72DRcpSeNq/vdB4JM8swi56yKOq5brcREDKBtHpGO361fdpYWUxuIHjYQW07LSJamkX6Ndfp24owXke3ktci0pKli1zvmrL3Zk34VF6wK5K1jh1Nn8Ykk/AcIqbI5HnPs2pfR/cTCoVzwTKez6U70otmEWjK3U6QtM+xbt1t81rmO71VuCN7DJ1zKDRlYce24MXNs3jRFSxj923b57xxdCz9Isc20Xe4zyr20TLP1/ZrbbpFnnEbr6m6sg1lW9We3o+yV7g+927tj/0oy7F0z60ljHf7JXD3rwGGgYa4GBMGRCkorXHFY8WmD4QyIq+ximvQ5O25CbFRQ23iIz8zvbySGO8UQL8X2e17nbLUsoTKo2Yl63f7OSQZZy0JbdPl+2oIVDxgqTdR5+xKbCm7OkzpsTSdwoIYpbSpC0IJtCFKViv58qnWLRuCgHLDi1OoBR6l/niMMoAQygg2yq/+oZWKV2WZmOWcCDZ/FJiK4WajklmTKZUfQggRy0CZJUjJijE767rdOgfvdpKqCMSp+/FEnUcY22XdCgleEzb63G+hvKkXSHwevsJBTElLEq+i9Ekz5knD4FD31CfewYtueDZVTsd5rZq8QzIwIoeEcXmOu5Y3i79Z4vrHP/7xO5dsut/ZyXiNL+XtKYtZHsDOt887ZYy6rkR4jhKk7qxQMlVPxsY+y0v9iWdsOSiFXX9iwkDoDxNYd7/73fvVD3W/o+lzN9/BojhoY/rxef2rfmgWWbzo/XJdENhtBEws0llIuwzcmKL/Qr61fdpYeeh05QDT9nntd5t+T0n1a863Hod+r6NbSb8bUn3RvLHAvQu7FovdKNNu5Gky1+oVk5rKb2LSpDFCn30IB/0h/XTTQj80Mc2rmM1s0tNye2Ek2Arlmax8Q6lQJvLwDLNWBdWqvGEe7ftate4O81zkt5V19hxg7xrHK9xLTbjQg1fREevehZvf7O3Cqs5v4nMTfUeVY1n7qNqm9PPaZ7VN17bv2+/I6gisa0+vfufVUtbKZhOmY6tdV8s1qeYhcMwSxmI+1iYIBjXLy5eRoeePZQl2XR8KA3CZmdZh+va3JS8ldgi2sUBLYjtnkKpNK+raTX4yfM0A1zMZ3KdkeK71hphKk+OrI6DjVC8pVOVdsIiigqiozbsQVrVkD/npPVvGxzNxLNxCGzN79ZIvn3JTZVOXLaP0RxALlvALOUD5s3yvNlIZllL4hAqhQJGBEY9BxJyJHV4e86SUP2Sz5XpTcc4QGna33i9pScV2V/VheXgWG8wtaUKETXn06KeQypRhyn3VuWF+9bvqseXevCHqd52vzzKC6/eynyb9EMbq9SbI2mXvL+SJDU4s02OEzIpZt0zeSHn1cujp2oaVMQmKAJ0S8aVdL7zFE57whJ13sOl+Z+r+yxxvJ2+FcTHZNSXtRMwiY1R7zSbqiTbivftDBmlrZ5xxRk/oCIvC6/tolE28g2rnq7Z7hBqChGf8rH5jbInz0Yh5ynzwEdA/lOd8bT5XT63N6aPnha4yDtQESduf1XcE37rj3zq6VT3Ppj6rL/LcLdk9ln85WxQWY9ds6zF1A1mMsD311FMPizdcZaZb7IZwuEAWkwc+8IGj9vAUIcgGZ8t6N/riKcKYPVLhK4bPUO9rE3V3mPes3yZIrJC74Q1v2NsACGM2lTaoDSzLLQzvhasokWdttFfHNvW5bt8xLMei9lG1Tek3rasNy5Tf4whsyp4ez32zR/F2tQpSKNnSETd7l+Q2hsBxYwcP0rHyIh4+U7tcn8HIq2dMKGbIIH+1rMl1jOuWQEN6FAFd+SCAzjrrrPq51iclph1s7bg6JIsRHYilZaRdXrtIOo2z3eiHkjCWh7K0nqeIsXYmcZF75ZrlETCRQCyVbycYpnJiiCMAb3WrW/UkcxF3iLdS/oRmaOt6m5f3v9eym2XjkQYPSiepgWneM1LqkGi1YQeFcRHRLqodlzf3MJ22VLt3D8/txW91qQgV2PComPoziVUemC3J3JZTXjYb1JfIb4okb9PUNerrVJ/OmEBSryO1cV8RTOvktUpa3uzlgQP38lJZJa82TREItVlRnUPw8+rxLoQ6mnqvjttQhTA4hx7mm+p3qlzrfjJCavli1d2pPKufQ3wPwyiNpWGY1tLQKeN1LN0ix/S/PJKe9axn9Zcj+afq+7z8tJX9lE28g3XbfdV33l8898eE/meSMBIEth0BNkXVY56bJhRbqfHLxLd+fUpap5I29FGlp2NNxZudynPe8VV1q3n5LnK+bBaYzLKROLmULdjiMrxHOcwMj+/377K53njIu7fdnK4t13Dsbs+t87283vX79IUxMXk3JnTGIontszBcnVpphH6YcgrYzbpb95/6rM3vYKDdlN5GL6pNBqfSzjsufa3immdvccI45ZRTuitc4Qrzsj3ifOG3at9xRIbNgVn20Sb0hOZWC3/db/1o4YLOuXDd59hNe3pO0Zc+rd+1ir5W/o85aS6daRIsjMCBJIzb5Z862LFYN2YmzP4RpLANl4ZKACL0Gc94Rj97aAbxNre5zQ6wDLtHPepRO7/FKmLknX322f0yfbEon/e85+3Eo9y5cMUvjNQilmQx3LhA2XkjDZ9heLvh4IUwWFZaj0sxPx/wgAfsbAIkL548BvY2XMWUArHsvXP9bATUuTKy73SnO+3E1x1L5T2p04gp0noXmjWvUAyuGxMeuJV27PxuHVu3bA9+8IP7jaYopmPCO6PaWpFOrjvttNP6dMLX1I7Ow/RFuE951g6vF0dQX0GQzEIzUPa0Y/2Snbof+chH9ji3/down938XcSv+IQMkVni+csziSfqsO6YdHvoQx/aG7M2+1o0tlu7k3DFUh6Wg2fuLCN5eP3Y7+rb9F28PMfEM/GgsfROG9u0UIJqma+JnDJgV70P74GK+dVOlMqPgUGmNjLsT/6/fzZ4qRUFla7Ob6rfqfw28VljjjY0LG/lbxwV/oG4flFvhcrbpjbyHxP6g7Am6oklfyX6TXXfxMAJEyt0qu81cVWTV5V+3mdN2KjD7RLOeel243zhtOo7WLfdv+ENb+j8kZve9KZ9m2YQa8Mm4PVR9LjCbDcwSJ5BYBMImLy2qRYPYv2UCeayYSr/Gr/YPFObtppULd3HhEpLLFppVUu9GeZT9sTNbnazvl+zlwGv0JJVdatKv1ufvD7LYcXk+9hqLbqD/TrIlK5T2MybhNyt55iXb4UvGOpdlQ6ZafXcbkjdG5kz5mBCZy4idez+dF/jnrpL5zU2I7MQYlZMckYwjrcet20+69bdNq9lv9v3BOGqLQj3cdJJJ/VZFJG8bH7D61/1qlf1hxDuCOExucY1rtGTaXTSsl/Grps6tm7fsY59tK6eMPVMY8drrN8G/WisfIse29RzrGtPL1reda8Tm53eXE4axsJ1N4Fct0zHWvr/P9IfoCfXeZcYpJC9T3ziEw8z7sUXRWpWfGIdsc7doKRDdo4Xby3hpSi0hJr8n//85/dp6l4UDjOMvFWEqKCUIJDn7dBd6Wd9IovafATYp6zZOIln2LOf/ezOgFHPM5VXS4C5xrIlBIV4ruK3LiKvec1ruje/+c07lwq7YWmcJfiUTOfLCHcRz4JNDZw7N82XUQQQdsgsChvP1JrAaCdNtAkK2FOe8pSeBJWR5UOttwpDpGackVZXv/rVd5ZBIv0sv3r4wx++L4b2umXTPyBntR1/LSEHM30AvBhlYsCVvOMd7+jTweKsQysH2l20KejaEjKImJBaVBBK1T4o8zyVkRzujczQNzEOywNj0Xw3cZ3nsnkHsayfITVPtH/CS6T10Kb4P+QhD+lJLLHX1b9FhRdCxaqyWaH+tYwi74yyKsZ7KVGL5ju8Tp0Xh4+oG7y5imByP566j370o/v+zfcix4f5rPNbvXvc4x7XZ2FC7ha3uMVkdgx6q0+Gf+oMol/7581NeM/CvQSJrB8gZSzUubFP5aol0G1/4NpN9Ttj91312DmHwuvU84qXLWRMec0xFoyh5bnvvZdn9yL3kzfynXGMJJFXeUV5Jzy96ByIBf1ElUPeyHl1yjsyUc3Dteqy8+q2ukdM0AxJof7EjH8tAaRN1DLs9h4zkm/01LrvYN12r85axVChf/QTdCXLetV5/ar+Q58SCQL7iYB+gudv/dkjQXink08+uXvqU5/aj0smodRpMeSHk3/KLl69fofYY8WqEHq9tk/PQWTR23zXtug6rbBzhB7S5+ifTI77LOLYJAtCymSqfosXbktOrapbtWXYje9IEfHgEZLGbc9V4QI9G8cihKVwbmwo48XYBH31rRwlvBfvY10Pv00+b+nwxmd2bE0YskXppiYwp5wd1i1H3ZvurM+tFbfwgSt7dZaNSb+mV6vf3hFdkR5ND6YrCs30kpe8pHvpS186WtR16+5opkscLB2eHY4LYPdWyLolshm91JhVE58me0x+lhOAfsNqUu2WmGSd5R0/eoNDB9ftO9axj9bVE6aeaex4tWHn1tWP9KvVX8/6PGHCMWCsfIse29RzrGtPL1reedeZCB1iSBfW7vUF2n6tBmSLztpjZt69cn41BPZ3zeJqZZ6biqevAbOUnFII6ndlwBhj7J155pn9IcbkWLxAxjBStm2glQeiFUlx/etfv5/5r+OUMYqbwa1mG+vcqp+Mf8oeA4ehamlRu7wIoW32hYI3Je89tEGeAbj1UGY8+0OALyJlhHn2mu2hgPK2GgoFshTQ4bn83h0EGBJIIp0sz3cTGP7USXXZu269QnTEiIuhMFJ04BRACjZlWx5FjJgV5rF+4xvfeJh013+vUzb13EBk8KF8IQt4dMKEIaCf8Kw8f8uj0gNRwkyuMMR45vvjzQ0DCgGsyctf/vKuluj3Bxb4p13DFhGPkC+lntJpY743velN3Q1ucIMFctrsJQjf9n0vkruywkS94RFSEw/65OqbeFHP8i5WT13fikk8hrJ8vRvX8GqpUD3qhPxbkrpNv+h3s9jayHWve92OJ5U/92EE1HvRBxo7KNm7ITyi5O1ZeE7bibtWDgzvJ/btPFF39cOtEVwTARTGRePiafPw4P1uXCvPF/ffVL8z71kWPW/SzDMbh41TNrAkVTcrH8s9hZRahph1rfzUFcSJukmsGOAVZXwmvNpMOpR3m2MMW5MO7nmpS12q99TjRWxs1v+o34T3X01e9AcW/Gd85+VkTFaH/RFezp59L2UT72Dddq+fQJzp53kU698ZJ4guXmn610VXhOwldrnXsYUA78tZHpjQ0L/wgq2NtcYQMg4KG8QmQWr607+U3SCNPkiM/LExxfiNPOX8YWWAP/qQdqRPKTHh4l6trKpbtXns1ndOLiaIOLaY0PNnAtxYbjwroTdP4cueK9tJn+LPRL4xehvEeGxcNyYh9v2ZKKbPGJOU1WS0d7tpsX8K/QBhSkf2xxtYXwtfpD28akJj7P7laGEPEJPgdHJ6Nd3YWMtW4cAyJevU3ak8Fz2OT1DOCiFFZ9uUlM3NmcREkrbrb6jL0CGGk0DLlGGdvmMd+2gTesKiz7lJ/chkCE/XeaLv2fRGk5t8Du99v2199vg8LOndJo9cp01E9haBA+lhbIZN40RI6FCrYo0ZhALSM0iGm9h5DRQkCgIlbmrGTkeHyDVIUswQUK5HlNRMaEvOVVlWec3icJ1++umdmbz2WSiRyFuGzyJC4TTwiMNIESSMpzbPefkIkWHgNmvMW3soBk6N+rRDHj1jRPvw+vzeLAI82hA7yMt6rxQZkyLqo3qLKFH3aynYsARmx23ixiNOHggz5CHyQ/2p5XvDdHvxe52y6RPUXWQMZdosMQWbgsqAMLhTWMcmUDwzEgp2MIEnMgoJoQ/hWSFES7WrRbHQ/gyEJl0o2jwIEHK8RCjBpDwE1+lDFi1PXVdL+RmcFZ+5zk19qluUGeIZimRtl4FStGA29Vdp2nt457yEfMLeNchiZC4CbhVyrc2//Y4MZtjU8keGsvvxPuJJw+uX8bKbYlwhMJoKjzF1f21Uu2W0qI/GpZYsVpcq1Aiitz03lafjloCVp3vVjfb6TfQ7bX7rfmek3vGOd+w9+JEkpAhZbd0YzfCq5bTL3E9+yGD1wH2IyR6GubytUDKZVt6tbd7SGBvpFSackcwMQZ9WARk7jfXlVd+mnff9ox/9aF8u/diy/dC8vFc5v+472ES7hwmiiMcm/UyYFqFtkPb0oOpbPd9e9q+r4Jk0xw4C+mV9rvFUiAl99hSZ2aIi7BNisCa8axKLnmH8Mh6YjJ6SV77ylb1uWKsa6X5FFisPvRHpOGwr6+hWU2XZ5HErZOBYfTKdpMhieNDfym4buy8dyDXGQHoOGWIwlm6vjunn6K6I2xrTxMHXv3F2MGlWxzddJjjAxkqdGrd4OMOX04DxbFadq/IgjY2bVqnSg03ysa9r356yp9XlMVm17o7ltcwxOmnphPQv72CTgo/gCMRBoCagS5cx8YPLsDKp9ldY9d7r9B3r2Efr6gmLPu+26UeLlnt43SafYx17eliuTf6mG5sEYQNzqjIZxrN4m/rcTT7vtud1nkMG/Zd4gR5kYXAjKMqom3pW5IOZWMQAktOmEpuomJQ9ChvhBVwxS6fKschxz2SpKSLH4LxOOc3gMixLAVrk/u01lBFEIq8GgzncKKqr5tfmfbR/r5Am+9nGLGtHhlIctQNKG6V/GTKh6ps2ZIJgm97tumVjNFg+Z+JlbPJjqg66b22yRknbbUwYOwgpBH8pplNlO+jHYW/ZIoNaXzNlPKyLg75Nv+bPvdQPhkFkPgKb6Hfm32XxK9QZyzdNnFG21ZtNvUt50x0sUZbvMrpDjZ+MPysdGIabFO9BXz9P/9nkPafyWvcd7Fa7P+HQCpHyCEMor2t0Tz1/jm8/Atugs20KJX0L0k6/x/g2fvlcRvRL9Hv6DU98k2GLyqq61aL5r3Od59Jns1lqpdgy+Umnb0XebWocWeb+86717umn7Fn92abHlXn3Z0/TmzhlLDohPS9P5+m/VssIfVarg6fSrVN3p/LchuM1jrIHTDDjATYt6/YdyriqfVTPtxu62hCnbdKPhmVb5vemngP2xsBttPWXwSPXbh6BY4Iw3jxsXT8Im8k0IBHezGb/hsSFuKY8nEqEthB/JXJsIHCQjI9j443t7VManHnGWi7K03MsNIgSCX/B65XwQEZKRYJAEAgCQWAaAStHxPQnvLanYnVbNSLkD3JjLCzZ9B1y5qAhEJ3toL3RPM/RgIBQCvZUsKrLyo+xCU4E5DOf+cw+zMVZh+IdtyGxjoZnTBmDQBAIAkcrAuc9pBydZRlRZDkELE02e26zBCL2oE0FKJtmrXmp2DjBkuwSoSRqmXEdy+fBRsAMMEkbO9jvedWnM8HEu81SaTGkrESgKPN2do53kOXTJp2Qy+Ka2gAjEgSCQBAIArMR4EkudIpNBsVitRybt7XxWOgQMaSFJLFpIbFyw8Rd5NhFIDrbsfvu8+T7h4BVskJRWAlpkzxes/prHu3CoYgdbZNaXqe8uoVhHCOV9+8JcucgEASCwMFFIB7Ga7xbg5iYTcPNmcayNBPKQ3CvlwWNlSXH9g6BeKvsHdZH652sUrDMzkZwJZZ/IozFDiwRe1DswIrFWsfzGQSCQBAIAuMIiDFP9xJvvgRpjDD2VyI2nrjl64T3qrzyefQiEJ3t6H13KfnRi4AQCFbg2vjZ9xIhVGpDaceEi7R5ntimkSAQBIJAENgbBOJhvAbOjA4B+g1cYnwZ1FqCx8Zvb3vb2/olNAwRXsmRYwuBeKscW+97laflQXHuued2NpIUA1V4CqsXkBk84fQhPN8e9rCHLRV3epWyJE0QCAJB4CAhYImzjazE8qSjXehCF+r1NDFIhaCwOaDNeyuG8UF69jzL8ghEZ1ses6QIAptAgFOEjWDZ03RgG+ZZWceT2Gb2b3jDG3ov49pUbxP3TB5BIAgEgSAwH4F4GM/HaKkraoMJs6AJQ7AUdAfy4nirHMjXuusPZbMQYvOsSBAIAkEgCGwGAUSxZc/0M0ueI0GgRSA6W4tGvgeB/UNAiDZ/Jvay8mP/3kPuHASCQBA4PhBsFgHeLP4iQSAIBIFVEQhRvCpySRcEgkAQmEZAqJ/3v//90xfkTBAIAkEgCOw7AuIY+4sEgSAQBILA/iJw3P7ePncPAkEgCASBIBAEgkAQCAJBIAgEgSAQBIJAEAgCQSAIBIFtQSCE8ba8iZQjCASBIBAEgkAQCAJBIAgEgSAQBIJAEAgCQSAIBIEgsM8IhDDe5xeQ2weBIBAEgkAQCAJBIAgEgSAQBIJAEAgCQSAIBIEgEAS2BYEQxtvyJlKOIBAEgkAQCAJBIAgEgSAQBIJAEAgCQSAIBIEgEASCwD4jEMJ4n19Abh8EgkAQCAJBIAgEgSAQBIJAEAgCQSAIBIEgEASCQBDYFgRCGG/Lm0g5gkAQCAJBIAgEgSAQBIJAEAgCQSAIBIEgEASCQBAIAvuMQAjjfX4BuX0QCAJBIAgEgSAQBIJAEAgCQSAIBIEgEASCQBAIAkFgWxAIYbwtbyLlCAJBIAgEgSAQBIJAEAgCQSAIBIEgEASCQBAIAkEgCOwzAiGM9/kF5PZBIAgEgSAQBIJAEAgCQSAIBIEgEASCQBAIAkEgCASBbUEghPG2vImUIwgEgSAQBIJAEAgCQSAIBIEgEASCQBAIAkEgCASBILDPCIQw3ucXkNsHgSAQBIJAEAgCQSAIBIEgEASCQBAIAkEgCASBIBAEtgWBEMbb8iZSjiAQBIJAEAgCQSAIBIEgEASCQBAIAkEgCASBIBAEgsA+IxDCeJ9fQG4fBIJAEAgCQSAIBIEgEASCQBAIAkEgCASBIBAEgkAQ2BYEQhhvy5tIOYJAEAgCQSAIBIEgEASCQBAIAkEgCASBIBAEgkAQCAL7jEAI431+Abl9EAgCQSAIBIEgEASCQBAIAkEgCASBIBAEgkAQCAJBYFsQCGG8LW8i5QgCQSAIBIEgEASCQBAIAkEgCASBIBAEgkAQCAJBIAjsMwIhjPf5BeT2QSAIBIEgEASCQBAIAkEgCASBIBAEgkAQCAJBIAgEgW1BIITxtryJlCMIBIEgEASCQBAIAkEgCASBIBAEgkAQCAJBIAgEgSCwzwiEMN7nF5DbB4EgEASCQBAIAkEgCASBIBAEgkAQCAJBIAgEgSAQBLYFgRDG2/ImUo4gEASCQBAIAkEgCASBIBAEgkAQCAJBIAgEgSAQBILAPiNw3ktf+tJn/dd//dc+FyO3DwIHE4GLXOQi/YOlje3t+73EJS7RnXnmmd2JJ57YvfWtb+0+85nP7G0BdvluV7va1bqTTz65u+xlL9u95S1v2eW7HZ79z/7sz3Z3u9vdus997nPdu9/97sNPrvHrPOc5T3eXu9ylO+WUU7r3vve93Yc//OE1cjt6kwaHo/fdKfk29T3bVJaj+62m9McKAvuts135ylfuTj311O64447r/uVf/mVp2G92s5t117rWtboLXehCh43P6QuWhnKrEqiXd77znburXvWq3T//8z93n/jEJ7aqfKsU5owzzuh+4id+ovviF7/Yvf/9718li61Ms9fPdctb3rK7xjWu0f3DP/xD9+lPf3orMUmhgkAQOLoROP7oLn5KHwSCQBA4EoEb3vCGvSLqDOX66U9/+pEXHcVHLne5y3XXv/71u/e9733dk5/85D17EkboPe5xj+7LvuzLustc5jLd6173up443kQBrnSlK3U3uclNdrK6/e1vv/P9WPoSHI7ut71Nfc82leXofqspfRDYfQS+/Mu/vLv3ve/dXfCCF+ye8pSnrHTDq1/96t33fM/3dCYeX/3qV+/kkb5gB4qj8stXfuVX9jqfwp977rndBz/4waPyOdpCX+c61+kudrGLdf/+7//e/emf/ml76qj+vtfP9aEPfai77W1v2+k/7nOf+xzV2KXwQSAIbCcCIYy3872kVEHgQCPwnd/5nf2MuIdEeH7qU5/a6PP+0z/9005+COPIZhDwniin3/zN39x94AMf2BhZrHS8ir/whS905z3veXuSfzMl7rrdrmvLlvO0007rvvqrv7r7m7/5m+73f//3j0i+WzgccaMc2BUEtqnv2aay7ArYyTQIHCAEeApe/OIX7574xCdufIXNQegLtm0sP0BV76h7FJ7JJkas3jznnHOOuvJvssC/+7u/293oRjfqrnnNa3YvetGLure97W2bzD55BYEgEAS6EMapBEEgCOw5AieccEIfesCNn/Oc52ycMKZA/eu//mtPaP793//9nj/fQb3hl770pc6S1x/6oR/q3vSmN230MXnM8JpWN/7sz/5sY3nvdl1btqBCelzykpfsXvrSl44SxruFw7LlzPWrIbBNfc82lWU1NJMqCBwbCHzTN31Tv8Lm85//fE/6bPqpD0JfsG1j+abfUfJbHIErXvGK3c/93M/1ev6xThjTy1/4whf23sXCxdHRHYsEgSAQBDaFQAjjTSGZfIJAENgqBN7xjndsVXkOSmF4Gf/BH/zBrjwOsvQgLLVcF5zgsC6C+5t+m/qebSrL/r6V3D0IbC8CSJ7zne98/WTpbu15kb5ge99/ShYE1kHg9a9/fXfPe96zX1F3latcpfvjP/7jdbJL2iAQBILAYQgcd9iv/AgCQSAIBIEgEASCQBAIAkEgCASBXUdAvGGbmZHf+73f2/X75QZBIAgcLAQ4chRJbFPsSBAIAkFgkwjEw3iTaCavILAlCHzt135td4Mb3KAz0/z1X//13f/8z/90f/u3f9v93d/9XffKV76y32Riqqg2TrDU66d/+qf7pfNiyv7bv/1b90d/9Efd85///O4jH/nIEUltgvbYxz62P26zFvexgZnQBeKM8Ug988wzu1vf+tbdD/zAD3S1E7kED3rQg3Zi4f7Wb/1W99d//deH5a/8J598cr/J2rd+67d2lmwKM+HvxS9+8Wisv2/5lm/p7n73u/f5nHXWWYc976/8yq90l770pfvnEQ7jR3/0RzsKVpVLDFkbcDzjGc/YKddhBVrwx+Uvf/nu2te+dqfMllLCzS7G3gMcP/e5z03m9HVf93X9TumW3fku7Tvf+c7uqU99avee97xnMp0Tw+f7yZ/8ye7EE0/srnCFK/Q7KPMyetzjHreDiY3sbnGLW3TuJVSCndnF11VGWAzlDne4Q3fZy162+4u/+IvDNhMc1oG3vOUtfYgJ94WFnbDFk37FK15x2GY8bf5nn312d/zxx3fPfvazd5Tf9vx3fdd3dT/zMz/T3987/vCHP9zvBO99ybeVZeqafH/5l3+5T25Tv6/6qq/qfv7nf76vv+rKb/zGb/R1rc3fxiY/8iM/0r9fdRRu3q9QHcPYxN/wDd/Qb2Yk/dd8zdf02ah3v/mbv9l/51H8gAc8oP/u3xgONjOycREcveNZcb8f+MAHdhe96EV7DGHZir5B2/S+leuzn/1sv0P5q171qr5v+N///d/28oW+V38hvvX973//7iu+4is6sZqvfOUr9/Gu//u//7tvr8oybN/DGyBP1Ff4w967sCnO29/+9u65z31u94//+I/DJP0mjIv0PxIO37X+zr1++Id/uLvUpS7Vt6+Xv/zlfciQupFzp556at8HHXfccZ025D2/4AUvqEt2Pmf1PXXRMvW40vhcNt0iZfE8Jx7CW6gUeIuh+tGPfrRv+3B4wxveMNpXDXGUDxy19e/+7u/u86gNR/V5U2LTI/EX9SlilKqP7373u3uMn/WsZ3Wr1Mepe+V4ENhGBLQl7YDMC/Vkw9tTTjml7wvoUe9///t3xuKPf/zjk483qy8Y9t/0tmtc4xr9+HeJS1yiu+lNb9q1MZBX6aPbgi2rny4zltd9NtWvjekCL3nJS7qHPvShnY3o6MX0yCmBpdjUxIaGY/rzVNpljy/7Xlq95ElPelL31re+dfKWxnM6w3/8x390973vfQ+7bhWb4bAMlvjx8Ic/vKOz0qkJfar0KL/p/Z/85Cd93ZFVbIhKvOyYW+lmfWrDv/RLv9RvTGl8pWu38uM//uO97WZM9I7olsZEOu4s/UnfQU80+aQuJCxFi2q+B4EgsA4CIYzXQS9pg8AWIsAwQNpSZksoWEhRf0gnhNPYxggUP2m//du/vZL2n9/2bd/W+bvuda/b3fzmN98hG+siyjnFmFCmKZQnnXRSne4ucIEL9N8vc5nL7FxXJ7/v+76vvh4Ru8/97nKXu/S7hu9cdOgLss0fQhbRNyQ2PXuV5/znP3+btDe0EBoMLRtnIKwpVyWUOX+IVor+UPms66Y+EafKdOMb3/iwfO18jpD6qZ/6qV4ZpNiOkX4UxGc+85k9UVb3QOT6U95f//Vfr8OjnxTcej7kKsK8hIH5jd/4jT12v/iLv9iTM09/+tN7crGuoaT6o7SefvrpvbJa53x+x3d8R4/tf/7nf7aHu7YOIPLFUlPXWkFGId9MZDCehuKdIYzHvKyQUeqCZbslMGU4wIWifL/73a8ro3mZugaXqi+I1sc85jG9ol73qfrrt2eAKeOplcKN8e07Ur4UduWs/CuNfPyR4caMYziYhPnBH/zBvk4xCF796ldXVod9em51jPz2b//2YecQgk972tN6g6tOIHdtwld1Xt2dNZlR6dpP8TeVmWFjgkOdqmdznX4FSaD/sYu3eJpT8mu/9mv9hFV73iaL/mzqog4Md1Rv696s/kee7bu+8IUv3D3sYQ/rieC6X7V/bQjxboIEYdJK9aXa5KMe9aj2VN/v1rse9j0uXLYeV+arpJvVD1a+97rXvfp+vX779K78qePaosm+qst1XYuj8QVWJgdLHPPO1FUY6xOG8v3f//3dQx7ykB2yrM4jqUw2mLRUH971rnfVqXwGgQOHQHkXG1NNgk6Jfgdh1uor+nt/dCXj9ZTM6gva/lu/Z/KNHlPCaaCVVfroSr+KfrrMWF732US/NqUL6AtNgtI5jAEmMof9Y5XDezEe6MN2kyx2v2Xfi4lq47VnsOfHFGFsfDVJQU+gm7ayqs3Q5rHMdzpQa9sYY2u8lQ/9sZVVbQh5rDLmtvce+17ty/hobG3HRW2ObUaHbKV0S/o8RxYE+Vh9oyMSk0/SzJqobfPP9yAQBILAPAQO71nnXZ3zQSAIbDUCDG3KPoWKcoqYsUyJws8oQeIiAp7whCf03r6tQkEpRJ4ii5GkL3vZy7o///M/7z7zmc/03qk2JEMCPfrRj+6J1E9/+tOjWCAikcuve93relL6fe97X+/h7GL35WWIiOA1QhCLFbOvJX6RW4gKxpFyKg/PV4oSpYtxRNl98pOf3BNJPI+XEcQQwvm1r31t98Y3vrFX6OWH6EVoMmyUcUgIzbsHz1MenETef/iHf9h7V1IQ5StWIa9b5KZnbwUxyZuVVwuvcKTgn/zJn/RGJG9WJDajgLfxPEHeXOta1+p+53d+Z8dLUB5IcGXh0apeULARpH/1V3/VE3vqCW9KxpIynnbIs2RZkV4dYFy8+c1v7j3UeVrf5ja36Qle3kuFzSJ5K/ev/uqv9pdSss85tCu2eiXPK13pSn1dUG7P9shHPrK/bpm61pbhwQ9+cI+/Tel4kvK2/MAHPrBzyZ3vfOe+/n7hC1/o6zKPD0QpT5frXe96vWeWd8z4L88jZb3VrW7V56GNaac8kyj/xLueJ7z8vSPGEYJ8ijBG9BP3bzcPRPBpu94945C3Ci9xx5H42jdjTBw8XsKriLzVX0Ycrxl1V1/i/SF7GabaNLzavqfuBbcyls4999y+7zKxg1iU3mQI/GDJ42ZMZvU/w+tNvuj3kJ08mPU5yuA+yqF9aM9WSPDAVm79I49811r5AEPPuYisUo/lu2q6eWW67W1vu0MW66/VF30LY9M99TcmH4wls/pBbcbYwDPeygJ9sYlA7d1YdKc73amv7y0ZZhLl8Y9/fD8BxGtcvbFqhLGrHiqbySCTM8iKSBA4qAjof8lYn1jPTB8xHtOHjAV0OxNnJlDpFfrHRzziEYeRyZV20U9jPkKaFymdiL5lnLPCo2SdPnpV/XTZsXyT/RpdbEwXsFLPqgw6I11rLD40ArAmA4wfuymrvhfl0k8jv3lNj+nR+mNkMfHcJZuyGSq/RT5NaNNZOa7AVl2lE5e0Dh7r2BC7MebSKzgS0JPoX3Twlvhlb9A7vAOOO695zWt6Pe57v/d7e12ePk+/MUaP7SNiUsJkv3rHxpjVnxRe+QwCQSAILIJACONFUMo1QeAoQIDyhvhDCCNzLXlqCdi//Mu/7D0OEYiMeKRm6+V5xhln9J6nlBXkXLs0kueBpVPIWUQg7w1/Y0JJowhZzjyUKo8lYiVmxSl9Q0HcIquRdbz8ynPUdRQjyhDymSJrKTPjZhnxHM973vN6I6vSKR+S3Aw+Yk5YDyRbq9TVtWOfjLlf+IVf6AlAhODQM08ZP/GJT3RIRwodxbdV0IVDUC6CtGtDG3heJJxl2gi0ecIrB4HTeoQUAer9wgxRybhqFUuEj+dA0iDHGKSWiS8j8lY/2vILpQFbxD/PTjgh0xeRIkGFfGjrnXJX2RkQiFQklGXsy9S1tgyIL22nvDXac7y/eT7CDbZtSALEJuyQ/ieeeGJPuBVhrDzl0V9YInTrWHuPWd8Zd+olkpxn8NikDQwIQln4CuJ9ItKVH2nHQGzbnLoKWysDEKTqCU/dZQXZx8DWl8CiBBkrPx7PRUrw3tG+S6wYuP3tb9//FJpGX1OCSNSfMKLUa+QlgnvME3pW/1P51ae+A/lrUoDw9EbC8BjjiQ8LRpt+svoA13g2bRHpiSxYlDBepR4r16rppJ0SRHAtlTYmIGxLavmrvpeBihjXfhEnY6JeMXarzbnGO1OnvEdeaLyjTPSUMPb1Lfq/293udjv9uzqtLflTJt6PJvfGCJnKK59B4GhGoFZjaC9jQk/Qf+tvEGLai/ZRYtJKf69/bFfg1PlFP+mF8r3jHe+4M4nfpl2nj15HP61+ZRG9cZP92ixdwNitfzRO6J/H+ifjNHIQ6T41wdviu+r3dd6LiVnOF8ZtxHCr91d5TBwSOlEbEm1TNkPdZ5HPcpagPxH61JQetY4Nsekxt1adqQ+8iq2sKZ2inrvuSbcQfq7EO6nJfbq/iYoxwpg+pK3QkapPqTzyGQSCQBBYB4Hj1kmctEEgCGwPAmLwFtnI44viMBQkEUWFcsvbo5ZMMzKQo8SS9TGlEYmAJCNIMyTUmCAFx8jisWtnHfMMP/ZjP9YT2y1ZXGl4pZXni2dfVpB+5Y06TEthI3DhQbKoUAAR8cqN2BwqhPJ54yHPHYLwE96hFenIC1/4wsPI1rqGsSiURRGBdXzs82Mf+9hhZHFdw5OwysWjsAjXOu+ziFyeCsPwJO11U9/Vn5YsruuUv8IRWK6+qFQZeMaOCeUadjww1o15yut3jCx2X0s4eeK4V0sWt2Ub8wp6AAAZtklEQVSqjUd4WDKSNynenXqrXlZdafPX/oU9Ia0nEA+VChdgEqMliyu96ysUCAN0VUH2tmRx5YOoFo6C6HtMKrSi3ehTpG3J4roGkVieRNokYnhMlul/ENhFFlde8G0JYCRntZe6Bn5F7ljtsKisWo9XTTerXCZsCGLXROOYmDgrY7zGh7Hr4Dg23phoLE/wYXuvvs8EmuXdQ+FNb+JFPR8jY4bX53cQOFoRMIlGhn1RPY++DjFJrIZoyeK6xpg1axVAXTfvk5dprfgaXrtOH72Ofjosx6zfm+zXZukCxoTyGkb0jenDNXlLHyqCc1bZVz23znuh01Rc3CpvWw46DJ2H1PP6vkmbQX67IevYEJscc+XFkcGEjMlo5RrqFCZVTY6SMT3X9RxnjIfCck1J9SHVp0xdl+NBIAgEgWUQ2Kw1u8ydc20QCAIbRaBIHmRikZJjN0AK8arjZVjkGm9XBCYRQmBKynA3S255+ZjwZN4rKaKhNhJb5r4InynitVXYliGMF7k/gqSkLbf78LwlRdjWde0nAqYtX3uu/T4Vj44xiBQjU17Zbf5Vpjbved/LC2Tsusrb844ZWWNpisClLPOu4HG1W8KTYx0pY1t70k42Kd7b61//+j7L8kZp869j6nYRdc4Xucwbp9pwm66+V33gDbOqWIkwJbAtr+KWMIZVTfrM6j+QktV+LO8ck1nph9cXGTo8zogm8G43e2qvE2aEMAIXlVXr8arppsqlXlbseJNG7SqHNg0jlcc1QfBOeS3Nau9FbvFCbqUmqoREGYtT316b70HgoCKAKKqJ+7GJcc9d5BV9xWqQKZml902laY/rW6uvaY/7vm4fvY5+OizL1O9N92vzdIGa/KbL1IRsla0NR9FO3jrvHDxn/VWdqPymPtd9L/ItItgE3XCS27hsJQ7vVattSjZpM1Se+/E5ZUNUO1hX5+Tta+KVnmBvhyknFbpGTboKA7fIKsIxvKoPCWE8hk6OBYEgsCoCu2d1r1qipAsCQWAlBIrYRMgVKbNoRpXW9ZZ622xoTFqiDuFTZEB77Zj3Ynt+2e9IRfH7KOS8bCheDAOflLFVpZSzsfRFSjk33PBl7PqxYzwwEG88EC3VV15LSofESaUtjzu/W7KvzrefQnIMPfba874XcTk87ncRtRUeYXiNJZQldW39XuRTrNcpKWyHhsnU9Y5bMs+YgSMPWaELePIixXnviOm4KVnUE8gSTu+WMc+gqvdbpO2myjPMh/FpeT8vf8ZiG5aiPITKAKy0tZRXnbzrXe9ah4/4LNLWRAaDo7xVjrhw4gCjsiYExi5BQArpgOwtEsR1PI6rbxHDb4qYdC2cibY1FiJhmf5n6vmqznueoSdQf/ND/+p4XVvHZ32uWo9XTTdVFnhXuYcbLg7TtIS5cEdjGzfNau8VU3LYjyK+EPaIa0uHjTu8w3m7IWqsIIkEgYOOgAmTkiKv6nd9lm6gb61J/jrXfmqbCCNj0yqiP6x+bZh+3T66dMxV9NNhWaZ+b7pfm6cLeBY6CHLPuN9OxoqBS0/V/w0dAITP4rAxS/SPszxJK+2670U+VoNZuUaPEfKqJcorHIVVN61OWe9T+nVtBnnsphjrlrUhNjHm8szm/c3pQrsUi3uWPOlJT+o3tfZOrbIyrprQrTGxxtJZeVQf4l1GgkAQCAKbQiCE8aaQTD5BYJ8RKMNjjMSdV7R2NtqGZIvI1JLwRdIueo3lheKkIVo3LVOG0br34T1ip2Oknu+LSuHJ06DdHGosfXk3jp3bhmMt4byJ8iD3GVhiC4t9Shm2YaE/75FCLYyIkA27LUgzm6Uhuop02+17tvlbqi8Ui3Lw2qowEjYAPOGEE3pv0fJ8qnSI9hKxgxcR9XGKUJ1Kr++Z8latNOouwpgBV9L2P55rkTJWe6k8jobPVevxqummMGmNyXl9SUsGt+navKdWarTXDL+b1LSBkXisNuxCcvHmKm94sTJNjljCi7iPBIGDiIBJvJKpel593SK6nfYqBNGmZd0+eh39dNFnafunTfRri9zX5GwRxkL7lF5Zk7d0klkk/yL3mHXNuu9F3iad33goVBrdX7mLMJ4KRyFNe99tshmUrZVVbYhNjLntKirjG5tgOJnflrVCjtk3QJ0SXsyfCVXOHd6R8E/l/dymre+lf7X9Sp3LZxAIAkFgVQRCGK+KXNIFgS1DoGaWES7LCpKyxIZopXTUsfaTEokgaImE9vymvt/tbnfrbnSjG/XZ8dwQKsNScR6q9ffEJz6x97Lc1D3XzYeSJoYrz1OkKQVPjFBej95PedfyJBhKxWO2RLU8U4bX1O82lEUdO+if6pu6SfFGGlOo7S7Pe5ZnrD/1od0sZNOYIGS9O8bSpz71qZ6g5qGJWPVueYAoB2J7t4RBaqMaRgXjrgjj8mzmkdJ6AimHspZoV1NSbdv51rN06vrhcZ4x86Suab3CWy9pBtFUOBV5Vxlr6eW8+23b+VXr8arpxp6/9VSa5c0tbdvXtPVoLN9ljxl3bGz32Mc+tt8k0qZL/hjaSDKEsvZkAm5qNcSy98z1QWCbELDXQMlU+KfSDdq2WGmGn4tcM0yzyO91++h19NNFyuea/ejXyjuXxy29T1gnjgI18TUMR6GcU3tUOFfS6uR1bOxz3fdSeSon4pdXrH1O6PiXv/zlO0S/sbaN6y9NW75tsRnqWepzXRtiE2OuTbNPOumkfhLHHgwmQiscU5Wz/RQCyp94xle5ylV29Fwrq2zoqF7xBrcaZ0xqBVbbr4xdl2NBIAgEgWUQCGG8DFq5NghsMQK1VNiMNIV1yltl7BHaZdyUpHkhEcby2OQxS+0tcyMU2fvd736j2XvmeaEZRhPu0kFkB6OB2JzmFa94xRF3miJoahMtCXiLTsVXdX6dUBzSH83CeFEn/PHwpVTzQrfh221ve9v+eBnYm35OHiLIYpMBp5566mj4hSJEN33vNj9eKghjz26CgfFWHk1wGUr1DYz2sd21h9ev+ttEB8O5JYOHeZVncRtyoMrnWml3s4zD8uzX71Xr8arp2udsl1prN8Ml0+21bV/Tvqf2mnW/G6sswa74rMKV3PrWt+7D0KjjJkOGXvPr3jPpg8A2IKBPNkEvJM9UKInSDUyi1ITZWNn1vxV+aOz8Osfatr9KH13pV9FPFy33fvRrSGqOAcg8YzDC+IpXvGI/6f+BD3xgVI8zoTuc1F30GYfXFa6Or/JeKj9exVa2mXCgx9oLoMJRiF08tCe2zWao56jPTdoQq465nFye/exn97GfTYRb6fWwhz2su+lNb9rNI3StJhAWw5941nRPeq5JJQS90F1jUl72bVsYuy7HgkAQCALLIHDcMhfn2iAQBLYXgVpGhiy+3OUuN1lQBCuy65RTTtnZbAU5WUvpivCczGDDJyp2aZutOGoVzoGiNSYU220ii5VR3DpCWXv1q1/dfx/+4zE3JpbA1dLFWUtKKYy1RHUsn2PpmDorlrFdp0tmYTdW1yrdIp9XutKV+ssYiFOxetXdRaTq9yLXDq8xqcPrnke7sBRIWHWCl3ORbm2at7zlLf1PdWcqhnZ7/TrfZ+HPa6YMmiJB3IvRW0uIpzazW6dM25522Xpcz7NqOv2TOkRmjRXO13hgEgYBshdiMuHe9753vyrD/Xi6RYLAQURAG0ZIkSnCuCbXjBntMvchHrWR5fD4Jn6v20evo5+OlX9sLN+vfq3CDJjYMoldk7dWAnm/uynrvpcqm3LWcyCKPQdvY1LH61qf+2kztOUYqwfO75YNscyYWxvwekf3uMc9+lUyVoDy4J4qd/ts9Z1d8OIXv7h71rOe1R+yl0sbZqyu81mrFDY1IdHmne9BIAgcuwiEMD52332e/IAhYBlTKQn3ve99R40PBNNDH/rQ7o53vGN3tatdbYegRAaIA0ssp58ilXgePOc5z+n/kD+rSruMbri7tDxr+aLvU3FixfXaNqmQEzZ4GgvrwVNgKj6rJYDvfOc7+0fiXcfLeCiweMADHtAThcNzB/U3j2wbgPgrj5fhs7abPA6J3Hl1bZjXrN/1fqfqpHZjc75ZUsv65xF1s/Jwrow4xmmFoxCeYugJ5Fokct1X3zBFVt/sZjfr27ZdvXmyrSKWS46FxXFPdZcILzCMw1cTLDbcRIKPCe/upz3taX0Zp+rCWLptOLZqPV413bxnLrxhLRb4mKhXPOeI6zdJfpjk0aZtYDkmvPgrNnKR2+11SOSxPrK9Jt+DwNGAQMWKP+FQyKMxQRhXCAD99wUucIEjLjMRd8973vOI45s8UH3GKn30OvppPcMiY3mVcS/7NeEBkNVW1wiVRbcme7Uqop55lfdS2PosnQJRjHA13k6FUNhrm6Etp+9VF2A+FoZlHRtiN8ZcBPsjHvGI/jE4jdz5znc+7JGspDEeCnk21Q9UWCbP1j5fm1GlVR+nJGPnFDI5HgSCwBQCq1mEU7nleBAIAvuGgFnou971rj0JjLiinFBCkMTIGkrK/e9//37pvkLWbHUV+D73uU8fa9fMtZiSiK+ara7lXQ9/+MP7cAg8YhbZgKXyHn62pJ44xcqGoCqSyrK+ikd3r3vdq/cwqxl5RLVYYCeffPLWxbVkFBHGGw+5Wn6v7Je97GU7RNwsDyGbqSElhRnw/pBiYpIhKBGM8rzyla/cx3IeYnpQf/POQFQxxBjL6nRLePIyV0cID8ghETmvri2DW71fBhUP/TJUGPDKhcw0KTBLqjzKrQ4zyqpuz0o3PPfa1762J4fd93rXu15/eiwchRPIYh4uyGRtzbJIn4UjA+lOd7pTv+RRCAIb6xVZN7zvrN+MOJMl4tIymtVjz8ZAQRaXt6p+pEiSyu+cc87pN9uRHpnomWp5tXLy7hajWjtASIvVfDTJqvV41XTzsIF3YYhosjlQTRQywuFvTCA81Mfirs+7x6zziAht+uY3v3n/V7EXpbHJqTatH9X2h5tZmlATK752sp91n5wLAtuOQE0U0xHGBFl81lln9W2BTqH/vsIVrtD338Yb5Kg+Vxsqb+WxfNY9tk4fva5+quw1dvo+pjc6vh/9mrGyyGH9ktAgb3/729fSkT3LorLOe2nvYZWb+Lr6XTo2KRK5va6+76XNUPesz7YuCEVW4VpqMn8dG2K3xtyXvOQl3Utf+tL+EW54wxt217nOdepx+n0bhGKil9H96WH1LC6i9xsryRsPrXAbcwy45CUv2fcBrpmKk5yxEzqRIBAElkUgMYyXRSzXB4EtRoCSeuaZZ/ZexIxxGy6U92V5pTDAKbWW8rfCY4DnsVluceaQOhRhBkjtcO168Y3X9WRBFphxt4TSEvYiI+RrExHeuY9//OP7zR14ICsvIpXXGWWWiBFM6WpjbPYn9vEfspK3h81DKIP+xIVjQFSsWZ4FiK8xQcJT1L03yt+DHvSgHgsGYxEqz33uc3uivJTHsXwO2rGzzz67r48mM2DD00JIA7+RihRrHhUmRIYyr64Nr5/1m/F0zWtes69zCFZ/SGoEG6LTBniPe9zjemJ7Kh8GQ3kEqwv+pKsNHqfSDY/zMBF7Vl6Ia16YjKQpedOb3tTXJ6Q7gsEfHBnyVbekZfiuunGguv7IRz6ye9SjHtUbPfL3p/6XvOAFL9gxmuqYTwaQzc30P9p0Gaxi/Zm4gi8xkWQztJpQ6g8eJf9WrcerppsFiz7WJIK+SBgQ2BOrVKqP9Vt/b/OgMQPV+VXl+c9/fm8Em0TgZXy7292u32jRpKHJFJME6s5jHvOYI2Ji2+yyhCccAzoSBI5WBKwAEZMU6UVPK52tfZ7Xv/71fb98q1vdqp88M4Fmgs6EHKcAep3VHaeddtro6rI2r1W/r9tHr6OfKvMiY/l+9Wt0A6HeSqYmb+v8Jj/XfS9tWZTbeED/bInw9pr6vpc2Q92zPk0iWg1Jd7nuda/b/znHycIYtq4NsRtjrvKZ7LFvALtGLGKbCyN3TerTbY217C8rOel4SHzjYY3JdDz20JjUhBOdrsJhDK/L2DlEJL+DQBBYBIF4GC+CUq4JAkcRAoxnSkeRRwyQMkLEPeWF/JSnPKU3MIaPhRywsQIymbLIeC+yGCFHibLZVoW+GKZf9DfjBiFEOW2JH8dL7CTNAEKmKQvFkNL0wQ9+sCesa6a+rt+GT+XnBYwAp0wTZB6ymJfe6aef3lU8wqnyWt6IyKmNBxmEnh1xhkBGxh1rot4iVJGZcGAg8zTlEckbBEl/k5vcpMd4iM0idW2YZuo3r9hb3vKW/f0qPIV4cghrGxwiver4VB7erzqiXjNqSFvvp9KNHW+N0vb72LWOuUa7q/jBcCyy+F3veld/DqG8anncgxf2bW5zmz68ivyLLIaLfgehPCWMJmQwT5xagq3/QRYjUV70ohd1QtFMec9M5bstx1etx6umm/fcMDZJqK+tkCVlmMJbH3uHO9xhbp2ed5+x88YQ5Bfj16SLNmSiQJgJ97ZhkLaGWB6KuPaM6Q996EPdy172suHp/A4CRxUCJvOQPPStWaGKtBUTkrVhlpVf+lh9t7FnLzYLXbePfuMa+umiY/l+9Gv0tRpXEbgcH/ZS1n0vVVZhrUzUEXGn283t6pr2c69shvaevtPF6ArGiSrv8Jp1bIjdGnPVDfq98mu7HHPKxqL3mPCxwstkkIlyDjU+OQQ8/elP722Isi2Gz1sxzL03/cmYZOwcQyXHgkAQmIfAeU466aQvmbWNBIEgsHkEeIyQ/WpjNlHhgckAp3AsQwQxRqRFNjPo1yWJZ6FrCTJidGo5pbLAkgfjPAV21n32+pyl/pe4xCV6/KaebVaZkM28Vz03JXGZ9zcr36P9HFKLB4xlicvWy3l1bVFsEFzCo1gSbMO2KQV9Vn4IAm3UpAlDYi8Fhto30ppnuz5iVWG4iX+sj7nBDW6wkw0ymreMum8H92WekYepui9kh7Ta/UGr/6vW41XT7byYkS/wFuqD1z5jdtn3NZLlUoeMM5bbI8MQwfOEsa0+HbQ6Me+5c353Edgvnc1EsFUfSCMTw7OErqRvRDTpu5cdA2flvcy5dfvodfRT5VxkLN/Lfs3KHAQfsnjdVXjLvIfhteu+l2F+i/7eS5thWCZ1CXFcE83D8+vaELsx5g7L2P6mX9LP3JcX8jz90vU2WWRzWH05y6EmY2eLdL4HgSCwCAIhjBdBKdcEgRUR2C/jY8XiJlkQCAJBYGkEpgjjpTNKgiAQBILAPiKwXzrbVa961X71Bc95Ia2WmVzbR7hy6/+HgNizFVrNygjhNyJBYK8QsCG58FL6j+tf//qTzjd7VZ7cJwgEgYOFQEJSHKz3macJAkEgCASBIBAEgkAQCAJB4ChBQBxjm1Bafm4j08jRg4CVRsLAEeEAQhYfPe/uoJT02te+dv8oSONVVjMeFBzyHEEgCOwOAiGMdwfX5BoEgkAQCAJBIAgEgSAQBIJAEJiLgPjuPIttAimsQGS7EeBJLITIi1/84j7+utBSNmuOBIG9REDsf5sxi2Vun4dIEAgCQWDTCIQw3jSiyS8IBIEgEASCwDGEgLiB4mhaDhkJAkEgCASB5RF473vf2z3nOc/p49pf61rXWj6DpNhTBMR7t5eC2LnvfOc7u1vc4hZH7YasewpcbrZRBExc2FT4EY94RL9B+EYzT2ZBIAgEgUMIJIZxqkEQ2EUE9ise3i4+UrIOAkEgCASBIBAEgsCBQyA624F7pbv2QMKH+LNBqM1jI0EgCASBIBAEDiICxx/Eh8ozBYEgEASCQBAIAkEgCASBIBAEgkAQ2DQCVtRkVc2mUU1+QSAIBIEgsG0IJCTFtr2RlCcIBIEgEASCQBAIAkEgCASBIBAEgkAQCAJBIAgEgSCwTwiEMN4n4HPbIBAEgkAQCAJBIAgEgSAQBIJAEAgCQSAIBIEgEASCwLYhEMJ4295IyhMEgkAQCAJBIAgEgSAQBIJAEAgCQSAIBIEgEASCQBDYJwRCGO8T8LltEAgCQSAIBIEgEASCQBAIAkEgCASBIBAEgkAQCAJBYNsQCGG8bW8k5QkCQSAIBIEgEASCQBAIAkEgCASBIBAEgkAQCAJBIAjsEwI9YXz88cfv0+1z2yAQBIJAEAgCQSAIBIEgEASCQBAIAkEgCASBIBAEgkAQ2BYEesL4fOc737aUJ+UIAkEgCASBIBAEgkAQCAJBIAgEgSAQBIJAEAgCQSAIBIF9QqAnjC94wQvu0+1z2yAQBIJAEAgCQSAIBIEgEASCQBAIAkEgCASBIBAEgkAQ2BYEesL4Qhe6UJewFNvySlKOIBAEgkAQCAJBIAgEgSAQBIJAEAgCQSAIBIEgEASCwN4jgCM+7lOf+lR/54tc5CJ7X4LcMQgEgSAQBIJAEAgCQSAIBIEgEASCQBAIAkEgCASBIBAEtgIBHPFxH/vYx/rC8DK+8IUvvBUFSyGCQBAIAkEgCASBIBAEgkAQCAJBIAgEgSAQBIJAEAgCQWDvEMAN44iP+9znPtd95CMf6e98sYtdLKTx3r2D3CkIBIEgEASCQBAIAkEgCASBIBAEgkAQCAJBIAgEgSCw7wggi3HD5Hj/PvGJT3THHXdcd9GLXrQ/cf7zn7/jefz5z3/e6UgQCAJBIAgEgSAQBIJAEAgCQSAIBIEgEASCQBAIAkEgCBwwBMQsFoaCZzH56Ec/+n8JYz8+/vGPd1/84he7i1/84v0FLvrkJz/ZiXH82c9+NuQxkCJBIAgEgSAQBIJAEAgCQSAIBIEgEASCQBAIAkEgCASBoxgBJPH5zne+7oIXvOAOUexxRKHgWPx/AGKZII4ervK/AAAAAElFTkSuQmCC;" vertex="1" parent="1">
          <mxGeometry x="-480" y="1280" width="640" height="234.38" as="geometry" />
        </mxCell>
      </root>
    </mxGraphModel>
  </diagram>
</mxfile>
